<?xml version="1.0" encoding="utf-8"?>
<!-- Generator: Adobe Illustrator 26.5.0, SVG Export Plug-In . SVG Version: 6.00 Build 0)  -->
<svg version="1.1" id="Layer_1" xmlns="http://www.w3.org/2000/svg" xmlns:xlink="http://www.w3.org/1999/xlink" x="0px" y="0px"
	 viewBox="0 0 820 430.8" style="enable-background:new 0 0 820 430.8;" xml:space="preserve">
<style type="text/css">
	.st0{fill:#2A74BA;}
	.st1{fill:#FFFFFF;}
</style>
<path class="st0" d="M60.5,0.1h700c33.1,0,60,26.9,60,60v310.8c0,33.1-26.9,60-60,60h-700c-33.1,0-60-26.9-60-60V60.1
	C0.5,27,27.4,0.1,60.5,0.1z"/>
<g>
	<path class="st1" d="M70.6,69.8c-0.3,1.7-0.6,3.3-0.9,4.9c-0.1,0.5,0.4,0.9,0.8,0.9h11.1c0.5,0,0.9-0.4,1-0.9
		c0.3-1.6,0.6-3.3,0.9-4.9c0.2-1.2,0.4-2.3,0.6-3.4c0.3-1.9,0.6-3.7,1-5.6c0.3-2,2.3-3.6,4.2-3.6h7.2c-0.6,3.1-1.1,6.1-1.6,9.2
		c-0.2,1.2-0.4,2.3-0.6,3.4c-0.5,2.6-1,5.1-1.4,7.7c-0.3,2-2.1,3.6-4.2,3.6H61.5c-1.9,0-3.3-1.6-2.9-3.6c0.5-2.6,0.9-5.2,1.4-7.7
		c0.2-1.2,0.4-2.3,0.6-3.4c0.2-1.5,0.5-3.1,0.8-4.7c0.3-2-0.4-3.7-1.9-4.5h13.4c-0.6,3.1-1.1,6.1-1.6,9.2
		C71,67.5,70.8,68.6,70.6,69.8z"/>
	<path class="st1" d="M99.9,57.1h13.3c3.7,4.2,7.3,8.4,11,12.6c0.2-1.1,0.4-2.2,0.6-3.3c0.3-1.9,0.6-3.8,1-5.6
		c0.3-2,2.1-3.6,4.2-3.6h7.1c-1.2,6.8-2.4,13.6-3.6,20.4c-0.4,2-2.3,3.6-4.2,3.6h-6.8c-3.8-4.2-7.5-8.4-11-12.6c-0.6,3-1.1,6-1.6,9
		c-0.4,2-2.3,3.6-4.2,3.6h-7.2c1.1-6.5,2.2-13,3.4-19.5C102.3,59.7,101.7,58,99.9,57.1L99.9,57.1z"/>
	<path class="st1" d="M146.3,81.1h-7.1c1.1-6.5,2.2-13,3.4-19.5c0.3-2-0.3-3.7-2-4.5h13.6c-0.1,0.4-0.2,0.8-0.2,1.2
		c-0.5,2.7-1,5.3-1.4,8c-0.4,1.8-0.7,3.7-1,5.5c-0.3,1.9-0.6,3.8-1,5.6C150.2,79.5,148.2,81.1,146.3,81.1L146.3,81.1z"/>
	<path class="st1" d="M156.5,77.5c0.1-0.7,0.3-1.3,0.4-2c0.6-3.5,1.2-6.9,1.8-10.4c0.2-1.1,0.4-2.2,0.6-3.2c0.3-2,0-3.7-1.9-4.7h34
		c-0.1,0.6-0.2,1.2-0.3,1.9c-0.4,2-2.2,3.6-4.2,3.6h-16.1c-0.5,0-0.8,0.3-1,0.7c-0.1,0.1-0.1,0.1-0.1,0.2c-0.2,1.1-0.4,2.2-0.6,3.2
		c-0.5,2.7-0.9,5.3-1.4,7.9c0,0.1,0,0.1,0.1,0.2c0,0.4,0.3,0.7,0.8,0.7h19.6c-0.2,0.6-0.3,1.2-0.4,1.9c-0.3,2-2.1,3.6-4.1,3.6h-24.2
		C157.5,81.1,156.2,79.5,156.5,77.5L156.5,77.5z"/>
	<path class="st1" d="M194.1,75.6c0.8-4.7,1.7-9.3,2.5-14c0.3-2-0.3-3.7-2-4.5h34.2c-0.1,0.6-0.2,1.2-0.4,1.9
		c-0.3,2-2.3,3.6-4.4,3.6h-16.9c0,0.2,0,0.4-0.1,0.6c-0.1,1-0.3,2-0.5,3v0.3H224c-0.1,0.6-0.2,1.2-0.4,1.9c-0.3,2-2.1,3.6-4.2,3.6
		h-13.9v0.1c-0.1,0.6-0.2,1.1-0.3,1.7s-0.2,1.2-0.3,1.8v0.1h20.6c-0.1,0.6-0.2,1.2-0.3,1.9c-0.4,2-2.3,3.6-4.4,3.6h-24
		c-2,0-3.4-1.6-3-3.6C194,76.8,194.1,76.2,194.1,75.6L194.1,75.6z"/>
	<path class="st1" d="M242.9,73.8c-0.1,0.6-0.2,1.2-0.3,1.8c-0.2,0.6-0.3,1.3-0.4,1.9c-0.1,0.7-0.4,1.3-0.9,1.9
		c-0.8,1-2,1.7-3.1,1.7h-7.3c1.1-6.5,2.2-13,3.4-19.5c0.3-2-0.3-3.7-2-4.5h34.2c-0.1,0.6-0.2,1.2-0.4,1.9c-0.3,2-2.3,3.6-4.4,3.6
		h-16.9c0,0.2,0,0.4-0.1,0.6c-0.1,1-0.3,2-0.5,2.9v0.3h17.5c-0.1,0.6-0.2,1.2-0.4,1.9c-0.3,2-2.2,3.6-4.2,3.6h-13.9v0.2
		C243.1,72.7,243,73.2,242.9,73.8L242.9,73.8z"/>
	<path class="st1" d="M289.7,81.1c1.1-6.5,2.3-13,3.4-19.5c0.3-2-0.3-3.7-1.8-4.5h13.4c-0.6,3.1-1.1,6.2-1.6,9.3h12
		c0.3-1.9,0.6-3.8,1-5.6c0.3-2,2.2-3.6,4.1-3.6h7.2c-1.2,6.8-2.4,13.6-3.6,20.4c-0.3,2-2.2,3.6-4.2,3.6h-7.1
		c0.5-3.1,1.1-6.2,1.6-9.3h-12c-0.3,1.9-0.6,3.8-1,5.6c-0.3,2-2.1,3.6-4.2,3.6C296.8,81.1,289.7,81.1,289.7,81.1z"/>
	<path class="st1" d="M330.1,75.6c0.8-4.7,1.7-9.3,2.5-14c0.3-2-0.3-3.7-2-4.5h34.2c-0.1,0.6-0.2,1.2-0.4,1.9
		c-0.3,2-2.3,3.6-4.4,3.6h-16.9c0,0.2,0,0.4-0.1,0.6c-0.1,1-0.3,2-0.5,3v0.3H360c-0.1,0.6-0.2,1.2-0.4,1.9c-0.3,2-2.1,3.6-4.2,3.6
		h-13.9v0.1c-0.1,0.6-0.2,1.1-0.3,1.7c-0.1,0.6-0.2,1.2-0.3,1.8v0.1h20.6c-0.1,0.6-0.2,1.2-0.3,1.9c-0.4,2-2.3,3.6-4.4,3.6h-24
		c-2,0-3.4-1.6-3-3.6C330,76.8,330.1,76.2,330.1,75.6L330.1,75.6z"/>
	<path class="st1" d="M382.7,73.8h-3.8c-0.2,1.2-0.4,2.5-0.6,3.7c-0.4,2-2.3,3.6-4.4,3.6h-7.1c1.1-6.5,2.3-13,3.4-19.5
		c0.3-2-0.2-3.7-1.9-4.5h32.6c1.9,0,3.3,1.6,2.9,3.6c-0.6,3.2-1.2,6.3-1.7,9.4c-0.4,2-2.2,3.6-4.2,3.6h-2.3c1.8,2.4,3.8,4.9,5.8,7.3
		h-9.8c-0.9,0-1.5-0.3-2.3-1.2c-1.4-1.6-2.6-3.2-3.9-4.9C384.8,74.2,383.9,73.8,382.7,73.8L382.7,73.8z M392.1,67.4
		c0.2-1.3,0.4-2.6,0.7-3.9c0.1-0.5-0.4-0.9-0.9-0.9H381c-0.3,1.9-0.7,3.8-1,5.7h10.9C391.4,68.3,392,67.9,392.1,67.4L392.1,67.4z"/>
	<path class="st1" d="M444.1,60.7c-1,5.6-2.1,11.2-3,16.8c-0.3,2-2.2,3.6-4.2,3.6h-27.1c-2,0-3.4-1.6-3-3.6c1-5.6,2.1-11.2,3-16.8
		c0.3-2,2.2-3.6,4.2-3.6h27.1C443.1,57.1,444.5,58.7,444.1,60.7L444.1,60.7z M418.7,75.6h11.1c0.4,0,0.9-0.4,1-0.9
		c0.6-3.7,1.3-7.4,2-11.2c0.1-0.5-0.3-0.9-0.8-0.9h-11c-0.6,0-1,0.4-1.1,0.9c-0.7,3.7-1.3,7.5-2,11.2
		C417.8,75.2,418.1,75.6,418.7,75.6L418.7,75.6z"/>
	<path class="st1" d="M447.2,75.6c0.8-4.7,1.7-9.3,2.5-14c0.3-2-0.3-3.7-2-4.5h34.2c-0.1,0.6-0.2,1.2-0.4,1.9
		c-0.3,2-2.3,3.6-4.4,3.6h-16.9c0,0.2,0,0.4-0.1,0.6c-0.1,1-0.3,2-0.5,3v0.3h17.5c-0.1,0.6-0.2,1.2-0.4,1.9c-0.3,2-2.1,3.6-4.2,3.6
		h-13.9v0.1c-0.1,0.6-0.2,1.1-0.3,1.7c-0.1,0.6-0.2,1.2-0.3,1.8v0.1h20.6c-0.1,0.6-0.2,1.2-0.3,1.9c-0.4,2-2.3,3.6-4.4,3.6h-24
		c-2,0-3.4-1.6-3-3.6C447,76.8,447.1,76.2,447.2,75.6L447.2,75.6z"/>
	<path class="st1" d="M506.6,75.6c0.6,0,1.1-0.4,1.2-0.9c0.1-0.6,0.2-1.3,0.3-1.9c0.1-0.5-0.2-0.9-0.7-0.9h-19.1c-2,0-3.4-1.6-3-3.6
		c0.3-1.6,0.6-3.2,0.9-4.9c0.1-0.6,0.2-1.1,0.3-1.7c0.3-2-0.1-3.5-2-4.5h36.1c-0.1,0.6-0.2,1.2-0.4,1.9c-0.3,2-2.1,3.6-4.2,3.6
		h-18.1c-0.5,0-0.9,0.4-1,0.9c-0.2,0.7-0.3,1.3-0.4,1.9c-0.1,0.5,0.3,0.9,0.7,0.9h19.2c1.9,0,3.3,1.6,2.9,3.6
		c-0.5,2.5-0.9,5-1.3,7.5c-0.4,2-2.3,3.6-4.2,3.6h-29.9c0.1-0.6,0.2-1.2,0.3-1.9c0.4-2,2.3-3.6,4.4-3.6L506.6,75.6L506.6,75.6z"/>
	<path class="st1" d="M559.6,73.8h-3.8c-0.2,1.2-0.4,2.5-0.6,3.7c-0.4,2-2.3,3.6-4.3,3.6h-7.1c1.1-6.5,2.3-13,3.4-19.5
		c0.3-2-0.2-3.7-1.9-4.5h32.6c1.9,0,3.3,1.6,2.9,3.6c-0.6,3.2-1.2,6.3-1.7,9.4c-0.4,2-2.2,3.6-4.2,3.6h-2.3c1.8,2.4,3.8,4.9,5.8,7.3
		h-9.8c-0.9,0-1.5-0.3-2.3-1.2c-1.4-1.6-2.6-3.2-3.8-4.9C561.8,74.2,560.9,73.8,559.6,73.8L559.6,73.8z M569,67.4
		c0.2-1.3,0.4-2.6,0.7-3.9c0.1-0.5-0.4-0.9-0.9-0.9h-10.9c-0.3,1.9-0.7,3.8-1,5.7h10.9C568.4,68.3,569,67.9,569,67.4L569,67.4z"/>
	<path class="st1" d="M595.6,69.8c-0.3,1.7-0.6,3.3-0.9,4.9c-0.1,0.5,0.4,0.9,0.8,0.9h11.1c0.5,0,0.9-0.4,1-0.9
		c0.3-1.6,0.6-3.3,0.9-4.9c0.2-1.2,0.4-2.3,0.6-3.4c0.3-1.9,0.6-3.7,1-5.6c0.3-2,2.3-3.6,4.2-3.6h7.1c-0.6,3.1-1.1,6.1-1.6,9.2
		c-0.2,1.2-0.4,2.3-0.6,3.4c-0.5,2.6-1,5.1-1.4,7.7c-0.3,2-2.1,3.6-4.2,3.6h-27.1c-1.9,0-3.3-1.6-2.9-3.6c0.5-2.6,0.9-5.2,1.4-7.7
		c0.2-1.2,0.4-2.3,0.6-3.4c0.2-1.5,0.5-3.1,0.8-4.7c0.3-2-0.4-3.7-1.9-4.5h13.4c-0.6,3.1-1.1,6.1-1.6,9.2
		C596.1,67.5,595.8,68.6,595.6,69.8L595.6,69.8z"/>
	<path class="st1" d="M625,57.1h13.3c3.7,4.2,7.3,8.4,11,12.6c0.2-1.1,0.4-2.2,0.6-3.3c0.3-1.9,0.6-3.8,1-5.6c0.3-2,2.1-3.6,4.2-3.6
		h7.1c-1.2,6.8-2.4,13.6-3.7,20.4c-0.4,2-2.3,3.6-4.2,3.6h-6.8c-3.8-4.2-7.5-8.4-11-12.6c-0.6,3-1.1,6-1.6,9c-0.4,2-2.3,3.6-4.2,3.6
		h-7.2c1.1-6.5,2.2-13,3.4-19.5C627.3,59.7,626.7,58,625,57.1L625,57.1z"/>
	<path class="st1" d="M665.7,72.8h10.8l-0.5,2.8c-0.1,0.6-0.2,1.2-0.4,1.9c-0.3,2-2.3,3.6-4.2,3.6h-7.1c0.3-1.8,0.6-3.7,0.9-5.5
		L665.7,72.8L665.7,72.8z M668.4,57.1h10.8l-0.5,2.8c-0.1,0.6-0.2,1.2-0.4,1.9c-0.3,2-2.3,3.6-4.2,3.6H667c0.3-1.8,0.6-3.7,0.9-5.5
		L668.4,57.1L668.4,57.1z"/>
	<path class="st1" d="M80.9,123.6c0.6,0,1.1-0.4,1.2-0.9c0.1-0.6,0.2-1.3,0.3-1.9c0.1-0.5-0.2-0.9-0.7-0.9H62.5c-2,0-3.4-1.6-3-3.6
		c0.3-1.6,0.6-3.2,0.9-4.9c0.1-0.6,0.2-1.1,0.3-1.7c0.3-1.9-0.1-3.5-2-4.5h36.2c-0.1,0.6-0.2,1.2-0.4,1.9c-0.3,2-2.1,3.6-4.2,3.6
		H72.1c-0.5,0-0.9,0.4-1,0.9c-0.2,0.7-0.3,1.3-0.4,1.9c-0.1,0.5,0.3,0.9,0.7,0.9h19.2c1.9,0,3.3,1.6,2.9,3.6c-0.4,2.5-0.9,5-1.3,7.5
		c-0.4,2-2.3,3.6-4.2,3.6H58.2c0.1-0.6,0.2-1.2,0.3-1.9c0.4-2,2.3-3.6,4.3-3.6H80.9L80.9,123.6z"/>
	<path class="st1" d="M109.3,117.8c-0.3,1.7-0.6,3.3-0.9,4.9c-0.1,0.5,0.4,0.9,0.8,0.9h11.1c0.5,0,0.9-0.4,1-0.9
		c0.3-1.6,0.6-3.3,0.9-4.9c0.2-1.2,0.4-2.3,0.6-3.4c0.3-1.9,0.6-3.7,1-5.6c0.3-2,2.3-3.6,4.2-3.6h7.1c-0.6,3.1-1.1,6.1-1.6,9.2
		c-0.2,1.2-0.4,2.3-0.6,3.4c-0.5,2.6-1,5.1-1.4,7.7c-0.4,2-2.1,3.6-4.2,3.6h-27.1c-1.9,0-3.3-1.6-2.9-3.6c0.5-2.6,0.9-5.2,1.4-7.7
		c0.2-1.2,0.4-2.3,0.6-3.4c0.2-1.5,0.5-3.1,0.8-4.7c0.3-1.9-0.4-3.7-1.9-4.5h13.3c-0.6,3.1-1.1,6.1-1.6,9.2
		C109.7,115.5,109.5,116.6,109.3,117.8L109.3,117.8z"/>
	<path class="st1" d="M137.2,129.1c1.1-6.5,2.2-13,3.4-19.5c0.3-1.9-0.3-3.7-2-4.5h32.6c2,0,3.3,1.6,2.9,3.6
		c-0.6,3.2-1.1,6.3-1.7,9.4c-0.3,2-2.2,3.6-4.2,3.6h-19c-0.2,1.2-0.4,2.5-0.6,3.7c-0.4,2-2.3,3.6-4.2,3.6L137.2,129.1L137.2,129.1z
		 M161.1,116.3c0.5,0,1.1-0.4,1.2-0.9c0.2-1.3,0.4-2.6,0.7-3.9c0.1-0.5-0.4-0.9-0.9-0.9h-10.9c-0.3,1.9-0.7,3.8-1,5.7L161.1,116.3
		L161.1,116.3z"/>
	<path class="st1" d="M177.2,123.6c0.8-4.7,1.7-9.3,2.5-14c0.3-1.9-0.3-3.7-2-4.5h34.2c-0.1,0.6-0.2,1.2-0.4,1.9
		c-0.3,2-2.3,3.6-4.4,3.6h-16.9c0,0.2,0,0.4-0.1,0.6c-0.1,1-0.3,2-0.5,2.9v0.3h17.5c-0.1,0.6-0.2,1.2-0.4,1.9
		c-0.3,2-2.1,3.6-4.2,3.6h-13.9v0.3c-0.1,0.6-0.2,1.1-0.3,1.7s-0.2,1.2-0.3,1.8v0.1h20.6c-0.1,0.6-0.2,1.2-0.3,1.9
		c-0.4,2-2.3,3.6-4.4,3.6h-24c-2,0-3.4-1.6-3-3.6C177,124.8,177.1,124.2,177.2,123.6L177.2,123.6z"/>
	<path class="st1" d="M229.7,121.8h-3.8c-0.2,1.2-0.4,2.5-0.6,3.7c-0.4,2-2.3,3.6-4.4,3.6h-7.1c1.1-6.5,2.3-13,3.4-19.5
		c0.3-1.9-0.2-3.7-1.9-4.5h32.6c1.9,0,3.3,1.6,2.9,3.6c-0.6,3.2-1.2,6.3-1.7,9.4c-0.4,2-2.2,3.6-4.2,3.6h-2.3
		c1.8,2.4,3.8,4.9,5.8,7.3h-9.8c-0.9,0-1.5-0.3-2.3-1.2c-1.4-1.6-2.6-3.2-3.9-4.9C231.9,122.2,231,121.8,229.7,121.8L229.7,121.8z
		 M239.2,115.4c0.2-1.3,0.4-2.6,0.7-3.9c0.1-0.5-0.4-0.9-0.9-0.9h-10.9c-0.3,1.9-0.7,3.8-1,5.7H238
		C238.5,116.3,239.1,115.9,239.2,115.4L239.2,115.4z"/>
	<path class="st1" d="M298.8,105.1h0.2c-1.2,6.8-2.4,13.6-3.6,20.4c-0.3,2-2.1,3.6-4.1,3.6h-7.1c0.4-2.5,0.8-5,1.3-7.5
		c-2.1,2.5-4.1,5-6.2,7.5h-10.4c-1.3-2.5-2.4-5-3.5-7.5c-0.2,1.3-0.4,2.6-0.7,3.9c-0.3,2-2.2,3.6-4.1,3.6h-7.1
		c1.1-6.7,2.3-13.3,3.5-20c0.3-1.8-0.4-3.2-1.9-4h13c2.4,5.4,5,10.8,7.5,16.1c3.9-4.7,7.7-9.5,11.6-14.2c1-1.2,2.4-1.9,3.8-1.9
		H298.8L298.8,105.1z"/>
	<path class="st1" d="M341.5,130.1h-12.1c-0.4-0.8-0.6-1.5-0.9-2.3h-13.6c-0.6,0.8-1.3,1.5-1.9,2.3h-12c6.1-7.6,12.4-15.2,18.6-22.8
		c0.9-1.1,0.1-1.6-1-2.2h9.1c1.4,0,2.5,0.7,3.1,1.9C334.4,114.7,338,122.4,341.5,130.1L341.5,130.1z M325.9,122.4
		c-0.8-1.7-1.6-3.4-2.4-5.1c-1.3,1.7-2.7,3.4-4.1,5.1H325.9z"/>
	<path class="st1" d="M345,105.1h13.3c3.6,4.2,7.3,8.4,11,12.6c0.2-1.1,0.4-2.2,0.6-3.3c0.3-1.9,0.6-3.8,1-5.6
		c0.3-2,2.1-3.6,4.2-3.6h7.1c-1.2,6.8-2.4,13.6-3.6,20.4c-0.4,2-2.3,3.6-4.2,3.6h-6.9c-3.8-4.2-7.5-8.4-11-12.6c-0.6,3-1.1,6-1.6,9
		c-0.4,2-2.3,3.6-4.2,3.6h-7.2c1.1-6.5,2.2-13,3.4-19.5C347.3,107.7,346.7,106,345,105.1L345,105.1z"/>
</g>
<g>
	<path class="st1" d="M58.2,160.9h3.5v15.7h9.8v3H58.2V160.9L58.2,160.9z"/>
	<path class="st1" d="M85.8,171.2v8.3h-3.1v-1.7c-0.8,1.3-2.4,1.9-4.5,1.9c-3.3,0-5.3-1.8-5.3-4.3c0-2.5,1.6-4.2,5.9-4.2h3.7V171
		c0-1.9-1.2-3.1-3.5-3.1c-1.6,0-3.3,0.5-4.3,1.4l-1.3-2.4c1.6-1.2,3.7-1.8,6-1.8C83.5,165.2,85.8,167.1,85.8,171.2L85.8,171.2z
		 M82.5,175.1v-1.6h-3.4c-2.3,0-2.9,0.8-2.9,1.9c0,1.2,1,2,2.7,2S81.9,176.5,82.5,175.1z"/>
	<path class="st1" d="M96.2,177.5l1.2-2.7c1.5,1.2,3.8,2.1,6.1,2.1c2.9,0,4.1-1,4.1-2.4c0-4-11.1-1.4-11.1-8.3c0-3,2.4-5.5,7.5-5.5
		c2.2,0,4.6,0.6,6.2,1.6l-1.1,2.7c-1.7-1-3.5-1.5-5.1-1.5c-2.9,0-4.1,1.1-4.1,2.5c0,4,11,1.4,11,8.2c0,3-2.4,5.5-7.5,5.5
		C100.6,179.8,97.7,178.8,96.2,177.5z"/>
	<path class="st1" d="M127.4,173.4h-11.2c0.4,2.1,2.1,3.4,4.6,3.4c1.6,0,2.9-0.5,3.8-1.6l1.8,2.1c-1.3,1.6-3.3,2.3-5.7,2.3
		c-4.7,0-7.8-3-7.8-7.3c0-4.3,3.1-7.2,7.3-7.2s7.2,2.9,7.2,7.3C127.5,172.8,127.5,173.1,127.4,173.4L127.4,173.4z M116.3,171.2h8.1
		c-0.3-2.1-1.8-3.5-4-3.5S116.6,169.2,116.3,171.2L116.3,171.2z"/>
	<path class="st1" d="M138.9,165.2v3.2c-0.3-0.1-0.5-0.1-0.7-0.1c-2.5,0-4.1,1.5-4.1,4.4v6.9h-3.3v-14.2h3.2v2.1
		C134.8,165.9,136.5,165.2,138.9,165.2L138.9,165.2z"/>
	<path class="st1" d="M154.9,173.4h-11.2c0.4,2.1,2.1,3.4,4.6,3.4c1.6,0,2.9-0.5,3.8-1.6l1.8,2.1c-1.3,1.6-3.3,2.3-5.7,2.3
		c-4.7,0-7.8-3-7.8-7.3c0-4.3,3.1-7.2,7.3-7.2s7.2,2.9,7.2,7.3C155,172.8,154.9,173.1,154.9,173.4L154.9,173.4z M143.8,171.2h8.1
		c-0.3-2.1-1.8-3.5-4-3.5C145.7,167.8,144.1,169.2,143.8,171.2L143.8,171.2z"/>
	<path class="st1" d="M172.1,171.4v8.1h-3.3v-7.7c0-2.5-1.3-3.8-3.4-3.8c-2.4,0-4,1.4-4,4.3v7.2h-3.3v-14.2h3.2v1.8
		c1.1-1.3,2.8-2,4.9-2C169.6,165.2,172.1,167.1,172.1,171.4L172.1,171.4z"/>
	<path class="st1" d="M188.3,171.2v8.3h-3.1v-1.7c-0.8,1.3-2.4,1.9-4.5,1.9c-3.3,0-5.3-1.8-5.3-4.3c0-2.5,1.6-4.2,5.9-4.2h3.7V171
		c0-1.9-1.2-3.1-3.5-3.1c-1.6,0-3.3,0.5-4.3,1.4l-1.3-2.4c1.6-1.2,3.7-1.8,6-1.8C185.9,165.2,188.3,167.1,188.3,171.2L188.3,171.2z
		 M184.9,175.1v-1.6h-3.4c-2.3,0-2.9,0.8-2.9,1.9c0,1.2,1,2,2.7,2S184.4,176.5,184.9,175.1z"/>
	<path class="st1" d="M191.4,167.4c0-1.3,1-2.2,2.1-2.2c1.2,0,2.1,0.9,2.1,2.2c0,1.3-1,2.2-2.1,2.2
		C192.4,169.6,191.4,168.6,191.4,167.4z M191.4,177.5c0-1.3,1-2.2,2.1-2.2c1.2,0,2.1,0.9,2.1,2.2c0,1.3-1,2.2-2.1,2.2
		C192.4,179.7,191.4,178.8,191.4,177.5z"/>
	<path class="st1" d="M218.8,173.8c0,3.3-2.4,6-7.4,6c-2.7,0-5.3-0.8-7-2.1l1.5-2.7c1.3,1.1,3.4,1.8,5.5,1.8c2.5,0,3.9-1.1,3.9-2.9
		c0-1.8-1.1-2.9-5-2.9h-4.4l1-10.1h10.9v2.9h-8l-0.4,4.3h1.8C216.7,168.1,218.9,170.5,218.8,173.8L218.8,173.8z"/>
	<path class="st1" d="M243.2,159.8v19.7H240v-1.8c-1.1,1.3-2.7,2-4.7,2c-4.1,0-7.2-2.9-7.2-7.3s3-7.2,7.2-7.2c1.8,0,3.5,0.6,4.6,1.9
		v-7.3L243.2,159.8L243.2,159.8z M239.9,172.4c0-2.7-1.8-4.4-4.2-4.4c-2.4,0-4.2,1.7-4.2,4.4s1.8,4.4,4.2,4.4
		C238.1,176.8,239.9,175.1,239.9,172.4z"/>
	<path class="st1" d="M260.8,173.4h-11.2c0.4,2.1,2.1,3.4,4.6,3.4c1.6,0,2.9-0.5,3.8-1.6l1.8,2.1c-1.3,1.6-3.3,2.3-5.7,2.3
		c-4.7,0-7.8-3-7.8-7.3c0-4.3,3.1-7.2,7.3-7.2c4.2,0,7.2,2.9,7.2,7.3C260.9,172.8,260.8,173.1,260.8,173.4L260.8,173.4z
		 M249.7,171.2h8.1c-0.3-2.1-1.8-3.5-4-3.5S250,169.2,249.7,171.2z"/>
	<path class="st1" d="M275.1,164.6v0.8h3.9v2.7h-3.8v11.5h-3.3V168h-2.4v-2.7h2.4v-0.9c0-3,1.8-5,5.1-5c1.1,0,2.3,0.2,3,0.7l-1,2.5
		c-0.5-0.4-1.1-0.6-1.8-0.6C275.8,162.3,275.1,163,275.1,164.6L275.1,164.6z"/>
	<path class="st1" d="M294.3,173.4h-11.2c0.4,2.1,2.1,3.4,4.6,3.4c1.6,0,2.9-0.5,3.8-1.6l1.8,2.1c-1.3,1.6-3.3,2.3-5.7,2.3
		c-4.7,0-7.8-3-7.8-7.3c0-4.3,3.1-7.2,7.3-7.2s7.2,2.9,7.2,7.3C294.4,172.8,294.3,173.1,294.3,173.4L294.3,173.4z M283.1,171.2h8.1
		c-0.3-2.1-1.8-3.5-4-3.5C285.1,167.8,283.4,169.2,283.1,171.2L283.1,171.2z"/>
	<path class="st1" d="M312.6,172.4c0,4.4-3,7.3-7.2,7.3c-1.9,0-3.6-0.7-4.7-2v1.8h-3.1v-19.7h3.3v7.2c1.1-1.3,2.7-1.9,4.6-1.9
		C309.6,165.2,312.6,168,312.6,172.4L312.6,172.4z M309.2,172.4c0-2.7-1.8-4.4-4.2-4.4c-2.4,0-4.2,1.7-4.2,4.4s1.8,4.4,4.2,4.4
		C307.4,176.8,309.2,175.1,309.2,172.4z"/>
	<path class="st1" d="M324,165.2v3.2c-0.3-0.1-0.5-0.1-0.7-0.1c-2.5,0-4.1,1.5-4.1,4.4v6.9h-3.3v-14.2h3.2v2.1
		C319.9,165.9,321.6,165.2,324,165.2L324,165.2z"/>
	<path class="st1" d="M340,173.4h-11.2c0.4,2.1,2.1,3.4,4.6,3.4c1.6,0,2.9-0.5,3.8-1.6l1.8,2.1c-1.3,1.6-3.3,2.3-5.7,2.3
		c-4.7,0-7.8-3-7.8-7.3c0-4.3,3.1-7.2,7.3-7.2s7.2,2.9,7.2,7.3C340,172.8,340,173.1,340,173.4L340,173.4z M328.8,171.2h8.1
		c-0.3-2.1-1.8-3.5-4-3.5S329.2,169.2,328.8,171.2z"/>
	<path class="st1" d="M351.5,165.2v3.2c-0.3-0.1-0.5-0.1-0.7-0.1c-2.5,0-4.1,1.5-4.1,4.4v6.9h-3.3v-14.2h3.2v2.1
		C347.3,165.9,349.1,165.2,351.5,165.2L351.5,165.2z"/>
	<path class="st1" d="M353,172.4c0-4.3,3.2-7.2,7.5-7.2s7.6,3,7.6,7.2s-3.2,7.3-7.6,7.3C356.1,179.7,353,176.6,353,172.4z
		 M364.8,172.4c0-2.7-1.8-4.4-4.2-4.4s-4.2,1.7-4.2,4.4s1.8,4.4,4.2,4.4S364.8,175.1,364.8,172.4z"/>
	<path class="st1" d="M58.2,196.4h3.5V212h9.8v3H58.2V196.4L58.2,196.4z"/>
	<path class="st1" d="M87.4,200.8V215h-3.2v-1.8c-1,1.3-2.7,2-4.6,2c-3.6,0-6.1-2-6.1-6.3v-8.1h3.3v7.7c0,2.6,1.3,3.8,3.3,3.8
		c2.3,0,3.8-1.4,3.8-4.3v-7.2H87.4z"/>
	<path class="st1" d="M105.9,200.8v12c0,5.2-2.7,7.5-7.7,7.5c-2.7,0-5.3-0.7-6.9-2l1.5-2.5c1.3,1,3.3,1.7,5.2,1.7
		c3.1,0,4.5-1.4,4.5-4.3v-0.7c-1.2,1.3-2.8,1.9-4.7,1.9c-4.1,0-7.2-2.7-7.2-6.9c0-4.1,3.1-6.8,7.2-6.8c2,0,3.8,0.7,5,2.1v-1.9
		L105.9,200.8L105.9,200.8z M102.6,207.4c0-2.4-1.8-4-4.3-4s-4.4,1.6-4.4,4c0,2.4,1.8,4.1,4.4,4.1S102.6,209.9,102.6,207.4z"/>
	<path class="st1" d="M122.1,206.6v8.3H119v-1.7c-0.8,1.3-2.4,1.9-4.5,1.9c-3.3,0-5.3-1.8-5.3-4.3c0-2.5,1.6-4.2,5.9-4.2h3.7v-0.2
		c0-1.9-1.2-3.1-3.5-3.1c-1.6,0-3.3,0.5-4.3,1.4l-1.3-2.4c1.6-1.2,3.7-1.8,6-1.8C119.8,200.6,122.1,202.6,122.1,206.6L122.1,206.6z
		 M118.8,210.5v-1.6h-3.4c-2.3,0-2.9,0.8-2.9,1.9c0,1.2,1,2,2.7,2S118.3,212,118.8,210.5z"/>
	<path class="st1" d="M134.6,200.6v3.2c-0.3-0.1-0.5-0.1-0.7-0.1c-2.5,0-4.1,1.5-4.1,4.4v6.9h-3.3v-14.2h3.2v2.1
		C130.5,201.4,132.2,200.6,134.6,200.6L134.6,200.6z"/>
	<path class="st1" d="M136.6,202.9c0-1.3,1-2.2,2.1-2.2c1.2,0,2.1,0.9,2.1,2.2c0,1.3-1,2.2-2.1,2.2
		C137.6,205.1,136.6,204.1,136.6,202.9z M136.6,213c0-1.3,1-2.2,2.1-2.2c1.2,0,2.1,0.9,2.1,2.2c0,1.3-1,2.2-2.1,2.2
		C137.6,215.2,136.6,214.2,136.6,213z"/>
	<path class="st1" d="M165.8,212.1v2.9h-14v-18.6h13.6v2.9h-10.1v4.9h9v2.9h-9v5.1L165.8,212.1L165.8,212.1z"/>
	<path class="st1" d="M169.3,195.2h3.3V215h-3.3V195.2L169.3,195.2z"/>
	<path class="st1" d="M188.2,199.2v5.7h9v3h-9v7.1h-3.5v-18.6h13.6v2.9H188.2z"/>
	<path class="st1" d="M212.8,206.6v8.3h-3.2v-1.7c-0.8,1.3-2.4,1.9-4.4,1.9c-3.3,0-5.3-1.8-5.3-4.3c0-2.5,1.6-4.2,5.9-4.2h3.7v-0.2
		c0-1.9-1.2-3.1-3.5-3.1c-1.6,0-3.3,0.5-4.3,1.4l-1.3-2.4c1.6-1.2,3.7-1.8,6-1.8C210.4,200.6,212.8,202.6,212.8,206.6L212.8,206.6z
		 M209.5,210.5v-1.6h-3.4c-2.3,0-2.9,0.8-2.9,1.9c0,1.2,1,2,2.7,2C207.6,212.8,208.9,212,209.5,210.5L209.5,210.5z"/>
	<path class="st1" d="M225.3,200.6v3.2c-0.3-0.1-0.5-0.1-0.7-0.1c-2.5,0-4.1,1.5-4.1,4.4v6.9H217v-14.2h3.2v2.1
		C221.1,201.4,222.9,200.6,225.3,200.6L225.3,200.6z"/>
	<path class="st1" d="M226.8,207.9c0-4.3,3.2-7.2,7.5-7.2c4.4,0,7.6,3,7.6,7.2s-3.2,7.3-7.6,7.3S226.8,212.1,226.8,207.9z
		 M238.6,207.9c0-2.7-1.8-4.4-4.2-4.4c-2.4,0-4.2,1.7-4.2,4.4c0,2.7,1.8,4.4,4.2,4.4C236.7,212.3,238.6,210.6,238.6,207.9z"/>
	<path class="st1" d="M252.8,196.4h3.5V212h9.8v3h-13.2L252.8,196.4L252.8,196.4z"/>
	<path class="st1" d="M280.4,206.6v8.3h-3.1v-1.7c-0.8,1.3-2.4,1.9-4.4,1.9c-3.3,0-5.3-1.8-5.3-4.3c0-2.5,1.6-4.2,5.9-4.2h3.7v-0.2
		c0-1.9-1.2-3.1-3.5-3.1c-1.6,0-3.3,0.5-4.3,1.4l-1.3-2.4c1.5-1.2,3.7-1.8,6-1.8C278,200.6,280.4,202.6,280.4,206.6L280.4,206.6z
		 M277.1,210.5v-1.6h-3.4c-2.3,0-2.9,0.8-2.9,1.9c0,1.2,1,2,2.7,2S276.5,212,277.1,210.5L277.1,210.5z"/>
	<path class="st1" d="M290.7,213l1.2-2.7c1.5,1.2,3.8,2.1,6.1,2.1c2.9,0,4.1-1,4.1-2.4c0-4-11.1-1.4-11.1-8.3c0-3,2.4-5.5,7.5-5.5
		c2.2,0,4.6,0.6,6.2,1.6l-1.1,2.7c-1.7-1-3.5-1.5-5.2-1.5c-2.9,0-4.1,1.1-4.1,2.5c0,4,11,1.4,11,8.2c0,3-2.4,5.5-7.5,5.5
		C295.2,215.3,292.3,214.3,290.7,213L290.7,213z"/>
	<path class="st1" d="M322,208.9h-11.2c0.4,2.1,2.1,3.4,4.6,3.4c1.6,0,2.9-0.5,3.8-1.6l1.8,2.1c-1.3,1.6-3.3,2.3-5.7,2.3
		c-4.7,0-7.8-3-7.8-7.3s3.1-7.2,7.3-7.2s7.2,2.9,7.2,7.3C322.1,208.2,322.1,208.6,322,208.9L322,208.9z M310.8,206.7h8.1
		c-0.3-2.1-1.8-3.5-4-3.5S311.1,204.6,310.8,206.7L310.8,206.7z"/>
	<path class="st1" d="M333.5,200.6v3.2c-0.3-0.1-0.5-0.1-0.7-0.1c-2.5,0-4.1,1.5-4.1,4.4v6.9h-3.3v-14.2h3.2v2.1
		C329.4,201.4,331.1,200.6,333.5,200.6L333.5,200.6z"/>
	<path class="st1" d="M349.5,208.9h-11.2c0.4,2.1,2.1,3.4,4.6,3.4c1.6,0,2.9-0.5,3.8-1.6l1.8,2.1c-1.3,1.6-3.3,2.3-5.7,2.3
		c-4.7,0-7.8-3-7.8-7.3s3.1-7.2,7.3-7.2s7.2,2.9,7.2,7.3C349.5,208.2,349.5,208.6,349.5,208.9L349.5,208.9z M338.3,206.7h8.1
		c-0.3-2.1-1.8-3.5-4-3.5C340.2,203.2,338.6,204.6,338.3,206.7z"/>
	<path class="st1" d="M366.7,206.8v8.1h-3.3v-7.7c0-2.5-1.3-3.8-3.4-3.8c-2.4,0-4,1.4-4,4.3v7.2h-3.3v-14.2h3.2v1.8
		c1.1-1.3,2.8-2,4.9-2C364.2,200.6,366.7,202.6,366.7,206.8L366.7,206.8z"/>
	<path class="st1" d="M382.8,206.6v8.3h-3.1v-1.7c-0.8,1.3-2.4,1.9-4.4,1.9c-3.3,0-5.3-1.8-5.3-4.3c0-2.5,1.6-4.2,5.9-4.2h3.7v-0.2
		c0-1.9-1.2-3.1-3.5-3.1c-1.6,0-3.3,0.5-4.3,1.4l-1.3-2.4c1.5-1.2,3.7-1.8,6-1.8C380.4,200.6,382.8,202.6,382.8,206.6L382.8,206.6z
		 M379.5,210.5v-1.6h-3.4c-2.3,0-2.9,0.8-2.9,1.9c0,1.2,1,2,2.7,2C377.6,212.8,379,212,379.5,210.5L379.5,210.5z"/>
	<path class="st1" d="M74.8,231.8v18.6h-3.5v-8h-9.6v8h-3.5v-18.6h3.5v7.7h9.6v-7.7L74.8,231.8L74.8,231.8z"/>
	<path class="st1" d="M78.2,243.3c0-4.3,3.2-7.2,7.5-7.2c4.4,0,7.6,3,7.6,7.2c0,4.2-3.2,7.3-7.6,7.3
		C81.3,250.7,78.2,247.6,78.2,243.3z M90,243.3c0-2.7-1.8-4.4-4.2-4.4s-4.2,1.7-4.2,4.4s1.8,4.4,4.2,4.4S90,246.1,90,243.3z"/>
	<path class="st1" d="M104.8,236.1v3.2c-0.3-0.1-0.5-0.1-0.7-0.1c-2.5,0-4.1,1.5-4.1,4.4v6.9h-3.4v-14.2h3.2v2.1
		C100.7,236.8,102.4,236.1,104.8,236.1L104.8,236.1z"/>
	<path class="st1" d="M119.4,242.1v8.3h-3.1v-1.7c-0.8,1.3-2.4,1.9-4.5,1.9c-3.3,0-5.3-1.8-5.3-4.3s1.6-4.2,5.9-4.2h3.7v-0.2
		c0-1.9-1.2-3.1-3.5-3.1c-1.6,0-3.3,0.5-4.3,1.4l-1.3-2.4c1.5-1.2,3.7-1.8,6-1.8C117.1,236.1,119.5,238,119.4,242.1L119.4,242.1z
		 M116.1,246v-1.6h-3.4c-2.3,0-2.9,0.8-2.9,1.9c0,1.2,1,2,2.7,2S115.5,247.5,116.1,246z"/>
	<path class="st1" d="M122.6,238.2c0-1.3,1-2.2,2.1-2.2c1.2,0,2.1,0.9,2.1,2.2c0,1.3-1,2.2-2.1,2.2
		C123.5,240.5,122.6,239.6,122.6,238.2z M122.6,248.4c0-1.3,1-2.2,2.1-2.2c1.2,0,2.1,0.9,2.1,2.2c0,1.3-1,2.2-2.1,2.2
		C123.5,250.7,122.6,249.7,122.6,248.4z"/>
	<path class="st1" d="M151.6,245.1c0,3.5-3,5.6-7.6,5.6c-4.6,0-7.6-2.1-7.6-5.6c0-2.1,1-3.5,3-4.4c-1.5-0.8-2.3-2.1-2.3-3.9
		c0-3.2,2.8-5.2,6.9-5.2s6.9,2,6.9,5.2c0,1.8-0.8,3.1-2.4,3.9C150.5,241.5,151.6,243.1,151.6,245.1z M148.1,245c0-1.8-1.6-3-4.1-3
		c-2.5,0-4.1,1.1-4.1,3s1.6,3,4.1,3S148.1,246.9,148.1,245z M140.4,236.9c0,1.6,1.3,2.6,3.5,2.6c2.2,0,3.5-1,3.5-2.6
		c0-1.7-1.4-2.7-3.5-2.7C141.8,234.3,140.4,235.2,140.4,236.9z"/>
	<path class="st1" d="M153.7,238.2c0-1.3,1-2.2,2.1-2.2c1.2,0,2.1,0.9,2.1,2.2c0,1.3-1,2.2-2.1,2.2
		C154.7,240.5,153.7,239.6,153.7,238.2z M153.7,248.4c0-1.3,1-2.2,2.1-2.2c1.2,0,2.1,0.9,2.1,2.2c0,1.3-1,2.2-2.1,2.2
		C154.7,250.7,153.7,249.7,153.7,248.4z"/>
	<path class="st1" d="M173.5,244.9c0,3.1-2.4,5.8-7.4,5.8c-2.7,0-5.2-0.8-7-2.1l1.5-2.7c1.3,1.1,3.3,1.8,5.5,1.8
		c2.5,0,3.9-1.1,3.9-2.8s-1.3-2.7-4.1-2.7h-1.7v-2.4l4.2-5h-8.3V232h12.7v2.3l-4.5,5.4C171.8,239.9,173.5,242.1,173.5,244.9
		L173.5,244.9z"/>
	<path class="st1" d="M175.8,241.1c0-6.1,3.3-9.6,7.8-9.6c4.4,0,7.8,3.5,7.8,9.6c0,6.1-3.3,9.6-7.8,9.6
		C179.1,250.7,175.8,247.3,175.8,241.1z M187.9,241.1c0-4.5-1.8-6.6-4.3-6.6c-2.5,0-4.3,2.1-4.3,6.6c0,4.5,1.8,6.6,4.3,6.6
		C186.1,247.7,187.9,245.6,187.9,241.1z"/>
	<path class="st1" d="M218.9,231.8v18.6h-3.5v-8h-9.6v8h-3.5v-18.6h3.5v7.7h9.6v-7.7L218.9,231.8L218.9,231.8z"/>
	<path class="st1" d="M231.8,236.1v3.2c-0.3-0.1-0.5-0.1-0.7-0.1c-2.5,0-4.1,1.5-4.1,4.4v6.9h-3.3v-14.2h3.2v2.1
		C227.7,236.8,229.5,236.1,231.8,236.1L231.8,236.1z"/>
	<path class="st1" d="M233.1,249l1.3-2.5c1.3,0.8,3.2,1.4,5,1.4c2.1,0,3-0.6,3-1.6c0-2.7-8.8-0.1-8.8-5.8c0-2.7,2.4-4.4,6.3-4.4
		c1.9,0,4.1,0.4,5.3,1.3l-1.3,2.5c-1.3-0.8-2.7-1-4.1-1c-2,0-3,0.7-3,1.6c0,2.9,8.8,0.3,8.8,5.9c0,2.7-2.4,4.4-6.4,4.4
		C236.7,250.7,234.4,249.9,233.1,249L233.1,249z"/>
	<path class="st1" d="M72.2,283v2.9h-14v-18.6h13.6v2.9H61.7v4.8h9v2.9h-9v5.2L72.2,283L72.2,283z"/>
	<path class="st1" d="M89.7,277.8v8.1h-3.3v-7.7c0-2.5-1.3-3.8-3.4-3.8c-2.4,0-4,1.4-4,4.3v7.2h-3.3v-14.2h3.2v1.8
		c1.1-1.3,2.8-2,4.9-2C87.2,271.6,89.7,273.5,89.7,277.8L89.7,277.8z"/>
	<path class="st1" d="M102.5,285.2c-0.8,0.7-2,1-3.2,1c-3.1,0-4.9-1.6-4.9-4.8v-6.8H92v-2.7h2.4v-3.3h3.3v3.3h3.8v2.7h-3.8v6.7
		c0,1.4,0.7,2.1,2,2.1c0.7,0,1.3-0.1,1.8-0.6L102.5,285.2z"/>
	<path class="st1" d="M113.4,271.6v3.2c-0.3-0.1-0.5-0.1-0.7-0.1c-2.5,0-4.1,1.5-4.1,4.4v6.9h-3.3v-14.2h3.2v2.1
		C109.3,272.3,111,271.6,113.4,271.6L113.4,271.6z"/>
	<path class="st1" d="M129.4,279.9h-11.2c0.4,2.1,2.1,3.4,4.6,3.4c1.6,0,2.9-0.5,3.8-1.6l1.8,2.1c-1.3,1.5-3.3,2.3-5.7,2.3
		c-4.7,0-7.8-3-7.8-7.3c0-4.3,3.1-7.2,7.3-7.2c4.2,0,7.2,2.9,7.2,7.3C129.4,279.1,129.4,279.6,129.4,279.9L129.4,279.9z
		 M118.2,277.6h8.1c-0.3-2.1-1.8-3.5-4-3.5C120.1,274.2,118.6,275.6,118.2,277.6L118.2,277.6z"/>
	<path class="st1" d="M146.7,271.7v12c0,5.2-2.7,7.5-7.7,7.5c-2.7,0-5.3-0.7-6.9-2l1.5-2.5c1.3,1,3.3,1.7,5.2,1.7
		c3.1,0,4.5-1.4,4.5-4.3v-0.7c-1.2,1.3-2.9,1.9-4.7,1.9c-4.1,0-7.2-2.7-7.2-6.9c0-4.1,3.1-6.8,7.2-6.8c2,0,3.8,0.7,5,2.1v-1.9
		L146.7,271.7L146.7,271.7z M143.5,278.4c0-2.4-1.8-4-4.3-4s-4.4,1.6-4.4,4c0,2.4,1.8,4.1,4.4,4.1S143.5,280.8,143.5,278.4z"/>
	<path class="st1" d="M163,277.6v8.3h-3.1v-1.7c-0.8,1.3-2.4,1.9-4.5,1.9c-3.3,0-5.3-1.8-5.3-4.3c0-2.5,1.6-4.2,5.9-4.2h3.7v-0.2
		c0-1.9-1.2-3.1-3.5-3.1c-1.6,0-3.3,0.5-4.3,1.4l-1.3-2.4c1.6-1.2,3.7-1.8,6-1.8C160.6,271.6,163,273.5,163,277.6L163,277.6z
		 M159.7,281.5v-1.6h-3.4c-2.3,0-2.9,0.8-2.9,1.9c0,1.2,1,2,2.7,2S159.1,283,159.7,281.5z"/>
	<path class="st1" d="M188.5,266.2v19.7h-3.2v-1.8c-1.1,1.3-2.7,2-4.7,2c-4.1,0-7.2-2.9-7.2-7.3c0-4.4,3-7.2,7.2-7.2
		c1.8,0,3.5,0.6,4.6,1.9v-7.3L188.5,266.2L188.5,266.2z M185.2,278.8c0-2.7-1.8-4.4-4.2-4.4c-2.4,0-4.2,1.7-4.2,4.4s1.8,4.4,4.2,4.4
		C183.4,283.2,185.2,281.5,185.2,278.8z"/>
	<path class="st1" d="M206.1,279.9H195c0.4,2.1,2.1,3.4,4.6,3.4c1.6,0,2.9-0.5,3.8-1.6l1.8,2.1c-1.3,1.5-3.3,2.3-5.7,2.3
		c-4.7,0-7.8-3-7.8-7.3c0-4.3,3.1-7.2,7.3-7.2s7.2,2.9,7.2,7.3C206.2,279.1,206.2,279.6,206.1,279.9L206.1,279.9z M195,277.6h8.1
		c-0.3-2.1-1.8-3.5-4-3.5C196.9,274.2,195.3,275.6,195,277.6z"/>
	<path class="st1" d="M222.5,279.9l-2.5,2.4v3.8h-3.3v-19.7h3.3v11.9l6.9-6.4h4l-5.9,6l6.5,8.3h-4.1L222.5,279.9L222.5,279.9z"/>
	<path class="st1" d="M233.1,267.4c0-1.1,0.9-2,2.1-2s2.1,0.8,2.1,1.9c0,1.2-0.9,2.1-2.1,2.1S233.1,268.5,233.1,267.4L233.1,267.4z
		 M233.5,271.7h3.3v14.2h-3.3V271.7z"/>
	<path class="st1" d="M249.8,285.2c-0.8,0.7-2,1-3.2,1c-3.1,0-4.9-1.6-4.9-4.8v-6.8h-2.4v-2.7h2.4v-3.3h3.3v3.3h3.8v2.7h-3.8v6.7
		c0,1.4,0.7,2.1,2,2.1c0.7,0,1.3-0.1,1.8-0.6L249.8,285.2z"/>
	<path class="st1" d="M250.9,284.5l1.3-2.5c1.3,0.8,3.2,1.4,5,1.4c2.1,0,3-0.6,3-1.6c0-2.7-8.8-0.1-8.8-5.8c0-2.7,2.4-4.4,6.3-4.4
		c1.9,0,4.1,0.4,5.3,1.3l-1.3,2.5c-1.3-0.8-2.7-1-4.1-1c-2,0-3,0.7-3,1.6c0,2.9,8.8,0.3,8.8,5.9c0,2.7-2.4,4.4-6.4,4.4
		C254.5,286.1,252.2,285.4,250.9,284.5L250.9,284.5z"/>
	<path class="st1" d="M265.1,273.7c0-1.3,1-2.2,2.2-2.2c1.3,0,2.2,0.9,2.2,2.2c0,1.3-1,2.2-2.2,2.2
		C266.1,275.9,265.1,275,265.1,273.7z M265.1,283.9c0-1.3,1-2.2,2.2-2.2c1.3,0,2.2,0.9,2.2,2.2c0,1.3-1,2.2-2.2,2.2
		C266.1,286.1,265.1,285.2,265.1,283.9z"/>
	<path class="st1" d="M291.9,277.6v8.3h-3.1v-1.7c-0.8,1.3-2.4,1.9-4.4,1.9c-3.3,0-5.3-1.8-5.3-4.3c0-2.5,1.6-4.2,5.9-4.2h3.7v-0.2
		c0-1.9-1.2-3.1-3.5-3.1c-1.6,0-3.3,0.5-4.3,1.4l-1.3-2.4c1.5-1.2,3.7-1.8,6-1.8C289.6,271.6,291.9,273.5,291.9,277.6L291.9,277.6z
		 M288.6,281.5v-1.6h-3.4c-2.3,0-2.9,0.8-2.9,1.9c0,1.2,1,2,2.7,2C286.8,283.8,288,283,288.6,281.5L288.6,281.5z"/>
	<path class="st1" d="M317.4,266.2v19.7h-3.2v-1.8c-1.1,1.3-2.7,2-4.7,2c-4.1,0-7.2-2.9-7.2-7.3c0-4.4,3-7.2,7.2-7.2
		c1.8,0,3.5,0.6,4.6,1.9v-7.3L317.4,266.2L317.4,266.2z M314.2,278.8c0-2.7-1.8-4.4-4.2-4.4s-4.2,1.7-4.2,4.4s1.8,4.4,4.2,4.4
		S314.2,281.5,314.2,278.8z"/>
	<path class="st1" d="M335.1,279.9h-11.2c0.4,2.1,2.1,3.4,4.6,3.4c1.6,0,2.9-0.5,3.8-1.6l1.8,2.1c-1.3,1.5-3.3,2.3-5.7,2.3
		c-4.7,0-7.8-3-7.8-7.3c0-4.3,3.1-7.2,7.3-7.2s7.2,2.9,7.2,7.3C335.2,279.1,335.2,279.6,335.1,279.9L335.1,279.9z M323.9,277.6h8.1
		c-0.3-2.1-1.8-3.5-4-3.5S324.2,275.6,323.9,277.6z"/>
	<path class="st1" d="M343.9,266c1.1,0,2.3,0.2,3,0.7l-1,2.5c-0.5-0.4-1.1-0.6-1.8-0.6c-1.4,0-2.1,0.7-2.1,2.3v0.8h3.9v2.7h-3.8
		v11.5h-3.3v-11.5h-2.4v-2.7h2.4v-0.9C338.8,268,340.6,266,343.9,266L343.9,266z M349.9,267.4c0-1.1,0.9-2,2.1-2s2.1,0.8,2.1,1.9
		c0,1.2-0.9,2.1-2.1,2.1S349.9,268.5,349.9,267.4L349.9,267.4z M350.3,271.7h3.3v14.2h-3.3V271.7z"/>
	<path class="st1" d="M372,277.8v8.1h-3.3v-7.7c0-2.5-1.3-3.8-3.4-3.8c-2.4,0-4,1.4-4,4.3v7.2h-3.3v-14.2h3.2v1.8
		c1.1-1.3,2.8-2,4.9-2C369.4,271.6,372,273.5,372,277.8L372,277.8z"/>
	<path class="st1" d="M375.7,267.4c0-1.1,0.9-2,2.1-2s2.1,0.8,2.1,1.9c0,1.2-0.9,2.1-2.1,2.1S375.7,268.5,375.7,267.4L375.7,267.4z
		 M376.2,271.7h3.3v14.2h-3.3V271.7z"/>
	<path class="st1" d="M392.1,271.6v3.2c-0.3-0.1-0.5-0.1-0.7-0.1c-2.5,0-4.1,1.5-4.1,4.4v6.9h-3.3v-14.2h3.2v2.1
		C388,272.3,389.8,271.6,392.1,271.6L392.1,271.6z"/>
</g>
<g>
	<g>
		<path class="st1" d="M196.6,377.6c0.1-0.6,0.3-1.3,0.4-1.9c0.6-3.3,1.1-6.5,1.7-9.8c0.2-1,0.4-2,0.6-3.1c0.3-1.9,0-3.5-1.8-4.4
			c0.9,0,1.6,0,2.6,0c1.1,0,2.2,0,3.3,0c0.7,0,1.3,0,2.1,0c0.5,0,1.1,0,1.8,0c1,0,2.2,0,3.2,0c0.1,0,0.2,0,0.3,0c2.3,0,4.5,0,6.7,0
			c3.3,0,6.8,0,10.2,0c0.5,0,1.1,0,1.8,0c-0.1,0.6-0.2,1.2-0.3,1.8c-0.4,1.9-2.1,3.4-4,3.4c-0.7,0-1.3,0-1.9,0c-1.1,0-2,0-3,0
			c-1.2,0-2.6,0-3.8,0c-1,0-2.2,0-3.2,0c-1,0-2.2,0-3.2,0c-0.5,0-0.8,0.3-1,0.7c-0.1,0.1-0.1,0.1-0.1,0.2c-0.2,1-0.4,2-0.6,3
			c-0.5,2.5-0.9,5-1.3,7.5c0,0.1,0,0.1,0.1,0.2c0,0.4,0.3,0.7,0.8,0.7c1.1,0,2.1,0,3.2,0c2.3,0,4.7,0,7.1,0c2.1,0,4.2,0,6.3,0
			c0.6,0,1.2,0,1.9,0c-0.2,0.6-0.3,1.2-0.4,1.8c-0.3,1.9-2,3.4-3.9,3.4c-0.7,0-1.3,0-1.9,0c-5.7,0-11.4,0-17,0c-1.3,0-2.6,0-3.9,0
			C197.6,381,196.3,379.5,196.6,377.6z"/>
		<path class="st1" d="M267.1,361.8c-0.9,5.3-1.9,10.5-2.9,15.8c-0.3,1.9-2.1,3.4-4,3.4c-8.6,0-17.1,0-25.6,0
			c-1.9,0-3.2-1.5-2.9-3.4c1-5.3,1.9-10.5,2.9-15.8c0.3-1.9,2.1-3.4,4-3.4c8.5,0,17,0,25.6,0C266.1,358.4,267.4,359.9,267.1,361.8z
			 M243.1,375.9c3.4,0,6.9,0,10.5,0c0.4,0,0.9-0.4,1-0.9c0.6-3.5,1.2-7,1.9-10.5c0.1-0.5-0.3-0.9-0.8-0.9c-3.5,0-7,0-10.4,0
			c-0.6,0-1,0.4-1,0.9c-0.7,3.5-1.2,7-1.9,10.5C242.3,375.5,242.5,375.9,243.1,375.9z"/>
		<path class="st1" d="M312.1,358.4c0,0,0.1,0,0.2,0c-1.1,6.4-2.3,12.8-3.4,19.2c-0.3,1.9-2,3.4-3.9,3.4c-2.2,0-4.5,0-6.7,0
			c0.4-2.4,0.8-4.7,1.2-7.1c-2,2.4-3.9,4.7-5.8,7.1c-0.1,0-0.2,0-0.2,0c-3.1,0-6.3,0-9.4,0c-0.1,0-0.2,0-0.2,0
			c-1.2-2.4-2.3-4.7-3.3-7.1c-0.2,1.2-0.4,2.5-0.7,3.7c-0.3,1.9-2.1,3.4-3.9,3.4c-2.2,0-4.5,0-6.7,0c1-6.3,2.2-12.6,3.3-18.8
			c0.3-1.7-0.4-3-1.8-3.8c0.8,0,1.6,0,2.5,0c0,0,0.1,0,0.2,0c3.1,0,6.2,0,9.4,0c0,0,0.1,0,0.2,0c2.3,5.1,4.7,10.1,7.1,15.2
			c3.6-4.5,7.3-8.9,11-13.4c1-1.1,2.3-1.8,3.5-1.8C307.2,358.4,309.7,358.4,312.1,358.4z"/>
		<path class="st1" d="M314.2,381c1-6.1,2.1-12.2,3.2-18.3c0.3-1.8-0.3-3.4-1.9-4.3c0.9,0,1.7,0,2.7,0c3.1,0,6.1,0,9.3,0
			c0.3,0,0.6,0,0.9,0c5.9,0,11.9,0,17.9,0c1.9,0,3.1,1.5,2.8,3.4c-0.5,3-1.1,5.9-1.6,8.9c-0.3,1.9-2.1,3.4-4,3.4c-6,0-11.9,0-17.9,0
			c-0.2,1.2-0.4,2.3-0.6,3.5c-0.4,1.9-2.2,3.4-4,3.4C318.6,381,316.4,381,314.2,381z M336.7,369c0.5,0,1.1-0.4,1.1-0.9
			c0.2-1.2,0.4-2.4,0.7-3.6c0.1-0.5-0.4-0.9-0.9-0.9c-3.4,0-6.9,0-10.3,0c-0.3,1.8-0.7,3.6-1,5.4C329.9,369,333.3,369,336.7,369z"/>
		<path class="st1" d="M366.2,374.1c-1.2,0-2.4,0-3.5,0c-0.2,1.2-0.4,2.3-0.6,3.5c-0.4,1.9-2.2,3.4-4.1,3.4c-2.2,0-4.4,0-6.7,0
			c1-6.1,2.2-12.2,3.2-18.3c0.3-1.8-0.2-3.4-1.8-4.3c0.9,0,1.7,0,2.6,0c3.1,0,6.2,0,9.4,0c0.3,0,0.6,0,0.9,0c5.9,0,11.8,0,17.9,0
			c1.8,0,3.1,1.5,2.8,3.4c-0.5,3-1.1,5.9-1.6,8.9c-0.4,1.9-2.1,3.4-4,3.4c-0.8,0-1.5,0-2.2,0c1.7,2.3,3.5,4.6,5.4,6.9
			c-2.7,0-5.2,0-7.6,0c-0.6,0-1.1,0-1.6,0c-0.9,0-1.4-0.3-2.2-1.1c-1.3-1.5-2.5-3.1-3.6-4.6C368.2,374.5,367.3,374.1,366.2,374.1z
			 M375,368.1c0.2-1.2,0.4-2.4,0.7-3.6c0.1-0.5-0.4-0.9-0.9-0.9c-3.4,0-6.9,0-10.3,0c-0.3,1.8-0.7,3.6-1,5.4c3.4,0,6.9,0,10.3,0
			C374.4,369,374.9,368.6,375,368.1z"/>
		<path class="st1" d="M426.6,382c-3.8,0-7.6,0-11.5,0c-0.4-0.7-0.6-1.4-0.9-2.1c-4.3,0-8.6,0-12.8,0c-0.6,0.7-1.2,1.4-1.8,2.1
			c-3.8,0-7.5,0-11.3,0c5.7-7.2,11.6-14.4,17.6-21.5c0.9-1,0.1-1.5-1-2.1c0.9,0,1.7,0,2.6,0c2,0,3.9,0,6,0c1.3,0,2.4,0.6,3,1.8
			C419.9,367.5,423.2,374.7,426.6,382z M411.9,374.7c-0.8-1.6-1.5-3.2-2.3-4.8c-1.2,1.6-2.6,3.2-3.9,4.8
			C407.8,374.7,409.8,374.7,411.9,374.7z"/>
		<path class="st1" d="M486.7,382c-3.8,0-7.6,0-11.5,0c-0.4-0.7-0.6-1.4-0.9-2.1c-4.3,0-8.6,0-12.8,0c-0.6,0.7-1.2,1.4-1.8,2.1
			c-3.8,0-7.5,0-11.3,0c5.7-7.2,11.6-14.4,17.6-21.5c0.9-1,0.1-1.5-1-2.1c0.9,0,1.7,0,2.6,0c2,0,3.9,0,6,0c1.3,0,2.4,0.6,3,1.8
			C480,367.5,483.3,374.7,486.7,382z M472,374.7c-0.8-1.6-1.5-3.2-2.3-4.8c-1.2,1.6-2.6,3.2-3.9,4.8
			C467.8,374.7,469.9,374.7,472,374.7z"/>
		<path class="st1" d="M505.2,381c-4.5,0-9,0-13.5,0c-1.8,0-3.2-1.5-2.9-3.4c0.9-5.3,1.9-10.5,2.9-15.8c0.3-1.9,2.2-3.4,4-3.4
			c8.5,0,17.1,0,25.7,0c1.9,0,3.2,1.5,2.9,3.4c-0.9,5.3-1.9,10.5-2.9,15.8c-0.4,1.9-2.1,3.4-4,3.4c-0.6,0-1.1,0-1.7,0
			c0.7,0.9,1.4,1.9,2.2,2.8c-3.5,0-7.1,0-10.5,0C506.5,382.9,505.9,382,505.2,381z M500.3,375.9c3.4,0,6.9,0,10.4,0
			c0.5,0,0.9-0.4,1-0.9c0.7-3.5,1.2-7,1.9-10.5c0.1-0.5-0.2-0.9-0.7-0.9c-3.5,0-7,0-10.5,0c-0.5,0-0.9,0.4-1,0.9
			c-0.7,3.5-1.3,7-1.9,10.5C499.5,375.5,499.7,375.9,500.3,375.9z"/>
		<path class="st1" d="M538.2,370.3c-0.3,1.6-0.6,3.1-0.9,4.7c-0.1,0.5,0.4,0.9,0.8,0.9c0.9,0,1.8,0,2.8,0c1.6,0,3.3,0,5,0
			c0.9,0,1.8,0,2.8,0c0.5,0,0.9-0.4,1-0.9c0.3-1.6,0.6-3.1,0.9-4.7c0.2-1.1,0.4-2.2,0.6-3.3c0.3-1.8,0.6-3.5,1-5.3
			c0.3-1.9,2.2-3.4,4-3.4c2.3,0,4.5,0,6.7,0c-0.6,2.9-1,5.8-1.5,8.7c-0.2,1.1-0.4,2.2-0.6,3.3c-0.5,2.4-0.9,4.8-1.3,7.3
			c-0.3,1.9-2,3.4-4,3.4c-3.4,0-6.9,0-10.2,0c-1.6,0-3.3,0-5,0c-3.5,0-7,0-10.4,0c-1.8,0-3.1-1.5-2.8-3.4c0.4-2.4,0.9-4.9,1.3-7.3
			c0.2-1.1,0.4-2.2,0.6-3.3c0.2-1.5,0.5-2.9,0.8-4.4c0.3-1.8-0.4-3.4-1.8-4.3c0.9,0,1.6,0,2.6,0c3.3,0,6.7,0,10,0
			c-0.6,2.9-1.1,5.8-1.5,8.7C538.6,368.2,538.4,369.2,538.2,370.3z"/>
		<path class="st1" d="M571.2,381c-2.3,0-4.5,0-6.7,0c1-6.1,2.1-12.2,3.2-18.3c0.3-1.8-0.3-3.4-1.9-4.3c0.9,0,1.7,0,2.7,0
			c3.3,0,6.7,0,10.1,0c-0.1,0.4-0.2,0.8-0.2,1.2c-0.5,2.5-1,5-1.3,7.6c-0.4,1.7-0.7,3.5-1,5.2c-0.3,1.8-0.6,3.5-1,5.3
			C574.9,379.5,573,381,571.2,381z"/>
	</g>
	<path class="st1" d="M569.5,352.5l6.7-6.7l1.6,1.6c1.4,1.4,0.9,3.7-0.9,4.5l-6.1,2.6C569.6,354.9,568.5,353.4,569.5,352.5z"/>
	<g>
		<path class="st1" d="M607.4,354.9c5,5,10,10,15.1,15.1c1.4,1.4,1.2,3.6-0.4,4.8c-2.3,1.7-4.7,3.3-7.1,4.9
			c-2.1,1.5-4.2,2.9-6.3,4.4c-1.6,1.2-2.5,2.6-1.9,4.6c-0.7-0.7-1.3-1.3-2-2c-0.9-0.9-1.7-1.7-2.6-2.6c-1.7-1.7-3.4-3.4-5.1-5.1
			c1.8-1.2,3.6-2.5,5.4-3.8c1.6-1.1,3.2-2.2,4.7-3.3c0.7-0.4,1.3-0.9,1.9-1.3c0.9-0.7,1.9-1.3,2.8-1.9c0.4-0.3,0.5-0.8,0.2-1.2
			c-2.6-2.6-5.2-5.2-7.9-7.9c-1.4-1.4-2.7-2.7-4.1-4.1c0.6-0.3,1.1-0.7,1.6-1C603.4,353.2,606,353.4,607.4,354.9z"/>
	</g>
</g>
</svg>
