<?xml version="1.0" encoding="utf-8"?>
<!-- Generator: Adobe Illustrator 26.5.0, SVG Export Plug-In . SVG Version: 6.00 Build 0)  -->
<svg version="1.1" id="Layer_1" xmlns="http://www.w3.org/2000/svg" xmlns:xlink="http://www.w3.org/1999/xlink" x="0px" y="0px"
	 viewBox="0 0 820 430.8" style="enable-background:new 0 0 820 430.8;" xml:space="preserve">
<style type="text/css">
	.st0{fill:#76777A;}
	.st1{fill:#FFFFFF;}
</style>
<path class="st0" d="M60,0h700c33.1,0,60,26.9,60,60v310.8c0,33.1-26.9,60-60,60H60c-33.1,0-60-26.9-60-60V60C0,26.9,26.9,0,60,0z"
	/>
<g>
	<path class="st1" d="M70.1,72.9c-0.3,1.7-0.6,3.3-0.9,4.9c-0.1,0.5,0.4,0.9,0.8,0.9h11.1c0.5,0,0.9-0.4,1-0.9
		c0.3-1.6,0.6-3.3,0.9-4.9c0.2-1.2,0.4-2.3,0.6-3.4c0.3-1.9,0.6-3.7,1-5.6c0.3-2,2.3-3.6,4.2-3.6H96c-0.6,3.1-1.1,6.1-1.6,9.2
		c-0.2,1.2-0.4,2.3-0.6,3.4c-0.5,2.6-1,5.1-1.4,7.7c-0.3,2-2.1,3.6-4.2,3.6H61c-1.9,0-3.3-1.6-2.9-3.6c0.5-2.6,0.9-5.2,1.4-7.7
		c0.2-1.2,0.4-2.3,0.6-3.4c0.2-1.6,0.5-3.1,0.8-4.7c0.3-2-0.4-3.7-1.9-4.5h13.4c-0.6,3.1-1.1,6.1-1.6,9.2
		C70.5,70.6,70.3,71.7,70.1,72.9z"/>
	<path class="st1" d="M99.4,60.2h13.3c3.7,4.2,7.3,8.4,11,12.6c0.2-1.1,0.4-2.2,0.6-3.3c0.3-1.9,0.6-3.8,1-5.6
		c0.3-2,2.1-3.6,4.2-3.6h7.1c-1.2,6.8-2.4,13.6-3.6,20.4c-0.4,2-2.3,3.6-4.2,3.6H122c-3.8-4.2-7.5-8.4-11-12.6c-0.6,3-1.1,6-1.6,9
		c-0.4,2-2.3,3.6-4.2,3.6H98c1.1-6.5,2.2-13,3.4-19.5C101.8,62.8,101.2,61.1,99.4,60.2L99.4,60.2z"/>
	<path class="st1" d="M145.8,84.2h-7.1c1.1-6.5,2.2-13,3.4-19.5c0.3-2-0.3-3.7-2-4.5h13.6c-0.1,0.4-0.2,0.8-0.2,1.2
		c-0.5,2.7-1,5.3-1.4,8c-0.4,1.8-0.7,3.7-1,5.5c-0.3,1.9-0.6,3.8-1,5.6C149.7,82.6,147.7,84.2,145.8,84.2L145.8,84.2z"/>
	<path class="st1" d="M156,80.6c0.1-0.7,0.3-1.3,0.4-2c0.6-3.5,1.2-6.9,1.8-10.4c0.2-1.1,0.4-2.2,0.6-3.2c0.3-2,0-3.7-1.9-4.7h34
		c-0.1,0.6-0.2,1.2-0.3,1.9c-0.4,2-2.2,3.6-4.2,3.6h-16.1c-0.5,0-0.8,0.3-1,0.7c-0.1,0.1-0.1,0.1-0.1,0.2c-0.2,1.1-0.4,2.2-0.6,3.2
		c-0.5,2.7-0.9,5.3-1.4,7.9c0,0.1,0,0.1,0.1,0.2c0,0.4,0.3,0.7,0.8,0.7h19.6c-0.2,0.6-0.3,1.2-0.4,1.9c-0.3,2-2.1,3.6-4.1,3.6H159
		C157,84.2,155.7,82.6,156,80.6L156,80.6z"/>
	<path class="st1" d="M193.6,78.7c0.8-4.7,1.7-9.3,2.5-14c0.3-2-0.3-3.7-2-4.5h34.2c-0.1,0.6-0.2,1.2-0.4,1.9
		c-0.3,2-2.3,3.6-4.4,3.6h-16.9c0,0.2,0,0.4-0.1,0.6c-0.1,1-0.3,2-0.5,2.9v0.3h17.5c-0.1,0.6-0.2,1.2-0.4,1.9
		c-0.3,2-2.1,3.6-4.2,3.6H205v0.3c-0.1,0.6-0.2,1.1-0.3,1.7s-0.2,1.2-0.3,1.8v0.1H225c-0.1,0.6-0.2,1.2-0.3,1.9
		c-0.4,2-2.3,3.6-4.4,3.6h-24c-2,0-3.4-1.6-3-3.6C193.5,79.9,193.6,79.3,193.6,78.7L193.6,78.7z"/>
	<path class="st1" d="M242.4,76.9c-0.1,0.6-0.2,1.2-0.3,1.8c-0.2,0.6-0.3,1.3-0.4,1.9c-0.1,0.7-0.4,1.3-0.9,1.9
		c-0.8,1-2,1.7-3.1,1.7h-7.3c1.1-6.5,2.2-13,3.4-19.5c0.3-2-0.3-3.7-2-4.5H266c-0.1,0.6-0.2,1.2-0.4,1.9c-0.3,2-2.3,3.6-4.4,3.6
		h-16.9c0,0.2,0,0.4-0.1,0.6c-0.1,1-0.3,2-0.5,2.9v0.3h17.5c-0.1,0.6-0.2,1.2-0.4,1.9c-0.3,2-2.2,3.6-4.2,3.6h-13.9v0.3
		C242.6,75.8,242.5,76.3,242.4,76.9L242.4,76.9z"/>
	<path class="st1" d="M289.2,84.2c1.1-6.5,2.3-13,3.4-19.5c0.3-2-0.3-3.7-1.8-4.5h13.4c-0.6,3.1-1.1,6.2-1.6,9.3h12
		c0.3-1.9,0.6-3.8,1-5.6c0.3-2,2.2-3.6,4.1-3.6h7.2c-1.2,6.8-2.4,13.6-3.6,20.4c-0.3,2-2.2,3.6-4.2,3.6H312c0.5-3.1,1.1-6.2,1.6-9.3
		h-12c-0.3,1.9-0.6,3.8-1,5.6c-0.3,2-2.1,3.6-4.2,3.6C296.3,84.2,289.2,84.2,289.2,84.2z"/>
	<path class="st1" d="M329.6,78.7c0.8-4.7,1.7-9.3,2.5-14c0.3-2-0.3-3.7-2-4.5h34.2c-0.1,0.6-0.2,1.2-0.4,1.9
		c-0.3,2-2.3,3.6-4.4,3.6h-16.9c0,0.2,0,0.4-0.1,0.6c-0.1,1-0.3,2-0.5,2.9v0.3h17.5c-0.1,0.6-0.2,1.2-0.4,1.9
		c-0.3,2-2.1,3.6-4.2,3.6H341v0.3c-0.1,0.6-0.2,1.1-0.3,1.7c-0.1,0.6-0.2,1.2-0.3,1.8v0.1H361c-0.1,0.6-0.2,1.2-0.3,1.9
		c-0.4,2-2.3,3.6-4.4,3.6h-24c-2,0-3.4-1.6-3-3.6C329.5,79.9,329.6,79.3,329.6,78.7L329.6,78.7z"/>
	<path class="st1" d="M382.2,76.9h-3.8c-0.2,1.2-0.4,2.5-0.6,3.7c-0.4,2-2.3,3.6-4.4,3.6h-7.1c1.1-6.5,2.3-13,3.4-19.5
		c0.3-2-0.2-3.7-1.9-4.5h32.6c1.9,0,3.3,1.6,2.9,3.6c-0.6,3.2-1.2,6.3-1.7,9.4c-0.4,2-2.2,3.6-4.2,3.6h-2.3c1.8,2.4,3.8,4.9,5.8,7.3
		h-9.8c-0.9,0-1.5-0.3-2.3-1.2c-1.4-1.6-2.6-3.2-3.9-4.9C384.3,77.3,383.4,76.9,382.2,76.9L382.2,76.9z M391.6,70.5
		c0.2-1.3,0.4-2.6,0.7-3.9c0.1-0.5-0.4-0.9-0.9-0.9h-10.9c-0.3,1.9-0.7,3.8-1,5.7h10.9C390.9,71.4,391.5,71,391.6,70.5L391.6,70.5z"
		/>
	<path class="st1" d="M443.6,63.8c-1,5.6-2.1,11.2-3,16.8c-0.3,2-2.2,3.6-4.2,3.6h-27.1c-2,0-3.4-1.6-3-3.6c1-5.6,2.1-11.2,3-16.8
		c0.3-2,2.2-3.6,4.2-3.6h27.1C442.6,60.2,444,61.9,443.6,63.8L443.6,63.8z M418.2,78.7h11.1c0.4,0,0.9-0.4,1-0.9
		c0.6-3.7,1.3-7.4,2-11.2c0.1-0.5-0.3-0.9-0.8-0.9h-11c-0.6,0-1,0.4-1.1,0.9c-0.7,3.7-1.3,7.5-2,11.2
		C417.3,78.3,417.6,78.7,418.2,78.7L418.2,78.7z"/>
	<path class="st1" d="M446.7,78.7c0.8-4.7,1.7-9.3,2.5-14c0.3-2-0.3-3.7-2-4.5h34.2c-0.1,0.6-0.2,1.2-0.4,1.9
		c-0.3,2-2.3,3.6-4.4,3.6h-16.9c0,0.2,0,0.4-0.1,0.6c-0.1,1-0.3,2-0.5,2.9v0.3h17.5c-0.1,0.6-0.2,1.2-0.4,1.9
		c-0.3,2-2.1,3.6-4.2,3.6h-13.9v0.3c-0.1,0.6-0.2,1.1-0.3,1.7c-0.1,0.6-0.2,1.2-0.3,1.8v0.1h20.6c-0.1,0.6-0.2,1.2-0.3,1.9
		c-0.4,2-2.3,3.6-4.4,3.6h-24c-2,0-3.4-1.6-3-3.6C446.5,79.9,446.6,79.3,446.7,78.7L446.7,78.7z"/>
	<path class="st1" d="M506.1,78.7c0.6,0,1.1-0.4,1.2-0.9c0.1-0.6,0.2-1.3,0.3-1.9c0.1-0.5-0.2-0.9-0.7-0.9h-19.1c-2,0-3.4-1.6-3-3.6
		c0.3-1.6,0.6-3.2,0.9-4.9c0.1-0.6,0.2-1.2,0.3-1.7c0.3-2-0.1-3.5-2-4.5h36.1c-0.1,0.6-0.2,1.2-0.4,1.9c-0.3,2-2.1,3.6-4.2,3.6
		h-18.1c-0.5,0-0.9,0.4-1,0.9c-0.2,0.7-0.3,1.3-0.4,1.9c-0.1,0.5,0.3,0.9,0.7,0.9h19.2c1.9,0,3.3,1.6,2.9,3.6
		c-0.5,2.5-0.9,5-1.3,7.5c-0.4,2-2.3,3.6-4.2,3.6h-29.9c0.1-0.6,0.2-1.2,0.3-1.9c0.4-2,2.3-3.6,4.4-3.6H506.1L506.1,78.7z"/>
	<path class="st1" d="M559.1,76.9h-3.8c-0.2,1.2-0.4,2.5-0.6,3.7c-0.4,2-2.3,3.6-4.3,3.6h-7.1c1.1-6.5,2.3-13,3.4-19.5
		c0.3-2-0.2-3.7-1.9-4.5h32.6c1.9,0,3.3,1.6,2.9,3.6c-0.6,3.2-1.2,6.3-1.7,9.4c-0.4,2-2.2,3.6-4.2,3.6h-2.3c1.8,2.4,3.8,4.9,5.8,7.3
		h-9.8c-0.9,0-1.5-0.3-2.3-1.2c-1.4-1.6-2.6-3.2-3.8-4.9C561.3,77.3,560.4,76.9,559.1,76.9L559.1,76.9z M568.5,70.5
		c0.2-1.3,0.4-2.6,0.7-3.9c0.1-0.5-0.4-0.9-0.9-0.9h-10.9c-0.3,1.9-0.7,3.8-1,5.7h10.9C567.9,71.4,568.5,71,568.5,70.5L568.5,70.5z"
		/>
	<path class="st1" d="M595.1,72.9c-0.3,1.7-0.6,3.3-0.9,4.9c-0.1,0.5,0.4,0.9,0.8,0.9h11.1c0.5,0,0.9-0.4,1-0.9
		c0.3-1.6,0.6-3.3,0.9-4.9c0.2-1.2,0.4-2.3,0.6-3.4c0.3-1.9,0.6-3.7,1-5.6c0.3-2,2.3-3.6,4.2-3.6h7.1c-0.6,3.1-1.1,6.1-1.6,9.2
		c-0.2,1.2-0.4,2.3-0.6,3.4c-0.5,2.6-1,5.1-1.4,7.7c-0.3,2-2.1,3.6-4.2,3.6H586c-1.9,0-3.3-1.6-2.9-3.6c0.5-2.6,0.9-5.2,1.4-7.7
		c0.2-1.2,0.4-2.3,0.6-3.4c0.2-1.6,0.5-3.1,0.8-4.7c0.3-2-0.4-3.7-1.9-4.5h13.4c-0.6,3.1-1.1,6.1-1.6,9.2
		C595.6,70.6,595.3,71.7,595.1,72.9L595.1,72.9z"/>
	<path class="st1" d="M624.5,60.2h13.3c3.7,4.2,7.3,8.4,11,12.6c0.2-1.1,0.4-2.2,0.6-3.3c0.3-1.9,0.6-3.8,1-5.6
		c0.3-2,2.1-3.6,4.2-3.6h7.1c-1.2,6.8-2.4,13.6-3.7,20.4c-0.4,2-2.3,3.6-4.2,3.6H647c-3.8-4.2-7.5-8.4-11-12.6c-0.6,3-1.1,6-1.6,9
		c-0.4,2-2.3,3.6-4.2,3.6H623c1.1-6.5,2.2-13,3.4-19.5C626.8,62.8,626.2,61.1,624.5,60.2L624.5,60.2z"/>
	<path class="st1" d="M665.2,75.9H676l-0.5,2.8c-0.1,0.6-0.2,1.2-0.4,1.9c-0.3,2-2.3,3.6-4.2,3.6h-7.1c0.3-1.8,0.6-3.7,0.9-5.5
		L665.2,75.9L665.2,75.9z M667.9,60.2h10.8l-0.5,2.8c-0.1,0.6-0.2,1.2-0.4,1.9c-0.3,2-2.3,3.6-4.2,3.6h-7.1c0.3-1.8,0.6-3.7,0.9-5.5
		L667.9,60.2L667.9,60.2z"/>
	<path class="st1" d="M62,108.2h30.8c1.9,0,3.3,1.6,2.9,3.6c-0.3,1.9-0.7,3.8-1,5.6c-0.2,1.1-0.9,2.1-1.8,2.8c0.7,0.7,1,1.7,0.8,2.8
		c-0.3,1.9-0.7,3.7-1,5.6c-0.4,2-2.2,3.6-4.2,3.6H57.7c0.5-3.1,1.1-6.2,1.6-9.3c0.6-3.4,1.2-6.8,1.8-10.2c0.3-1.9-0.4-3.7-2-4.5
		C59.1,108.2,61.9,108.2,62,108.2z M70.4,126.7h11c0.5,0,1-0.4,1.1-0.9c0.1-0.6,0.2-1.3,0.3-1.9c0.1-0.5-0.3-0.9-0.8-0.9H70
		c-0.2,1.3-0.4,2.5-0.6,3.8L70.4,126.7L70.4,126.7z M81.2,117.5H83c0.5,0,1-0.4,1.1-0.9c0.1-0.6,0.3-1.3,0.4-1.9
		c0.1-0.5-0.4-0.9-0.9-0.9h-12c-0.2,1.3-0.4,2.5-0.6,3.8L81.2,117.5L81.2,117.5z"/>
	<path class="st1" d="M138.6,133.2h-12.2c-0.4-0.8-0.6-1.5-0.9-2.3h-13.6c-0.6,0.8-1.3,1.5-1.9,2.3H98.1
		c6.1-7.6,12.3-15.2,18.6-22.8c0.9-1.1,0.1-1.6-1-2.2h9.1c1.4,0,2.5,0.7,3.1,1.9C131.5,117.8,135,125.5,138.6,133.2z M123,125.5
		c-0.8-1.7-1.6-3.4-2.4-5.1c-1.3,1.7-2.7,3.4-4.2,5.1H123z"/>
	<path class="st1" d="M162,117.5c-0.4,1.8-0.7,3.7-1,5.5c-0.4,1.9-0.7,3.8-1,5.6c-0.4,2-2.2,3.6-4.2,3.6h-7.2
		c1.1-6.2,2.1-12.3,3.2-18.5h-11.2c0.3-1.8,0.7-3.7,1-5.5H175c-0.1,0.6-0.2,1.2-0.4,1.9c-0.3,2-2.3,3.6-4.2,3.6h-7.7
		C162.5,115,162.3,116.2,162,117.5L162,117.5z"/>
	<path class="st1" d="M222.5,108.2h0.2c-1.2,6.8-2.4,13.6-3.6,20.4c-0.3,2-2.1,3.6-4.1,3.6h-7.1c0.4-2.5,0.8-5,1.3-7.5
		c-2.1,2.5-4.1,5-6.2,7.5h-10.4c-1.3-2.5-2.4-5-3.5-7.5c-0.2,1.3-0.4,2.6-0.7,3.9c-0.3,2-2.2,3.6-4.1,3.6H177
		c1.1-6.7,2.3-13.3,3.5-20c0.3-1.8-0.4-3.2-1.9-4h13c2.4,5.4,5,10.8,7.5,16.1c3.9-4.7,7.7-9.5,11.6-14.2c1-1.2,2.4-1.9,3.8-1.9
		H222.5L222.5,108.2z"/>
	<path class="st1" d="M265.2,133.2h-12.1c-0.4-0.8-0.6-1.5-0.9-2.3h-13.6c-0.6,0.8-1.3,1.5-1.9,2.3h-11.9
		c6.1-7.6,12.4-15.2,18.6-22.8c0.9-1.1,0.1-1.6-1-2.2h9.1c1.4,0,2.5,0.7,3.1,1.9C258.1,117.8,261.7,125.5,265.2,133.2z M249.6,125.5
		c-0.8-1.7-1.6-3.4-2.4-5.1c-1.3,1.7-2.7,3.4-4.1,5.1H249.6L249.6,125.5z"/>
	<path class="st1" d="M268.6,108.2h13.3c3.6,4.2,7.3,8.4,11,12.6c0.2-1.1,0.4-2.2,0.6-3.3c0.3-1.9,0.6-3.8,1-5.6
		c0.3-2,2.1-3.6,4.2-3.6h7.1c-1.2,6.8-2.4,13.6-3.6,20.4c-0.4,2-2.3,3.6-4.2,3.6h-6.8c-3.8-4.2-7.5-8.4-11-12.6c-0.6,3-1.1,6-1.6,9
		c-0.4,2-2.3,3.6-4.2,3.6h-7.1c1.1-6.5,2.2-13,3.4-19.5C270.9,110.8,270.4,109.1,268.6,108.2L268.6,108.2z"/>
</g>
<g>
	<path class="st1" d="M77.4,163.1l-8.1,18.6h-3.4l-8.1-18.6h3.8l6.2,14.3l6.3-14.3H77.4L77.4,163.1z"/>
	<path class="st1" d="M78.7,163.2c0-1.1,0.9-2,2.1-2s2.1,0.8,2.1,1.9c0,1.2-0.9,2.1-2.1,2.1S78.7,164.3,78.7,163.2z M79.1,167.6h3.3
		v14.2h-3.3V167.6z"/>
	<path class="st1" d="M86.8,162h3.3v19.7h-3.3V162z"/>
	<path class="st1" d="M94.5,162h3.3v19.7h-3.3V162z"/>
	<path class="st1" d="M114.1,173.4v8.3H111v-1.7c-0.8,1.3-2.4,1.9-4.5,1.9c-3.3,0-5.3-1.8-5.3-4.3s1.6-4.2,5.9-4.2h3.7v-0.2
		c0-1.9-1.2-3.1-3.5-3.1c-1.6,0-3.3,0.5-4.3,1.4l-1.3-2.4c1.6-1.2,3.7-1.8,6-1.8C111.7,167.4,114.1,169.4,114.1,173.4L114.1,173.4z
		 M110.8,177.3v-1.6h-3.4c-2.3,0-2.9,0.8-2.9,1.9c0,1.2,1,2,2.7,2S110.2,178.8,110.8,177.3z"/>
	<path class="st1" d="M126.6,167.4v3.2c-0.3-0.1-0.5-0.1-0.7-0.1c-2.5,0-4.1,1.5-4.1,4.4v6.9h-3.3v-14.2h3.2v2.1
		C122.5,168.2,124.2,167.4,126.6,167.4z"/>
	<path class="st1" d="M137.7,167.4v3.2c-0.3-0.1-0.5-0.1-0.7-0.1c-2.5,0-4.1,1.5-4.1,4.4v6.9h-3.3v-14.2h3.2v2.1
		C133.5,168.2,135.3,167.4,137.7,167.4z"/>
	<path class="st1" d="M140,163.2c0-1.1,0.9-2,2.1-2c1.3,0,2.1,0.8,2.1,1.9c0,1.2-0.9,2.1-2.1,2.1C140.9,165.2,140,164.3,140,163.2z
		 M140.5,167.6h3.3v14.2h-3.3V167.6z"/>
	<path class="st1" d="M147,174.7c0-4.3,3.2-7.2,7.7-7.2c2.7,0,5,1.2,6.1,3.3l-2.6,1.5c-0.8-1.3-2.1-2-3.5-2c-2.4,0-4.3,1.7-4.3,4.4
		c0,2.7,1.8,4.4,4.3,4.4c1.4,0,2.7-0.6,3.5-2l2.6,1.5c-1.1,2.1-3.3,3.3-6.1,3.3C150.1,182,147,179,147,174.7L147,174.7z"/>
	<path class="st1" d="M175.5,173.4v8.3h-3.1v-1.7c-0.8,1.3-2.4,1.9-4.5,1.9c-3.3,0-5.3-1.8-5.3-4.3s1.6-4.2,5.9-4.2h3.7v-0.2
		c0-1.9-1.2-3.1-3.5-3.1c-1.6,0-3.3,0.5-4.3,1.4l-1.3-2.4c1.6-1.2,3.7-1.8,6-1.8C173.1,167.4,175.5,169.4,175.5,173.4L175.5,173.4z
		 M172.2,177.3v-1.6h-3.4c-2.3,0-2.9,0.8-2.9,1.9c0,1.2,1,2,2.7,2C170.3,179.6,171.6,178.8,172.2,177.3z"/>
	<path class="st1" d="M178.6,169.6c0-1.3,1-2.2,2.1-2.2c1.2,0,2.1,0.9,2.1,2.2c0,1.3-1,2.2-2.1,2.2
		C179.6,171.9,178.6,170.9,178.6,169.6z M178.6,179.8c0-1.3,1-2.2,2.1-2.2c1.2,0,2.1,0.9,2.1,2.2c0,1.3-1,2.2-2.1,2.2
		C179.6,182,178.6,181,178.6,179.8z"/>
	<path class="st1" d="M206,178.8v3h-13.7v-2.3l7.4-7c1.8-1.7,2.1-2.8,2.1-3.8c0-1.7-1.2-2.7-3.5-2.7c-1.8,0-3.3,0.6-4.4,1.9
		l-2.4-1.8c1.4-1.9,4-3.1,7.1-3.1c4.1,0,6.7,2.1,6.7,5.3c0,1.8-0.5,3.5-3.1,5.9l-5,4.7L206,178.8L206,178.8z"/>
	<path class="st1" d="M221.5,178.8v3h-13.7v-2.3l7.4-7c1.8-1.7,2.1-2.8,2.1-3.8c0-1.7-1.2-2.7-3.5-2.7c-1.8,0-3.3,0.6-4.4,1.9
		L207,166c1.4-1.9,4-3.1,7.1-3.1c4.1,0,6.7,2.1,6.7,5.3c0,1.8-0.5,3.5-3.1,5.9l-5,4.7L221.5,178.8L221.5,178.8z"/>
	<path class="st1" d="M245.2,175.7H234c0.4,2.1,2.1,3.4,4.6,3.4c1.6,0,2.9-0.5,3.8-1.6l1.8,2.1c-1.3,1.6-3.3,2.3-5.7,2.3
		c-4.7,0-7.8-3-7.8-7.3c0-4.3,3.1-7.2,7.3-7.2s7.2,2.9,7.2,7.3C245.2,175,245.2,175.4,245.2,175.7L245.2,175.7z M234,173.5h8.1
		c-0.3-2.1-1.8-3.5-4-3.5S234.3,171.4,234,173.5z"/>
	<path class="st1" d="M262.4,173.6v8.1h-3.3v-7.7c0-2.5-1.3-3.8-3.4-3.8c-2.4,0-4,1.4-4,4.3v7.2h-3.3v-14.2h3.2v1.8
		c1.1-1.3,2.8-2,4.9-2C259.9,167.4,262.4,169.4,262.4,173.6L262.4,173.6z"/>
	<path class="st1" d="M280,175.7h-11.2c0.4,2.1,2.1,3.4,4.6,3.4c1.6,0,2.9-0.5,3.8-1.6l1.8,2.1c-1.3,1.6-3.3,2.3-5.7,2.3
		c-4.7,0-7.8-3-7.8-7.3c0-4.3,3.1-7.2,7.3-7.2s7.2,2.9,7.2,7.3C280.1,175,280.1,175.4,280,175.7L280,175.7z M268.9,173.5h8.1
		c-0.3-2.1-1.8-3.5-4-3.5C270.8,170,269.3,171.4,268.9,173.5z"/>
	<path class="st1" d="M291.6,167.4v3.2c-0.3-0.1-0.5-0.1-0.7-0.1c-2.5,0-4.1,1.5-4.1,4.4v6.9h-3.3v-14.2h3.2v2.1
		C287.4,168.2,289.2,167.4,291.6,167.4z"/>
	<path class="st1" d="M293.1,174.7c0-4.3,3.2-7.2,7.5-7.2c4.4,0,7.6,3,7.6,7.2s-3.2,7.3-7.6,7.3C296.2,182,293.1,178.9,293.1,174.7z
		 M304.9,174.7c0-2.7-1.8-4.4-4.2-4.4s-4.2,1.7-4.2,4.4c0,2.7,1.8,4.4,4.2,4.4S304.9,177.4,304.9,174.7z"/>
	<path class="st1" d="M331.2,178.8v3h-13.7v-2.3l7.4-7c1.8-1.7,2.1-2.8,2.1-3.8c0-1.7-1.2-2.7-3.5-2.7c-1.8,0-3.3,0.6-4.4,1.9
		l-2.4-1.8c1.4-1.9,4-3.1,7.1-3.1c4.1,0,6.7,2.1,6.7,5.3c0,1.8-0.5,3.5-3.1,5.9l-5,4.7L331.2,178.8L331.2,178.8z"/>
	<path class="st1" d="M333.1,172.5c0-6.1,3.3-9.6,7.8-9.6c4.4,0,7.8,3.5,7.8,9.6s-3.3,9.6-7.8,9.6
		C336.4,182.1,333.1,178.6,333.1,172.5z M345.2,172.5c0-4.5-1.8-6.6-4.3-6.6c-2.5,0-4.3,2.1-4.3,6.6s1.8,6.6,4.3,6.6
		C343.4,179,345.2,177,345.2,172.5z"/>
	<path class="st1" d="M364.4,178.8v3h-13.7v-2.3l7.4-7c1.8-1.7,2.1-2.8,2.1-3.8c0-1.7-1.2-2.7-3.5-2.7c-1.8,0-3.3,0.6-4.4,1.9
		l-2.4-1.8c1.4-1.9,4-3.1,7.1-3.1c4.1,0,6.7,2.1,6.7,5.3c0,1.8-0.5,3.5-3.1,5.9l-5,4.7L364.4,178.8L364.4,178.8z"/>
	<path class="st1" d="M379.6,176.2c0,3.1-2.4,5.8-7.4,5.8c-2.7,0-5.2-0.8-7-2.1l1.5-2.7c1.3,1.1,3.3,1.8,5.5,1.8
		c2.5,0,3.9-1.1,3.9-2.8c0-1.7-1.3-2.7-4.1-2.7h-1.7v-2.4l4.2-5H366v-3h12.7v2.3l-4.5,5.4C377.8,171.3,379.6,173.4,379.6,176.2
		L379.6,176.2z"/>
	<path class="st1" d="M60.4,198.6h3.5v15.7h9.8v3H60.4V198.6L60.4,198.6z"/>
	<path class="st1" d="M89.5,203v14.2h-3.2v-1.8c-1,1.3-2.7,2-4.6,2c-3.6,0-6.1-2-6.1-6.3V203H79v7.7c0,2.6,1.3,3.8,3.3,3.8
		c2.3,0,3.8-1.4,3.8-4.3V203H89.5L89.5,203z"/>
	<path class="st1" d="M108,203v12c0,5.2-2.7,7.5-7.7,7.5c-2.7,0-5.3-0.7-6.9-2l1.5-2.5c1.3,1,3.3,1.7,5.2,1.7c3.1,0,4.5-1.4,4.5-4.3
		v-0.7c-1.2,1.3-2.8,1.9-4.7,1.9c-4.1,0-7.2-2.7-7.2-6.9s3.1-6.8,7.2-6.8c2,0,3.8,0.7,5,2.1v-2C104.8,203,108,203,108,203z
		 M104.8,209.7c0-2.4-1.8-4-4.3-4s-4.4,1.6-4.4,4c0,2.4,1.8,4.1,4.4,4.1S104.8,212.1,104.8,209.7z"/>
	<path class="st1" d="M124.3,208.9v8.3h-3.1v-1.7c-0.8,1.3-2.4,1.9-4.5,1.9c-3.3,0-5.3-1.8-5.3-4.3c0-2.5,1.6-4.2,5.9-4.2h3.7v-0.2
		c0-1.9-1.2-3.1-3.5-3.1c-1.6,0-3.3,0.5-4.3,1.4l-1.3-2.4c1.6-1.2,3.7-1.8,6-1.8C121.9,202.9,124.3,204.8,124.3,208.9L124.3,208.9z
		 M121,212.8v-1.6h-3.4c-2.3,0-2.9,0.8-2.9,1.9c0,1.2,1,2,2.7,2S120.4,214.3,121,212.8z"/>
	<path class="st1" d="M136.8,202.9v3.2c-0.3-0.1-0.5-0.1-0.7-0.1c-2.5,0-4.1,1.5-4.1,4.4v6.9h-3.3V203h3.2v2.1
		C132.7,203.6,134.4,202.9,136.8,202.9z"/>
	<path class="st1" d="M138.8,205.1c0-1.3,1-2.2,2.1-2.2c1.2,0,2.1,0.9,2.1,2.2c0,1.3-1,2.2-2.1,2.2
		C139.7,207.3,138.8,206.4,138.8,205.1z M138.8,215.2c0-1.3,1-2.2,2.1-2.2c1.2,0,2.1,0.9,2.1,2.2c0,1.3-1,2.2-2.1,2.2
		C139.7,217.5,138.8,216.5,138.8,215.2z"/>
	<path class="st1" d="M152.7,207.9c0-5.5,4.3-9.6,10-9.6c3,0,5.6,1.1,7.4,3.1l-2.2,2.1c-1.3-1.5-3-2.1-5-2.1c-3.8,0-6.7,2.7-6.7,6.6
		c0,3.8,2.8,6.6,6.7,6.6c1.9,0,3.6-0.7,5-2.2l2.2,2.1c-1.7,2-4.4,3.1-7.4,3.1C156.9,217.5,152.7,213.5,152.7,207.9L152.7,207.9z"/>
	<path class="st1" d="M172.6,198.7c0-1.1,0.9-2,2.1-2c1.3,0,2.1,0.8,2.1,1.9c0,1.2-0.9,2.1-2.1,2.1
		C173.5,200.7,172.6,199.8,172.6,198.7z M173,203h3.3v14.2H173V203z"/>
	<path class="st1" d="M194.5,203v14.2h-3.2v-1.8c-1,1.3-2.7,2-4.6,2c-3.6,0-6.1-2-6.1-6.3V203h3.3v7.7c0,2.6,1.3,3.8,3.3,3.8
		c2.3,0,3.8-1.4,3.8-4.3V203H194.5L194.5,203z"/>
	<path class="st1" d="M212.7,197.5v19.7h-3.2v-1.8c-1.1,1.3-2.7,2-4.7,2c-4.1,0-7.2-2.9-7.2-7.3s3-7.2,7.2-7.2
		c1.8,0,3.5,0.6,4.6,1.9v-7.3L212.7,197.5L212.7,197.5z M209.5,210.1c0-2.7-1.8-4.4-4.2-4.4c-2.4,0-4.2,1.7-4.2,4.4s1.8,4.4,4.2,4.4
		C207.6,214.6,209.5,212.9,209.5,210.1z"/>
	<path class="st1" d="M229,208.9v8.3h-3.1v-1.7c-0.8,1.3-2.4,1.9-4.4,1.9c-3.3,0-5.3-1.8-5.3-4.3c0-2.5,1.6-4.2,5.9-4.2h3.7v-0.2
		c0-1.9-1.2-3.1-3.5-3.1c-1.6,0-3.3,0.5-4.3,1.4l-1.3-2.4c1.5-1.2,3.7-1.8,6-1.8C226.6,202.9,229,204.8,229,208.9L229,208.9z
		 M225.7,212.8v-1.6h-3.4c-2.3,0-2.9,0.8-2.9,1.9c0,1.2,1,2,2.7,2C223.8,215.1,225.1,214.3,225.7,212.8L225.7,212.8z"/>
	<path class="st1" d="M247.3,197.5v19.7h-3.2v-1.8c-1.1,1.3-2.7,2-4.7,2c-4.1,0-7.2-2.9-7.2-7.3s3-7.2,7.2-7.2
		c1.8,0,3.5,0.6,4.6,1.9v-7.3L247.3,197.5L247.3,197.5z M244,210.1c0-2.7-1.8-4.4-4.2-4.4c-2.4,0-4.2,1.7-4.2,4.4s1.8,4.4,4.2,4.4
		C242.1,214.6,244,212.9,244,210.1z"/>
	<path class="st1" d="M273,197.5v19.7h-3.2v-1.8c-1.1,1.3-2.7,2-4.7,2c-4.1,0-7.2-2.9-7.2-7.3s3-7.2,7.2-7.2c1.8,0,3.5,0.6,4.6,1.9
		v-7.3L273,197.5L273,197.5z M269.6,210.1c0-2.7-1.8-4.4-4.2-4.4s-4.2,1.7-4.2,4.4s1.8,4.4,4.2,4.4S269.6,212.9,269.6,210.1z"/>
	<path class="st1" d="M290.6,211.2h-11.2c0.4,2.1,2.1,3.4,4.6,3.4c1.6,0,2.9-0.5,3.8-1.6l1.8,2.1c-1.3,1.6-3.3,2.3-5.7,2.3
		c-4.7,0-7.8-3-7.8-7.3c0-4.3,3.1-7.2,7.3-7.2c4.2,0,7.2,2.9,7.2,7.3C290.6,210.5,290.6,210.9,290.6,211.2L290.6,211.2z M279.4,209
		h8.1c-0.3-2.1-1.8-3.5-4-3.5C281.3,205.5,279.8,206.9,279.4,209L279.4,209z"/>
	<path class="st1" d="M318.5,198.6l-8.1,18.6H307l-8.1-18.6h3.8l6.2,14.3l6.3-14.3H318.5L318.5,198.6z"/>
	<path class="st1" d="M319.9,198.7c0-1.1,0.9-2,2.1-2s2.1,0.8,2.1,1.9c0,1.2-0.9,2.1-2.1,2.1S319.9,199.8,319.9,198.7z M320.3,203
		h3.3v14.2h-3.3V203z"/>
	<path class="st1" d="M328,197.5h3.3v19.7H328V197.5z"/>
	<path class="st1" d="M335.7,197.5h3.3v19.7h-3.3V197.5z"/>
	<path class="st1" d="M355.3,208.9v8.3h-3.1v-1.7c-0.8,1.3-2.4,1.9-4.4,1.9c-3.3,0-5.3-1.8-5.3-4.3c0-2.5,1.6-4.2,5.9-4.2h3.7v-0.2
		c0-1.9-1.2-3.1-3.5-3.1c-1.6,0-3.3,0.5-4.3,1.4l-1.3-2.4c1.5-1.2,3.7-1.8,6-1.8C352.9,202.9,355.3,204.8,355.3,208.9L355.3,208.9z
		 M351.9,212.8v-1.6h-3.5c-2.3,0-2.9,0.8-2.9,1.9c0,1.2,1,2,2.7,2S351.4,214.3,351.9,212.8L351.9,212.8z"/>
	<path class="st1" d="M367.8,202.9v3.2c-0.3-0.1-0.5-0.1-0.7-0.1c-2.5,0-4.1,1.5-4.1,4.4v6.9h-3.3V203h3.2v2.1
		C363.6,203.6,365.4,202.9,367.8,202.9z"/>
	<path class="st1" d="M378.8,202.9v3.2c-0.3-0.1-0.5-0.1-0.7-0.1c-2.5,0-4.1,1.5-4.1,4.4v6.9h-3.3V203h3.2v2.1
		C374.7,203.6,376.4,202.9,378.8,202.9z"/>
	<path class="st1" d="M381.1,198.7c0-1.1,0.9-2,2.1-2s2.1,0.8,2.1,1.9c0,1.2-0.9,2.1-2.1,2.1S381.1,199.8,381.1,198.7z M381.6,203
		h3.3v14.2h-3.3V203z"/>
	<path class="st1" d="M388.1,210.1c0-4.3,3.2-7.2,7.7-7.2c2.7,0,5,1.2,6.1,3.3l-2.6,1.5c-0.9-1.3-2.1-2-3.5-2
		c-2.4,0-4.3,1.7-4.3,4.4s1.8,4.4,4.3,4.4c1.4,0,2.7-0.6,3.5-2l2.6,1.5c-1.1,2.1-3.3,3.3-6.1,3.3
		C391.3,217.5,388.1,214.4,388.1,210.1L388.1,210.1z"/>
	<path class="st1" d="M416.6,208.9v8.3h-3.1v-1.7c-0.8,1.3-2.4,1.9-4.4,1.9c-3.3,0-5.3-1.8-5.3-4.3c0-2.5,1.6-4.2,5.9-4.2h3.7v-0.2
		c0-1.9-1.2-3.1-3.5-3.1c-1.6,0-3.3,0.5-4.3,1.4l-1.3-2.4c1.5-1.2,3.7-1.8,6-1.8C414.2,202.9,416.6,204.8,416.6,208.9L416.6,208.9z
		 M413.3,212.8v-1.6h-3.4c-2.3,0-2.9,0.8-2.9,1.9c0,1.2,1,2,2.7,2C411.4,215.1,412.8,214.3,413.3,212.8L413.3,212.8z"/>
	<path class="st1" d="M76.9,234.1v18.6h-3.5v-8h-9.6v8h-3.5v-18.6h3.5v7.7h9.6v-7.7H76.9L76.9,234.1z"/>
	<path class="st1" d="M80.4,245.6c0-4.3,3.2-7.2,7.5-7.2s7.6,3,7.6,7.2s-3.2,7.3-7.6,7.3S80.4,249.8,80.4,245.6z M92.2,245.6
		c0-2.7-1.8-4.4-4.2-4.4s-4.2,1.7-4.2,4.4s1.8,4.4,4.2,4.4S92.2,248.3,92.2,245.6z"/>
	<path class="st1" d="M107,238.4v3.2c-0.3-0.1-0.5-0.1-0.7-0.1c-2.5,0-4.1,1.5-4.1,4.4v6.9h-3.4v-14.2h3.2v2.1
		C102.8,239.1,104.5,238.4,107,238.4L107,238.4z"/>
	<path class="st1" d="M121.5,244.4v8.3h-3.1V251c-0.8,1.3-2.4,1.9-4.5,1.9c-3.3,0-5.3-1.8-5.3-4.3s1.6-4.2,5.9-4.2h3.7v-0.2
		c0-1.9-1.2-3.1-3.5-3.1c-1.6,0-3.3,0.5-4.3,1.4l-1.3-2.4c1.5-1.2,3.7-1.8,6-1.8C119.3,238.4,121.6,240.3,121.5,244.4L121.5,244.4z
		 M118.2,248.3v-1.6h-3.4c-2.3,0-2.9,0.8-2.9,1.9c0,1.2,1,2,2.7,2C116.4,250.6,117.7,249.7,118.2,248.3z"/>
	<path class="st1" d="M124.7,240.6c0-1.3,1-2.2,2.1-2.2c1.2,0,2.1,0.9,2.1,2.2c0,1.3-1,2.2-2.1,2.2
		C125.7,242.8,124.7,241.8,124.7,240.6z M124.7,250.7c0-1.3,1-2.2,2.1-2.2c1.2,0,2.1,0.9,2.1,2.2s-1,2.2-2.1,2.2
		C125.7,252.9,124.7,252,124.7,250.7z"/>
	<path class="st1" d="M153.8,247.4c0,3.5-3,5.6-7.6,5.6c-4.6,0-7.6-2.1-7.6-5.6c0-2.1,1-3.5,3-4.4c-1.5-0.8-2.3-2.1-2.3-3.9
		c0-3.2,2.8-5.2,6.9-5.2c4.1,0,6.9,2,6.9,5.2c0,1.8-0.8,3.1-2.4,3.9C152.7,243.8,153.8,245.3,153.8,247.4z M150.3,247.2
		c0-1.8-1.6-3-4.1-3s-4.1,1.1-4.1,3s1.6,3,4.1,3S150.3,249.2,150.3,247.2z M142.6,239.2c0,1.6,1.3,2.6,3.5,2.6c2.2,0,3.5-1,3.5-2.6
		c0-1.7-1.4-2.7-3.5-2.7C144,236.5,142.6,237.5,142.6,239.2z"/>
	<path class="st1" d="M155.9,240.6c0-1.3,1-2.2,2.1-2.2c1.2,0,2.1,0.9,2.1,2.2c0,1.3-1,2.2-2.1,2.2
		C156.9,242.8,155.9,241.8,155.9,240.6z M155.9,250.7c0-1.3,1-2.2,2.1-2.2c1.2,0,2.1,0.9,2.1,2.2s-1,2.2-2.1,2.2
		C156.9,252.9,155.9,252,155.9,250.7z"/>
	<path class="st1" d="M175.7,247.1c0,3.1-2.4,5.8-7.4,5.8c-2.7,0-5.2-0.8-7-2.1l1.5-2.7c1.3,1.1,3.3,1.8,5.5,1.8
		c2.5,0,3.9-1.1,3.9-2.8s-1.3-2.7-4.1-2.7h-1.7v-2.4l4.2-5h-8.3v-3H175v2.3l-4.5,5.4C173.9,242.2,175.7,244.4,175.7,247.1
		L175.7,247.1z"/>
	<path class="st1" d="M178,243.4c0-6.1,3.3-9.6,7.8-9.6s7.8,3.5,7.8,9.6c0,6.1-3.3,9.6-7.8,9.6S178,249.5,178,243.4z M190,243.4
		c0-4.5-1.8-6.6-4.3-6.6s-4.3,2.1-4.3,6.6c0,4.5,1.8,6.6,4.3,6.6S190,247.9,190,243.4z"/>
	<path class="st1" d="M221.1,234.1v18.6h-3.5v-8H208v8h-3.5v-18.6h3.5v7.7h9.6v-7.7H221.1L221.1,234.1z"/>
	<path class="st1" d="M234,238.4v3.2c-0.3-0.1-0.5-0.1-0.7-0.1c-2.5,0-4.1,1.5-4.1,4.4v6.9h-3.3v-14.2h3.2v2.1
		C229.9,239.1,231.6,238.4,234,238.4L234,238.4z"/>
	<path class="st1" d="M235.3,251.3l1.3-2.5c1.3,0.8,3.2,1.4,5,1.4c2.1,0,3-0.6,3-1.6c0-2.7-8.8-0.1-8.8-5.8c0-2.7,2.4-4.4,6.3-4.4
		c1.9,0,4.1,0.4,5.3,1.3l-1.3,2.5c-1.3-0.8-2.7-1-4.1-1c-2,0-3,0.7-3,1.6c0,2.9,8.8,0.3,8.8,5.9c0,2.7-2.4,4.4-6.4,4.4
		C238.9,252.9,236.5,252.2,235.3,251.3L235.3,251.3z"/>
	<path class="st1" d="M74.3,285.3v2.9h-14v-18.6H74v2.9H63.8v4.8h9v2.9h-9v5.2H74.3L74.3,285.3z"/>
	<path class="st1" d="M91.8,280v8.1h-3.3v-7.7c0-2.5-1.3-3.8-3.4-3.8c-2.4,0-4,1.4-4,4.3v7.2h-3.3V274H81v1.8c1.1-1.3,2.8-2,4.9-2
		C89.3,273.8,91.8,275.8,91.8,280L91.8,280z"/>
	<path class="st1" d="M104.6,287.4c-0.8,0.7-2,1-3.2,1c-3.1,0-4.9-1.6-4.9-4.8v-6.8h-2.4v-2.7h2.4v-3.3h3.3v3.3h3.8v2.7h-3.8v6.7
		c0,1.4,0.7,2.1,2,2.1c0.7,0,1.3-0.1,1.8-0.6L104.6,287.4z"/>
	<path class="st1" d="M115.6,273.8v3.2c-0.3-0.1-0.5-0.1-0.7-0.1c-2.5,0-4.1,1.5-4.1,4.4v6.9h-3.3V274h3.2v2.1
		C111.5,274.6,113.2,273.8,115.6,273.8L115.6,273.8z"/>
	<path class="st1" d="M131.5,282.1h-11.2c0.4,2.1,2.1,3.4,4.6,3.4c1.6,0,2.9-0.5,3.8-1.6l1.8,2.1c-1.3,1.5-3.3,2.3-5.7,2.3
		c-4.7,0-7.8-3-7.8-7.3c0-4.3,3.1-7.2,7.3-7.2c4.2,0,7.2,2.9,7.2,7.3C131.6,281.4,131.6,281.8,131.5,282.1L131.5,282.1z
		 M120.4,279.9h8.1c-0.3-2.1-1.8-3.5-4-3.5C122.3,276.4,120.7,277.8,120.4,279.9L120.4,279.9z"/>
	<path class="st1" d="M148.9,274v12c0,5.2-2.7,7.5-7.7,7.5c-2.7,0-5.3-0.7-6.9-2l1.5-2.5c1.3,1,3.3,1.7,5.2,1.7
		c3.1,0,4.5-1.4,4.5-4.3v-0.7c-1.2,1.3-2.9,1.9-4.7,1.9c-4.1,0-7.2-2.7-7.2-6.9c0-4.1,3.1-6.8,7.2-6.8c2,0,3.8,0.7,5,2.1v-2H148.9
		L148.9,274z M145.6,280.6c0-2.4-1.8-4-4.3-4c-2.5,0-4.4,1.6-4.4,4s1.8,4.1,4.4,4.1S145.6,283.1,145.6,280.6z"/>
	<path class="st1" d="M165.1,279.8v8.3H162v-1.7c-0.8,1.3-2.4,1.9-4.5,1.9c-3.3,0-5.3-1.8-5.3-4.3c0-2.5,1.6-4.2,5.9-4.2h3.7v-0.2
		c0-1.9-1.2-3.1-3.5-3.1c-1.6,0-3.3,0.5-4.3,1.4l-1.3-2.4c1.6-1.2,3.7-1.8,6-1.8C162.8,273.8,165.1,275.8,165.1,279.8L165.1,279.8z
		 M161.8,283.7v-1.6h-3.4c-2.3,0-2.9,0.8-2.9,1.9c0,1.2,1,2,2.7,2C160,286,161.3,285.2,161.8,283.7z"/>
	<path class="st1" d="M190.6,268.4v19.7h-3.2v-1.8c-1.1,1.3-2.7,2-4.7,2c-4.1,0-7.2-2.9-7.2-7.3c0-4.4,3-7.2,7.2-7.2
		c1.8,0,3.5,0.6,4.6,1.9v-7.3L190.6,268.4L190.6,268.4z M187.4,281.1c0-2.7-1.8-4.4-4.2-4.4s-4.2,1.7-4.2,4.4s1.8,4.4,4.2,4.4
		S187.4,283.8,187.4,281.1z"/>
	<path class="st1" d="M208.3,282.1h-11.2c0.4,2.1,2.1,3.4,4.6,3.4c1.6,0,2.9-0.5,3.8-1.6l1.8,2.1c-1.3,1.5-3.3,2.3-5.7,2.3
		c-4.7,0-7.8-3-7.8-7.3c0-4.3,3.1-7.2,7.3-7.2s7.2,2.9,7.2,7.3C208.4,281.4,208.4,281.8,208.3,282.1L208.3,282.1z M197.1,279.9h8.1
		c-0.3-2.1-1.8-3.5-4-3.5S197.5,277.8,197.1,279.9z"/>
	<path class="st1" d="M224.7,282.1l-2.5,2.4v3.8h-3.3v-19.7h3.3v11.9l6.9-6.4h4l-5.9,6l6.5,8.3h-4.1L224.7,282.1L224.7,282.1z"/>
	<path class="st1" d="M235.3,269.6c0-1.1,0.9-2,2.1-2c1.3,0,2.1,0.8,2.1,1.9c0,1.2-0.9,2.1-2.1,2.1
		C236.2,271.6,235.3,270.7,235.3,269.6L235.3,269.6z M235.7,274h3.3v14.2h-3.3V274z"/>
	<path class="st1" d="M252,287.4c-0.8,0.7-2,1-3.2,1c-3.1,0-4.9-1.6-4.9-4.8v-6.8h-2.4v-2.7h2.4v-3.3h3.3v3.3h3.8v2.7h-3.8v6.7
		c0,1.4,0.7,2.1,2,2.1c0.7,0,1.3-0.1,1.8-0.6L252,287.4z"/>
	<path class="st1" d="M253.1,286.8l1.3-2.5c1.3,0.8,3.2,1.4,5,1.4c2.1,0,3-0.6,3-1.6c0-2.7-8.8-0.1-8.8-5.8c0-2.7,2.4-4.4,6.3-4.4
		c1.9,0,4.1,0.4,5.3,1.3l-1.3,2.5c-1.3-0.8-2.7-1-4.1-1c-2,0-3,0.7-3,1.6c0,2.9,8.8,0.3,8.8,5.9c0,2.7-2.4,4.4-6.4,4.4
		C256.7,288.4,254.3,287.7,253.1,286.8L253.1,286.8z"/>
	<path class="st1" d="M267.3,276.1c0-1.3,1-2.2,2.2-2.2s2.2,0.9,2.2,2.2c0,1.3-1,2.2-2.2,2.2S267.3,277.3,267.3,276.1z M267.3,286.2
		c0-1.3,1-2.2,2.2-2.2s2.2,0.9,2.2,2.2s-1,2.2-2.2,2.2S267.3,287.4,267.3,286.2z"/>
	<path class="st1" d="M299.6,288.2v-12.3l-6.1,10.2h-1.6l-6.1-10v12.2h-3.3v-18.6h2.9l7.4,12.3l7.2-12.3h2.9v18.6H299.6L299.6,288.2
		z"/>
	<path class="st1" d="M321.4,274v14.2h-3.2v-1.8c-1,1.3-2.7,2-4.6,2c-3.6,0-6.1-2-6.1-6.3v-8.1h3.3v7.7c0,2.6,1.3,3.8,3.3,3.8
		c2.3,0,3.8-1.4,3.8-4.3V274H321.4L321.4,274z"/>
	<path class="st1" d="M339.7,280v8.1h-3.3v-7.7c0-2.5-1.3-3.8-3.4-3.8c-2.4,0-4,1.4-4,4.3v7.2h-3.3V274h3.2v1.8c1.1-1.3,2.8-2,4.9-2
		C337.2,273.8,339.7,275.8,339.7,280L339.7,280z"/>
	<path class="st1" d="M343.5,269.6c0-1.1,0.9-2,2.1-2c1.3,0,2.1,0.8,2.1,1.9c0,1.2-0.9,2.1-2.1,2.1
		C344.4,271.6,343.5,270.7,343.5,269.6L343.5,269.6z M344,274h3.3v14.2H344V274z"/>
	<path class="st1" d="M350.5,281.1c0-4.3,3.2-7.2,7.7-7.2c2.7,0,5,1.1,6.1,3.3l-2.6,1.5c-0.8-1.3-2.1-2-3.5-2
		c-2.4,0-4.3,1.7-4.3,4.4s1.8,4.4,4.3,4.4c1.4,0,2.7-0.6,3.5-2l2.6,1.5c-1.1,2.1-3.3,3.3-6.1,3.3
		C353.6,288.4,350.5,285.4,350.5,281.1L350.5,281.1z"/>
	<path class="st1" d="M366.6,269.6c0-1.1,0.9-2,2.1-2c1.3,0,2.1,0.8,2.1,1.9c0,1.2-0.9,2.1-2.1,2.1
		C367.5,271.6,366.6,270.7,366.6,269.6L366.6,269.6z M367.1,274h3.3v14.2h-3.3V274z"/>
	<path class="st1" d="M389.9,281.1c0,4.4-3,7.3-7.2,7.3c-1.8,0-3.4-0.6-4.6-1.9v6.9h-3.3V274h3.2v1.8c1.1-1.3,2.7-2,4.7-2
		C386.8,273.8,389.9,276.6,389.9,281.1L389.9,281.1z M386.5,281.1c0-2.7-1.8-4.4-4.2-4.4c-2.4,0-4.2,1.7-4.2,4.4s1.8,4.4,4.2,4.4
		C384.6,285.5,386.5,283.8,386.5,281.1z"/>
	<path class="st1" d="M404.7,279.8v8.3h-3.1v-1.7c-0.8,1.3-2.4,1.9-4.4,1.9c-3.3,0-5.3-1.8-5.3-4.3c0-2.5,1.6-4.2,5.9-4.2h3.7v-0.2
		c0-1.9-1.2-3.1-3.5-3.1c-1.6,0-3.3,0.5-4.3,1.4l-1.3-2.4c1.5-1.2,3.7-1.8,6-1.8C402.3,273.8,404.7,275.8,404.7,279.8L404.7,279.8z
		 M401.4,283.7v-1.6H398c-2.3,0-2.9,0.8-2.9,1.9c0,1.2,1,2,2.7,2C399.5,286,400.9,285.2,401.4,283.7L401.4,283.7z"/>
	<path class="st1" d="M409,268.4h3.3v19.7H409V268.4z"/>
	<path class="st1" d="M416.2,269.6c0-1.1,0.9-2,2.1-2s2.1,0.8,2.1,1.9c0,1.2-0.9,2.1-2.1,2.1S416.2,270.7,416.2,269.6L416.2,269.6z
		 M416.7,274h3.3v14.2h-3.3V274z"/>
	<path class="st1" d="M438.3,268.4v19.7h-3.2v-1.8c-1.1,1.3-2.7,2-4.7,2c-4.1,0-7.2-2.9-7.2-7.3c0-4.4,3-7.2,7.2-7.2
		c1.8,0,3.5,0.6,4.6,1.9v-7.3L438.3,268.4L438.3,268.4z M435,281.1c0-2.7-1.8-4.4-4.2-4.4c-2.4,0-4.2,1.7-4.2,4.4s1.8,4.4,4.2,4.4
		C433.2,285.5,435,283.8,435,281.1z"/>
	<path class="st1" d="M454.5,279.8v8.3h-3.1v-1.7c-0.8,1.3-2.4,1.9-4.4,1.9c-3.3,0-5.3-1.8-5.3-4.3c0-2.5,1.6-4.2,5.9-4.2h3.7v-0.2
		c0-1.9-1.2-3.1-3.5-3.1c-1.6,0-3.3,0.5-4.3,1.4l-1.3-2.4c1.5-1.2,3.7-1.8,6-1.8C452.1,273.8,454.5,275.8,454.5,279.8L454.5,279.8z
		 M451.2,283.7v-1.6h-3.4c-2.3,0-2.9,0.8-2.9,1.9c0,1.2,1,2,2.7,2C449.3,286,450.7,285.2,451.2,283.7L451.2,283.7z"/>
	<path class="st1" d="M472.8,268.4v19.7h-3.2v-1.8c-1.1,1.3-2.7,2-4.7,2c-4.1,0-7.2-2.9-7.2-7.3c0-4.4,3-7.2,7.2-7.2
		c1.8,0,3.5,0.6,4.6,1.9v-7.3L472.8,268.4L472.8,268.4z M469.6,281.1c0-2.7-1.8-4.4-4.2-4.4s-4.2,1.7-4.2,4.4s1.8,4.4,4.2,4.4
		S469.6,283.8,469.6,281.1z"/>
	<path class="st1" d="M498.5,268.4v19.7h-3.2v-1.8c-1.1,1.3-2.7,2-4.7,2c-4.1,0-7.2-2.9-7.2-7.3c0-4.4,3-7.2,7.2-7.2
		c1.8,0,3.5,0.6,4.6,1.9v-7.3L498.5,268.4L498.5,268.4z M495.1,281.1c0-2.7-1.8-4.4-4.2-4.4c-2.4,0-4.2,1.7-4.2,4.4s1.8,4.4,4.2,4.4
		C493.3,285.5,495.1,283.8,495.1,281.1z"/>
	<path class="st1" d="M516.1,282.1H505c0.4,2.1,2.1,3.4,4.6,3.4c1.6,0,2.8-0.5,3.8-1.6l1.8,2.1c-1.3,1.5-3.3,2.3-5.7,2.3
		c-4.7,0-7.8-3-7.8-7.3c0-4.3,3.1-7.2,7.3-7.2s7.2,2.9,7.2,7.3C516.1,281.4,516.1,281.8,516.1,282.1L516.1,282.1z M504.9,279.9h8.1
		c-0.3-2.1-1.8-3.5-4-3.5C506.8,276.4,505.3,277.8,504.9,279.9z"/>
	<path class="st1" d="M77.4,305l-8.1,18.6h-3.4L57.7,305h3.8l6.2,14.3L74,305H77.4L77.4,305z"/>
	<path class="st1" d="M78.7,305.1c0-1.1,0.9-2,2.1-2s2.1,0.8,2.1,1.9c0,1.2-0.9,2.1-2.1,2.1S78.7,306.2,78.7,305.1L78.7,305.1z
		 M79.1,309.5h3.3v14.2h-3.3V309.5z"/>
	<path class="st1" d="M86.8,303.9h3.3v19.7h-3.3V303.9z"/>
	<path class="st1" d="M94.5,303.9h3.3v19.7h-3.3V303.9z"/>
	<path class="st1" d="M114.1,315.3v8.3H111v-1.7c-0.8,1.3-2.4,1.9-4.5,1.9c-3.3,0-5.3-1.8-5.3-4.3c0-2.5,1.6-4.2,5.9-4.2h3.7v-0.2
		c0-1.9-1.2-3.1-3.5-3.1c-1.6,0-3.3,0.5-4.3,1.4l-1.3-2.4c1.6-1.2,3.7-1.8,6-1.8C111.7,309.3,114.1,311.2,114.1,315.3L114.1,315.3z
		 M110.8,319.2v-1.6h-3.4c-2.3,0-2.9,0.8-2.9,1.9c0,1.2,1,2,2.7,2S110.2,320.7,110.8,319.2z"/>
	<path class="st1" d="M126.6,309.3v3.2c-0.3-0.1-0.5-0.1-0.7-0.1c-2.5,0-4.1,1.5-4.1,4.4v6.9h-3.3v-14.2h3.2v2.1
		C122.5,310,124.2,309.3,126.6,309.3L126.6,309.3z"/>
	<path class="st1" d="M137.7,309.3v3.2c-0.3-0.1-0.5-0.1-0.7-0.1c-2.5,0-4.1,1.5-4.1,4.4v6.9h-3.3v-14.2h3.2v2.1
		C133.5,310,135.3,309.3,137.7,309.3L137.7,309.3z"/>
	<path class="st1" d="M140,305.1c0-1.1,0.9-2,2.1-2c1.3,0,2.1,0.8,2.1,1.9c0,1.2-0.9,2.1-2.1,2.1C140.9,307.1,140,306.2,140,305.1
		L140,305.1z M140.5,309.5h3.3v14.2h-3.3V309.5z"/>
	<path class="st1" d="M147,316.5c0-4.3,3.2-7.2,7.7-7.2c2.7,0,5,1.1,6.1,3.3l-2.6,1.5c-0.8-1.3-2.1-2-3.5-2c-2.4,0-4.3,1.7-4.3,4.4
		s1.8,4.4,4.3,4.4c1.4,0,2.7-0.6,3.5-2l2.6,1.5c-1.1,2.1-3.3,3.3-6.1,3.3C150.1,323.9,147,320.8,147,316.5L147,316.5z"/>
	<path class="st1" d="M175.5,315.3v8.3h-3.1v-1.7c-0.8,1.3-2.4,1.9-4.5,1.9c-3.3,0-5.3-1.8-5.3-4.3c0-2.5,1.6-4.2,5.9-4.2h3.7v-0.2
		c0-1.9-1.2-3.1-3.5-3.1c-1.6,0-3.3,0.5-4.3,1.4L163,311c1.6-1.2,3.7-1.8,6-1.8C173.1,309.3,175.5,311.2,175.5,315.3L175.5,315.3z
		 M172.2,319.2v-1.6h-3.4c-2.3,0-2.9,0.8-2.9,1.9c0,1.2,1,2,2.7,2C170.3,321.5,171.6,320.7,172.2,319.2z"/>
</g>
<g>
	<g>
		<path class="st1" d="M196.6,377.6c0.1-0.6,0.3-1.3,0.4-1.9c0.6-3.3,1.1-6.5,1.7-9.8c0.2-1,0.4-2,0.6-3.1c0.3-1.9,0-3.5-1.8-4.4
			c0.9,0,1.6,0,2.6,0c1.1,0,2.2,0,3.3,0c0.7,0,1.3,0,2.1,0c0.5,0,1.1,0,1.8,0c1,0,2.2,0,3.2,0c0.1,0,0.2,0,0.3,0c2.3,0,4.5,0,6.7,0
			c3.3,0,6.8,0,10.2,0c0.5,0,1.1,0,1.8,0c-0.1,0.6-0.2,1.2-0.3,1.8c-0.4,1.9-2.1,3.4-4,3.4c-0.7,0-1.3,0-1.9,0c-1.1,0-2,0-3,0
			c-1.2,0-2.6,0-3.8,0c-1,0-2.2,0-3.2,0c-1,0-2.2,0-3.2,0c-0.5,0-0.8,0.3-1,0.7c-0.1,0.1-0.1,0.1-0.1,0.2c-0.2,1-0.4,2-0.6,3
			c-0.5,2.5-0.9,5-1.3,7.5c0,0.1,0,0.1,0.1,0.2c0,0.4,0.3,0.7,0.8,0.7c1.1,0,2.1,0,3.2,0c2.3,0,4.7,0,7.1,0c2.1,0,4.2,0,6.3,0
			c0.6,0,1.2,0,1.9,0c-0.2,0.6-0.3,1.2-0.4,1.8c-0.3,1.9-2,3.4-3.9,3.4c-0.7,0-1.3,0-1.9,0c-5.7,0-11.4,0-17,0c-1.3,0-2.6,0-3.9,0
			C197.6,381,196.3,379.5,196.6,377.6z"/>
		<path class="st1" d="M267.1,361.8c-0.9,5.3-1.9,10.5-2.9,15.8c-0.3,1.9-2.1,3.4-4,3.4c-8.6,0-17.1,0-25.6,0
			c-1.9,0-3.2-1.5-2.9-3.4c1-5.3,1.9-10.5,2.9-15.8c0.3-1.9,2.1-3.4,4-3.4c8.5,0,17,0,25.6,0C266.1,358.4,267.4,359.9,267.1,361.8z
			 M243.1,375.9c3.4,0,6.9,0,10.5,0c0.4,0,0.9-0.4,1-0.9c0.6-3.5,1.2-7,1.9-10.5c0.1-0.5-0.3-0.9-0.8-0.9c-3.5,0-7,0-10.4,0
			c-0.6,0-1,0.4-1,0.9c-0.7,3.5-1.2,7-1.9,10.5C242.3,375.5,242.5,375.9,243.1,375.9z"/>
		<path class="st1" d="M312.1,358.4c0,0,0.1,0,0.2,0c-1.1,6.4-2.3,12.8-3.4,19.2c-0.3,1.9-2,3.4-3.9,3.4c-2.2,0-4.5,0-6.7,0
			c0.4-2.4,0.8-4.7,1.2-7.1c-2,2.4-3.9,4.7-5.8,7.1c-0.1,0-0.2,0-0.2,0c-3.1,0-6.3,0-9.4,0c-0.1,0-0.2,0-0.2,0
			c-1.2-2.4-2.3-4.7-3.3-7.1c-0.2,1.2-0.4,2.5-0.7,3.7c-0.3,1.9-2.1,3.4-3.9,3.4c-2.2,0-4.5,0-6.7,0c1-6.3,2.2-12.6,3.3-18.8
			c0.3-1.7-0.4-3-1.8-3.8c0.8,0,1.6,0,2.5,0c0,0,0.1,0,0.2,0c3.1,0,6.2,0,9.4,0c0,0,0.1,0,0.2,0c2.3,5.1,4.7,10.1,7.1,15.2
			c3.6-4.5,7.3-8.9,11-13.4c1-1.1,2.3-1.8,3.5-1.8C307.2,358.4,309.7,358.4,312.1,358.4z"/>
		<path class="st1" d="M314.2,381c1-6.1,2.1-12.2,3.2-18.3c0.3-1.8-0.3-3.4-1.9-4.3c0.9,0,1.7,0,2.7,0c3.1,0,6.1,0,9.3,0
			c0.3,0,0.6,0,0.9,0c5.9,0,11.9,0,17.9,0c1.9,0,3.1,1.5,2.8,3.4c-0.5,3-1.1,5.9-1.6,8.9c-0.3,1.9-2.1,3.4-4,3.4c-6,0-11.9,0-17.9,0
			c-0.2,1.2-0.4,2.3-0.6,3.5c-0.4,1.9-2.2,3.4-4,3.4C318.6,381,316.4,381,314.2,381z M336.7,369c0.5,0,1.1-0.4,1.1-0.9
			c0.2-1.2,0.4-2.4,0.7-3.6c0.1-0.5-0.4-0.9-0.9-0.9c-3.4,0-6.9,0-10.3,0c-0.3,1.8-0.7,3.6-1,5.4C329.9,369,333.3,369,336.7,369z"/>
		<path class="st1" d="M366.2,374.1c-1.2,0-2.4,0-3.5,0c-0.2,1.2-0.4,2.3-0.6,3.5c-0.4,1.9-2.2,3.4-4.1,3.4c-2.2,0-4.4,0-6.7,0
			c1-6.1,2.2-12.2,3.2-18.3c0.3-1.8-0.2-3.4-1.8-4.3c0.9,0,1.7,0,2.6,0c3.1,0,6.2,0,9.4,0c0.3,0,0.6,0,0.9,0c5.9,0,11.8,0,17.9,0
			c1.8,0,3.1,1.5,2.8,3.4c-0.5,3-1.1,5.9-1.6,8.9c-0.4,1.9-2.1,3.4-4,3.4c-0.8,0-1.5,0-2.2,0c1.7,2.3,3.5,4.6,5.4,6.9
			c-2.7,0-5.2,0-7.6,0c-0.6,0-1.1,0-1.6,0c-0.9,0-1.4-0.3-2.2-1.1c-1.3-1.5-2.5-3.1-3.6-4.6C368.2,374.5,367.3,374.1,366.2,374.1z
			 M375,368.1c0.2-1.2,0.4-2.4,0.7-3.6c0.1-0.5-0.4-0.9-0.9-0.9c-3.4,0-6.9,0-10.3,0c-0.3,1.8-0.7,3.6-1,5.4c3.4,0,6.9,0,10.3,0
			C374.4,369,374.9,368.6,375,368.1z"/>
		<path class="st1" d="M426.6,382c-3.8,0-7.6,0-11.5,0c-0.4-0.7-0.6-1.4-0.9-2.1c-4.3,0-8.6,0-12.8,0c-0.6,0.7-1.2,1.4-1.8,2.1
			c-3.8,0-7.5,0-11.3,0c5.7-7.2,11.6-14.4,17.6-21.5c0.9-1,0.1-1.5-1-2.1c0.9,0,1.7,0,2.6,0c2,0,3.9,0,6,0c1.3,0,2.4,0.6,3,1.8
			C419.9,367.5,423.2,374.7,426.6,382z M411.9,374.7c-0.8-1.6-1.5-3.2-2.3-4.8c-1.2,1.6-2.6,3.2-3.9,4.8
			C407.8,374.7,409.8,374.7,411.9,374.7z"/>
		<path class="st1" d="M486.7,382c-3.8,0-7.6,0-11.5,0c-0.4-0.7-0.6-1.4-0.9-2.1c-4.3,0-8.6,0-12.8,0c-0.6,0.7-1.2,1.4-1.8,2.1
			c-3.8,0-7.5,0-11.3,0c5.7-7.2,11.6-14.4,17.6-21.5c0.9-1,0.1-1.5-1-2.1c0.9,0,1.7,0,2.6,0c2,0,3.9,0,6,0c1.3,0,2.4,0.6,3,1.8
			C480,367.5,483.3,374.7,486.7,382z M472,374.7c-0.8-1.6-1.5-3.2-2.3-4.8c-1.2,1.6-2.6,3.2-3.9,4.8
			C467.8,374.7,469.9,374.7,472,374.7z"/>
		<path class="st1" d="M505.2,381c-4.5,0-9,0-13.5,0c-1.8,0-3.2-1.5-2.9-3.4c0.9-5.3,1.9-10.5,2.9-15.8c0.3-1.9,2.2-3.4,4-3.4
			c8.5,0,17.1,0,25.7,0c1.9,0,3.2,1.5,2.9,3.4c-0.9,5.3-1.9,10.5-2.9,15.8c-0.4,1.9-2.1,3.4-4,3.4c-0.6,0-1.1,0-1.7,0
			c0.7,0.9,1.4,1.9,2.2,2.8c-3.5,0-7.1,0-10.5,0C506.5,382.9,505.9,382,505.2,381z M500.3,375.9c3.4,0,6.9,0,10.4,0
			c0.5,0,0.9-0.4,1-0.9c0.7-3.5,1.2-7,1.9-10.5c0.1-0.5-0.2-0.9-0.7-0.9c-3.5,0-7,0-10.5,0c-0.5,0-0.9,0.4-1,0.9
			c-0.7,3.5-1.3,7-1.9,10.5C499.5,375.5,499.7,375.9,500.3,375.9z"/>
		<path class="st1" d="M538.2,370.3c-0.3,1.6-0.6,3.1-0.9,4.7c-0.1,0.5,0.4,0.9,0.8,0.9c0.9,0,1.8,0,2.8,0c1.6,0,3.3,0,5,0
			c0.9,0,1.8,0,2.8,0c0.5,0,0.9-0.4,1-0.9c0.3-1.6,0.6-3.1,0.9-4.7c0.2-1.1,0.4-2.2,0.6-3.3c0.3-1.8,0.6-3.5,1-5.3
			c0.3-1.9,2.2-3.4,4-3.4c2.3,0,4.5,0,6.7,0c-0.6,2.9-1,5.8-1.5,8.7c-0.2,1.1-0.4,2.2-0.6,3.3c-0.5,2.4-0.9,4.8-1.3,7.3
			c-0.3,1.9-2,3.4-4,3.4c-3.4,0-6.9,0-10.2,0c-1.6,0-3.3,0-5,0c-3.5,0-7,0-10.4,0c-1.8,0-3.1-1.5-2.8-3.4c0.4-2.4,0.9-4.9,1.3-7.3
			c0.2-1.1,0.4-2.2,0.6-3.3c0.2-1.5,0.5-2.9,0.8-4.4c0.3-1.8-0.4-3.4-1.8-4.3c0.9,0,1.6,0,2.6,0c3.3,0,6.7,0,10,0
			c-0.6,2.9-1.1,5.8-1.5,8.7C538.6,368.2,538.4,369.2,538.2,370.3z"/>
		<path class="st1" d="M571.2,381c-2.3,0-4.5,0-6.7,0c1-6.1,2.1-12.2,3.2-18.3c0.3-1.8-0.3-3.4-1.9-4.3c0.9,0,1.7,0,2.7,0
			c3.3,0,6.7,0,10.1,0c-0.1,0.4-0.2,0.8-0.2,1.2c-0.5,2.5-1,5-1.3,7.6c-0.4,1.7-0.7,3.5-1,5.2c-0.3,1.8-0.6,3.5-1,5.3
			C574.9,379.5,573,381,571.2,381z"/>
	</g>
	<path class="st1" d="M569.5,352.5l6.7-6.7l1.6,1.6c1.4,1.4,0.9,3.7-0.9,4.5l-6.1,2.6C569.6,354.9,568.5,353.4,569.5,352.5z"/>
	<g>
		<path class="st1" d="M607.4,354.9c5,5,10,10,15.1,15.1c1.4,1.4,1.2,3.6-0.4,4.8c-2.3,1.7-4.7,3.3-7.1,4.9
			c-2.1,1.5-4.2,2.9-6.3,4.4c-1.6,1.2-2.5,2.6-1.9,4.6c-0.7-0.7-1.3-1.3-2-2c-0.9-0.9-1.7-1.7-2.6-2.6c-1.7-1.7-3.4-3.4-5.1-5.1
			c1.8-1.2,3.6-2.5,5.4-3.8c1.6-1.1,3.2-2.2,4.7-3.3c0.7-0.4,1.3-0.9,1.9-1.3c0.9-0.7,1.9-1.3,2.8-1.9c0.4-0.3,0.5-0.8,0.2-1.2
			c-2.6-2.6-5.2-5.2-7.9-7.9c-1.4-1.4-2.7-2.7-4.1-4.1c0.6-0.3,1.1-0.7,1.6-1C603.4,353.2,606,353.4,607.4,354.9z"/>
	</g>
</g>
</svg>
