<?xml version="1.0" encoding="UTF-8"?><svg id="Layer_1" xmlns="http://www.w3.org/2000/svg" viewBox="0 0 2109.97 87.16"><defs><style>.cls-1{fill:#fff;}</style></defs><path class="cls-1" d="M20.08,58.4c.19-1.27,.57-2.53,.76-3.83,1.14-6.52,2.29-13.05,3.43-19.57,.38-2.02,.76-4.07,1.14-6.12,.57-3.86,0-6.9-3.63-8.87H85.92c-.19,1.19-.38,2.35-.57,3.51-.76,3.75-4.2,6.82-8.01,6.82h-30.34c-.96,0-1.53,.59-1.91,1.38-.19,.11-.17,.25-.19,.38-.36,2.05-.76,4.07-1.14,6.09-.96,4.99-1.74,9.97-2.67,14.96-.02,.13,0,.27,.19,.4,0,.78,.57,1.35,1.53,1.35h37.02c-.38,1.19-.57,2.35-.76,3.5-.57,3.75-4.01,6.82-7.82,6.82H25.62c-3.63,0-6.1-3.07-5.53-6.82Z"/><path class="cls-1" d="M166.01,67.16h-22.9c-.76-1.43-1.14-2.86-1.72-4.29h-25.57c-1.15,1.43-2.48,2.86-3.63,4.29h-22.52c11.45-14.34,23.28-28.69,35.11-43.03,1.72-2.08,.19-3.07-1.91-4.13h17.17c2.67,0,4.77,1.29,5.91,3.61,6.68,14.53,13.36,29.04,20.04,43.55Zm-29.39-14.61c-1.53-3.15-3.05-6.34-4.58-9.52-2.48,3.18-5.15,6.36-7.82,9.52h12.4Z"/><path class="cls-1" d="M215.84,65.22h-39.69c-3.82,0-6.36-3.08-5.72-6.82,.89-5.27,1.91-10.52,2.86-15.77,.76-4.69,1.72-9.38,2.48-14.08,.57-3.72-.19-6.77-3.63-8.55h25.57c-.76,4.04-1.53,8.06-2.1,12.08-.76,3.53-1.33,7.04-1.91,10.54-.38,1.43-.57,2.86-.76,4.26-.38,2.1-.75,4.18-1.14,6.26-.18,.97,.38,1.75,1.33,1.75h31.49c-.38,1.19-.57,2.35-.76,3.5-.57,3.75-4.2,6.82-8.01,6.82Z"/><path class="cls-1" d="M229.68,54.89c1.53-8.76,3.24-17.55,4.77-26.34,.57-3.67-.57-6.88-3.82-8.55h64.5c-.19,1.19-.38,2.35-.76,3.51-.57,3.75-4.39,6.82-8.21,6.82h-31.87c0,.35,0,.7-.19,1.05-.19,1.86-.57,3.72-.95,5.55v.51h33.01c-.19,1.19-.38,2.35-.76,3.51-.57,3.75-4.01,6.82-8.01,6.82h-26.14v.51c-.19,1.05-.38,2.1-.57,3.15-.19,1.13-.38,2.24-.57,3.34v.11h38.74c-.19,1.19-.38,2.35-.57,3.5-.76,3.75-4.39,6.82-8.21,6.82h-45.22c-3.82,0-6.49-3.07-5.72-6.82,.19-1.16,.38-2.32,.57-3.5Z"/><path class="cls-1" d="M301.56,20h25c6.87,7.93,13.74,15.85,20.8,23.75,.38-2.1,.76-4.21,1.14-6.31,.57-3.53,1.14-7.06,1.91-10.62,.57-3.75,4.01-6.82,8.01-6.82h13.36c-2.29,12.81-4.58,25.62-6.87,38.4-.76,3.75-4.39,6.82-8.01,6.82h-12.78c-7.06-7.9-14.12-15.83-20.8-23.75-1.15,5.66-2.1,11.3-3.05,16.93-.76,3.75-4.39,6.82-8.01,6.82h-13.36c2.1-12.21,4.2-24.43,6.49-36.67,.57-3.67-.57-6.88-3.82-8.55Z"/><path class="cls-1" d="M383.55,20h56.29c1.72,0,3.24,.81,4.39,2.1,.95,1.21,1.45,2.9,1.15,4.72-1.79,10.56-3.89,21.04-5.72,31.57-.65,3.74-4.2,6.82-7.82,6.82h-56.29c.57-3.42,1.15-6.88,1.91-10.33,1.53-8.76,3.05-17.55,4.58-26.34,.57-3.67-.57-6.88-3.63-8.55h5.15Zm40.45,12.08c.18-.97-.38-1.75-1.34-1.75h-20.8c-1.33,8.2-2.86,16.39-4.2,24.56h20.8c.76,0,1.53-.78,1.72-1.75,.96-4.99,1.72-9.98,2.67-14.96,.38-2.02,.76-4.05,1.15-6.09Z"/><path class="cls-1" d="M525.8,67.16h-22.9c-.76-1.43-1.14-2.86-1.72-4.29h-25.57c-1.15,1.43-2.48,2.86-3.63,4.29h-22.52c11.45-14.34,23.28-28.69,35.11-43.03,1.72-2.08,.19-3.07-1.91-4.13h17.17c2.67,0,4.77,1.29,5.91,3.61,6.68,14.53,13.36,29.04,20.04,43.55Zm-29.39-14.61c-1.53-3.15-3.05-6.34-4.58-9.52-2.48,3.18-5.15,6.36-7.82,9.52h12.4Z"/><path class="cls-1" d="M559.35,51.44h-7.06c-.38,2.32-.76,4.64-1.15,6.96-.76,3.75-4.39,6.82-8.21,6.82h-13.36c2.1-12.21,4.39-24.43,6.49-36.67,.57-3.67-.38-6.88-3.63-8.55h61.44c3.63,0,6.2,3.09,5.53,6.82-1.06,5.95-2.29,11.86-3.24,17.8-.76,3.75-4.2,6.82-8.01,6.82h-4.39c3.43,4.61,7.06,9.19,10.88,13.78h-18.51c-1.72-.08-2.86-.54-4.39-2.29-2.67-3.05-4.96-6.12-7.25-9.19-1.14-1.51-2.86-2.29-5.15-2.29Zm17.75-12.08c.41-2.42,.79-4.85,1.34-7.28,.22-.97-.76-1.75-1.72-1.75h-20.61c-.57,3.61-1.34,7.2-1.91,10.79h20.61c.95,0,2.13-.78,2.29-1.75Z"/><path class="cls-1" d="M617.18,65.22h-13.36c2.1-12.21,4.2-24.43,6.49-36.67,.57-3.67-.57-6.88-3.82-8.55h25.57c-.19,.78-.38,1.56-.38,2.35-.95,5.04-1.91,10.08-2.67,15.1-.76,3.45-1.34,6.9-1.91,10.33-.57,3.56-1.15,7.09-1.91,10.62-.57,3.75-4.39,6.82-8.01,6.82Z"/><path class="cls-1" d="M707.16,26.82c-1.83,10.56-3.89,21.04-5.72,31.57-.65,3.74-4.2,6.82-8.01,6.82h-51.14c-3.82,0-6.43-3.06-5.72-6.82,1.97-10.5,3.89-21.02,5.72-31.57,.65-3.74,4.2-6.82,8.01-6.82h51.14c3.82,0,6.37,3.09,5.72,6.82Zm-47.9,28.07h20.99c.76,0,1.75-.78,1.91-1.75,1.17-7.01,2.47-14.02,3.82-21.06,.19-.97-.57-1.75-1.53-1.75h-20.8c-1.15,0-1.91,.78-2.1,1.75-1.34,7.04-2.48,14.05-3.82,21.06-.19,.97,.38,1.75,1.53,1.75Z"/><path class="cls-1" d="M752.18,58.4c.19-1.27,.57-2.53,.76-3.83,1.14-6.52,2.29-13.05,3.43-19.57,.38-2.02,.76-4.07,1.14-6.12,.57-3.86,0-6.9-3.63-8.87h64.12c-.19,1.19-.38,2.35-.57,3.51-.76,3.75-4.2,6.82-8.01,6.82h-30.34c-.96,0-1.53,.59-1.91,1.38-.19,.11-.17,.25-.19,.38-.36,2.05-.76,4.07-1.14,6.09-.96,4.99-1.74,9.97-2.67,14.96-.02,.13,0,.27,.19,.4,0,.78,.57,1.35,1.53,1.35h37.02c-.38,1.19-.57,2.35-.76,3.5-.57,3.75-4.01,6.82-7.82,6.82h-45.61c-3.63,0-6.1-3.07-5.53-6.82Z"/><path class="cls-1" d="M898.11,67.16h-22.9c-.76-1.43-1.14-2.86-1.72-4.29h-25.57c-1.15,1.43-2.48,2.86-3.63,4.29h-22.52c11.45-14.34,23.28-28.69,35.11-43.03,1.72-2.08,.19-3.07-1.91-4.13h17.17c2.67,0,4.77,1.29,5.91,3.61,6.68,14.53,13.36,29.04,20.04,43.55Zm-29.39-14.61c-1.53-3.15-3.05-6.34-4.58-9.52-2.48,3.18-5.15,6.36-7.82,9.52h12.4Z"/><path class="cls-1" d="M931.66,51.44h-7.06c-.38,2.32-.76,4.64-1.15,6.96-.76,3.75-4.39,6.82-8.21,6.82h-13.36c2.1-12.21,4.39-24.43,6.49-36.67,.57-3.67-.38-6.88-3.63-8.55h61.44c3.63,0,6.2,3.09,5.53,6.82-1.06,5.95-2.29,11.86-3.24,17.8-.76,3.75-4.2,6.82-8.01,6.82h-4.39c3.43,4.61,7.06,9.19,10.88,13.78h-18.51c-1.72-.08-2.86-.54-4.39-2.29-2.67-3.05-4.96-6.12-7.25-9.19-1.14-1.51-2.86-2.29-5.15-2.29Zm17.75-12.08c.41-2.42,.79-4.85,1.34-7.28,.22-.97-.76-1.75-1.72-1.75h-20.61c-.57,3.61-1.34,7.2-1.91,10.79h20.61c.95,0,2.13-.78,2.29-1.75Z"/><path class="cls-1" d="M1005.89,51.44h-7.06c-.38,2.32-.76,4.64-1.15,6.96-.76,3.75-4.39,6.82-8.21,6.82h-13.36c2.1-12.21,4.39-24.43,6.49-36.67,.57-3.67-.38-6.88-3.63-8.55h61.44c3.63,0,6.2,3.09,5.53,6.82-1.06,5.95-2.29,11.86-3.24,17.8-.76,3.75-4.2,6.82-8.01,6.82h-4.39c3.43,4.61,7.06,9.19,10.88,13.78h-18.51c-1.72-.08-2.86-.54-4.39-2.29-2.67-3.05-4.96-6.12-7.25-9.19-1.14-1.51-2.86-2.29-5.15-2.29Zm17.75-12.08c.41-2.42,.79-4.85,1.34-7.28,.22-.97-.76-1.75-1.72-1.75h-20.61c-.57,3.61-1.34,7.2-1.91,10.79h20.61c.95,0,2.13-.78,2.29-1.75Z"/><path class="cls-1" d="M1051.7,54.89c1.53-8.76,3.24-17.55,4.77-26.34,.57-3.67-.57-6.88-3.82-8.55h64.5c-.19,1.19-.38,2.35-.76,3.51-.57,3.75-4.39,6.82-8.21,6.82h-31.87c0,.35,0,.7-.19,1.05-.19,1.86-.57,3.72-.95,5.55v.51h33.01c-.19,1.19-.38,2.35-.76,3.51-.57,3.75-4.01,6.82-8.01,6.82h-26.14v.51c-.19,1.05-.38,2.1-.57,3.15-.19,1.13-.38,2.24-.57,3.34v.11h38.74c-.19,1.19-.38,2.35-.57,3.5-.76,3.75-4.39,6.82-8.21,6.82h-45.22c-3.82,0-6.49-3.07-5.72-6.82,.19-1.16,.38-2.32,.57-3.5Z"/><path class="cls-1" d="M1150.67,51.44h-7.06c-.38,2.32-.76,4.64-1.15,6.96-.76,3.75-4.39,6.82-8.21,6.82h-13.36c2.1-12.21,4.39-24.43,6.49-36.67,.57-3.67-.38-6.88-3.63-8.55h61.44c3.63,0,6.2,3.09,5.53,6.82-1.06,5.95-2.29,11.86-3.24,17.8-.76,3.75-4.2,6.82-8.01,6.82h-4.39c3.43,4.61,7.06,9.19,10.88,13.78h-18.51c-1.72-.08-2.86-.54-4.39-2.29-2.67-3.05-4.96-6.12-7.25-9.19-1.14-1.51-2.86-2.29-5.15-2.29Zm17.75-12.08c.41-2.42,.79-4.85,1.34-7.28,.22-.97-.76-1.75-1.72-1.75h-20.61c-.57,3.61-1.34,7.2-1.91,10.79h20.61c.95,0,2.13-.78,2.29-1.75Z"/><path class="cls-1" d="M1271.47,67.16h-22.9c-.76-1.43-1.14-2.86-1.72-4.29h-25.57c-1.15,1.43-2.48,2.86-3.63,4.29h-22.52c11.45-14.34,23.28-28.69,35.11-43.03,1.72-2.08,.19-3.07-1.91-4.13h17.17c2.67,0,4.77,1.29,5.91,3.61,6.68,14.53,13.36,29.04,20.04,43.55Zm-29.39-14.61c-1.53-3.15-3.05-6.34-4.58-9.52-2.48,3.18-5.15,6.36-7.82,9.52h12.4Z"/><path class="cls-1" d="M1318,54.89c1.14,0,2.12-.78,2.29-1.75,.21-1.18,.36-2.4,.57-3.61,.16-.92-.38-1.67-1.34-1.75h-36.07c-3.82,0-6.35-3.08-5.72-6.79,.52-3.06,1.15-6.12,1.72-9.19,.19-1.08,.38-2.16,.57-3.24,.57-3.67-.19-6.66-3.82-8.55h68.12c-.19,1.19-.38,2.35-.76,3.51-.57,3.75-4.01,6.82-7.82,6.82h-34.16c-.95,0-1.66,.8-1.91,1.75-.32,1.23-.55,2.43-.76,3.61-.17,.92,.57,1.67,1.34,1.75h36.26c3.62,0,6.21,3.06,5.53,6.82-.85,4.7-1.63,9.45-2.48,14.13-.68,3.76-4.39,6.82-8.01,6.82h-56.29c.19-1.16,.38-2.32,.57-3.51,.76-3.75,4.39-6.82,8.21-6.82h33.97Z"/><path class="cls-1" d="M1388.15,65.22c2.1-12.21,4.39-24.43,6.49-36.67,.57-3.67-.57-6.88-3.44-8.55h25.19c-1.15,5.82-2.1,11.65-3.05,17.45h22.52c.57-3.53,1.15-7.06,1.91-10.62,.57-3.75,4.2-6.82,7.82-6.82h13.55c-2.29,12.81-4.58,25.62-6.87,38.4-.57,3.75-4.2,6.82-8.01,6.82h-13.36c.95-5.8,2.1-11.62,3.05-17.45h-22.52c-.57,3.56-1.14,7.09-1.91,10.62-.57,3.75-4.01,6.82-8.01,6.82h-13.36Z"/><path class="cls-1" d="M1464.25,54.89c1.53-8.76,3.24-17.55,4.77-26.34,.57-3.67-.57-6.88-3.82-8.55h64.5c-.19,1.19-.38,2.35-.76,3.51-.57,3.75-4.39,6.82-8.21,6.82h-31.87c0,.35,0,.7-.19,1.05-.19,1.86-.57,3.72-.95,5.55v.51h33.01c-.19,1.19-.38,2.35-.76,3.51-.57,3.75-4.01,6.82-8.01,6.82h-26.14v.51c-.19,1.05-.38,2.1-.57,3.15-.19,1.13-.38,2.24-.57,3.34v.11h38.74c-.19,1.19-.38,2.35-.57,3.5-.76,3.75-4.39,6.82-8.21,6.82h-45.22c-3.82,0-6.49-3.07-5.72-6.82,.19-1.16,.38-2.32,.57-3.5Z"/><path class="cls-1" d="M1563.22,51.44h-7.06c-.38,2.32-.76,4.64-1.15,6.96-.76,3.75-4.39,6.82-8.21,6.82h-13.36c2.1-12.21,4.39-24.43,6.49-36.67,.57-3.67-.38-6.88-3.63-8.55h61.44c3.63,0,6.2,3.09,5.53,6.82-1.06,5.95-2.29,11.86-3.24,17.8-.76,3.75-4.2,6.82-8.01,6.82h-4.39c3.43,4.61,7.06,9.19,10.88,13.78h-18.51c-1.72-.08-2.86-.54-4.39-2.29-2.67-3.05-4.96-6.12-7.25-9.19-1.14-1.51-2.86-2.29-5.15-2.29Zm17.75-12.08c.41-2.42,.79-4.85,1.34-7.28,.22-.97-.76-1.75-1.72-1.75h-20.61c-.57,3.61-1.34,7.2-1.91,10.79h20.61c.95,0,2.13-.78,2.29-1.75Z"/><path class="cls-1" d="M1679,26.82c-1.83,10.56-3.89,21.04-5.72,31.57-.65,3.74-4.2,6.82-8.01,6.82h-51.14c-3.82,0-6.43-3.06-5.72-6.82,1.97-10.5,3.89-21.02,5.72-31.57,.65-3.74,4.2-6.82,8.01-6.82h51.14c3.82,0,6.37,3.09,5.72,6.82Zm-47.9,28.07h20.99c.76,0,1.75-.78,1.91-1.75,1.17-7.01,2.47-14.02,3.82-21.06,.19-.97-.57-1.75-1.53-1.75h-20.8c-1.15,0-1.91,.78-2.1,1.75-1.34,7.04-2.48,14.05-3.82,21.06-.19,.97,.38,1.75,1.53,1.75Z"/><path class="cls-1" d="M1684.77,54.89c1.53-8.76,3.24-17.55,4.77-26.34,.57-3.67-.57-6.88-3.82-8.55h64.5c-.19,1.19-.38,2.35-.76,3.51-.57,3.75-4.39,6.82-8.21,6.82h-31.87c0,.35,0,.7-.19,1.05-.19,1.86-.57,3.72-.95,5.55v.51h33.01c-.19,1.19-.38,2.35-.76,3.51-.57,3.75-4.01,6.82-8.01,6.82h-26.14v.51c-.19,1.05-.38,2.1-.57,3.15-.19,1.13-.38,2.24-.57,3.34v.11h38.74c-.19,1.19-.38,2.35-.57,3.5-.76,3.75-4.39,6.82-8.21,6.82h-45.22c-3.82,0-6.49-3.07-5.72-6.82,.19-1.16,.38-2.32,.57-3.5Z"/><path class="cls-1" d="M1796.72,54.89c1.14,0,2.12-.78,2.29-1.75,.21-1.18,.36-2.4,.57-3.61,.16-.92-.38-1.67-1.34-1.75h-36.07c-3.82,0-6.35-3.08-5.72-6.79,.52-3.06,1.15-6.12,1.72-9.19,.19-1.08,.38-2.16,.57-3.24,.57-3.67-.19-6.66-3.82-8.55h68.12c-.19,1.19-.38,2.35-.76,3.51-.57,3.75-4.01,6.82-7.82,6.82h-34.16c-.95,0-1.66,.8-1.91,1.75-.32,1.23-.55,2.43-.76,3.61-.17,.92,.57,1.67,1.34,1.75h36.26c3.62,0,6.21,3.06,5.53,6.82-.85,4.7-1.63,9.45-2.48,14.13-.68,3.76-4.39,6.82-8.01,6.82h-56.29c.19-1.16,.38-2.32,.57-3.51,.76-3.75,4.39-6.82,8.21-6.82h33.97Z"/><path class="cls-1" d="M1896.64,51.44h-7.06c-.38,2.32-.76,4.64-1.15,6.96-.76,3.75-4.39,6.82-8.21,6.82h-13.36c2.1-12.21,4.39-24.43,6.49-36.67,.57-3.67-.38-6.88-3.63-8.55h61.44c3.63,0,6.2,3.09,5.53,6.82-1.06,5.95-2.29,11.86-3.24,17.8-.76,3.75-4.2,6.82-8.01,6.82h-4.39c3.43,4.61,7.06,9.19,10.88,13.78h-18.51c-1.72-.08-2.86-.54-4.39-2.29-2.67-3.05-4.96-6.12-7.25-9.19-1.14-1.51-2.86-2.29-5.15-2.29Zm17.75-12.08c.41-2.42,.79-4.85,1.34-7.28,.22-.97-.76-1.75-1.72-1.75h-20.61c-.57,3.61-1.34,7.2-1.91,10.79h20.61c.95,0,2.13-.78,2.29-1.75Z"/><path class="cls-1" d="M1964.48,43.84c-.57,3.1-1.14,6.2-1.72,9.3-.18,.97,.76,1.75,1.53,1.75h20.99c.95,0,1.73-.78,1.91-1.75,.58-3.1,1.14-6.2,1.72-9.3,.38-2.16,.76-4.31,1.14-6.5,.57-3.5,1.14-7.01,1.91-10.52,.57-3.75,4.39-6.82,8.01-6.82h13.36c-1.15,5.8-2.1,11.57-3.05,17.34-.38,2.18-.76,4.34-1.15,6.5-.95,4.85-1.81,9.69-2.67,14.56-.66,3.73-4.01,6.82-8.01,6.82h-51.14c-3.63,0-6.2-3.06-5.53-6.82,.86-4.84,1.72-9.71,2.67-14.56,.38-2.16,.76-4.31,1.14-6.5,.38-2.91,.95-5.85,1.53-8.79,.57-3.67-.76-6.88-3.63-8.55h25.19c-1.15,5.8-2.1,11.57-3.05,17.34-.38,2.18-.76,4.34-1.15,6.5Z"/><path class="cls-1" d="M2019.75,20h25c6.87,7.93,13.74,15.85,20.8,23.75,.38-2.1,.76-4.21,1.14-6.31,.57-3.53,1.14-7.06,1.91-10.62,.57-3.75,4.01-6.82,8.01-6.82h13.36c-2.29,12.81-4.58,25.62-6.87,38.4-.76,3.75-4.39,6.82-8.01,6.82h-12.78c-7.06-7.9-14.12-15.83-20.8-23.75-1.15,5.66-2.1,11.3-3.05,16.93-.76,3.75-4.39,6.82-8.01,6.82h-13.36c2.1-12.21,4.2-24.43,6.49-36.67,.57-3.67-.57-6.88-3.82-8.55Z"/></svg>