<?xml version="1.0" encoding="UTF-8"?><svg id="Layer_1" xmlns="http://www.w3.org/2000/svg" viewBox="0 0 2109.97 87.16"><defs><style>.cls-1{fill:#fff;}</style></defs><path class="cls-1" d="M935.29,49.31c-.18,1.08-.36,2.14-.55,3.19-.36,1.16-.55,2.32-.73,3.45-.18,1.26-.73,2.42-1.64,3.43-1.46,1.78-3.65,2.99-5.65,3.09h-13.13c2.01-11.67,4.01-23.34,6.2-35.04,.55-3.5-.55-6.57-3.65-8.17h61.62c-.18,1.13-.36,2.24-.73,3.35-.55,3.58-4.19,6.52-7.84,6.52h-30.45c0,.33,0,.67-.18,1-.18,1.78-.55,3.56-.91,5.31v.49h31.54c-.18,1.13-.36,2.24-.73,3.35-.55,3.58-4.01,6.52-7.66,6.52h-24.98v.49c-.18,1-.36,2.01-.55,3.01Z"/><path class="cls-1" d="M1054.27,64.33h-21.88c-.73-1.37-1.09-2.73-1.64-4.1h-24.43c-1.09,1.37-2.37,2.73-3.46,4.1h-21.51c10.94-13.71,22.24-27.41,33.55-41.12,1.64-1.98,.18-2.94-1.82-3.94h16.41c2.55,0,4.56,1.24,5.65,3.45,6.38,13.89,12.76,27.75,19.14,41.61Zm-28.08-13.96c-1.46-3.01-2.92-6.05-4.38-9.09-2.37,3.04-4.92,6.08-7.48,9.09h11.85Z"/><path class="cls-1" d="M1089.67,62.48h-25.71c-3.46,0-6.09-2.95-5.47-6.52,1.75-10.06,3.72-20.08,5.47-30.17,.62-3.57,4.19-6.52,7.66-6.52h49.04c3.65,0,6.09,2.95,5.47,6.52-1.75,10.09-3.59,20.13-5.47,30.17-.67,3.59-4.01,6.52-7.66,6.52h-3.28c1.28,1.8,2.74,3.61,4.19,5.41h-20.06c-1.64-1.8-2.92-3.61-4.19-5.41Zm-9.3-9.87h19.87c.91,0,1.65-.75,1.82-1.67,1.28-6.7,2.37-13.4,3.65-20.12,.18-.93-.36-1.67-1.28-1.67h-20.06c-.91,0-1.65,.75-1.82,1.67-1.28,6.72-2.53,13.43-3.65,20.12-.16,.93,.36,1.67,1.46,1.67Z"/><path class="cls-1" d="M1171.22,52.61c1.09,0,2.02-.74,2.19-1.67,.2-1.13,.34-2.3,.55-3.45,.16-.88-.36-1.6-1.28-1.67h-34.46c-3.65,0-6.07-2.94-5.47-6.49,.49-2.92,1.09-5.85,1.64-8.79,.18-1.03,.36-2.06,.55-3.09,.55-3.5-.18-6.36-3.65-8.17h65.09c-.18,1.13-.36,2.24-.73,3.35-.55,3.58-3.83,6.52-7.48,6.52h-32.64c-.91,0-1.58,.76-1.82,1.67-.31,1.18-.52,2.32-.73,3.45-.16,.88,.55,1.6,1.28,1.67h34.64c3.46,0,5.94,2.92,5.29,6.52-.81,4.49-1.56,9.03-2.37,13.5-.65,3.6-4.19,6.52-7.66,6.52h-53.78c.18-1.11,.36-2.22,.55-3.35,.73-3.58,4.19-6.52,7.84-6.52h32.45Z"/></svg>