<?xml version="1.0" encoding="utf-8"?>
<!-- Generator: Adobe Illustrator 26.5.0, SVG Export Plug-In . SVG Version: 6.00 Build 0)  -->
<svg version="1.1" id="Layer_1" xmlns="http://www.w3.org/2000/svg" xmlns:xlink="http://www.w3.org/1999/xlink" x="0px" y="0px"
	 viewBox="0 0 820 430.8" style="enable-background:new 0 0 820 430.8;" xml:space="preserve">
<style type="text/css">
	.st0{fill:#FFFFFF;}
</style>
<path class="st0" d="M60.5,0.1h700c33.1,0,60,26.9,60,60v310.8c0,33.1-26.9,60-60,60h-700c-33.1,0-60-26.9-60-60V60.1
	C0.5,27,27.4,0.1,60.5,0.1z"/>
<g>
	<path d="M70.8,69.8c-0.3,1.7-0.6,3.3-0.9,4.9c-0.1,0.5,0.4,0.9,0.8,0.9h11.1c0.5,0,0.9-0.4,1-0.9c0.3-1.6,0.6-3.3,0.9-4.9
		c0.2-1.1,0.4-2.3,0.6-3.4c0.3-1.9,0.6-3.7,1-5.6c0.3-2,2.3-3.6,4.2-3.6h7.1c-0.6,3.1-1.1,6.1-1.6,9.2c-0.2,1.2-0.4,2.3-0.6,3.4
		c-0.5,2.6-1,5.1-1.4,7.7c-0.3,2-2.1,3.6-4.2,3.6H61.7c-1.9,0-3.3-1.6-2.9-3.6c0.5-2.6,0.9-5.2,1.4-7.7c0.2-1.1,0.4-2.3,0.6-3.4
		c0.2-1.6,0.5-3.1,0.8-4.7c0.3-2-0.4-3.7-1.9-4.5h13.4c-0.6,3.1-1.1,6.1-1.6,9.2C71.2,67.5,71,68.6,70.8,69.8L70.8,69.8z"/>
	<path d="M100.1,57.1h13.3c3.7,4.2,7.3,8.4,11,12.6c0.2-1.1,0.4-2.2,0.6-3.3c0.3-1.9,0.6-3.8,1-5.6c0.3-2,2.1-3.6,4.2-3.6h7.1
		c-1.2,6.8-2.4,13.6-3.6,20.4c-0.4,2-2.3,3.6-4.2,3.6h-6.8c-3.8-4.2-7.5-8.4-11-12.6c-0.6,3-1.1,6-1.6,9c-0.4,2-2.3,3.6-4.2,3.6
		h-7.1c1.1-6.5,2.2-13,3.4-19.5C102.5,59.7,101.9,58,100.1,57.1L100.1,57.1z"/>
	<path d="M146.5,81.1h-7.1c1.1-6.5,2.2-13,3.4-19.5c0.3-2-0.3-3.7-2-4.5h13.6c-0.1,0.4-0.2,0.8-0.2,1.2c-0.5,2.7-1,5.3-1.4,8
		c-0.4,1.8-0.7,3.7-1,5.5c-0.3,1.9-0.6,3.8-1,5.6C150.4,79.5,148.4,81.1,146.5,81.1L146.5,81.1z"/>
	<path d="M156.7,77.5c0.1-0.7,0.3-1.3,0.4-2c0.6-3.5,1.2-6.9,1.8-10.4c0.2-1.1,0.4-2.2,0.6-3.2c0.3-2,0-3.7-1.9-4.7h34
		c-0.1,0.6-0.2,1.2-0.3,1.9c-0.4,2-2.2,3.6-4.2,3.6H171c-0.5,0-0.8,0.3-1,0.7c-0.1,0.1-0.1,0.1-0.1,0.2c-0.2,1.1-0.4,2.2-0.6,3.2
		c-0.5,2.7-0.9,5.3-1.4,7.9c0,0.1,0,0.1,0.1,0.2c0,0.4,0.3,0.7,0.8,0.7h19.6c-0.2,0.6-0.3,1.2-0.4,1.9c-0.3,2-2.1,3.6-4.1,3.6h-24.2
		C157.7,81.1,156.4,79.5,156.7,77.5L156.7,77.5z"/>
	<path d="M194.3,75.6c0.8-4.7,1.7-9.3,2.5-14c0.3-2-0.3-3.7-2-4.5H229c-0.1,0.6-0.2,1.2-0.4,1.9c-0.3,2-2.3,3.6-4.4,3.6h-16.9
		c0,0.2,0,0.4-0.1,0.6c-0.1,1-0.3,2-0.5,3v0.3h17.5c-0.1,0.6-0.2,1.2-0.4,1.9c-0.3,2-2.1,3.6-4.2,3.6h-13.9v0.1
		c-0.1,0.6-0.2,1.1-0.3,1.7s-0.2,1.2-0.3,1.8v0.1h20.6c-0.1,0.6-0.2,1.2-0.3,1.9c-0.4,2-2.3,3.6-4.4,3.6h-24c-2,0-3.4-1.6-3-3.6
		C194.1,76.9,194.2,76.2,194.3,75.6L194.3,75.6z"/>
	<path d="M243.1,73.8c-0.1,0.6-0.2,1.2-0.3,1.8c-0.2,0.6-0.3,1.3-0.4,1.9c-0.1,0.7-0.4,1.3-0.9,1.9c-0.8,1-2,1.7-3.1,1.7h-7.3
		c1.1-6.5,2.2-13,3.4-19.5c0.3-2-0.3-3.7-2-4.5h34.2c-0.1,0.6-0.2,1.2-0.4,1.9c-0.3,2-2.3,3.6-4.4,3.6H245c0,0.2,0,0.4-0.1,0.6
		c-0.1,1-0.3,2-0.5,2.9v0.3h17.5c-0.1,0.6-0.2,1.2-0.4,1.9c-0.3,2-2.2,3.6-4.2,3.6h-13.9v0.2C243.3,72.7,243.2,73.2,243.1,73.8
		L243.1,73.8z"/>
	<path d="M289.9,81.1c1.1-6.5,2.3-13,3.4-19.5c0.3-2-0.3-3.7-1.8-4.5h13.4c-0.6,3.1-1.1,6.2-1.6,9.3h12c0.3-1.9,0.6-3.8,1-5.6
		c0.3-2,2.2-3.6,4.1-3.6h7.2c-1.2,6.8-2.4,13.6-3.6,20.4c-0.3,2-2.2,3.6-4.2,3.6h-7.1c0.5-3.1,1.1-6.2,1.6-9.3h-12
		c-0.3,1.9-0.6,3.8-1,5.6c-0.3,2-2.1,3.6-4.2,3.6C297,81.1,289.9,81.1,289.9,81.1z"/>
	<path d="M330.3,75.6c0.8-4.7,1.7-9.3,2.5-14c0.3-2-0.3-3.7-2-4.5H365c-0.1,0.6-0.2,1.2-0.4,1.9c-0.3,2-2.3,3.6-4.4,3.6h-16.9
		c0,0.2,0,0.4-0.1,0.6c-0.1,1-0.3,2-0.5,3v0.3h17.5c-0.1,0.6-0.2,1.2-0.4,1.9c-0.3,2-2.1,3.6-4.2,3.6h-13.9v0.1
		c-0.1,0.6-0.2,1.1-0.3,1.7c-0.1,0.6-0.2,1.2-0.3,1.8v0.1h20.6c-0.1,0.6-0.2,1.2-0.3,1.9c-0.4,2-2.3,3.6-4.4,3.6h-24
		c-2,0-3.4-1.6-3-3.6C330.1,76.9,330.2,76.2,330.3,75.6L330.3,75.6z"/>
	<path d="M382.9,73.8h-3.8c-0.2,1.2-0.4,2.5-0.6,3.7c-0.4,2-2.3,3.6-4.4,3.6H367c1.1-6.5,2.3-13,3.4-19.5c0.3-2-0.2-3.7-1.9-4.5
		h32.6c1.9,0,3.3,1.6,2.9,3.6c-0.6,3.2-1.2,6.3-1.7,9.4c-0.4,2-2.2,3.6-4.2,3.6h-2.3c1.8,2.4,3.8,4.9,5.8,7.3h-9.8
		c-0.9,0-1.5-0.3-2.3-1.2c-1.4-1.6-2.6-3.2-3.9-4.9C385,74.2,384.1,73.8,382.9,73.8L382.9,73.8z M392.3,67.4
		c0.2-1.3,0.4-2.6,0.7-3.9c0.1-0.5-0.4-0.9-0.9-0.9h-10.9c-0.3,1.9-0.7,3.8-1,5.7h10.9C391.6,68.3,392.2,67.9,392.3,67.4L392.3,67.4
		z"/>
	<path d="M444.3,60.7c-1,5.6-2.1,11.2-3,16.8c-0.3,2-2.2,3.6-4.2,3.6H410c-2,0-3.4-1.6-3-3.6c1-5.6,2.1-11.2,3-16.8
		c0.3-2,2.2-3.6,4.2-3.6h27.1C443.3,57.1,444.6,58.7,444.3,60.7L444.3,60.7z M418.9,75.6H430c0.4,0,0.9-0.4,1-0.9
		c0.6-3.7,1.3-7.4,2-11.2c0.1-0.5-0.3-0.9-0.8-0.9h-11c-0.6,0-1,0.4-1.1,0.9c-0.7,3.7-1.3,7.5-2,11.2
		C418,75.2,418.3,75.6,418.9,75.6L418.9,75.6z"/>
	<path d="M447.4,75.6c0.8-4.7,1.7-9.3,2.5-14c0.3-2-0.3-3.7-2-4.5h34.2c-0.1,0.6-0.2,1.2-0.4,1.9c-0.3,2-2.3,3.6-4.4,3.6h-16.9
		c0,0.2,0,0.4-0.1,0.6c-0.1,1-0.3,2-0.5,3v0.3h17.5c-0.1,0.6-0.2,1.2-0.4,1.9c-0.3,2-2.1,3.6-4.2,3.6h-13.9v0.1
		c-0.1,0.6-0.2,1.1-0.3,1.7c-0.1,0.6-0.2,1.2-0.3,1.8v0.1h20.6c-0.1,0.6-0.2,1.2-0.3,1.9c-0.4,2-2.3,3.6-4.4,3.6h-24
		c-2,0-3.4-1.6-3-3.6C447.2,76.9,447.3,76.2,447.4,75.6L447.4,75.6z"/>
	<path d="M506.8,75.6c0.6,0,1.1-0.4,1.2-0.9c0.1-0.6,0.2-1.3,0.3-1.9c0.1-0.5-0.2-0.9-0.7-0.9h-19.1c-2,0-3.4-1.6-3-3.6
		c0.3-1.6,0.6-3.2,0.9-4.9c0.1-0.6,0.2-1.2,0.3-1.7c0.3-2-0.1-3.5-2-4.5h36.1c-0.1,0.6-0.2,1.2-0.4,1.9c-0.3,2-2.1,3.6-4.2,3.6
		h-18.1c-0.5,0-0.9,0.4-1,0.9c-0.2,0.7-0.3,1.3-0.4,1.9c-0.1,0.5,0.3,0.9,0.7,0.9h19.2c1.9,0,3.3,1.6,2.9,3.6
		c-0.5,2.5-0.9,5-1.3,7.5c-0.4,2-2.3,3.6-4.2,3.6h-29.9c0.1-0.6,0.2-1.2,0.3-1.9c0.4-2,2.3-3.6,4.4-3.6L506.8,75.6L506.8,75.6z"/>
	<path d="M559.8,73.8H556c-0.2,1.2-0.4,2.5-0.6,3.7c-0.4,2-2.3,3.6-4.3,3.6H544c1.1-6.5,2.3-13,3.4-19.5c0.3-2-0.2-3.7-1.9-4.5h32.6
		c1.9,0,3.3,1.6,2.9,3.6c-0.6,3.2-1.2,6.3-1.7,9.4c-0.4,2-2.2,3.6-4.2,3.6h-2.3c1.8,2.4,3.8,4.9,5.8,7.3h-9.8
		c-0.9,0-1.5-0.3-2.3-1.2c-1.4-1.6-2.6-3.2-3.8-4.9C561.9,74.2,561,73.8,559.8,73.8L559.8,73.8z M569.2,67.4
		c0.2-1.3,0.4-2.6,0.7-3.9c0.1-0.5-0.4-0.9-0.9-0.9h-10.9c-0.3,1.9-0.7,3.8-1,5.7H568C568.5,68.3,569.2,67.9,569.2,67.4L569.2,67.4z
		"/>
	<path d="M595.8,69.8c-0.3,1.7-0.6,3.3-0.9,4.9c-0.1,0.5,0.4,0.9,0.8,0.9h11.1c0.5,0,0.9-0.4,1-0.9c0.3-1.6,0.6-3.3,0.9-4.9
		c0.2-1.1,0.4-2.3,0.6-3.4c0.3-1.9,0.6-3.7,1-5.6c0.3-2,2.3-3.6,4.2-3.6h7.1c-0.6,3.1-1.1,6.1-1.6,9.2c-0.2,1.2-0.4,2.3-0.6,3.4
		c-0.5,2.6-1,5.1-1.4,7.7c-0.3,2-2.1,3.6-4.2,3.6h-27.1c-1.9,0-3.3-1.6-2.9-3.6c0.5-2.6,0.9-5.2,1.4-7.7c0.2-1.1,0.4-2.3,0.6-3.4
		c0.2-1.6,0.5-3.1,0.8-4.7c0.3-2-0.4-3.7-1.9-4.5h13.4c-0.6,3.1-1.1,6.1-1.6,9.2C596.2,67.5,596,68.6,595.8,69.8L595.8,69.8z"/>
	<path d="M625.2,57.1h13.3c3.7,4.2,7.3,8.4,11,12.6c0.2-1.1,0.4-2.2,0.6-3.3c0.3-1.9,0.6-3.8,1-5.6c0.3-2,2.1-3.6,4.2-3.6h7.1
		c-1.2,6.8-2.4,13.6-3.7,20.4c-0.4,2-2.3,3.6-4.2,3.6h-6.8c-3.8-4.2-7.5-8.4-11-12.6c-0.6,3-1.1,6-1.6,9c-0.4,2-2.3,3.6-4.2,3.6
		h-7.1c1.1-6.5,2.2-13,3.4-19.5C627.5,59.7,626.9,58,625.2,57.1L625.2,57.1z"/>
	<path d="M665.9,72.8h10.8l-0.5,2.8c-0.1,0.6-0.2,1.2-0.4,1.9c-0.3,2-2.3,3.6-4.2,3.6h-7.1c0.3-1.8,0.6-3.7,0.9-5.5L665.9,72.8
		L665.9,72.8z M668.5,57.1h10.8l-0.5,2.8c-0.1,0.6-0.2,1.2-0.4,1.9c-0.3,2-2.3,3.6-4.2,3.6h-7.1c0.3-1.8,0.6-3.7,0.9-5.5L668.5,57.1
		L668.5,57.1z"/>
	<path d="M82.8,129.1H61.7c-2,0-3.4-1.6-3-3.6c0.5-2.8,1-5.6,1.5-8.4c0.4-2.5,0.9-5,1.3-7.5c0.3-2-0.1-3.6-1.9-4.5h13.6
		c-0.4,2.2-0.8,4.3-1.1,6.4c-0.4,1.9-0.7,3.7-1,5.6c-0.2,0.8-0.3,1.5-0.4,2.3c-0.2,1.1-0.4,2.2-0.6,3.3c-0.1,0.5,0.2,0.9,0.7,0.9
		h16.7c-0.2,0.6-0.3,1.2-0.4,1.9C86.8,127.5,84.8,129.1,82.8,129.1L82.8,129.1z"/>
	<path d="M130,130.1h-12.2c-0.4-0.8-0.6-1.5-0.9-2.3h-13.6c-0.6,0.8-1.3,1.5-1.9,2.3H89.5c6.1-7.6,12.3-15.2,18.6-22.8
		c0.9-1.1,0.1-1.6-1-2.2h9.1c1.4,0,2.5,0.7,3.1,1.9C122.9,114.7,126.4,122.4,130,130.1z M114.4,122.4c-0.8-1.7-1.6-3.4-2.4-5.1
		c-1.3,1.7-2.7,3.4-4.2,5.1H114.4z"/>
	<path d="M177.6,129.1h-21.1c-2,0-3.4-1.6-3-3.6c0.5-2.8,1-5.6,1.5-8.4c0.4-2.5,0.9-5,1.3-7.5c0.3-2-0.1-3.6-1.9-4.5H168
		c-0.4,2.2-0.8,4.3-1.1,6.4c-0.4,1.9-0.7,3.7-1,5.6c-0.2,0.8-0.3,1.5-0.4,2.3c-0.2,1.1-0.4,2.2-0.6,3.3c-0.1,0.5,0.2,0.9,0.7,0.9
		h16.7c-0.2,0.6-0.3,1.2-0.4,1.9C181.6,127.5,179.7,129.1,177.6,129.1L177.6,129.1z"/>
	<path d="M191.4,129.1h-7.1c1.1-6.5,2.2-13,3.4-19.5c0.3-1.9-0.3-3.7-2-4.5h13.6c-0.1,0.4-0.2,0.8-0.2,1.2c-0.5,2.7-1,5.3-1.4,8
		c-0.4,1.8-0.7,3.7-1,5.5c-0.3,1.9-0.6,3.8-1,5.6C195.3,127.5,193.3,129.1,191.4,129.1L191.4,129.1z"/>
	<path d="M238.1,114.4c-0.4,1.9-0.7,3.8-1,5.8c-0.2,1.1-0.4,2.2-0.6,3.3c-0.1,0.7-0.3,1.4-0.4,2c-0.3,2-2.3,3.6-4.2,3.6h-27.1
		c-2,0-3.4-1.6-3-3.6c0.1-0.7,0.2-1.3,0.3-2c0.8-4.3,1.6-8.6,2.3-12.9c0.1-0.3,0.1-0.6,0.2-0.9c0.3-2-0.1-3.6-1.9-4.5h37.2
		c-0.1,0.6-0.2,1.2-0.3,1.9c-0.4,2-2.4,3.6-4.4,3.6h-19c-0.5,0-0.9,0.3-1.1,0.7c0,0.1,0,0.1,0,0.2c-0.7,3.7-1.3,7.4-2,11.2
		c0,0.1,0,0.1,0,0.2c0,0.4,0.4,0.7,0.8,0.7H225c0.4,0,0.6-0.2,0.8-0.5c0.1-0.1,0.2-0.2,0.2-0.4c0.2-0.8,0.3-1.7,0.4-2.6
		c0.2-0.7,0.3-1.4,0.4-2.1c0.4-2,2.3-3.6,4.4-3.6L238.1,114.4L238.1,114.4z"/>
	<path d="M282.3,130.1h-12.1c-0.4-0.8-0.6-1.5-0.9-2.3h-13.6c-0.6,0.8-1.3,1.5-1.9,2.3h-11.9c6.1-7.6,12.4-15.2,18.6-22.8
		c0.9-1.1,0.1-1.6-1-2.2h9.1c1.4,0,2.5,0.7,3.1,1.9C275.2,114.7,278.7,122.4,282.3,130.1z M266.7,122.4c-0.8-1.7-1.6-3.4-2.4-5.1
		c-1.3,1.7-2.7,3.4-4.1,5.1H266.7z"/>
	<path d="M309.8,105.1h29.9c0.9,0,1.7,0.4,2.3,1.1c0.5,0.6,0.8,1.5,0.6,2.5c-1,5.6-2.1,11.2-3,16.8c-0.3,2-2.2,3.6-4.1,3.6h-30
		c0.3-1.8,0.6-3.7,1-5.5c0.8-4.7,1.6-9.3,2.4-14c0.3-1.9-0.3-3.7-1.9-4.5H309.8L309.8,105.1z M331.3,111.5c0.1-0.5-0.2-0.9-0.7-0.9
		h-11c-0.7,4.3-1.5,8.7-2.2,13h11c0.4,0,0.8-0.4,0.9-0.9c0.5-2.7,0.9-5.3,1.4-7.9C330.9,113.7,331.1,112.6,331.3,111.5L331.3,111.5z
		"/>
	<path d="M345.5,123.6c0.8-4.7,1.7-9.3,2.5-14c0.3-1.9-0.3-3.7-2-4.5h34.2c-0.1,0.6-0.2,1.2-0.4,1.9c-0.3,2-2.3,3.6-4.4,3.6h-16.9
		c0,0.2,0,0.4-0.1,0.6c-0.1,1-0.3,2-0.5,2.9v0.3h17.5c-0.1,0.6-0.2,1.2-0.4,1.9c-0.3,2-2.1,3.6-4.2,3.6h-13.9v0.3
		c-0.1,0.6-0.2,1.1-0.3,1.7c-0.1,0.6-0.2,1.2-0.3,1.8v0.1h20.6c-0.1,0.6-0.2,1.2-0.3,1.9c-0.4,2-2.3,3.6-4.4,3.6h-24
		c-2,0-3.4-1.6-3-3.6C345.3,124.9,345.4,124.2,345.5,123.6L345.5,123.6z"/>
	<path d="M427.9,129.1h-21.1c-2,0-3.4-1.6-3-3.6c0.5-2.8,1-5.6,1.5-8.4c0.4-2.5,0.9-5,1.3-7.5c0.3-2-0.1-3.6-1.9-4.5h13.6
		c-0.4,2.2-0.8,4.3-1.1,6.4c-0.4,1.9-0.7,3.7-1,5.6c-0.2,0.8-0.3,1.5-0.4,2.3c-0.2,1.1-0.4,2.2-0.6,3.3c-0.1,0.5,0.2,0.9,0.7,0.9
		h16.6c-0.2,0.6-0.3,1.2-0.4,1.9C431.9,127.5,429.9,129.1,427.9,129.1L427.9,129.1z"/>
	<path d="M475,130.1h-12.1c-0.4-0.8-0.6-1.5-0.9-2.3h-13.6c-0.6,0.8-1.3,1.5-1.9,2.3h-12c6.1-7.6,12.4-15.2,18.6-22.8
		c0.9-1.1,0.1-1.6-1-2.2h9.1c1.4,0,2.5,0.7,3.1,1.9C467.9,114.7,471.5,122.4,475,130.1L475,130.1z M459.5,122.4
		c-0.8-1.7-1.6-3.4-2.4-5.1c-1.3,1.7-2.7,3.4-4.1,5.1H459.5z"/>
	<path d="M527,105.1h3.5c-0.2,1.2-0.4,2.4-0.6,3.6c-0.2,0.9-0.4,1.9-0.5,2.8c-0.9,4.7-1.7,9.3-2.5,14c-0.4,2-2.2,3.6-4.2,3.6h-21.2
		c-2,0-3.3-1.6-2.9-3.6c0.1-0.6,0.2-1.2,0.3-1.9h16.6c0.5,0,1-0.4,1.1-0.9c0.7-3.7,1.3-7.4,2-11.2c0.1-0.9,0.3-1.9,0.5-2.8
		c0.3-2,2.2-3.6,4.2-3.6C523.4,105.1,527,105.1,527,105.1z"/>
	<path d="M545,117.8c-0.3,1.7-0.6,3.3-0.9,4.9c-0.1,0.5,0.4,0.9,0.8,0.9H556c0.5,0,0.9-0.4,1-0.9c0.3-1.6,0.6-3.3,0.9-4.9
		c0.2-1.1,0.4-2.3,0.6-3.4c0.3-1.9,0.6-3.7,1-5.6c0.3-2,2.3-3.6,4.2-3.6h7.1c-0.6,3.1-1.1,6.1-1.6,9.2c-0.2,1.2-0.4,2.3-0.6,3.4
		c-0.5,2.6-1,5.1-1.4,7.7c-0.3,2-2.1,3.6-4.2,3.6h-27.1c-1.9,0-3.3-1.6-2.9-3.6c0.5-2.6,0.9-5.2,1.4-7.7c0.2-1.1,0.4-2.3,0.6-3.4
		c0.2-1.6,0.5-3.1,0.8-4.7c0.3-1.9-0.4-3.7-1.9-4.5h13.4c-0.6,3.1-1.1,6.1-1.6,9.2C545.4,115.5,545.2,116.6,545,117.8L545,117.8z"/>
	<path d="M595.6,123.6c0.6,0,1.1-0.4,1.2-0.9c0.1-0.6,0.2-1.3,0.3-1.9c0.1-0.5-0.2-0.9-0.7-0.9h-19.1c-2,0-3.4-1.6-3-3.6
		c0.3-1.6,0.6-3.2,0.9-4.9c0.1-0.6,0.2-1.2,0.3-1.7c0.3-1.9-0.1-3.5-2-4.5h36.2c-0.1,0.6-0.2,1.2-0.4,1.9c-0.3,2-2.1,3.6-4.2,3.6
		H587c-0.5,0-0.9,0.4-1,0.9c-0.2,0.7-0.3,1.3-0.4,1.9c-0.1,0.5,0.3,0.9,0.7,0.9h19.2c1.9,0,3.3,1.6,2.9,3.6c-0.5,2.5-0.9,5-1.3,7.5
		c-0.4,2-2.3,3.6-4.2,3.6H573c0.1-0.6,0.2-1.2,0.3-1.9c0.4-2,2.3-3.6,4.3-3.6H595.6L595.6,123.6z"/>
	<path d="M633.1,114.4c-0.4,1.8-0.7,3.7-1,5.5c-0.4,1.9-0.7,3.8-1,5.6c-0.4,2-2.2,3.6-4.2,3.6h-7.2c1.1-6.2,2.1-12.3,3.2-18.5h-11.2
		c0.3-1.8,0.7-3.7,1-5.5h33.4c-0.1,0.6-0.2,1.2-0.4,1.9c-0.3,2-2.3,3.6-4.2,3.6h-7.7C633.5,111.8,633.3,113.1,633.1,114.4z"/>
	<path d="M655.1,129.1H648c1.1-6.5,2.2-13,3.4-19.5c0.3-1.9-0.3-3.7-2-4.5H663c-0.1,0.4-0.2,0.8-0.2,1.2c-0.5,2.7-1,5.3-1.4,8
		c-0.4,1.8-0.7,3.7-1,5.5c-0.3,1.9-0.6,3.8-1,5.6C659.1,127.5,657.1,129.1,655.1,129.1L655.1,129.1z"/>
	<path d="M665.4,125.5c0.1-0.7,0.3-1.3,0.4-2c0.6-3.5,1.2-6.9,1.8-10.4c0.2-1.1,0.4-2.2,0.6-3.2c0.3-2.1,0-3.7-1.9-4.7h34
		c-0.1,0.6-0.2,1.2-0.3,1.9c-0.4,2-2.2,3.6-4.2,3.6h-16.1c-0.5,0-0.8,0.3-1,0.7c-0.1,0.1-0.1,0.1-0.1,0.2c-0.2,1.1-0.4,2.2-0.6,3.2
		c-0.5,2.7-0.9,5.3-1.4,7.9c0,0.1,0,0.1,0.1,0.2c0,0.4,0.3,0.7,0.8,0.7h19.7c-0.2,0.6-0.3,1.2-0.4,1.9c-0.3,2-2.1,3.6-4.2,3.6h-24.2
		C666.4,129.1,665.1,127.5,665.4,125.5L665.4,125.5z"/>
	<path d="M709.4,129.1h-7.1c1.1-6.5,2.2-13,3.4-19.5c0.3-1.9-0.3-3.7-2-4.5h13.6c-0.1,0.4-0.2,0.8-0.2,1.2c-0.5,2.7-1,5.3-1.4,8
		c-0.4,1.8-0.7,3.7-1,5.5c-0.3,1.9-0.6,3.8-1,5.6C713.3,127.5,711.3,129.1,709.4,129.1L709.4,129.1z"/>
	<path d="M759.8,130.1h-12.2c-0.4-0.8-0.6-1.5-0.9-2.3h-13.6c-0.6,0.8-1.3,1.5-1.9,2.3h-12c6.1-7.6,12.3-15.2,18.6-22.8
		c0.9-1.1,0.1-1.6-1-2.2h9.1c1.4,0,2.5,0.7,3.1,1.9C752.7,114.7,756.3,122.4,759.8,130.1z M744.2,122.4c-0.8-1.7-1.6-3.4-2.4-5.1
		c-1.3,1.7-2.7,3.4-4.2,5.1H744.2z"/>
</g>
<g>
	<path d="M78.3,160.9l-8.1,18.6h-3.4l-8.1-18.6h3.8l6.2,14.3l6.3-14.3H78.3L78.3,160.9z"/>
	<path d="M79.6,161c0-1.1,0.9-2,2.1-2c1.3,0,2.1,0.8,2.1,1.9c0,1.2-0.9,2.1-2.1,2.1C80.5,163,79.6,162.1,79.6,161z M80.1,165.3h3.3
		v14.2h-3.3V165.3z"/>
	<path d="M101.8,171.4v8.1h-3.3v-7.7c0-2.5-1.3-3.8-3.4-3.8c-2.4,0-4,1.4-4,4.3v7.2h-3.3v-14.2h3.2v1.8c1.1-1.3,2.8-2,4.9-2
		C99.2,165.1,101.8,167.1,101.8,171.4L101.8,171.4z M91.7,163.2H90c0.1-2.1,1.2-3.5,2.9-3.5c1.7,0,2.7,1.8,3.6,1.8
		c0.7,0,1.3-0.6,1.3-1.6h1.8c-0.1,2.1-1.2,3.5-2.9,3.5s-2.7-1.8-3.6-1.8C92.3,161.6,91.8,162.2,91.7,163.2L91.7,163.2z"/>
	<path d="M117.9,171.2v8.3h-3.1v-1.7c-0.8,1.3-2.4,1.9-4.5,1.9c-3.3,0-5.3-1.8-5.3-4.3c0-2.5,1.6-4.2,5.9-4.2h3.7V171
		c0-1.9-1.2-3.1-3.5-3.1c-1.6,0-3.3,0.5-4.3,1.4l-1.3-2.4c1.6-1.2,3.7-1.8,6-1.8C115.5,165.2,117.9,167.1,117.9,171.2L117.9,171.2z
		 M114.6,175.1v-1.6h-3.4c-2.3,0-2.9,0.8-2.9,1.9c0,1.2,1,2,2.7,2C112.6,177.3,114,176.5,114.6,175.1z"/>
	<path d="M143.4,159.8v19.7h-3.2v-1.8c-1.1,1.3-2.7,2-4.7,2c-4.1,0-7.2-2.9-7.2-7.3s3-7.2,7.2-7.2c1.8,0,3.5,0.6,4.6,1.9v-7.3
		L143.4,159.8L143.4,159.8z M140.1,172.4c0-2.7-1.8-4.4-4.2-4.4s-4.2,1.7-4.2,4.4s1.8,4.4,4.2,4.4S140.1,175.1,140.1,172.4z"/>
	<path d="M161,173.4h-11.2c0.4,2.1,2.1,3.4,4.6,3.4c1.6,0,2.9-0.5,3.8-1.6l1.8,2.1c-1.3,1.6-3.3,2.3-5.7,2.3c-4.7,0-7.8-3-7.8-7.3
		c0-4.3,3.1-7.2,7.3-7.2s7.2,2.9,7.2,7.3C161.1,172.8,161,173.1,161,173.4L161,173.4z M149.9,171.2h8.1c-0.3-2.1-1.8-3.5-4-3.5
		C151.8,167.8,150.2,169.2,149.9,171.2z"/>
	<path d="M164.3,159.8h3.3v19.7h-3.3V159.8L164.3,159.8z"/>
	<path d="M196.7,179.5v-12.3l-6.1,10.2h-1.6l-6.1-10v12.2h-3.3v-18.6h2.9l7.4,12.3l7.2-12.3h2.9v18.6H196.7L196.7,179.5z"/>
	<path d="M216.6,171.2v8.3h-3.1v-1.7c-0.8,1.3-2.4,1.9-4.4,1.9c-3.3,0-5.3-1.8-5.3-4.3c0-2.5,1.6-4.2,5.9-4.2h3.7V171
		c0-1.9-1.2-3.1-3.5-3.1c-1.6,0-3.3,0.5-4.3,1.4l-1.3-2.4c1.6-1.2,3.7-1.8,6-1.8C214.3,165.2,216.6,167.1,216.6,171.2L216.6,171.2z
		 M213.3,175.1v-1.6h-3.4c-2.3,0-2.9,0.8-2.9,1.9c0,1.2,1,2,2.7,2S212.7,176.5,213.3,175.1L213.3,175.1z"/>
	<path d="M229.1,165.2v3.2c-0.3-0.1-0.5-0.1-0.7-0.1c-2.5,0-4.1,1.5-4.1,4.4v6.9h-3.3v-14.2h3.2v2.1
		C225,165.9,226.7,165.2,229.1,165.2L229.1,165.2z"/>
	<path d="M231,167.4c0-1.3,1-2.2,2.2-2.2c1.3,0,2.2,0.9,2.2,2.2c0,1.3-1,2.2-2.2,2.2C232,169.6,231,168.6,231,167.4z M231,177.5
		c0-1.3,1-2.2,2.2-2.2c1.3,0,2.2,0.9,2.2,2.2c0,1.3-1,2.2-2.2,2.2C232,179.7,231,178.8,231,177.5z"/>
	<path d="M251.4,160.9v18.6h-3.5v-15.7H244v-2.9H251.4L251.4,160.9z"/>
	<path d="M269.4,169.9c0,6.4-3.7,9.9-9.2,9.9c-1.8,0-3.6-0.4-4.9-1.2l1.3-2.6c1,0.7,2.2,0.9,3.5,0.9c3.5,0,5.7-2.1,5.7-6.4l0,0
		c-1.1,1.3-2.9,1.9-5,1.9c-3.7,0-6.4-2.2-6.4-5.7c0-3.7,3-6.1,6.8-6.1C266.5,160.6,269.4,163.9,269.4,169.9L269.4,169.9z
		 M265.5,166.5c0-1.8-1.4-3.1-3.8-3.1c-2.1,0-3.6,1.3-3.6,3.2s1.5,3.2,3.7,3.2C263.9,169.7,265.5,168.3,265.5,166.5L265.5,166.5z"/>
	<path d="M294.1,159.8v19.7h-3.2v-1.8c-1.1,1.3-2.7,2-4.7,2c-4.1,0-7.2-2.9-7.2-7.3s3-7.2,7.2-7.2c1.8,0,3.5,0.6,4.6,1.9v-7.3
		L294.1,159.8L294.1,159.8z M290.8,172.4c0-2.7-1.8-4.4-4.2-4.4c-2.4,0-4.2,1.7-4.2,4.4s1.8,4.4,4.2,4.4
		C289,176.8,290.8,175.1,290.8,172.4z"/>
	<path d="M311.7,173.4h-11.2c0.4,2.1,2.1,3.4,4.6,3.4c1.6,0,2.9-0.5,3.8-1.6l1.8,2.1c-1.3,1.6-3.3,2.3-5.7,2.3c-4.7,0-7.8-3-7.8-7.3
		c0-4.3,3.1-7.2,7.3-7.2s7.2,2.9,7.2,7.3C311.8,172.8,311.8,173.1,311.7,173.4L311.7,173.4z M300.6,171.2h8.1
		c-0.3-2.1-1.8-3.5-4-3.5S300.9,169.2,300.6,171.2L300.6,171.2z"/>
	<path d="M326,164.6v0.8h3.9v2.7h-3.8v11.5h-3.3V168h-2.4v-2.7h2.4v-0.9c0-3,1.8-5,5.1-5c1.1,0,2.3,0.2,3,0.7l-1,2.5
		c-0.5-0.4-1.1-0.6-1.8-0.6C326.7,162.3,326,163,326,164.6L326,164.6z"/>
	<path d="M345.2,173.4H334c0.4,2.1,2.1,3.4,4.6,3.4c1.6,0,2.9-0.5,3.8-1.6l1.8,2.1c-1.3,1.6-3.3,2.3-5.7,2.3c-4.7,0-7.8-3-7.8-7.3
		c0-4.3,3.1-7.2,7.3-7.2s7.2,2.9,7.2,7.3C345.3,172.8,345.3,173.1,345.2,173.4L345.2,173.4z M334,171.2h8.1c-0.3-2.1-1.8-3.5-4-3.5
		S334.4,169.2,334,171.2z"/>
	<path d="M363.6,172.4c0,4.4-3,7.3-7.2,7.3c-1.9,0-3.6-0.7-4.7-2v1.8h-3.1v-19.7h3.3v7.2c1.1-1.3,2.7-1.9,4.6-1.9
		C360.5,165.2,363.6,168,363.6,172.4L363.6,172.4z M360.2,172.4c0-2.7-1.8-4.4-4.2-4.4c-2.4,0-4.2,1.7-4.2,4.4s1.8,4.4,4.2,4.4
		C358.3,176.8,360.2,175.1,360.2,172.4z"/>
	<path d="M375,165.2v3.2c-0.3-0.1-0.5-0.1-0.7-0.1c-2.5,0-4.1,1.5-4.1,4.4v6.9h-3.3v-14.2h3.2v2.1
		C370.8,165.9,372.6,165.2,375,165.2L375,165.2z"/>
	<path d="M390.9,173.4h-11.2c0.4,2.1,2.1,3.4,4.6,3.4c1.6,0,2.9-0.5,3.8-1.6l1.8,2.1c-1.3,1.6-3.3,2.3-5.7,2.3c-4.7,0-7.8-3-7.8-7.3
		c0-4.3,3.1-7.2,7.3-7.2c4.2,0,7.2,2.9,7.2,7.3C391,172.8,390.9,173.1,390.9,173.4L390.9,173.4z M379.8,171.2h8.1
		c-0.3-2.1-1.8-3.5-4-3.5S380.1,169.2,379.8,171.2z"/>
	<path d="M402.4,165.2v3.2c-0.3-0.1-0.5-0.1-0.7-0.1c-2.5,0-4.1,1.5-4.1,4.4v6.9h-3.3v-14.2h3.2v2.1
		C398.3,165.9,400,165.2,402.4,165.2L402.4,165.2z"/>
	<path d="M403.9,172.4c0-4.3,3.2-7.2,7.5-7.2s7.6,3,7.6,7.2s-3.2,7.3-7.6,7.3C407,179.7,403.9,176.6,403.9,172.4z M415.7,172.4
		c0-2.7-1.8-4.4-4.2-4.4s-4.2,1.7-4.2,4.4s1.8,4.4,4.2,4.4S415.7,175.1,415.7,172.4z"/>
	<path d="M61.3,196.4h3.5V212h9.8v3H61.3V196.4L61.3,196.4z"/>
	<path d="M90.5,200.8V215h-3.2v-1.8c-1,1.3-2.7,2-4.6,2c-3.6,0-6.1-2-6.1-6.3v-8.1h3.3v7.7c0,2.6,1.3,3.8,3.3,3.8
		c2.3,0,3.8-1.4,3.8-4.3v-7.2H90.5L90.5,200.8z"/>
	<path d="M109,200.8v12c0,5.2-2.7,7.5-7.7,7.5c-2.7,0-5.3-0.7-6.9-2l1.5-2.5c1.3,1,3.3,1.7,5.2,1.7c3.1,0,4.5-1.4,4.5-4.3v-0.7
		c-1.2,1.3-2.8,1.9-4.7,1.9c-4.1,0-7.2-2.7-7.2-6.9c0-4.1,3.1-6.8,7.2-6.8c2,0,3.8,0.7,5,2.1v-1.9L109,200.8L109,200.8z
		 M105.7,207.4c0-2.4-1.8-4-4.3-4c-2.5,0-4.4,1.6-4.4,4c0,2.4,1.8,4.1,4.4,4.1S105.7,209.9,105.7,207.4z"/>
	<path d="M125.2,206.6v8.3h-3.1v-1.7c-0.8,1.3-2.4,1.9-4.5,1.9c-3.3,0-5.3-1.8-5.3-4.3c0-2.5,1.6-4.2,5.9-4.2h3.7v-0.2
		c0-1.9-1.2-3.1-3.5-3.1c-1.6,0-3.3,0.5-4.3,1.4l-1.3-2.4c1.6-1.2,3.7-1.8,6-1.8C122.8,200.6,125.2,202.6,125.2,206.6L125.2,206.6z
		 M121.9,210.5v-1.6h-3.4c-2.3,0-2.9,0.8-2.9,1.9c0,1.2,1,2,2.7,2S121.3,212,121.9,210.5z"/>
	<path d="M137.7,200.6v3.2c-0.3-0.1-0.5-0.1-0.7-0.1c-2.5,0-4.1,1.5-4.1,4.4v6.9h-3.3v-14.2h3.2v2.1
		C133.6,201.4,135.3,200.6,137.7,200.6L137.7,200.6z"/>
	<path d="M139.7,202.9c0-1.3,1-2.2,2.1-2.2c1.2,0,2.1,0.9,2.1,2.2c0,1.3-1,2.2-2.1,2.2C140.7,205.1,139.7,204.1,139.7,202.9z
		 M139.7,213c0-1.3,1-2.2,2.1-2.2c1.2,0,2.1,0.9,2.1,2.2c0,1.3-1,2.2-2.1,2.2C140.7,215.2,139.7,214.2,139.7,213z"/>
	<path d="M153.4,213l1.2-2.7c1.5,1.2,3.8,2.1,6.1,2.1c2.9,0,4.1-1,4.1-2.4c0-4-11.1-1.4-11.1-8.3c0-3,2.4-5.5,7.5-5.5
		c2.2,0,4.6,0.6,6.2,1.6l-1.1,2.7c-1.7-1-3.5-1.5-5.1-1.5c-2.9,0-4.1,1.1-4.1,2.5c0,4,11,1.4,11,8.2c0,3-2.4,5.5-7.5,5.5
		C157.8,215.3,154.9,214.3,153.4,213L153.4,213z"/>
	<path d="M186.4,207.9c0,4.4-3,7.3-7.2,7.3c-1.8,0-3.4-0.6-4.6-1.9v6.9h-3.3v-19.4h3.2v1.8c1.1-1.3,2.7-2,4.7-2
		C183.4,200.6,186.4,203.4,186.4,207.9L186.4,207.9z M183.1,207.9c0-2.7-1.8-4.4-4.2-4.4s-4.2,1.7-4.2,4.4c0,2.7,1.8,4.4,4.2,4.4
		S183.1,210.6,183.1,207.9z"/>
	<path d="M188.4,207.9c0-4.3,3.2-7.2,7.5-7.2s7.6,3,7.6,7.2s-3.2,7.3-7.6,7.3S188.4,212.1,188.4,207.9z M200.2,207.9
		c0-2.7-1.8-4.4-4.2-4.4s-4.2,1.7-4.2,4.4c0,2.7,1.8,4.4,4.2,4.4S200.2,210.6,200.2,207.9z"/>
	<path d="M215,200.6v3.2c-0.3-0.1-0.5-0.1-0.7-0.1c-2.5,0-4.1,1.5-4.1,4.4v6.9h-3.3v-14.2h3.2v2.1
		C210.9,201.4,212.6,200.6,215,200.6L215,200.6z"/>
	<path d="M226.9,214.2c-0.8,0.7-2,1-3.2,1c-3.1,0-4.9-1.6-4.9-4.8v-6.8h-2.4v-2.7h2.4v-3.3h3.3v3.3h3.8v2.7h-3.8v6.7
		c0,1.4,0.7,2.1,2,2.1c0.7,0,1.3-0.1,1.8-0.6L226.9,214.2L226.9,214.2z"/>
	<path d="M229.2,196.4c0-1.1,0.9-2,2.1-2c1.3,0,2.1,0.8,2.1,1.9c0,1.2-0.9,2.1-2.1,2.1C230.1,198.4,229.2,197.5,229.2,196.4z
		 M229.6,200.8h3.3V215h-3.3V200.8z"/>
	<path d="M251.3,206.8v8.1h-3.3v-7.7c0-2.5-1.3-3.8-3.4-3.8c-2.4,0-4,1.4-4,4.3v7.2h-3.3v-14.2h3.2v1.8c1.1-1.3,2.8-2,4.9-2
		C248.8,200.6,251.3,202.6,251.3,206.8L251.3,206.8z"/>
	<path d="M269.7,200.8v12c0,5.2-2.7,7.5-7.7,7.5c-2.7,0-5.3-0.7-6.9-2l1.5-2.5c1.3,1,3.3,1.7,5.2,1.7c3.1,0,4.5-1.4,4.5-4.3v-0.7
		c-1.2,1.3-2.9,1.9-4.7,1.9c-4.1,0-7.2-2.7-7.2-6.9c0-4.1,3.1-6.8,7.2-6.8c2,0,3.8,0.7,5,2.1v-1.9L269.7,200.8L269.7,200.8z
		 M266.5,207.4c0-2.4-1.8-4-4.3-4s-4.4,1.6-4.4,4c0,2.4,1.8,4.1,4.4,4.1C264.7,211.5,266.5,209.9,266.5,207.4z"/>
	<path d="M295.3,195.2V215h-3.2v-1.8c-1.1,1.3-2.7,2-4.7,2c-4.1,0-7.2-2.9-7.2-7.3s3-7.2,7.2-7.2c1.8,0,3.5,0.6,4.6,1.9v-7.3
		L295.3,195.2L295.3,195.2z M292.1,207.9c0-2.7-1.8-4.4-4.2-4.4c-2.4,0-4.2,1.7-4.2,4.4c0,2.7,1.8,4.4,4.2,4.4
		C290.2,212.3,292.1,210.6,292.1,207.9z"/>
	<path d="M313,208.9h-11.2c0.4,2.1,2.1,3.4,4.6,3.4c1.6,0,2.9-0.5,3.8-1.6l1.8,2.1c-1.3,1.6-3.3,2.3-5.7,2.3c-4.7,0-7.8-3-7.8-7.3
		s3.1-7.2,7.3-7.2s7.2,2.9,7.2,7.3C313,208.2,313,208.6,313,208.9L313,208.9z M301.8,206.7h8.1c-0.3-2.1-1.8-3.5-4-3.5
		S302.2,204.6,301.8,206.7z"/>
	<path d="M341,196.4l-8.1,18.6h-3.4l-8.1-18.6h3.8l6.2,14.3l6.3-14.3H341L341,196.4z"/>
	<path d="M342.3,196.4c0-1.1,0.9-2,2.1-2c1.3,0,2.1,0.8,2.1,1.9c0,1.2-0.9,2.1-2.1,2.1C343.2,198.4,342.3,197.5,342.3,196.4z
		 M342.8,200.8h3.3V215h-3.3V200.8z"/>
	<path d="M364.4,206.8v8.1h-3.3v-7.7c0-2.5-1.3-3.8-3.4-3.8c-2.4,0-4,1.4-4,4.3v7.2h-3.3v-14.2h3.2v1.8c1.1-1.3,2.8-2,4.9-2
		C361.9,200.6,364.4,202.6,364.4,206.8L364.4,206.8z M354.4,198.6h-1.8c0.1-2.1,1.2-3.5,2.9-3.5s2.7,1.8,3.6,1.8
		c0.7,0,1.3-0.6,1.3-1.6h1.8c-0.1,2.1-1.2,3.5-2.9,3.5c-1.7,0-2.7-1.8-3.6-1.8C354.9,197.1,354.4,197.7,354.4,198.6L354.4,198.6z"/>
	<path d="M380.5,206.6v8.3h-3.1v-1.7c-0.8,1.3-2.4,1.9-4.4,1.9c-3.3,0-5.3-1.8-5.3-4.3c0-2.5,1.6-4.2,5.9-4.2h3.7v-0.2
		c0-1.9-1.2-3.1-3.5-3.1c-1.6,0-3.3,0.5-4.3,1.4l-1.3-2.4c1.5-1.2,3.7-1.8,6-1.8C378.1,200.6,380.5,202.6,380.5,206.6L380.5,206.6z
		 M377.2,210.5v-1.6h-3.4c-2.3,0-2.9,0.8-2.9,1.9c0,1.2,1,2,2.7,2S376.7,212,377.2,210.5L377.2,210.5z"/>
	<path d="M406,195.2V215h-3.2v-1.8c-1.1,1.3-2.7,2-4.7,2c-4.1,0-7.2-2.9-7.2-7.3s3-7.2,7.2-7.2c1.8,0,3.5,0.6,4.6,1.9v-7.3
		L406,195.2L406,195.2z M402.8,207.9c0-2.7-1.8-4.4-4.2-4.4s-4.2,1.7-4.2,4.4c0,2.7,1.8,4.4,4.2,4.4S402.8,210.6,402.8,207.9z"/>
	<path d="M423.7,208.9h-11.2c0.4,2.1,2.1,3.4,4.6,3.4c1.6,0,2.8-0.5,3.8-1.6l1.8,2.1c-1.3,1.6-3.3,2.3-5.7,2.3c-4.7,0-7.8-3-7.8-7.3
		s3.1-7.2,7.3-7.2c4.2,0,7.2,2.9,7.2,7.3C423.7,208.2,423.7,208.6,423.7,208.9L423.7,208.9z M412.5,206.7h8.1
		c-0.3-2.1-1.8-3.5-4-3.5C414.4,203.2,412.9,204.6,412.5,206.7z"/>
	<path d="M427,195.2h3.3V215H427V195.2L427,195.2z"/>
	<path d="M459.4,215v-12.3l-6.1,10.2h-1.6l-6.1-10V215h-3.3v-18.6h2.8l7.4,12.3l7.2-12.3h2.8V215H459.4L459.4,215z"/>
	<path d="M479.3,206.6v8.3h-3.1v-1.7c-0.8,1.3-2.4,1.9-4.4,1.9c-3.3,0-5.3-1.8-5.3-4.3c0-2.5,1.6-4.2,5.9-4.2h3.7v-0.2
		c0-1.9-1.2-3.1-3.5-3.1c-1.6,0-3.3,0.5-4.3,1.4l-1.3-2.4c1.5-1.2,3.7-1.8,6-1.8C476.9,200.6,479.3,202.6,479.3,206.6L479.3,206.6z
		 M476,210.5v-1.6h-3.4c-2.3,0-2.9,0.8-2.9,1.9c0,1.2,1,2,2.7,2C474.1,212.8,475.4,212,476,210.5L476,210.5z"/>
	<path d="M491.7,200.6v3.2c-0.3-0.1-0.5-0.1-0.7-0.1c-2.5,0-4.1,1.5-4.1,4.4v6.9h-3.3v-14.2h3.2v2.1
		C487.7,201.4,489.4,200.6,491.7,200.6L491.7,200.6z"/>
	<path d="M77.8,231.8v18.6h-3.5v-8h-9.6v8h-3.5v-18.6h3.5v7.7h9.6v-7.7L77.8,231.8L77.8,231.8z"/>
	<path d="M81.3,243.3c0-4.3,3.2-7.2,7.5-7.2s7.6,3,7.6,7.2c0,4.2-3.2,7.3-7.6,7.3S81.3,247.6,81.3,243.3z M93.1,243.3
		c0-2.7-1.8-4.4-4.2-4.4s-4.2,1.7-4.2,4.4s1.8,4.4,4.2,4.4S93.1,246.1,93.1,243.3z"/>
	<path d="M107.8,236.1v3.2c-0.3-0.1-0.5-0.1-0.7-0.1c-2.5,0-4.1,1.5-4.1,4.4v6.9h-3.3v-14.2h3.2v2.1
		C103.8,236.8,105.5,236.1,107.8,236.1L107.8,236.1z"/>
	<path d="M122.5,242.1v8.3h-3.1v-1.7c-0.8,1.3-2.4,1.9-4.5,1.9c-3.3,0-5.3-1.8-5.3-4.3s1.6-4.2,5.9-4.2h3.7v-0.2
		c0-1.9-1.2-3.1-3.5-3.1c-1.6,0-3.3,0.5-4.3,1.4l-1.3-2.4c1.5-1.2,3.7-1.8,6-1.8C120.1,236.1,122.5,238,122.5,242.1L122.5,242.1z
		 M119.2,246v-1.6h-3.4c-2.3,0-2.9,0.8-2.9,1.9c0,1.2,1,2,2.7,2S118.6,247.5,119.2,246z"/>
	<path d="M125.7,238.3c0-1.3,1-2.2,2.1-2.2c1.2,0,2.1,0.9,2.1,2.2c0,1.3-1,2.2-2.1,2.2C126.6,240.5,125.7,239.6,125.7,238.3z
		 M125.7,248.4c0-1.3,1-2.2,2.1-2.2c1.2,0,2.1,0.9,2.1,2.2c0,1.3-1,2.2-2.1,2.2C126.6,250.7,125.7,249.7,125.7,248.4z"/>
	<path d="M154.7,245.1c0,3.5-3,5.6-7.6,5.6c-4.6,0-7.6-2.1-7.6-5.6c0-2.1,1-3.5,3-4.4c-1.5-0.8-2.3-2.1-2.3-3.9
		c0-3.2,2.8-5.2,6.9-5.2s6.9,2,6.9,5.2c0,1.8-0.8,3.1-2.4,3.9C153.6,241.5,154.7,243.1,154.7,245.1L154.7,245.1z M151.2,245
		c0-1.8-1.6-3-4.1-3c-2.5,0-4.1,1.1-4.1,3s1.6,3,4.1,3S151.2,246.9,151.2,245z M143.5,236.9c0,1.6,1.3,2.6,3.5,2.6
		c2.2,0,3.5-1,3.5-2.6c0-1.7-1.4-2.7-3.5-2.7S143.5,235.2,143.5,236.9z"/>
	<path d="M156.8,238.3c0-1.3,1-2.2,2.1-2.2c1.2,0,2.1,0.9,2.1,2.2c0,1.3-1,2.2-2.1,2.2C157.8,240.5,156.8,239.6,156.8,238.3z
		 M156.8,248.4c0-1.3,1-2.2,2.1-2.2c1.2,0,2.1,0.9,2.1,2.2c0,1.3-1,2.2-2.1,2.2C157.8,250.7,156.8,249.7,156.8,248.4z"/>
	<path d="M176.6,244.9c0,3.1-2.4,5.8-7.4,5.8c-2.7,0-5.2-0.8-7-2.1l1.5-2.7c1.3,1.1,3.3,1.8,5.5,1.8c2.5,0,3.9-1.1,3.9-2.8
		s-1.3-2.7-4.1-2.7h-1.7v-2.4l4.2-5h-8.4V232h12.7v2.3l-4.5,5.4C174.9,239.9,176.6,242.1,176.6,244.9L176.6,244.9z"/>
	<path d="M178.9,241.1c0-6.1,3.3-9.6,7.8-9.6c4.4,0,7.8,3.5,7.8,9.6c0,6.1-3.3,9.6-7.8,9.6C182.1,250.7,178.9,247.3,178.9,241.1z
		 M191,241.1c0-4.5-1.8-6.6-4.3-6.6c-2.5,0-4.3,2.1-4.3,6.6c0,4.5,1.8,6.6,4.3,6.6C189.2,247.7,191,245.6,191,241.1z"/>
	<path d="M222,231.8v18.6h-3.5v-8h-9.6v8h-3.5v-18.6h3.5v7.7h9.6v-7.7L222,231.8L222,231.8z"/>
	<path d="M234.9,236.1v3.2c-0.3-0.1-0.5-0.1-0.7-0.1c-2.5,0-4.1,1.5-4.1,4.4v6.9h-3.3v-14.2h3.2v2.1
		C230.8,236.8,232.6,236.1,234.9,236.1L234.9,236.1z"/>
	<path d="M236.2,249l1.3-2.5c1.3,0.8,3.2,1.4,5,1.4c2.1,0,3-0.6,3-1.6c0-2.7-8.8-0.1-8.8-5.8c0-2.7,2.4-4.4,6.3-4.4
		c1.9,0,4.1,0.4,5.3,1.3l-1.3,2.5c-1.3-0.8-2.7-1-4.1-1c-2,0-3,0.7-3,1.6c0,2.9,8.8,0.3,8.8,5.9c0,2.7-2.4,4.4-6.4,4.4
		C239.8,250.7,237.5,249.9,236.2,249L236.2,249z"/>
	<path d="M75.3,283v2.9h-14v-18.6h13.6v2.9H64.7v4.8h9v2.9h-9v5.2L75.3,283L75.3,283z"/>
	<path d="M92.8,277.8v8.1h-3.3v-7.7c0-2.5-1.3-3.8-3.4-3.8c-2.4,0-4,1.4-4,4.3v7.2h-3.3v-14.2h3.2v1.8c1.1-1.3,2.8-2,4.9-2
		C90.3,271.6,92.8,273.5,92.8,277.8L92.8,277.8z"/>
	<path d="M105.6,285.2c-0.8,0.7-2,1-3.2,1c-3.1,0-4.9-1.6-4.9-4.8v-6.8h-2.4v-2.7h2.4v-3.3h3.3v3.3h3.8v2.7h-3.8v6.7
		c0,1.4,0.7,2.1,2,2.1c0.7,0,1.3-0.1,1.8-0.6L105.6,285.2z"/>
	<path d="M116.5,271.6v3.2c-0.3-0.1-0.5-0.1-0.7-0.1c-2.5,0-4.1,1.5-4.1,4.4v6.9h-3.3v-14.2h3.2v2.1
		C112.4,272.3,114.1,271.6,116.5,271.6L116.5,271.6z"/>
	<path d="M132.5,279.9h-11.2c0.4,2.1,2.1,3.4,4.6,3.4c1.6,0,2.9-0.5,3.8-1.6l1.8,2.1c-1.3,1.5-3.3,2.3-5.7,2.3c-4.7,0-7.8-3-7.8-7.3
		c0-4.3,3.1-7.2,7.3-7.2c4.2,0,7.2,2.9,7.2,7.3C132.5,279.1,132.5,279.6,132.5,279.9L132.5,279.9z M121.3,277.6h8.1
		c-0.3-2.1-1.8-3.5-4-3.5S121.7,275.6,121.3,277.6L121.3,277.6z"/>
	<path d="M149.8,271.7v12c0,5.2-2.7,7.5-7.7,7.5c-2.7,0-5.3-0.7-6.9-2l1.5-2.5c1.3,1,3.3,1.7,5.2,1.7c3.1,0,4.5-1.4,4.5-4.3v-0.7
		c-1.2,1.3-2.9,1.9-4.7,1.9c-4.1,0-7.2-2.7-7.2-6.9c0-4.1,3.1-6.8,7.2-6.8c2,0,3.8,0.7,5,2.1v-1.9L149.8,271.7L149.8,271.7z
		 M146.6,278.4c0-2.4-1.8-4-4.3-4s-4.4,1.6-4.4,4c0,2.4,1.8,4.1,4.4,4.1S146.6,280.8,146.6,278.4z"/>
	<path d="M166.1,277.6v8.3H163v-1.7c-0.8,1.3-2.4,1.9-4.5,1.9c-3.3,0-5.3-1.8-5.3-4.3c0-2.5,1.6-4.2,5.9-4.2h3.7v-0.2
		c0-1.9-1.2-3.1-3.5-3.1c-1.6,0-3.3,0.5-4.3,1.4l-1.3-2.4c1.6-1.2,3.7-1.8,6-1.8C163.7,271.6,166.1,273.5,166.1,277.6L166.1,277.6z
		 M162.7,281.5v-1.6h-3.4c-2.3,0-2.9,0.8-2.9,1.9c0,1.2,1,2,2.7,2S162.2,283,162.7,281.5z"/>
	<path d="M191.6,266.2v19.7h-3.2v-1.8c-1.1,1.3-2.7,2-4.7,2c-4.1,0-7.2-2.9-7.2-7.3c0-4.4,3-7.2,7.2-7.2c1.8,0,3.5,0.6,4.6,1.9v-7.3
		L191.6,266.2L191.6,266.2z M188.3,278.8c0-2.7-1.8-4.4-4.2-4.4c-2.4,0-4.2,1.7-4.2,4.4s1.8,4.4,4.2,4.4
		C186.5,283.2,188.3,281.5,188.3,278.8z"/>
	<path d="M209.2,279.9h-11.2c0.4,2.1,2.1,3.4,4.6,3.4c1.6,0,2.9-0.5,3.8-1.6l1.8,2.1c-1.3,1.5-3.3,2.3-5.7,2.3c-4.7,0-7.8-3-7.8-7.3
		c0-4.3,3.1-7.2,7.3-7.2s7.2,2.9,7.2,7.3C209.3,279.1,209.2,279.6,209.2,279.9L209.2,279.9z M198.1,277.6h8.1
		c-0.3-2.1-1.8-3.5-4-3.5C200,274.2,198.4,275.6,198.1,277.6z"/>
	<path d="M225.6,279.9l-2.5,2.4v3.8h-3.3v-19.7h3.3v11.9l6.9-6.4h4l-5.9,6l6.5,8.3h-4.1L225.6,279.9L225.6,279.9z"/>
	<path d="M236.2,267.4c0-1.1,0.9-2,2.1-2c1.3,0,2.1,0.8,2.1,1.9c0,1.2-0.9,2.1-2.1,2.1C237.1,269.4,236.2,268.5,236.2,267.4
		L236.2,267.4z M236.6,271.7h3.3v14.2h-3.3V271.7z"/>
	<path d="M252.8,285.2c-0.8,0.7-2,1-3.2,1c-3.1,0-4.9-1.6-4.9-4.8v-6.8h-2.4v-2.7h2.4v-3.3h3.3v3.3h3.8v2.7h-3.8v6.7
		c0,1.4,0.7,2.1,2,2.1c0.7,0,1.3-0.1,1.8-0.6L252.8,285.2z"/>
	<path d="M253.9,284.5l1.3-2.5c1.3,0.8,3.2,1.4,5,1.4c2.1,0,3-0.6,3-1.6c0-2.7-8.8-0.1-8.8-5.8c0-2.7,2.4-4.4,6.3-4.4
		c1.9,0,4.1,0.4,5.3,1.3l-1.3,2.5c-1.3-0.8-2.7-1-4.1-1c-2,0-3,0.7-3,1.6c0,2.9,8.8,0.3,8.8,5.9c0,2.7-2.4,4.4-6.4,4.4
		C257.6,286.1,255.3,285.4,253.9,284.5L253.9,284.5z"/>
	<path d="M268.2,273.8c0-1.3,1-2.2,2.2-2.2c1.3,0,2.2,0.9,2.2,2.2s-1,2.2-2.2,2.2C269.2,276,268.2,275,268.2,273.8z M268.2,283.9
		c0-1.3,1-2.2,2.2-2.2c1.3,0,2.2,0.9,2.2,2.2c0,1.3-1,2.2-2.2,2.2C269.2,286.1,268.2,285.2,268.2,283.9z"/>
	<path d="M300.6,285.9v-12.3l-6.1,10.2h-1.6l-6.1-10v12.2h-3.3v-18.6h2.9l7.4,12.3l7.2-12.3h2.9v18.6H300.6L300.6,285.9z"/>
	<path d="M320.4,277.6v8.3h-3.1v-1.7c-0.8,1.3-2.4,1.9-4.4,1.9c-3.3,0-5.3-1.8-5.3-4.3c0-2.5,1.6-4.2,5.9-4.2h3.7v-0.2
		c0-1.9-1.2-3.1-3.5-3.1c-1.6,0-3.3,0.5-4.3,1.4l-1.3-2.4c1.5-1.2,3.7-1.8,6-1.8C318.1,271.6,320.4,273.5,320.4,277.6L320.4,277.6z
		 M317.1,281.5v-1.6h-3.4c-2.3,0-2.9,0.8-2.9,1.9c0,1.2,1,2,2.7,2C315.3,283.8,316.5,283,317.1,281.5L317.1,281.5z"/>
	<path d="M324.6,266.2h3.3v19.7h-3.3V266.2z"/>
	<path d="M332.3,266.2h3.3v19.7h-3.3V266.2z"/>
	<path d="M364.8,285.9v-12.3l-6.1,10.2h-1.6l-6.1-10v12.2h-3.3v-18.6h2.9l7.4,12.3l7.2-12.3h2.9v18.6H364.8L364.8,285.9z"/>
	<path d="M384.6,277.6v8.3h-3.1v-1.7c-0.8,1.3-2.4,1.9-4.4,1.9c-3.3,0-5.3-1.8-5.3-4.3c0-2.5,1.6-4.2,5.9-4.2h3.7v-0.2
		c0-1.9-1.2-3.1-3.5-3.1c-1.6,0-3.3,0.5-4.3,1.4l-1.3-2.4c1.5-1.2,3.7-1.8,6-1.8C382.3,271.6,384.6,273.5,384.6,277.6L384.6,277.6z
		 M381.3,281.5v-1.6h-3.4c-2.3,0-2.9,0.8-2.9,1.9c0,1.2,1,2,2.7,2C379.5,283.8,380.8,283,381.3,281.5L381.3,281.5z"/>
	<path d="M397.1,271.6v3.2c-0.3-0.1-0.5-0.1-0.7-0.1c-2.5,0-4.1,1.5-4.1,4.4v6.9h-3.3v-14.2h3.2v2.1
		C393.1,272.3,394.8,271.6,397.1,271.6L397.1,271.6z"/>
	<path d="M399.5,267.4c0-1.1,0.9-2,2.1-2c1.3,0,2.1,0.8,2.1,1.9c0,1.2-0.9,2.1-2.1,2.1C400.4,269.4,399.5,268.5,399.5,267.4
		L399.5,267.4z M399.9,271.7h3.3v14.2h-3.3V271.7z"/>
	<path d="M421.7,277.8v8.1h-3.3v-7.7c0-2.5-1.3-3.8-3.4-3.8c-2.4,0-4,1.4-4,4.3v7.2h-3.3v-14.2h3.2v1.8c1.1-1.3,2.8-2,4.9-2
		C419.2,271.6,421.7,273.5,421.7,277.8L421.7,277.8z"/>
	<path d="M437.8,277.6v8.3h-3.1v-1.7c-0.8,1.3-2.4,1.9-4.4,1.9c-3.3,0-5.3-1.8-5.3-4.3c0-2.5,1.6-4.2,5.9-4.2h3.7v-0.2
		c0-1.9-1.2-3.1-3.5-3.1c-1.6,0-3.3,0.5-4.3,1.4l-1.3-2.4c1.5-1.2,3.7-1.8,6-1.8C435.4,271.6,437.8,273.5,437.8,277.6L437.8,277.6z
		 M434.5,281.5v-1.6h-3.4c-2.3,0-2.9,0.8-2.9,1.9c0,1.2,1,2,2.7,2C432.6,283.8,433.9,283,434.5,281.5L434.5,281.5z"/>
	<path d="M461.8,281.6h-9.3l-1.8,4.3h-3.5l8.3-18.6h3.4l8.4,18.6h-3.6L461.8,281.6L461.8,281.6z M460.6,278.9l-3.5-8.1l-3.5,8.1
		H460.6z"/>
	<path d="M477.5,271.6v3.2c-0.3-0.1-0.5-0.1-0.7-0.1c-2.5,0-4.1,1.5-4.1,4.4v6.9h-3.3v-14.2h3.2v2.1
		C473.4,272.3,475.2,271.6,477.5,271.6L477.5,271.6z"/>
	<path d="M492.2,277.6v8.3h-3.1v-1.7c-0.8,1.3-2.4,1.9-4.4,1.9c-3.3,0-5.3-1.8-5.3-4.3c0-2.5,1.6-4.2,5.9-4.2h3.7v-0.2
		c0-1.9-1.2-3.1-3.5-3.1c-1.6,0-3.3,0.5-4.3,1.4l-1.3-2.4c1.5-1.2,3.7-1.8,6-1.8C489.8,271.6,492.2,273.5,492.2,277.6L492.2,277.6z
		 M488.8,281.5v-1.6h-3.4c-2.3,0-2.9,0.8-2.9,1.9c0,1.2,1,2,2.7,2C487,283.8,488.2,283,488.8,281.5L488.8,281.5z"/>
	<path d="M510.2,271.7v14.2H507v-1.8c-1,1.3-2.7,2-4.6,2c-3.6,0-6.1-2-6.1-6.3v-8.1h3.3v7.7c0,2.6,1.3,3.8,3.3,3.8
		c2.3,0,3.8-1.4,3.8-4.3v-7.2L510.2,271.7L510.2,271.7z"/>
	<path d="M513.4,278.8c0-4.3,3.2-7.2,7.7-7.2c2.7,0,5,1.1,6.1,3.3l-2.6,1.5c-0.9-1.3-2.1-2-3.5-2c-2.4,0-4.3,1.7-4.3,4.4
		s1.8,4.4,4.3,4.4c1.4,0,2.7-0.6,3.5-2l2.6,1.5c-1.1,2.1-3.3,3.3-6.1,3.3C516.5,286.1,513.4,283.1,513.4,278.8L513.4,278.8z"/>
	<path d="M528.6,278.8c0-4.3,3.2-7.2,7.5-7.2s7.6,3,7.6,7.2s-3.2,7.3-7.6,7.3C531.7,286.1,528.6,283,528.6,278.8z M540.4,278.8
		c0-2.7-1.8-4.4-4.2-4.4c-2.4,0-4.2,1.7-4.2,4.4s1.8,4.4,4.2,4.4C538.6,283.2,540.4,281.5,540.4,278.8z"/>
</g>
<g>
	<g>
		<path d="M196.6,377.6c0.1-0.6,0.3-1.3,0.4-1.9c0.6-3.3,1.1-6.5,1.7-9.8c0.2-1,0.4-2,0.6-3.1c0.3-1.9,0-3.5-1.8-4.4
			c0.9,0,1.6,0,2.6,0c1.1,0,2.2,0,3.3,0c0.7,0,1.3,0,2.1,0c0.5,0,1.1,0,1.8,0c1,0,2.2,0,3.2,0c0.1,0,0.2,0,0.3,0c2.3,0,4.5,0,6.7,0
			c3.3,0,6.8,0,10.2,0c0.5,0,1.1,0,1.8,0c-0.1,0.6-0.2,1.2-0.3,1.8c-0.4,1.9-2.1,3.4-4,3.4c-0.7,0-1.3,0-1.9,0c-1.1,0-2,0-3,0
			c-1.2,0-2.6,0-3.8,0c-1,0-2.2,0-3.2,0c-1,0-2.2,0-3.2,0c-0.5,0-0.8,0.3-1,0.7c-0.1,0.1-0.1,0.1-0.1,0.2c-0.2,1-0.4,2-0.6,3
			c-0.5,2.5-0.9,5-1.3,7.5c0,0.1,0,0.1,0.1,0.2c0,0.4,0.3,0.7,0.8,0.7c1.1,0,2.1,0,3.2,0c2.3,0,4.7,0,7.1,0c2.1,0,4.2,0,6.3,0
			c0.6,0,1.2,0,1.9,0c-0.2,0.6-0.3,1.2-0.4,1.8c-0.3,1.9-2,3.4-3.9,3.4c-0.7,0-1.3,0-1.9,0c-5.7,0-11.4,0-17,0c-1.3,0-2.6,0-3.9,0
			C197.6,381,196.3,379.5,196.6,377.6z"/>
		<path d="M267.1,361.8c-0.9,5.3-1.9,10.5-2.9,15.8c-0.3,1.9-2.1,3.4-4,3.4c-8.6,0-17.1,0-25.6,0c-1.9,0-3.2-1.5-2.9-3.4
			c1-5.3,1.9-10.5,2.9-15.8c0.3-1.9,2.1-3.4,4-3.4c8.5,0,17,0,25.6,0C266.1,358.4,267.4,359.9,267.1,361.8z M243.1,375.9
			c3.4,0,6.9,0,10.5,0c0.4,0,0.9-0.4,1-0.9c0.6-3.5,1.2-7,1.9-10.5c0.1-0.5-0.3-0.9-0.8-0.9c-3.5,0-7,0-10.4,0c-0.6,0-1,0.4-1,0.9
			c-0.7,3.5-1.2,7-1.9,10.5C242.3,375.5,242.5,375.9,243.1,375.9z"/>
		<path d="M312.1,358.4c0,0,0.1,0,0.2,0c-1.1,6.4-2.3,12.8-3.4,19.2c-0.3,1.9-2,3.4-3.9,3.4c-2.2,0-4.5,0-6.7,0
			c0.4-2.4,0.8-4.7,1.2-7.1c-2,2.4-3.9,4.7-5.8,7.1c-0.1,0-0.2,0-0.2,0c-3.1,0-6.3,0-9.4,0c-0.1,0-0.2,0-0.2,0
			c-1.2-2.4-2.3-4.7-3.3-7.1c-0.2,1.2-0.4,2.5-0.7,3.7c-0.3,1.9-2.1,3.4-3.9,3.4c-2.2,0-4.5,0-6.7,0c1-6.3,2.2-12.6,3.3-18.8
			c0.3-1.7-0.4-3-1.8-3.8c0.8,0,1.6,0,2.5,0c0,0,0.1,0,0.2,0c3.1,0,6.2,0,9.4,0c0,0,0.1,0,0.2,0c2.3,5.1,4.7,10.1,7.1,15.2
			c3.6-4.5,7.3-8.9,11-13.4c1-1.1,2.3-1.8,3.5-1.8C307.2,358.4,309.7,358.4,312.1,358.4z"/>
		<path d="M314.2,381c1-6.1,2.1-12.2,3.2-18.3c0.3-1.8-0.3-3.4-1.9-4.3c0.9,0,1.7,0,2.7,0c3.1,0,6.1,0,9.3,0c0.3,0,0.6,0,0.9,0
			c5.9,0,11.9,0,17.9,0c1.9,0,3.1,1.5,2.8,3.4c-0.5,3-1.1,5.9-1.6,8.9c-0.3,1.9-2.1,3.4-4,3.4c-6,0-11.9,0-17.9,0
			c-0.2,1.2-0.4,2.3-0.6,3.5c-0.4,1.9-2.2,3.4-4,3.4C318.6,381,316.4,381,314.2,381z M336.7,369c0.5,0,1.1-0.4,1.1-0.9
			c0.2-1.2,0.4-2.4,0.7-3.6c0.1-0.5-0.4-0.9-0.9-0.9c-3.4,0-6.9,0-10.3,0c-0.3,1.8-0.7,3.6-1,5.4C329.9,369,333.3,369,336.7,369z"/>
		<path d="M366.2,374.1c-1.2,0-2.4,0-3.5,0c-0.2,1.2-0.4,2.3-0.6,3.5c-0.4,1.9-2.2,3.4-4.1,3.4c-2.2,0-4.4,0-6.7,0
			c1-6.1,2.2-12.2,3.2-18.3c0.3-1.8-0.2-3.4-1.8-4.3c0.9,0,1.7,0,2.6,0c3.1,0,6.2,0,9.4,0c0.3,0,0.6,0,0.9,0c5.9,0,11.8,0,17.9,0
			c1.8,0,3.1,1.5,2.8,3.4c-0.5,3-1.1,5.9-1.6,8.9c-0.4,1.9-2.1,3.4-4,3.4c-0.8,0-1.5,0-2.2,0c1.7,2.3,3.5,4.6,5.4,6.9
			c-2.7,0-5.2,0-7.6,0c-0.6,0-1.1,0-1.6,0c-0.9,0-1.4-0.3-2.2-1.1c-1.3-1.5-2.5-3.1-3.6-4.6C368.2,374.5,367.3,374.1,366.2,374.1z
			 M375,368.1c0.2-1.2,0.4-2.4,0.7-3.6c0.1-0.5-0.4-0.9-0.9-0.9c-3.4,0-6.9,0-10.3,0c-0.3,1.8-0.7,3.6-1,5.4c3.4,0,6.9,0,10.3,0
			C374.4,369,374.9,368.6,375,368.1z"/>
		<path d="M426.6,382c-3.8,0-7.6,0-11.5,0c-0.4-0.7-0.6-1.4-0.9-2.1c-4.3,0-8.6,0-12.8,0c-0.6,0.7-1.2,1.4-1.8,2.1
			c-3.8,0-7.5,0-11.3,0c5.7-7.2,11.6-14.4,17.6-21.5c0.9-1,0.1-1.5-1-2.1c0.9,0,1.7,0,2.6,0c2,0,3.9,0,6,0c1.3,0,2.4,0.6,3,1.8
			C419.9,367.5,423.2,374.7,426.6,382z M411.9,374.7c-0.8-1.6-1.5-3.2-2.3-4.8c-1.2,1.6-2.6,3.2-3.9,4.8
			C407.8,374.7,409.8,374.7,411.9,374.7z"/>
		<path d="M486.7,382c-3.8,0-7.6,0-11.5,0c-0.4-0.7-0.6-1.4-0.9-2.1c-4.3,0-8.6,0-12.8,0c-0.6,0.7-1.2,1.4-1.8,2.1
			c-3.8,0-7.5,0-11.3,0c5.7-7.2,11.6-14.4,17.6-21.5c0.9-1,0.1-1.5-1-2.1c0.9,0,1.7,0,2.6,0c2,0,3.9,0,6,0c1.3,0,2.4,0.6,3,1.8
			C480,367.5,483.3,374.7,486.7,382z M472,374.7c-0.8-1.6-1.5-3.2-2.3-4.8c-1.2,1.6-2.6,3.2-3.9,4.8
			C467.8,374.7,469.9,374.7,472,374.7z"/>
		<path d="M505.2,381c-4.5,0-9,0-13.5,0c-1.8,0-3.2-1.5-2.9-3.4c0.9-5.3,1.9-10.5,2.9-15.8c0.3-1.9,2.2-3.4,4-3.4
			c8.5,0,17.1,0,25.7,0c1.9,0,3.2,1.5,2.9,3.4c-0.9,5.3-1.9,10.5-2.9,15.8c-0.4,1.9-2.1,3.4-4,3.4c-0.6,0-1.1,0-1.7,0
			c0.7,0.9,1.4,1.9,2.2,2.8c-3.5,0-7.1,0-10.5,0C506.5,382.9,505.9,382,505.2,381z M500.3,375.9c3.4,0,6.9,0,10.4,0
			c0.5,0,0.9-0.4,1-0.9c0.7-3.5,1.2-7,1.9-10.5c0.1-0.5-0.2-0.9-0.7-0.9c-3.5,0-7,0-10.5,0c-0.5,0-0.9,0.4-1,0.9
			c-0.7,3.5-1.3,7-1.9,10.5C499.5,375.5,499.7,375.9,500.3,375.9z"/>
		<path d="M538.2,370.3c-0.3,1.6-0.6,3.1-0.9,4.7c-0.1,0.5,0.4,0.9,0.8,0.9c0.9,0,1.8,0,2.8,0c1.6,0,3.3,0,5,0c0.9,0,1.8,0,2.8,0
			c0.5,0,0.9-0.4,1-0.9c0.3-1.6,0.6-3.1,0.9-4.7c0.2-1.1,0.4-2.2,0.6-3.3c0.3-1.8,0.6-3.5,1-5.3c0.3-1.9,2.2-3.4,4-3.4
			c2.3,0,4.5,0,6.7,0c-0.6,2.9-1,5.8-1.5,8.7c-0.2,1.1-0.4,2.2-0.6,3.3c-0.5,2.4-0.9,4.8-1.3,7.3c-0.3,1.9-2,3.4-4,3.4
			c-3.4,0-6.9,0-10.2,0c-1.6,0-3.3,0-5,0c-3.5,0-7,0-10.4,0c-1.8,0-3.1-1.5-2.8-3.4c0.4-2.4,0.9-4.9,1.3-7.3
			c0.2-1.1,0.4-2.2,0.6-3.3c0.2-1.5,0.5-2.9,0.8-4.4c0.3-1.8-0.4-3.4-1.8-4.3c0.9,0,1.6,0,2.6,0c3.3,0,6.7,0,10,0
			c-0.6,2.9-1.1,5.8-1.5,8.7C538.6,368.2,538.4,369.2,538.2,370.3z"/>
		<path d="M571.2,381c-2.3,0-4.5,0-6.7,0c1-6.1,2.1-12.2,3.2-18.3c0.3-1.8-0.3-3.4-1.9-4.3c0.9,0,1.7,0,2.7,0c3.3,0,6.7,0,10.1,0
			c-0.1,0.4-0.2,0.8-0.2,1.2c-0.5,2.5-1,5-1.3,7.6c-0.4,1.7-0.7,3.5-1,5.2c-0.3,1.8-0.6,3.5-1,5.3C574.9,379.5,573,381,571.2,381z"
			/>
	</g>
	<path d="M569.5,352.5l6.7-6.7l1.6,1.6c1.4,1.4,0.9,3.7-0.9,4.5l-6.1,2.6C569.6,354.9,568.5,353.4,569.5,352.5z"/>
	<g>
		<path d="M607.4,354.9c5,5,10,10,15.1,15.1c1.4,1.4,1.2,3.6-0.4,4.8c-2.3,1.7-4.7,3.3-7.1,4.9c-2.1,1.5-4.2,2.9-6.3,4.4
			c-1.6,1.2-2.5,2.6-1.9,4.6c-0.7-0.7-1.3-1.3-2-2c-0.9-0.9-1.7-1.7-2.6-2.6c-1.7-1.7-3.4-3.4-5.1-5.1c1.8-1.2,3.6-2.5,5.4-3.8
			c1.6-1.1,3.2-2.2,4.7-3.3c0.7-0.4,1.3-0.9,1.9-1.3c0.9-0.7,1.9-1.3,2.8-1.9c0.4-0.3,0.5-0.8,0.2-1.2c-2.6-2.6-5.2-5.2-7.9-7.9
			c-1.4-1.4-2.7-2.7-4.1-4.1c0.6-0.3,1.1-0.7,1.6-1C603.4,353.2,606,353.4,607.4,354.9z"/>
	</g>
</g>
</svg>
