<?xml version="1.0" encoding="utf-8"?>
<!-- Generator: Adobe Illustrator 15.0.0, SVG Export Plug-In . SVG Version: 6.00 Build 0)  -->
<!DOCTYPE svg PUBLIC "-//W3C//DTD SVG 1.1//EN" "http://www.w3.org/Graphics/SVG/1.1/DTD/svg11.dtd">
<svg version="1.1" id="Capa_1" xmlns="http://www.w3.org/2000/svg" xmlns:xlink="http://www.w3.org/1999/xlink" x="0px" y="0px"
	 width="201px" height="44px" viewBox="0 0 201 44" enable-background="new 0 0 201 44" xml:space="preserve">
<g>
	<defs>
		<rect id="SVGID_1_" width="201" height="44"/>
	</defs>
	<clipPath id="SVGID_2_">
		<use xlink:href="#SVGID_1_"  overflow="visible"/>
	</clipPath>
	<g clip-path="url(#SVGID_2_)">
		<g>
			<path fill="#565659" d="M160.485,40.073v1.187h-3.91v-6.416h1.472v5.229H160.485z"/>
			<path fill="#565659" d="M163.331,41.26v-0.484c-0.285,0.332-0.712,0.589-1.338,0.589c-0.741,0-1.263-0.493-1.263-1.281
				c0-0.978,0.835-1.405,2.154-1.48l0.352-0.02v-0.199c0-0.284-0.124-0.503-0.599-0.503c-0.37,0-0.55,0.161-0.55,0.352v0.133h-1.158
				c-0.01-0.086-0.019-0.209-0.019-0.285c0-0.75,0.721-1.243,1.822-1.243c1.072,0,1.851,0.437,1.851,1.547v2.876H163.331z
				 M162.534,40.358c0.246,0,0.512-0.114,0.702-0.285v-0.702l-0.352,0.048c-0.531,0.075-0.788,0.266-0.788,0.569
				C162.097,40.244,162.277,40.358,162.534,40.358z"/>
			<path fill="#565659" d="M170.372,36.515c-0.228-0.313-0.588-0.532-1.139-0.532c-0.475,0-0.75,0.275-0.75,0.665
				c0,0.294,0.133,0.521,0.541,0.654l0.788,0.247c1.243,0.389,1.585,1.044,1.585,1.804c0,1.318-1.044,2.012-2.363,2.012
				c-1.405,0-2.079-0.655-2.354-1.158l0.979-0.835c0.246,0.427,0.578,0.759,1.376,0.759c0.531,0,0.845-0.256,0.845-0.654
				c0-0.313-0.162-0.522-0.599-0.664l-0.778-0.247c-1.205-0.38-1.537-1.054-1.537-1.822c0-1.016,0.607-1.993,2.269-1.993
				c1.148,0,1.756,0.455,2.116,0.959L170.372,36.515z"/>
			<path fill="#565659" d="M175.078,39.864l0.616,0.864c-0.36,0.342-0.921,0.636-1.623,0.636c-1.537,0-2.211-0.949-2.211-2.269
				c0-1.205,0.712-2.259,2.06-2.259c1.386,0,1.879,0.968,1.879,1.908c0,0.256-0.028,0.607-0.076,0.787h-2.505
				c0.028,0.446,0.332,0.702,0.854,0.702C174.413,40.234,174.755,40.102,175.078,39.864z M174.556,38.593
				c0.01-0.057,0.01-0.095,0.01-0.114c0-0.437-0.342-0.578-0.646-0.578c-0.456,0-0.674,0.313-0.702,0.692H174.556z"/>
			<path fill="#565659" d="M177.715,37.605c0.209-0.379,0.531-0.769,1.13-0.769c0.171,0,0.332,0.019,0.475,0.057l-0.086,1.424
				c-0.209-0.057-0.521-0.095-0.75-0.095c-0.304,0-0.588,0.143-0.721,0.37v2.667h-1.348v-4.328h1.291v0.674H177.715z"/>
			<path fill="#565659" d="M182.83,39.864l0.616,0.864c-0.36,0.342-0.921,0.636-1.623,0.636c-1.537,0-2.211-0.949-2.211-2.269
				c0-1.205,0.712-2.259,2.06-2.259c1.386,0,1.879,0.968,1.879,1.908c0,0.256-0.028,0.607-0.076,0.787h-2.505
				c0.028,0.446,0.332,0.702,0.854,0.702C182.165,40.234,182.507,40.102,182.83,39.864z M182.308,38.593
				c0.01-0.057,0.01-0.095,0.01-0.114c0-0.437-0.342-0.578-0.646-0.578c-0.456,0-0.674,0.313-0.702,0.692H182.308z"/>
			<path fill="#565659" d="M184.166,36.932h1.3v0.484c0.209-0.313,0.579-0.579,1.291-0.579c0.93,0,1.462,0.607,1.462,1.746v2.677
				h-1.348v-2.515c0-0.446-0.19-0.675-0.684-0.675c-0.237,0-0.541,0.134-0.674,0.229v2.961h-1.348V36.932z"/>
			<path fill="#565659" d="M191.368,41.26v-0.484c-0.285,0.332-0.712,0.589-1.338,0.589c-0.741,0-1.263-0.493-1.263-1.281
				c0-0.978,0.835-1.405,2.154-1.48l0.352-0.02v-0.199c0-0.284-0.124-0.503-0.599-0.503c-0.37,0-0.55,0.161-0.55,0.352v0.133h-1.158
				c-0.01-0.086-0.019-0.209-0.019-0.285c0-0.75,0.721-1.243,1.822-1.243c1.072,0,1.851,0.437,1.851,1.547v2.876H191.368z
				 M190.571,40.358c0.246,0,0.512-0.114,0.702-0.285v-0.702l-0.352,0.048c-0.531,0.075-0.788,0.266-0.788,0.569
				C190.134,40.244,190.314,40.358,190.571,40.358z"/>
		</g>
		<path fill="#E40D4C" d="M39.315,37.775L39.315,37.775c-1.504,0.785-2.787,0.867-3.33,0.09c-0.095-0.131-0.148-0.273-0.182-0.424
			v-0.02c-0.006-0.027-0.013-0.045-0.016-0.08c-0.007-0.045-0.013-0.092-0.013-0.139v-0.027c-0.007-0.406,0.148-0.873,0.395-1.328
			c2.127-3.867,8.656-11.6,8.656-18.528c0-6.478-1.733-10.372-3.207-12.872c-0.302-0.502-0.708-1.13-0.966-1.739
			c0,0-0.009-0.021-0.009-0.026c-0.073-0.179-0.11-0.374-0.11-0.581c0-0.838,0.677-1.516,1.523-1.516
			c0.144,0,0.29,0.027,0.436,0.062c0.007,0.009,0.018,0.015,0.018,0.015c0.769,0.247,1.663,0.752,2.572,1.432
			c4.045,3.028,9.103,9.84,9.103,15.226C54.187,26.602,43.623,35.813,39.315,37.775 M22.982,39.469
			c0.013,0.273-0.113,0.531-0.32,0.693c-0.057,0.043-0.801,0.576-1.994,0.955c-1.011,0.334-2.348,0.631-4.225,0.768
			c-7.224,0.502-12.231-5.496-12.515-9.516c-0.006-0.051-0.016-0.189-0.016-0.211c-0.016-0.24-0.004-0.473,0.021-0.695
			c0.224-1.404,1.388-2.527,2.872-2.633c1.206-0.086,2.288,0.525,2.882,1.492l0.01,0.006C9.746,30.4,9.79,30.49,9.84,30.576
			c0.144,0.262,0.286,0.539,0.425,0.816c0.396,0.793,0.777,1.639,1.299,2.412c2.575,3.895,6.013,4.822,9.086,4.986
			c0.534,0.029,0.919-0.023,1.307-0.053c0.05,0,0.197-0.006,0.221-0.006C22.596,38.732,22.947,39.053,22.982,39.469 M32.303,21.752
			c-2.649,5.101-8.092,7.443-10.671,5.505c-2.491-1.883-4.29-6.359-2.637-9.595c2.102-4.128,8.07-5.286,11.467-3.642
			C33.239,15.363,33.985,18.505,32.303,21.752 M35.15,7.42c-6.794-3.278-18.742-0.974-22.936,7.285
			c-3.292,6.466,0.292,15.418,5.284,19.195c5.14,3.891,16.032-0.82,21.33-11.019C42.191,16.388,40.7,10.111,35.15,7.42"/>
		<path fill="#565659" d="M136.087,17.85c-0.619-0.714-1.34-1.25-2.169-1.602c-0.824-0.352-1.708-0.525-2.658-0.525
			c-0.618,0-1.179,0.087-1.684,0.244c-0.508,0.166-0.964,0.382-1.369,0.646c-0.407,0.261-0.754,0.563-1.038,0.907
			c-0.294,0.341-0.534,0.686-0.729,1.039c-0.026-0.152-0.055-0.354-0.082-0.578c-0.012-0.069-0.025-0.135-0.04-0.203
			c-0.685-2.066-4.241-0.948-4.241-0.948v12.51c-0.308,0.066-0.992,0.217-1.177,0.236c-0.212,0.027-0.411,0.033-0.579,0.033
			c-0.399,0-0.729-0.043-0.995-0.135c-0.26-0.086-0.476-0.24-0.642-0.473c-0.167-0.232-0.288-0.559-0.367-0.977
			c-0.082-0.416-0.114-0.969-0.114-1.648V11.251v-0.154c-0.039-1.244-1.061-2.236-2.313-2.236h-0.006
			c-0.772,0-1.548,0.061-2.342,0.192l-0.001,18.346c0,0.717,0.065,1.367,0.188,1.949c-0.328,0.066-0.966,0.215-1.136,0.229
			c-0.212,0.027-0.404,0.033-0.578,0.033c-0.408,0-0.73-0.045-0.995-0.135c-0.265-0.086-0.478-0.24-0.641-0.475
			c-0.17-0.23-0.29-0.557-0.365-0.975c-0.077-0.416-0.117-0.969-0.117-1.648V11.251v-0.154c-0.043-1.244-1.063-2.237-2.314-2.237
			h-0.012c-0.771,0-1.542,0.062-2.333,0.192v18.346c0,2.107,0.514,3.641,1.536,4.572c1.024,0.938,2.383,1.402,4.084,1.402
			c0.418,0,0.872-0.023,1.368-0.07c0.466-0.041,3.155-0.508,3.803-0.658c0.873,0.482,1.915,0.729,3.132,0.729
			c0.418,0,0.878-0.023,1.37-0.07c0.203-0.014,0.841-0.117,1.545-0.236v7.926c0.422,0.068,0.821,0.111,1.202,0.135
			c0.389,0.02,0.765,0.029,1.14,0.029h0.037h0.019c1.187-0.01,2.16-0.9,2.298-2.049v-0.539V33.4
			c0.235,0.045,0.541,0.088,0.907,0.121c0.363,0.033,0.729,0.045,1.104,0.045c1.453,0,2.752-0.211,3.902-0.641
			c1.143-0.426,2.104-1.039,2.902-1.83c0.791-0.787,1.397-1.752,1.818-2.891c0.419-1.129,0.628-2.406,0.628-3.838
			c0-1.479-0.169-2.75-0.511-3.83C137.176,19.462,136.701,18.564,136.087,17.85 M131.956,28.49
			c-0.729,0.877-1.778,1.318-3.139,1.318c-0.771,0-1.451-0.084-2.045-0.264v-5.811c0-0.544,0.048-1.062,0.164-1.55
			c0.104-0.484,0.279-0.901,0.528-1.27c0.238-0.357,0.552-0.648,0.939-0.855c0.387-0.211,0.854-0.312,1.403-0.312
			c0.598,0,1.091,0.12,1.505,0.361c0.407,0.246,0.745,0.569,1.007,0.99c0.268,0.418,0.451,0.916,0.558,1.497
			c0.115,0.591,0.17,1.22,0.17,1.903C133.047,26.275,132.686,27.609,131.956,28.49 M160.831,17.245
			c-1.295-1.104-3.085-1.657-5.373-1.657c-0.832,0-1.744,0.082-2.712,0.236c-0.414,0.066-0.823,0.151-1.242,0.248
			c-0.103,0.023-0.206,0.049-0.3,0.073c-0.451,0.116-0.908,0.251-1.361,0.402c0,0.589,0.053,1.1,0.164,1.549
			c0.023,0.087,0.039,0.179,0.062,0.264c0.029,0.074,0.054,0.146,0.073,0.218c0.286,0.617,0.907,1.052,1.63,1.052h0.015
			c0.097,0,0.179-0.005,0.271-0.027c0.093-0.019,0.182-0.041,0.275-0.065c0.774-0.164,1.517-0.25,2.23-0.25
			c0.554,0,1.056,0.029,1.512,0.098c0.446,0.069,0.824,0.192,1.136,0.381c0.311,0.186,0.551,0.443,0.725,0.772
			c0.177,0.33,0.262,0.757,0.262,1.287v0.4c-0.77-0.068-1.472-0.1-2.104-0.1c-0.887,0-1.767,0.095-2.648,0.279
			c-0.885,0.188-1.681,0.491-2.395,0.925c-0.719,0.426-1.299,1.002-1.757,1.715c-0.444,0.717-0.672,1.602-0.672,2.658
			c0,0.537,0.044,1.035,0.143,1.49V29.18c-0.202,0.049-1.537,0.25-1.74,0.271c-0.209,0.018-0.407,0.029-0.581,0.029
			c-0.393,0-0.729-0.043-0.995-0.125c-0.262-0.094-0.473-0.252-0.637-0.484c-0.17-0.23-0.285-0.555-0.364-0.975
			c-0.079-0.416-0.117-0.963-0.117-1.65V11.129v-0.161c-0.04-1.244-1.067-2.238-2.321-2.238h-0.012c-0.764,0-1.534,0.066-2.33,0.192
			v18.346c0,2.113,0.512,3.635,1.54,4.576c1.022,0.934,2.382,1.4,4.081,1.4c0.415,0,0.88-0.021,1.373-0.064
			c0.404-0.037,3.225-0.545,4.442-0.789c0.587,0.34,1.259,0.592,2.022,0.754c0.939,0.199,1.964,0.299,3.094,0.299
			c1.383,0,3.486-0.293,4.717-0.545c1.13-0.25,1.825-1.158,1.825-2.266l0.002-8.114C162.762,20.104,162.117,18.343,160.831,17.245
			 M158.196,29.586c-0.242,0.041-0.523,0.092-0.852,0.145c-0.331,0.059-0.664,0.078-0.992,0.078c-0.29,0-0.628-0.01-1.015-0.051
			c-0.388-0.027-0.747-0.115-1.084-0.254c-0.344-0.145-0.64-0.371-0.878-0.68c-0.24-0.305-0.363-0.75-0.363-1.318
			c0-0.859,0.311-1.482,0.941-1.867c0.628-0.389,1.48-0.58,2.561-0.58c0.242,0,0.524,0.025,0.83,0.055
			c0.3,0.035,0.59,0.072,0.852,0.115V29.586z M190.854,17.245c-1.285-1.104-3.084-1.656-5.371-1.656
			c-0.836,0-1.743,0.081-2.708,0.235c-0.413,0.066-0.828,0.151-1.245,0.249c-0.094,0.022-0.201,0.048-0.302,0.072
			c-0.449,0.116-0.903,0.251-1.356,0.402c0,0.588,0.054,1.099,0.159,1.548c0.023,0.088,0.044,0.179,0.071,0.264
			c0.017,0.074,0.049,0.146,0.075,0.218c0.276,0.617,0.896,1.052,1.618,1.052h0.02c0.092,0,0.186-0.004,0.261-0.026
			c0.103-0.02,0.188-0.042,0.286-0.066c0.771-0.163,1.516-0.25,2.235-0.25c0.547,0,1.052,0.029,1.503,0.099
			c0.449,0.07,0.827,0.192,1.142,0.381c0.302,0.186,0.549,0.443,0.726,0.772c0.175,0.33,0.258,0.758,0.258,1.288v0.399
			c-0.769-0.068-1.473-0.1-2.11-0.1c-0.883,0-1.762,0.096-2.644,0.28c-0.884,0.187-1.68,0.49-2.398,0.924
			c-0.708,0.426-1.297,1.004-1.747,1.715c-0.454,0.717-0.686,1.602-0.686,2.658c0,1.059,0.188,1.949,0.551,2.67
			c0.361,0.729,0.878,1.316,1.553,1.775c0.679,0.467,1.475,0.799,2.416,0.998c0.936,0.199,1.966,0.297,3.087,0.297
			c1.391,0,3.489-0.293,4.713-0.545c1.139-0.25,1.832-1.158,1.832-2.266v-8.114C192.791,20.104,192.151,18.343,190.854,17.245
			 M188.225,29.586c-0.243,0.041-0.521,0.092-0.856,0.145c-0.327,0.059-0.658,0.078-0.993,0.078c-0.287,0-0.622-0.01-1.009-0.051
			c-0.386-0.027-0.742-0.115-1.086-0.252c-0.341-0.146-0.635-0.373-0.878-0.682c-0.237-0.305-0.361-0.75-0.361-1.318
			c0-0.859,0.314-1.48,0.945-1.867c0.623-0.389,1.479-0.58,2.559-0.58c0.239,0,0.517,0.027,0.825,0.055
			c0.308,0.035,0.597,0.072,0.854,0.115V29.586z M101.202,17.369c-1.294-1.097-3.082-1.647-5.37-1.647
			c-0.835,0-1.743,0.081-2.712,0.227c-0.413,0.068-0.829,0.147-1.246,0.253c-0.103,0.026-0.203,0.045-0.303,0.077
			c-0.454,0.112-0.908,0.248-1.363,0.398c0,0.583,0.06,1.093,0.16,1.548c0.029,0.089,0.051,0.181,0.073,0.266
			c0.023,0.074,0.05,0.141,0.073,0.215c0.284,0.615,0.901,1.05,1.63,1.05h0.016c0.09,0,0.177-0.009,0.263-0.026
			c0.092-0.022,0.179-0.042,0.277-0.062c0.781-0.163,1.513-0.254,2.238-0.254c0.547,0,1.052,0.033,1.5,0.1
			c0.455,0.063,0.834,0.194,1.145,0.384c0.307,0.186,0.55,0.44,0.725,0.773c0.177,0.328,0.266,0.753,0.266,1.279v0.402
			c-0.775-0.064-1.475-0.101-2.116-0.101c-0.884,0-1.768,0.094-2.645,0.282c-0.889,0.19-1.685,0.491-2.397,0.923
			c-0.714,0.431-1.298,1.003-1.748,1.72c-0.452,0.713-0.679,1.598-0.679,2.652c0,1.057,0.177,1.949,0.546,2.668
			c0.36,0.73,0.877,1.328,1.552,1.785c0.673,0.463,1.477,0.799,2.41,0.996c0.936,0.191,1.966,0.289,3.091,0.289
			c1.386,0,3.489-0.289,4.718-0.541c1.134-0.248,1.833-1.158,1.833-2.27v-8.11C103.141,20.229,102.484,18.467,101.202,17.369
			 M98.575,29.705c-0.249,0.047-0.533,0.092-0.862,0.154c-0.328,0.057-0.663,0.08-0.996,0.08c-0.279,0-0.619-0.018-1.002-0.053
			c-0.395-0.027-0.758-0.111-1.092-0.258c-0.339-0.143-0.634-0.373-0.881-0.682c-0.24-0.307-0.356-0.742-0.356-1.316
			c0-0.857,0.312-1.482,0.943-1.869c0.622-0.381,1.479-0.572,2.56-0.572c0.246,0,0.517,0.02,0.824,0.047
			c0.309,0.033,0.596,0.074,0.862,0.115V29.705z M85.949,17.369c0.912,1.068,1.377,2.735,1.377,5v8.73
			c0,1.275-1.035,2.313-2.307,2.324h-0.031H84.98c-0.772,0-1.553-0.07-2.349-0.203v-9.636c0-1.185-0.145-2.097-0.45-2.736
			c-0.295-0.638-0.897-0.951-1.794-0.951c-0.378,0-0.75,0.052-1.112,0.161c-0.363,0.117-0.688,0.312-0.987,0.607
			c-0.3,0.306-0.546,0.718-0.729,1.261c-0.189,0.535-0.286,1.235-0.286,2.099v7.049c0,1.287-1.045,2.338-2.333,2.35h-0.015h-0.007
			h-0.006c-0.765,0-1.541-0.07-2.33-0.203v-2.02c0-0.051-0.007-0.082-0.007-0.127c0-0.037,0.007-0.076,0.007-0.119v-7.371
			c0-1.185-0.146-2.096-0.444-2.736c-0.298-0.637-0.898-0.95-1.801-0.95c-0.374,0-0.747,0.052-1.124,0.161
			c-0.378,0.117-0.713,0.324-1.009,0.642c-0.294,0.323-0.53,0.768-0.712,1.342c-0.17,0.569-0.262,1.307-0.262,2.233v6.805
			l-0.004,0.006V31.08v0.006c0,0.043-0.004,0.08-0.004,0.125c-0.004,0.039-0.004,0.07-0.004,0.111
			c-0.004,0.043-0.015,0.088-0.019,0.131c-0.012,0.029-0.012,0.066-0.016,0.098c-0.01,0.041-0.023,0.08-0.035,0.113
			c-0.001,0.039-0.016,0.074-0.028,0.113c-0.004,0.035-0.022,0.061-0.029,0.088c-0.015,0.041-0.028,0.088-0.047,0.121
			c-0.012,0.025-0.025,0.045-0.035,0.07c-0.021,0.043-0.036,0.092-0.065,0.145c0,0-0.01,0.008-0.01,0.012
			c-0.403,0.723-1.165,1.211-2.045,1.211h-0.006c-0.768,0-1.554-0.07-2.342-0.203V31.08V16.165c0.311-0.07,0.615-0.118,0.928-0.149
			c0.303-0.034,0.646-0.05,1.023-0.05c0.37,0,0.704,0.016,0.988,0.05c0.289,0.031,0.585,0.08,0.89,0.149
			c0.062,0.113,0.128,0.268,0.183,0.478c0.051,0.209,0.105,0.43,0.149,0.657c0.048,0.231,0.088,0.46,0.113,0.68
			c0.044,0.217,0.062,0.406,0.083,0.559c0.178-0.334,0.405-0.656,0.702-0.988c0.284-0.334,0.622-0.622,1.019-0.891
			c0.395-0.259,0.838-0.48,1.336-0.644c0.495-0.166,1.055-0.244,1.668-0.244c2.672,0,4.376,1.01,5.123,3.033
			c0.44-0.813,1.063-1.521,1.872-2.127c0.796-0.604,1.821-0.905,3.05-0.905C83.61,15.771,85.037,16.297,85.949,17.369
			 M178.672,33.047h-13.571v-0.008c0,0-1.889,0.117-0.965-1.678l6.938-11.777h-3.378c-3.556-0.009-3.165-3.591-3.165-3.591h11.863
			c0,0,0.052-0.011,0.137,0c0.424,0.013,1.633,0.185,0.796,1.736l0.019-0.006l-7.033,11.728h5.751
			C178.584,29.451,178.712,32.066,178.672,33.047 M178.645,33.383c0,0.018-0.005,0.035-0.005,0.035S178.602,33.396,178.645,33.383"
			/>
		<path fill="#565659" d="M196.586,18.542c-0.34,0.342-0.752,0.512-1.236,0.512c-0.483,0-0.892-0.17-1.227-0.512
			c-0.34-0.341-0.507-0.75-0.507-1.235c0-0.479,0.167-0.887,0.507-1.226c0.338-0.339,0.749-0.506,1.227-0.506
			c0.484,0,0.896,0.167,1.236,0.506c0.338,0.339,0.51,0.747,0.51,1.226C197.096,17.791,196.924,18.201,196.586,18.542
			 M194.288,16.253c-0.291,0.292-0.433,0.646-0.433,1.057c0,0.418,0.142,0.772,0.43,1.066c0.296,0.291,0.645,0.441,1.063,0.441
			c0.414,0,0.771-0.15,1.064-0.441c0.288-0.294,0.435-0.648,0.435-1.066c0-0.411-0.146-0.765-0.435-1.057
			c-0.297-0.292-0.65-0.438-1.064-0.438C194.933,15.814,194.581,15.961,194.288,16.253 M195.318,16.349
			c0.237,0,0.414,0.022,0.527,0.07c0.199,0.083,0.297,0.243,0.297,0.482c0,0.169-0.063,0.295-0.188,0.375
			c-0.063,0.041-0.155,0.075-0.275,0.095c0.152,0.022,0.259,0.084,0.329,0.186c0.067,0.102,0.102,0.198,0.102,0.296v0.141
			c0,0.042,0.003,0.091,0.006,0.142c0.003,0.049,0.007,0.083,0.016,0.098l0.012,0.025h-0.314c-0.003-0.005-0.003-0.015-0.003-0.02
			c0-0.006-0.006-0.014-0.006-0.02l-0.006-0.063v-0.152c0-0.219-0.063-0.365-0.183-0.438c-0.075-0.038-0.196-0.059-0.378-0.059
			h-0.27v0.751h-0.338v-1.91H195.318z M195.69,16.655c-0.089-0.047-0.227-0.069-0.416-0.069h-0.291v0.681h0.306
			c0.146,0,0.255-0.015,0.33-0.04c0.131-0.051,0.2-0.152,0.2-0.296C195.819,16.795,195.775,16.704,195.69,16.655"/>
	</g>
</g>
</svg>
