<?xml version="1.0" encoding="utf-8"?>
<!-- Generator: Adobe Illustrator 27.0.0, SVG Export Plug-In . SVG Version: 6.00 Build 0)  -->
<svg version="1.1" id="Capa_1" xmlns="http://www.w3.org/2000/svg" xmlns:xlink="http://www.w3.org/1999/xlink" x="0px" y="0px"
	 viewBox="0 0 436.8 134.7" style="enable-background:new 0 0 436.8 134.7;" xml:space="preserve">
<style type="text/css">
	.st0{fill:#567BC6;}
	.st1{fill:#969798;}
	.st2{fill-rule:evenodd;clip-rule:evenodd;fill:#567BC6;}
</style>
<g>
	<g>
		<path class="st0" d="M229.4,47.7h-16.9c-0.8,0-1.5,0.5-1.8,1.2l-18,49.8h-0.3l-18.2-49.8c-0.3-0.7-1-1.2-1.7-1.2h-16.8
			c-1,0-1.9,0.8-1.9,1.9v68.1c0,1,0.8,1.9,1.9,1.9h8.4c1,0,1.9-0.8,1.9-1.9V61.8h0.2l21,56.5c0.3,0.7,1,1.2,1.7,1.2h6.3
			c0.8,0,1.5-0.5,1.8-1.2l21.4-56.5h0.2v55.8c0,1,0.8,1.9,1.9,1.9h8.9c1,0,1.9-0.8,1.9-1.9V49.6C231.2,48.5,230.4,47.7,229.4,47.7z"
			/>
		<path class="st0" d="M292.2,108.1h-34.7V87.8h31.1c1,0,1.9-0.8,1.9-1.9v-7c0-1-0.8-1.9-1.9-1.9h-31.1V58.8h32.9
			c1,0,1.9-0.8,1.9-1.9v-7.4c0-1-0.8-1.9-1.9-1.9h-43.8c-1,0-1.9,0.8-1.9,1.9v68.1c0,1,0.8,1.9,1.9,1.9h45.7c1,0,1.9-0.8,1.9-1.9
			V110C294,109,293.2,108.1,292.2,108.1z"/>
		<path class="st0" d="M359.1,55.5c-6.8-5.1-16.4-7.8-26.9-7.8h-23.6c-1,0-1.9,0.8-1.9,1.9v68.1c0,1,0.8,1.9,1.9,1.9h23.6
			c10.1,0,19.8-3.1,26.9-8.5c8.4-6.4,12.8-15.9,12.8-27.4c0-6.4-1.2-12.1-3.6-17C366.3,62.2,363.1,58.5,359.1,55.5z M330.3,108.3
			h-10.6V58.6h10.6c18.3,0,28,8.6,28,24.9C358.3,105.9,338.7,108.3,330.3,108.3z"/>
		<path class="st0" d="M422,83.7c-4-3.1-9.1-4.8-14-6.3c-4.3-1.4-7.5-2.4-9.9-4c-2.6-1.7-3.8-4-3.8-7.1c0-6.8,6.6-9.8,12.7-9.8
			c4.3,0,8.8,1.8,11.9,4.8c0.3,0.3,0.8,0.5,1.3,0.5h0.1c0.5,0,1-0.2,1.3-0.6l5.6-6.2c0.3-0.4,0.5-0.9,0.5-1.4c0-0.5-0.3-1-0.7-1.3
			c-5-4-12.4-6.4-19.4-6.4c-13.1,0-26.3,6.5-26.3,21.1c0,6.1,1.9,10.7,5.8,14.2c3.5,3.1,8.2,4.9,12.3,6.2l0.8,0.2
			c8.4,2.6,15.7,4.9,15.7,12.2c0,7.4-6.5,10.6-13,10.6c-5.2,0-10.9-2.5-14.5-6.4c-0.3-0.4-0.8-0.6-1.3-0.6h-0.1
			c-0.5,0-0.9,0.2-1.3,0.5l-6.3,5.9c-0.4,0.3-0.6,0.8-0.6,1.3c0,0.5,0.2,1,0.6,1.4c5.5,5.4,14.4,8.8,23.3,8.8c7.2,0,13.8-2,18.4-5.7
			c5.1-4.1,7.8-10,7.8-17.2C429,92.1,426.7,87.3,422,83.7z"/>
	</g>
	<g>
		<path class="st1" d="M196.4,36.3c3.9,0,7.1-1.5,9.3-4.2c0.1-0.1,0.1-0.2,0.1-0.3c0-0.1-0.1-0.2-0.1-0.2l-3.3-2.3
			c-0.1,0-0.1-0.1-0.2-0.1c-0.1,0-0.2,0.1-0.3,0.1c-1.2,1.6-3.1,2.5-5.4,2.5c-4.5,0-7.5-3.3-7.5-8.2c0-4.7,3.2-8.1,7.7-8.1
			c1.6,0,3.8,0.6,5,2.3c0.1,0.1,0.1,0.1,0.2,0.1c0,0,0,0,0.1,0c0.1,0,0.1,0,0.2-0.1l3.1-2.5c0.2-0.1,0.2-0.3,0.1-0.5
			c-2.1-2.7-6-3.7-8.7-3.7c-7.6,0-12.9,5.1-12.9,12.5C183.7,31.1,188.9,36.3,196.4,36.3z"/>
		<path class="st1" d="M361.4,32.1c0.1-0.1,0.1-0.2,0.1-0.3c0-0.1-0.1-0.2-0.1-0.2l-3.3-2.3c-0.1,0-0.1-0.1-0.2-0.1
			c-0.1,0-0.2,0.1-0.3,0.1c-1.2,1.6-3.1,2.5-5.4,2.5c-4.5,0-7.5-3.3-7.5-8.2c0-4.7,3.2-8.1,7.7-8.1c1.6,0,3.8,0.6,5,2.3
			c0.1,0.1,0.1,0.1,0.2,0.1c0,0,0,0,0,0c0.1,0,0.2,0,0.2-0.1l3.2-2.5c0.1-0.1,0.2-0.3,0.1-0.5c-2.1-2.7-6-3.7-8.7-3.7
			c-7.6,0-13,5.1-13,12.5c0,7.4,5.2,12.6,12.8,12.6C356,36.3,359.2,34.9,361.4,32.1z"/>
		<path class="st1" d="M380,35.5l2-5.1h9.6l2.1,5.1c0.1,0.1,0.2,0.2,0.3,0.2h4.7c0.1,0,0.2-0.1,0.3-0.2c0.1-0.1,0.1-0.2,0-0.3
			l-10-23.2c-0.1-0.1-0.2-0.2-0.3-0.2h-3.6c-0.1,0-0.3,0.1-0.3,0.2l-10.1,23.2c-0.1,0.1,0,0.2,0,0.3c0.1,0.1,0.2,0.2,0.3,0.2h4.6
			C379.8,35.7,380,35.6,380,35.5z M386.8,18l3.1,8.1h-6.2L386.8,18z"/>
		<path class="st1" d="M321.4,11.8h-4.1c-0.2,0-0.4,0.2-0.4,0.4v23.2c0,0.2,0.2,0.4,0.4,0.4h4.1c0.2,0,0.4-0.2,0.4-0.4V12.1
			C321.7,11.9,321.6,11.8,321.4,11.8z"/>
		<path class="st1" d="M298.5,35.4V12.1c0-0.2-0.2-0.4-0.4-0.4H294c-0.2,0-0.4,0.2-0.4,0.4v16.3L283.4,12c-0.1-0.1-0.2-0.2-0.3-0.2
			h-5.5c-0.2,0-0.3,0.2-0.3,0.4v23.2c0,0.2,0.2,0.4,0.3,0.4h4.1c0.2,0,0.4-0.2,0.4-0.4V18.6l10.4,17c0.1,0.1,0.2,0.2,0.3,0.2h5.2
			C298.3,35.7,298.5,35.6,298.5,35.4z"/>
		<path class="st1" d="M254.1,35.7h4.1c0.2,0,0.4-0.2,0.4-0.4V12.1c0-0.2-0.2-0.4-0.4-0.4h-4.1c-0.2,0-0.3,0.2-0.3,0.4v23.2
			C253.7,35.6,253.9,35.7,254.1,35.7z"/>
		<path class="st1" d="M236.5,31.3h-9.5V12.1c0-0.2-0.2-0.4-0.3-0.4h-4.1c-0.2,0-0.4,0.2-0.4,0.4v23.2c0,0.2,0.2,0.4,0.4,0.4h14
			c0.2,0,0.4-0.2,0.4-0.4v-3.7C236.8,31.5,236.7,31.3,236.5,31.3z"/>
	</g>
	<g>
		<path class="st0" d="M128.7,11.2c0.7,0.3,0.3,0.8,0.3,1.6c-0.3,4.4-3.6,1.1-4.1,3.2c-0.3,1.1-0.9,4.4,2.4,3.4l0.3,0.7
			c0,0-0.3,0.4-0.3,0.4c-0.8-0.7-1.5-0.6-1.5-0.5c-1.2,0.9-2.3,3.2-3.9,4.2c-0.9,0.5-1.8-0.4-2.5-1c-4.1-3.6-0.5-4-0.5-7.6
			c-5.1,0.6-2.6,1.6-3.6,3.8c-0.8,1.7-2.4,2.9-2.5,5c-0.7,0.6-1,0.6-2.2,1.1c0.8,7.3,0.3,9.8-3.8,9.3c-1.8-0.3-2.8,5.2-4.4,7
			c-1,1.1-3.4,1.6-4.2,0.5l-0.3-0.1c-2.3,3.5-1.5,0.5-3.8,0.5c-1.4,3-3.9,1.9-5.5,3.4c0,0-2.9,8.4-4.9,9.8c-0.9,0.6,2.7,3.2,3.8,3.8
			c3,1.1,4.7,1.4,8.3,2.9c4.3,2.6,18.8,11.3,20.2,16.7c0.6,2.3-2.2,1.7-3.3,2.9c-1.9,2.1-1,3.4-4.5,6.7c-1.3,1.2-0.9-3.2-3.4-0.6
			c-2.8,2.9-5.5,4.3-7.3,6.7c-0.8,1.2-1.7,2.8-2.5,4.1c-0.1,0.1-0.9,0.6-0.9,0.6c-2.7,2.3-5.3,1.9-7.4,5.9c-0.2,0.5-0.8,0.5-0.9,1
			c0,0,0.5,0.5,0.5,0.5l0.3,0c0.6,0.1,1.3-0.1,1.6,0.5c0.1,1.4-0.8,5.7,0.8,6.4c-0.1,0.7-1.8,3.8,7.8,5.9c0.7,0.2,0.1,0.5-0.2,1.3
			c-0.2,0.3-0.2,0.6-0.4,0.9c-6.3,1.4-3.8-2-5.9-2.2c-4-0.4-7.6-4.6-9.6-4.7c-6.9-2-5.5-4.2-5.5-4.6c1.1-3.1,4.6-4.3,6.8-6.4
			c3-3.4,6.2-7.5,9.2-10.9c4.8-5.3,2.8-5.4,4.8-7.4c2-1.9,3.8-3,7.4-4.2c0.6-0.1,2.8-0.7,3.4-0.9l1.2-0.1l1.2-0.1v-0.1
			c1.9-0.7,1.1-2.4-0.2-2.6c-1.2-0.2-2.1,1.4-3.4,1c-2.5-0.8-0.5-2.5-1.8-3.2c-2-0.5-5.6-1.3-7.6-1.7c-2.3-1-3.5-1.1-5.8-2.1
			c-2.7-0.4-6.8-0.6-9.1-1.3c-3.6-0.8-7.1-0.9-10.5-2.4c-5.1-2.2-10.4-5.1-11.1-10.5v-2c0-2.3,0.3-4,1.9-5.5
			c2.9-2.9,8.1-5.1,13.5-7.9c6.4-3.4,8-11.1,12.5-13.8l0.4-0.2c2.8-0.8,9.5,3.6,13,2.9c0.6-0.1,1.7,0.9,3.8-2.5
			c0.5-0.8-0.8-3.6-2-3.8c-4.4-0.8-8.7-0.4-14.3-0.4c-2-0.1-5-0.3-7-0.4c-1.5,0.5-2.2,1.3-3.7,1.8c-4,0.6-9.3-0.4-12.8,1.3
			c-10.1,4.7-10.7,4.1-11.9,5.7c-0.9,1.3-0.5,3.1,0.1,4.1c-0.9,0.8-2.1,3.1-3.3,2.5c-1.9-0.9-4-5.2-3.4-6.5
			c1.3-2.7,25.4-12.8,29.1-13.7l2-0.5c0.5-0.1,0.9-0.2,1.3-0.3c4.6,0.2,12.7,0.4,18,0.4l1.9-0.1l0.8-0.1l1.6-0.3l2.6-0.9
			c3.2-1,6.1,2.2,7.5-2.1c0.2-0.1,0.9,0.6,1,0.5c2,1.7,1.8-5,3.7-4.8c5.6,0.5,3.8,6.7,5,6.1c2.9,0.2,1.3-1.9,2.2-2.7
			c0.9-0.8,3,0.5,2.9-1.2c0-0.1-0.1-1-0.1-1.1C126.6,12.1,127.9,11.6,128.7,11.2"/>
		<path class="st0" d="M59.2,70.1c0.8-0.1,0,3.8,3.4,5.9c0.8,0.5-2.7,3.6-3.7,4.6c-1.8,1.7-2.6,2.9-2.9,5.3
			c-0.3,1.8,1.1,4.6-0.2,5.9c0,0-3.8,0.1-4,2.4c-0.2,1.5-3-0.4-5,0.8c-2.8,1.6-1.2,4-2.7,5.2c-1.1,0.5-2.6,0.9-3.7,1.4
			c-1.7,1-3.6,2.1-5.3,3.1c-1.2,1.3-1.8,2.6-2.9,3.9c-1.5,1.3-1.5,0.3-2.5,0.7c-1.9,1.6-4.2,3.4-6.1,5c-2.1,1-1,1.5-6,2.8
			c-1.9,1.2-3.4,3.6-5,5.1c-0.9,0.4-2.1,0.4-3.2,0.2c-0.2-0.1-0.8-0.1-1-0.2c-0.1-0.2-0.4-0.4-0.5-0.6c1.9-2.1,2.7-1.1,3.9-1.9
			c0.2-1.3,3.8-3.2,5.9-4.9c5.8-4.8,14.7-17.1,22.4-17.1c1.1-2.4,6.6-4.1,7.5-5.4c0.7-1.9,1.1-3.7,1.8-5.6
			C51.6,80.9,55.9,70.6,59.2,70.1"/>
		<path class="st2" d="M134.7,43.3c1,3.7,3.7,3.5,3,4.2c-1.6,0.1-3.9,1.3-4.1,1.6c-0.2,0.3-3.9-0.2-4.5,0.1
			c-2.6,1.5-11.1,4.7-14.6,3.3c-1-0.4-0.2-2.1-0.2-3.2c0-0.8-0.5-3.9,0.2-3.6c3.2,1.2,7,1.3,8.5,1.3c1,0,2.5-0.4,3.5-0.4
			c1.3-0.3,3-0.6,4.4-0.9C132.3,45,133.5,44.4,134.7,43.3"/>
		<path class="st2" d="M139.4,39.3c2.4,0.4,1.8,5.9,1.5,6.2c-1.4,1.5-1.6-0.2-2-2.6C138.5,40.8,136.8,41.4,139.4,39.3"/>
		<path class="st2" d="M108.9,36.3c2.8,0.4,3.8,5.2,4.7,8.2c-0.3,0.7-1,3-1.3,3.7c-2.9-0.6-2.2-3.5-2.1-6.8
			C110.3,38.4,106.2,38.4,108.9,36.3"/>
	</g>
</g>
</svg>
