<?xml version="1.0" encoding="UTF-8"?><svg id="Layer_1" xmlns="http://www.w3.org/2000/svg" viewBox="0 0 1578.85 189.6"><g><path d="M131.79,73.2h-12.76c2.01-11.67,4.19-23.34,6.2-35.04,.55-3.5-.55-6.57-3.28-8.17h24.07c-.18,.75-.36,1.49-.36,2.24-.91,4.66-1.64,9.33-2.55,13.99,6.56-4.82,12.76-9.66,19.33-14.5,1.64-1.16,3.28-1.73,4.92-1.73h19.51c-9.66,7.21-19.33,14.43-28.81,21.61,6.93,7.21,13.86,14.4,21.15,21.59h-19.51c-1.64,0-3.1-.57-4.19-1.73-4.92-4.82-9.48-9.66-14.22-14.5-.55,3.25-1.28,6.49-1.82,9.71-.55,3.58-3.83,6.52-7.66,6.52Z"/><path d="M203.22,73.2h-12.76c2.01-11.67,4.01-23.34,6.2-35.04,.55-3.5-.55-6.57-3.65-8.17h24.43c-.18,.75-.36,1.49-.36,2.24-.91,4.82-1.82,9.63-2.55,14.43-.73,3.3-1.28,6.59-1.82,9.87-.55,3.4-1.09,6.78-1.82,10.15-.55,3.58-4.19,6.52-7.66,6.52Z"/><path d="M259.7,46.67c-.73,3.3-1.28,6.59-1.82,9.87-.73,3.4-1.28,6.78-1.82,10.15-.73,3.58-4.01,6.52-7.66,6.52h-12.94c2.01-11.1,3.83-22.21,5.83-33.34h-20.24c.55-3.27,1.28-6.57,1.82-9.87h60.17c-.18,1.13-.36,2.24-.73,3.35-.55,3.58-4.19,6.52-7.66,6.52h-13.86c-.36,2.27-.73,4.53-1.09,6.8Z"/><path d="M325.42,66.68c.18-1.21,.55-2.42,.73-3.66,1.09-6.23,2.19-12.47,3.28-18.7,.36-1.93,.73-3.89,1.09-5.85,.55-3.68,0-6.6-3.46-8.48h61.26c-.18,1.13-.36,2.24-.55,3.35-.73,3.58-4.01,6.52-7.66,6.52h-28.99c-.91,0-1.46,.57-1.82,1.31-.18,.1-.16,.23-.18,.36-.34,1.96-.73,3.89-1.09,5.82-.91,4.77-1.66,9.53-2.55,14.3-.02,.13,0,.26,.18,.39,0,.75,.55,1.29,1.46,1.29h35.37c-.36,1.13-.55,2.24-.73,3.35-.55,3.58-3.83,6.52-7.47,6.52h-43.57c-3.46,0-5.83-2.94-5.29-6.52Z"/><path d="M460.04,36.52c-1.75,10.09-3.72,20.11-5.47,30.17-.62,3.57-4.01,6.52-7.66,6.52h-48.86c-3.65,0-6.14-2.93-5.47-6.52,1.88-10.04,3.72-20.08,5.47-30.17,.62-3.57,4.01-6.52,7.66-6.52h48.86c3.65,0,6.09,2.95,5.47,6.52Zm-45.76,26.82h20.06c.73,0,1.67-.74,1.82-1.68,1.12-6.69,2.36-13.4,3.65-20.12,.18-.93-.55-1.68-1.46-1.68h-19.87c-1.09,0-1.83,.75-2.01,1.68-1.28,6.72-2.37,13.42-3.65,20.12-.18,.93,.36,1.68,1.46,1.68Z"/><path d="M492.71,60.04h-6.75c-.36,2.21-.73,4.43-1.09,6.65-.73,3.58-4.19,6.52-7.84,6.52h-12.76c2.01-11.67,4.19-23.34,6.2-35.04,.55-3.5-.36-6.57-3.46-8.17h58.71c3.46,0,5.92,2.95,5.29,6.52-1.01,5.68-2.19,11.33-3.1,17-.73,3.58-4.01,6.52-7.66,6.52h-4.19c3.28,4.4,6.75,8.78,10.39,13.16h-17.69c-1.64-.08-2.73-.52-4.19-2.19-2.55-2.91-4.74-5.85-6.93-8.78-1.09-1.44-2.73-2.19-4.92-2.19Zm16.96-11.54c.39-2.31,.75-4.63,1.28-6.96,.21-.92-.73-1.68-1.64-1.68h-19.69c-.55,3.45-1.28,6.88-1.82,10.31h19.69c.91,0,2.03-.74,2.19-1.68Z"/><path d="M563.63,60.04h-6.75c-.36,2.21-.73,4.43-1.09,6.65-.73,3.58-4.19,6.52-7.84,6.52h-12.76c2.01-11.67,4.19-23.34,6.2-35.04,.55-3.5-.36-6.57-3.46-8.17h58.71c3.46,0,5.92,2.95,5.29,6.52-1.01,5.68-2.19,11.33-3.1,17-.73,3.58-4.01,6.52-7.66,6.52h-4.19c3.28,4.4,6.75,8.78,10.39,13.16h-17.69c-1.64-.08-2.73-.52-4.19-2.19-2.55-2.91-4.74-5.85-6.93-8.78-1.09-1.44-2.73-2.19-4.92-2.19Zm16.96-11.54c.39-2.31,.75-4.63,1.28-6.96,.21-.92-.73-1.68-1.64-1.68h-19.69c-.55,3.45-1.28,6.88-1.82,10.31h19.69c.91,0,2.03-.74,2.19-1.68Z"/><path d="M607.38,63.34c1.46-8.37,3.1-16.77,4.56-25.17,.55-3.5-.55-6.57-3.65-8.17h61.62c-.18,1.13-.36,2.24-.73,3.35-.55,3.58-4.19,6.52-7.84,6.52h-30.45c0,.34,0,.67-.18,1.01-.18,1.78-.55,3.55-.91,5.31v.49h31.54c-.18,1.13-.36,2.24-.73,3.35-.55,3.58-3.83,6.52-7.66,6.52h-24.98v.49c-.18,1-.36,2.01-.55,3.01-.18,1.08-.36,2.14-.55,3.19v.1h37.01c-.18,1.13-.36,2.24-.55,3.35-.73,3.58-4.19,6.52-7.84,6.52h-43.21c-3.65,0-6.2-2.94-5.47-6.52,.18-1.11,.36-2.22,.55-3.35Z"/><path d="M681.15,30h53.79c1.64,0,3.1,.77,4.19,2.01,.91,1.16,1.39,2.77,1.09,4.51-1.71,10.09-3.72,20.11-5.47,30.17-.62,3.57-4.01,6.52-7.48,6.52h-53.78c.55-3.27,1.09-6.57,1.82-9.87,1.46-8.37,2.92-16.77,4.38-25.17,.55-3.5-.55-6.57-3.46-8.17h4.92Zm38.65,11.54c.18-.93-.36-1.68-1.28-1.68h-19.87c-1.28,7.83-2.73,15.66-4.01,23.47h19.87c.73,0,1.46-.75,1.64-1.68,.92-4.77,1.64-9.53,2.55-14.3,.36-1.93,.72-3.87,1.09-5.82Z"/><path d="M812.26,36.52c-1.75,10.09-3.72,20.11-5.47,30.17-.62,3.57-4.01,6.52-7.66,6.52h-48.86c-3.65,0-6.14-2.93-5.47-6.52,1.88-10.04,3.72-20.08,5.47-30.17,.62-3.57,4.01-6.52,7.66-6.52h48.86c3.65,0,6.09,2.95,5.47,6.52Zm-45.76,26.82h20.06c.73,0,1.67-.74,1.82-1.68,1.12-6.69,2.36-13.4,3.65-20.12,.18-.93-.55-1.68-1.46-1.68h-19.87c-1.09,0-1.83,.75-2.01,1.68-1.28,6.72-2.37,13.42-3.65,20.12-.18,.93,.36,1.68,1.46,1.68Z"/><path d="M844.93,60.04h-6.75c-.36,2.21-.73,4.43-1.09,6.65-.73,3.58-4.19,6.52-7.84,6.52h-12.76c2-11.67,4.19-23.34,6.2-35.04,.55-3.5-.36-6.57-3.46-8.17h58.71c3.46,0,5.92,2.95,5.29,6.52-1.01,5.68-2.19,11.33-3.1,17-.73,3.58-4.01,6.52-7.66,6.52h-4.19c3.28,4.4,6.75,8.78,10.39,13.16h-17.68c-1.64-.08-2.74-.52-4.19-2.19-2.55-2.91-4.74-5.85-6.93-8.78-1.09-1.44-2.74-2.19-4.92-2.19Zm16.96-11.54c.39-2.31,.75-4.63,1.28-6.96,.21-.92-.73-1.68-1.64-1.68h-19.69c-.55,3.45-1.28,6.88-1.82,10.31h19.69c.91,0,2.03-.74,2.19-1.68Z"/><path d="M926.91,63.34c1.46-8.37,3.1-16.77,4.56-25.17,.55-3.5-.55-6.57-3.65-8.17h61.62c-.18,1.13-.36,2.24-.73,3.35-.55,3.58-4.19,6.52-7.84,6.52h-30.45c0,.34,0,.67-.18,1.01-.18,1.78-.55,3.55-.91,5.31v.49h31.54c-.18,1.13-.36,2.24-.73,3.35-.55,3.58-3.83,6.52-7.66,6.52h-24.98v.49c-.18,1-.36,2.01-.55,3.01-.18,1.08-.36,2.14-.55,3.19v.1h37.01c-.18,1.13-.36,2.24-.55,3.35-.73,3.58-4.19,6.52-7.84,6.52h-43.21c-3.65,0-6.2-2.94-5.47-6.52,.18-1.11,.37-2.22,.55-3.35Z"/><path d="M1056.84,73.2h-20.78c-3.1-3.74-6.2-7.47-9.3-11.23-4.19,3.76-8.75,7.5-12.94,11.23h-20.78c8.39-7.19,16.77-14.38,25.34-21.59-6.02-7.19-11.85-14.4-17.68-21.61h20.78c2.92,3.76,6.2,7.5,9.12,11.23,3.65-3.01,7.11-6.03,10.76-9.04,1.64-1.44,3.46-2.19,5.65-2.19h17.5c-8.39,7.21-16.96,14.43-25.34,21.61,5.83,7.21,11.67,14.4,17.68,21.59Z"/><path d="M1068.67,66.68c.18-1.21,.55-2.42,.73-3.66l3.28-18.7c.37-1.93,.73-3.89,1.09-5.85,.55-3.68,0-6.6-3.46-8.48h61.26c-.18,1.13-.36,2.24-.55,3.35-.73,3.58-4.01,6.52-7.66,6.52h-28.99c-.91,0-1.46,.57-1.82,1.31-.18,.1-.16,.23-.18,.36-.34,1.96-.73,3.89-1.09,5.82-.91,4.77-1.66,9.53-2.55,14.3-.02,.13,0,.26,.18,.39,0,.75,.55,1.29,1.46,1.29h35.37c-.37,1.13-.55,2.24-.73,3.35-.55,3.58-3.83,6.52-7.47,6.52h-43.58c-3.46,0-5.83-2.94-5.29-6.52Z"/><path d="M1179.15,73.2h-37.92c-3.65,0-6.08-2.95-5.47-6.52,.85-5.03,1.82-10.05,2.73-15.07,.73-4.48,1.64-8.97,2.37-13.45,.55-3.55-.18-6.47-3.46-8.17h24.43c-.73,3.86-1.46,7.7-2.01,11.54-.73,3.37-1.28,6.72-1.82,10.07-.37,1.37-.55,2.73-.73,4.07-.36,2.01-.72,4-1.09,5.98-.17,.93,.36,1.68,1.28,1.68h30.08c-.36,1.13-.55,2.24-.73,3.35-.55,3.58-4.01,6.52-7.66,6.52Z"/><path d="M1213.43,52.77c-.55,2.96-1.08,5.93-1.64,8.89-.17,.93,.73,1.68,1.46,1.68h20.06c.91,0,1.65-.75,1.82-1.68,.56-2.96,1.09-5.92,1.64-8.89,.37-2.06,.73-4.12,1.09-6.21,.55-3.35,1.09-6.7,1.82-10.05,.55-3.58,4.19-6.52,7.66-6.52h12.76c-1.09,5.54-2.01,11.05-2.92,16.56-.36,2.09-.73,4.15-1.09,6.21-.91,4.64-1.73,9.26-2.55,13.91-.63,3.57-3.83,6.52-7.66,6.52h-48.86c-3.46,0-5.93-2.92-5.29-6.52,.82-4.62,1.64-9.27,2.55-13.91,.37-2.06,.73-4.12,1.09-6.21,.36-2.78,.91-5.59,1.46-8.4,.55-3.5-.73-6.57-3.46-8.17h24.07c-1.09,5.54-2.01,11.05-2.92,16.56-.37,2.09-.73,4.15-1.09,6.21Z"/><path d="M1304.51,63.34c1.09,0,2.02-.74,2.19-1.68,.2-1.13,.34-2.3,.55-3.45,.16-.88-.37-1.6-1.28-1.67h-34.46c-3.65,0-6.07-2.95-5.47-6.49,.49-2.92,1.09-5.85,1.64-8.78,.18-1.03,.36-2.06,.55-3.09,.55-3.5-.18-6.36-3.65-8.17h65.09c-.18,1.13-.36,2.24-.73,3.35-.55,3.58-3.83,6.52-7.47,6.52h-32.64c-.91,0-1.58,.76-1.82,1.68-.31,1.18-.52,2.32-.73,3.45-.16,.88,.55,1.6,1.28,1.67h34.64c3.46,0,5.94,2.92,5.29,6.52-.81,4.49-1.56,9.03-2.37,13.5-.65,3.6-4.19,6.52-7.66,6.52h-53.79c.18-1.11,.36-2.22,.55-3.35,.73-3.58,4.19-6.52,7.84-6.52h32.45Z"/><path d="M1346.06,73.2h-12.76c2.01-11.67,4.01-23.34,6.2-35.04,.55-3.5-.55-6.57-3.65-8.17h24.43c-.18,.75-.37,1.49-.37,2.24-.91,4.82-1.82,9.63-2.55,14.43-.73,3.3-1.28,6.59-1.82,9.87-.55,3.4-1.09,6.78-1.82,10.15-.55,3.58-4.19,6.52-7.66,6.52Z"/><path d="M1411.12,34.07c1.46-2.55,4.38-4.07,7.29-4.07h15.86c-8.93,13.09-17.87,26.17-26.62,39.26-1.64,2.42-4.19,3.89-6.93,3.94h-17.87c-3.65-11.03-7.29-22.05-10.76-33.1-1.82-5.31-3.28-8.94-8.2-10.1h25.52c2.55,8.14,5.29,16.28,7.84,24.42,4.74-6.78,9.12-13.55,13.86-20.35Z"/><path d="M1505.97,36.52c-1.75,10.09-3.72,20.11-5.47,30.17-.62,3.57-4.01,6.52-7.66,6.52h-48.86c-3.65,0-6.14-2.93-5.47-6.52,1.88-10.04,3.72-20.08,5.47-30.17,.62-3.57,4.01-6.52,7.66-6.52h48.86c3.65,0,6.09,2.95,5.47,6.52Zm-45.76,26.82h20.05c.73,0,1.67-.74,1.82-1.68,1.12-6.69,2.37-13.4,3.65-20.12,.18-.93-.55-1.68-1.46-1.68h-19.87c-1.09,0-1.83,.75-2,1.68-1.28,6.72-2.37,13.42-3.65,20.12-.18,.93,.37,1.68,1.46,1.68Z"/><path d="M42.76,159.6h-12.76c2.01-11.67,4.01-23.34,6.2-35.04,.55-3.5-.55-6.57-3.65-8.17h24.43c-.18,.75-.36,1.49-.36,2.24-.91,4.82-1.82,9.63-2.55,14.43-.73,3.3-1.28,6.59-1.82,9.87-.55,3.4-1.09,6.78-1.82,10.15-.55,3.58-4.19,6.52-7.66,6.52Z"/><path d="M63.15,116.4h23.88c6.56,7.57,13.13,15.15,19.87,22.7,.36-2.01,.73-4.02,1.09-6.03,.55-3.38,1.09-6.75,1.82-10.15,.55-3.58,3.83-6.52,7.66-6.52h12.76c-2.19,12.24-4.38,24.47-6.56,36.69-.73,3.58-4.19,6.52-7.66,6.52h-12.22c-6.75-7.55-13.49-15.12-19.87-22.7-1.09,5.41-2.01,10.79-2.92,16.18-.73,3.58-4.19,6.52-7.66,6.52h-12.76c2.01-11.67,4.01-23.34,6.2-35.04,.55-3.5-.55-6.57-3.65-8.17Z"/><path d="M134.37,153.08c.18-1.21,.55-2.42,.73-3.66,1.09-6.23,2.19-12.47,3.28-18.7,.36-1.93,.73-3.89,1.09-5.85,.55-3.68,0-6.6-3.46-8.48h61.26c-.18,1.13-.36,2.24-.55,3.35-.73,3.58-4.01,6.52-7.66,6.52h-28.99c-.91,0-1.46,.57-1.82,1.31-.18,.1-.16,.23-.18,.36-.34,1.96-.73,3.89-1.09,5.82-.91,4.76-1.66,9.53-2.55,14.3-.02,.13,0,.26,.18,.39,0,.75,.55,1.29,1.46,1.29h35.37c-.36,1.13-.55,2.24-.73,3.35-.55,3.58-3.83,6.52-7.47,6.52h-43.57c-3.46,0-5.83-2.94-5.29-6.52Z"/><path d="M244.85,159.6h-37.92c-3.65,0-6.08-2.95-5.47-6.52,.85-5.03,1.82-10.05,2.73-15.07,.73-4.48,1.64-8.97,2.37-13.45,.55-3.55-.18-6.47-3.46-8.17h24.43c-.73,3.87-1.46,7.7-2.01,11.54-.73,3.38-1.28,6.72-1.82,10.07-.36,1.37-.55,2.73-.73,4.07-.36,2.01-.72,4-1.09,5.98-.17,.93,.36,1.67,1.28,1.67h30.08c-.36,1.13-.55,2.24-.73,3.35-.55,3.58-4.01,6.52-7.66,6.52Z"/><path d="M279.13,139.17c-.55,2.96-1.09,5.93-1.64,8.89-.17,.93,.73,1.67,1.46,1.67h20.06c.91,0,1.65-.75,1.82-1.67,.56-2.96,1.09-5.92,1.64-8.89,.36-2.06,.73-4.12,1.09-6.21,.55-3.35,1.09-6.7,1.82-10.05,.55-3.58,4.19-6.52,7.66-6.52h12.76c-1.09,5.54-2.01,11.05-2.92,16.57-.36,2.09-.73,4.15-1.09,6.21-.91,4.64-1.73,9.26-2.55,13.91-.63,3.57-3.83,6.52-7.66,6.52h-48.86c-3.46,0-5.93-2.92-5.29-6.52,.82-4.62,1.64-9.27,2.55-13.91,.36-2.06,.73-4.12,1.09-6.21,.36-2.78,.91-5.59,1.46-8.4,.55-3.5-.73-6.57-3.46-8.17h24.07c-1.09,5.54-2.01,11.05-2.92,16.57-.36,2.09-.73,4.15-1.09,6.21Z"/><path d="M342.14,159.6h-12.76c2.01-11.67,4.01-23.34,6.2-35.04,.55-3.5-.55-6.57-3.65-8.17h24.43c-.18,.75-.36,1.49-.36,2.24-.91,4.82-1.82,9.63-2.55,14.43-.73,3.3-1.28,6.59-1.82,9.87-.55,3.4-1.09,6.78-1.82,10.15-.55,3.58-4.19,6.52-7.66,6.52Z"/><path d="M367.63,116.4h53.79c1.64,0,3.1,.77,4.19,2.01,.91,1.16,1.39,2.77,1.09,4.51-1.71,10.09-3.72,20.11-5.47,30.17-.62,3.57-4.01,6.52-7.48,6.52h-53.78c.55-3.27,1.09-6.57,1.82-9.87,1.46-8.37,2.92-16.77,4.38-25.17,.55-3.5-.55-6.57-3.46-8.17h4.92Zm38.65,11.54c.18-.93-.36-1.67-1.28-1.67h-19.87c-1.28,7.83-2.73,15.66-4.01,23.47h19.87c.73,0,1.46-.75,1.64-1.67,.92-4.77,1.64-9.53,2.55-14.3,.36-1.93,.72-3.87,1.09-5.82Z"/><path d="M498.74,122.92c-1.75,10.09-3.72,20.11-5.47,30.17-.62,3.57-4.01,6.52-7.66,6.52h-48.86c-3.65,0-6.14-2.93-5.47-6.52,1.88-10.04,3.72-20.08,5.47-30.17,.62-3.57,4.01-6.52,7.66-6.52h48.86c3.65,0,6.09,2.95,5.47,6.52Zm-45.76,26.82h20.06c.73,0,1.67-.74,1.82-1.67,1.12-6.69,2.36-13.4,3.65-20.12,.18-.93-.55-1.67-1.46-1.67h-19.87c-1.09,0-1.83,.75-2.01,1.67-1.28,6.72-2.37,13.42-3.65,20.12-.18,.93,.36,1.67,1.46,1.67Z"/><path d="M542.47,149.73c1.46-8.37,3.1-16.77,4.56-25.17,.55-3.5-.55-6.57-3.65-8.17h61.62c-.18,1.13-.36,2.24-.73,3.35-.55,3.58-4.19,6.52-7.84,6.52h-30.45c0,.33,0,.67-.18,1-.18,1.78-.55,3.56-.91,5.31v.49h31.54c-.18,1.13-.36,2.24-.73,3.35-.55,3.58-3.83,6.52-7.66,6.52h-24.98v.49c-.18,1-.36,2.01-.55,3.01-.18,1.08-.36,2.14-.55,3.19v.1h37.01c-.18,1.13-.36,2.24-.55,3.35-.73,3.58-4.19,6.52-7.84,6.52h-43.21c-3.65,0-6.2-2.94-5.47-6.52,.18-1.11,.36-2.22,.55-3.35Z"/><path d="M611.14,116.4h23.88c6.56,7.57,13.13,15.15,19.87,22.7,.36-2.01,.73-4.02,1.09-6.03,.55-3.38,1.09-6.75,1.82-10.15,.55-3.58,3.83-6.52,7.66-6.52h12.76c-2.19,12.24-4.38,24.47-6.56,36.69-.73,3.58-4.19,6.52-7.66,6.52h-12.22c-6.75-7.55-13.49-15.12-19.87-22.7-1.09,5.41-2.01,10.79-2.92,16.18-.73,3.58-4.19,6.52-7.66,6.52h-12.76c2.01-11.67,4.01-23.34,6.2-35.04,.55-3.5-.55-6.57-3.65-8.17Z"/><path d="M758.7,133.07c-.73,3.3-1.28,6.59-1.82,9.87-.73,3.4-1.28,6.78-1.82,10.15-.73,3.58-4.01,6.52-7.66,6.52h-12.94c2.01-11.1,3.83-22.21,5.83-33.34h-20.24c.55-3.27,1.28-6.57,1.82-9.87h60.17c-.18,1.13-.36,2.24-.73,3.35-.55,3.58-4.19,6.52-7.66,6.52h-13.86c-.36,2.27-.73,4.53-1.09,6.8Z"/><path d="M807.97,139.17c-.55,2.96-1.09,5.93-1.64,8.89-.17,.93,.73,1.67,1.46,1.67h20.06c.91,0,1.65-.75,1.82-1.67,.56-2.96,1.09-5.92,1.64-8.89,.37-2.06,.73-4.12,1.09-6.21,.55-3.35,1.09-6.7,1.82-10.05,.55-3.58,4.19-6.52,7.66-6.52h12.76c-1.09,5.54-2.01,11.05-2.92,16.57-.36,2.09-.73,4.15-1.09,6.21-.91,4.64-1.73,9.26-2.55,13.91-.63,3.57-3.83,6.52-7.66,6.52h-48.86c-3.46,0-5.93-2.92-5.29-6.52,.82-4.62,1.64-9.27,2.55-13.91,.36-2.06,.73-4.12,1.09-6.21,.36-2.78,.91-5.59,1.46-8.4,.55-3.5-.73-6.57-3.46-8.17h24.07c-1.09,5.54-2.01,11.05-2.92,16.57-.36,2.09-.73,4.15-1.09,6.21Z"/><path d="M909.2,159.6h-12.76c2.01-11.67,4.01-23.34,6.2-35.04,.55-3.5-.55-6.57-3.65-8.17h24.43c-.18,.75-.37,1.49-.37,2.24-.91,4.82-1.82,9.63-2.55,14.43-.73,3.3-1.28,6.59-1.82,9.87-.55,3.4-1.09,6.78-1.82,10.15-.55,3.58-4.19,6.52-7.66,6.52Z"/><path d="M929.59,116.4h23.88c6.56,7.57,13.13,15.15,19.87,22.7,.37-2.01,.73-4.02,1.09-6.03,.55-3.38,1.09-6.75,1.82-10.15,.55-3.58,3.83-6.52,7.66-6.52h12.76c-2.19,12.24-4.38,24.47-6.56,36.69-.73,3.58-4.19,6.52-7.66,6.52h-12.21c-6.75-7.55-13.49-15.12-19.87-22.7-1.09,5.41-2,10.79-2.92,16.18-.73,3.58-4.19,6.52-7.66,6.52h-12.76c2-11.67,4.01-23.34,6.2-35.04,.55-3.5-.55-6.57-3.65-8.17Z"/><path d="M1041.1,149.73c1.09,0,2.02-.74,2.19-1.67,.2-1.13,.34-2.3,.55-3.45,.16-.88-.37-1.6-1.28-1.67h-34.46c-3.65,0-6.07-2.94-5.47-6.49,.49-2.92,1.09-5.85,1.64-8.79,.18-1.03,.36-2.06,.55-3.09,.55-3.5-.18-6.36-3.65-8.17h65.09c-.18,1.13-.36,2.24-.73,3.35-.55,3.58-3.83,6.52-7.47,6.52h-32.64c-.91,0-1.58,.76-1.82,1.67-.31,1.18-.52,2.32-.73,3.45-.16,.88,.55,1.6,1.28,1.67h34.64c3.46,0,5.94,2.92,5.29,6.52-.81,4.49-1.56,9.03-2.37,13.5-.65,3.6-4.19,6.52-7.66,6.52h-53.79c.18-1.11,.36-2.22,.55-3.35,.73-3.58,4.19-6.52,7.84-6.52h32.45Z"/><path d="M1070.43,153.08c.18-1.21,.55-2.42,.73-3.66l3.28-18.7c.37-1.93,.73-3.89,1.09-5.85,.55-3.68,0-6.6-3.46-8.48h61.26c-.18,1.13-.36,2.24-.55,3.35-.73,3.58-4.01,6.52-7.66,6.52h-28.99c-.91,0-1.46,.57-1.82,1.31-.18,.1-.16,.23-.18,.36-.34,1.96-.73,3.89-1.09,5.82-.91,4.76-1.66,9.53-2.55,14.3-.02,.13,0,.26,.18,.39,0,.75,.55,1.29,1.46,1.29h35.37c-.37,1.13-.55,2.24-.73,3.35-.55,3.58-3.83,6.52-7.47,6.52h-43.58c-3.46,0-5.83-2.94-5.29-6.52Z"/><path d="M1165.36,146.44h-6.75c-.36,2.21-.73,4.43-1.09,6.65-.73,3.58-4.19,6.52-7.84,6.52h-12.76c2-11.67,4.19-23.34,6.2-35.04,.55-3.5-.36-6.57-3.46-8.17h58.71c3.46,0,5.92,2.95,5.29,6.52-1.01,5.68-2.19,11.33-3.1,17-.73,3.58-4.01,6.52-7.66,6.52h-4.19c3.28,4.4,6.75,8.78,10.39,13.16h-17.68c-1.64-.08-2.74-.52-4.19-2.19-2.55-2.91-4.74-5.85-6.93-8.78-1.09-1.44-2.74-2.19-4.92-2.19Zm16.96-11.54c.39-2.31,.75-4.63,1.28-6.96,.21-.92-.73-1.67-1.64-1.67h-19.69c-.55,3.45-1.28,6.88-1.82,10.31h19.69c.91,0,2.03-.74,2.19-1.67Z"/><path d="M1220.6,159.6h-12.76c2.01-11.67,4.01-23.34,6.2-35.04,.55-3.5-.55-6.57-3.65-8.17h24.43c-.18,.75-.37,1.49-.37,2.24-.91,4.82-1.82,9.63-2.55,14.43-.73,3.3-1.28,6.59-1.82,9.87-.55,3.4-1.09,6.78-1.82,10.15-.55,3.58-4.19,6.52-7.66,6.52Z"/><path d="M1238.44,159.6c2-11.67,4.01-23.34,6.2-35.04,.55-3.5-.55-6.57-3.65-8.17h58.71c3.65,0,5.92,2.95,5.29,6.52-1.01,5.68-2.01,11.33-3.1,17-.55,3.58-4.01,6.52-7.66,6.52h-34.28c-.37,2.21-.73,4.43-1.09,6.65-.73,3.58-4.19,6.52-7.66,6.52h-12.76Zm43.03-23.03c.91,0,2.03-.74,2.19-1.67,.39-2.31,.75-4.63,1.28-6.96,.21-.92-.73-1.67-1.64-1.67h-19.69c-.55,3.45-1.28,6.88-1.82,10.31h19.69Z"/><path d="M1309.76,153.08c.18-1.21,.55-2.42,.73-3.66l3.28-18.7c.37-1.93,.73-3.89,1.09-5.85,.55-3.68,0-6.6-3.46-8.48h61.26c-.18,1.13-.36,2.24-.55,3.35-.73,3.58-4.01,6.52-7.66,6.52h-28.99c-.91,0-1.46,.57-1.82,1.31-.18,.1-.16,.23-.18,.36-.34,1.96-.73,3.89-1.09,5.82-.91,4.76-1.66,9.53-2.55,14.3-.02,.13,0,.26,.18,.39,0,.75,.55,1.29,1.46,1.29h35.37c-.37,1.13-.55,2.24-.73,3.35-.55,3.58-3.83,6.52-7.47,6.52h-43.58c-3.46,0-5.83-2.94-5.29-6.52Z"/><path d="M1389.01,159.6h-12.76c2.01-11.67,4.01-23.34,6.2-35.04,.55-3.5-.55-6.57-3.65-8.17h24.43c-.18,.75-.37,1.49-.37,2.24-.91,4.82-1.82,9.63-2.55,14.43-.73,3.3-1.28,6.59-1.82,9.87-.55,3.4-1.09,6.78-1.82,10.15-.55,3.58-4.19,6.52-7.66,6.52Z"/><path d="M1474.97,122.92c-1.75,10.09-3.72,20.11-5.47,30.17-.62,3.57-4.01,6.52-7.66,6.52h-48.86c-3.65,0-6.14-2.93-5.47-6.52,1.88-10.04,3.72-20.08,5.47-30.17,.62-3.57,4.01-6.52,7.66-6.52h48.86c3.65,0,6.09,2.95,5.47,6.52Zm-45.76,26.82h20.05c.73,0,1.67-.74,1.82-1.67,1.12-6.69,2.37-13.4,3.65-20.12,.18-.93-.55-1.67-1.46-1.67h-19.87c-1.09,0-1.83,.75-2,1.67-1.28,6.72-2.37,13.42-3.65,20.12-.18,.93,.37,1.67,1.46,1.67Z"/><path d="M1481.76,116.4h23.88c6.56,7.57,13.13,15.15,19.87,22.7,.37-2.01,.73-4.02,1.09-6.03,.55-3.38,1.09-6.75,1.82-10.15,.55-3.58,3.83-6.52,7.66-6.52h12.76c-2.19,12.24-4.38,24.47-6.56,36.69-.73,3.58-4.19,6.52-7.66,6.52h-12.21c-6.75-7.55-13.49-15.12-19.87-22.7-1.09,5.41-2,10.79-2.92,16.18-.73,3.58-4.19,6.52-7.66,6.52h-12.76c2-11.67,4.01-23.34,6.2-35.04,.55-3.5-.55-6.57-3.65-8.17Z"/></g><path d="M1438.79,105.95l13.1-13.1,3.1,3.1c2.7,2.7,1.8,7.2-1.7,8.7l-11.9,5.1c-2.4,1-4.5-2-2.6-3.8Z"/></svg>