<?xml version="1.0" encoding="utf-8"?>
<!-- Generator: Adobe Illustrator 26.5.0, SVG Export Plug-In . SVG Version: 6.00 Build 0)  -->
<svg version="1.1" id="Layer_1" xmlns="http://www.w3.org/2000/svg" xmlns:xlink="http://www.w3.org/1999/xlink" x="0px" y="0px"
	 viewBox="0 0 820 430.8" style="enable-background:new 0 0 820 430.8;" xml:space="preserve">
<style type="text/css">
	.st0{fill:#EE3042;}
	.st1{fill:#FFFFFF;}
</style>
<path class="st0" d="M60,0h700c33.1,0,60,26.9,60,60v310.8c0,33.1-26.9,60-60,60H60c-33.1,0-60-26.9-60-60V60C0,26.9,26.9,0,60,0z"
	/>
<g>
	<path class="st1" d="M69.9,68.4c-0.3,1.7-0.6,3.3-0.9,4.9c-0.1,0.5,0.4,0.9,0.8,0.9H81c0.5,0,0.9-0.4,1-0.9
		c0.3-1.6,0.6-3.3,0.9-4.9c0.2-1.2,0.4-2.3,0.6-3.4c0.3-1.9,0.6-3.7,1-5.6c0.3-2,2.3-3.6,4.2-3.6h7.1c-0.6,3.1-1.1,6.1-1.6,9.2
		c-0.2,1.2-0.4,2.3-0.6,3.4c-0.5,2.6-1,5.1-1.4,7.7c-0.3,2-2.1,3.6-4.2,3.6H60.8c-1.9,0-3.3-1.6-2.9-3.6c0.5-2.6,0.9-5.2,1.4-7.7
		c0.2-1.2,0.4-2.3,0.6-3.4c0.2-1.5,0.5-3.1,0.8-4.7c0.3-2-0.4-3.7-1.9-4.5h13.4c-0.6,3.1-1.1,6.1-1.6,9.2
		C70.3,66.1,70.1,67.2,69.9,68.4z"/>
	<path class="st1" d="M99.2,55.7h13.3c3.7,4.2,7.3,8.4,11,12.6c0.2-1.1,0.4-2.2,0.6-3.3c0.3-1.9,0.6-3.8,1-5.6
		c0.3-2,2.1-3.6,4.2-3.6h7.1c-1.2,6.8-2.4,13.6-3.6,20.4c-0.4,2-2.3,3.6-4.2,3.6h-6.8c-3.8-4.2-7.5-8.4-11-12.6c-0.6,3-1.1,6-1.6,9
		c-0.4,2-2.3,3.6-4.2,3.6h-7.1c1.1-6.5,2.2-13,3.4-19.5C101.6,58.3,101,56.6,99.2,55.7L99.2,55.7z"/>
	<path class="st1" d="M145.6,79.7h-7.1c1.1-6.5,2.2-13,3.4-19.5c0.3-2-0.3-3.7-2-4.5h13.6c-0.1,0.4-0.2,0.8-0.2,1.2
		c-0.5,2.7-1,5.3-1.4,8c-0.4,1.8-0.7,3.7-1,5.5c-0.3,1.9-0.6,3.8-1,5.6C149.6,78.1,147.5,79.7,145.6,79.7L145.6,79.7z"/>
	<path class="st1" d="M155.8,76.1c0.1-0.7,0.3-1.3,0.4-2c0.6-3.5,1.2-6.9,1.8-10.4c0.2-1.1,0.4-2.2,0.6-3.2c0.3-2,0-3.7-1.9-4.7h34
		c-0.1,0.6-0.2,1.2-0.3,1.9c-0.4,2-2.2,3.6-4.2,3.6h-16.1c-0.5,0-0.8,0.3-1,0.7c-0.1,0.1-0.1,0.1-0.1,0.2c-0.2,1.1-0.4,2.2-0.6,3.2
		c-0.5,2.7-0.9,5.3-1.4,7.9c0,0.1,0,0.1,0.1,0.2c0,0.4,0.3,0.7,0.8,0.7h19.6c-0.2,0.6-0.3,1.2-0.4,1.9c-0.3,2-2.1,3.6-4.1,3.6h-24.2
		C156.9,79.7,155.5,78.1,155.8,76.1L155.8,76.1z"/>
	<path class="st1" d="M193.5,74.2c0.8-4.7,1.7-9.3,2.5-14c0.3-2-0.3-3.7-2-4.5h34.2c-0.1,0.6-0.2,1.2-0.4,1.9
		c-0.3,2-2.3,3.6-4.4,3.6h-16.9c0,0.2,0,0.4-0.1,0.6c-0.1,1-0.3,2-0.5,3V65h17.5c-0.1,0.6-0.2,1.2-0.4,1.9c-0.3,2-2.1,3.6-4.2,3.6
		h-13.9v0.3c-0.1,0.6-0.2,1.1-0.3,1.7s-0.2,1.2-0.3,1.8v0.1h20.6c-0.1,0.6-0.2,1.2-0.3,1.9c-0.4,2-2.3,3.6-4.4,3.6h-24
		c-2,0-3.4-1.6-3-3.6C193.3,75.5,193.4,74.9,193.5,74.2L193.5,74.2z"/>
	<path class="st1" d="M242.2,72.4c-0.1,0.6-0.2,1.2-0.3,1.8c-0.2,0.6-0.3,1.3-0.4,1.9c-0.1,0.7-0.4,1.3-0.9,1.9
		c-0.8,1-2,1.7-3.1,1.7h-7.3c1.1-6.5,2.2-13,3.4-19.5c0.3-2-0.3-3.7-2-4.5h34.2c-0.1,0.6-0.2,1.2-0.4,1.9c-0.3,2-2.3,3.6-4.4,3.6
		h-16.9c0,0.2,0,0.4-0.1,0.6c-0.1,1-0.3,2-0.5,2.9V65H261c-0.1,0.6-0.2,1.2-0.4,1.9c-0.3,2-2.2,3.6-4.2,3.6h-13.9v0.3
		C242.4,71.3,242.3,71.9,242.2,72.4L242.2,72.4z"/>
	<path class="st1" d="M289.1,79.7c1.1-6.5,2.3-13,3.4-19.5c0.3-2-0.3-3.7-1.8-4.5h13.4c-0.6,3.1-1.1,6.2-1.6,9.3h12
		c0.3-1.9,0.6-3.8,1-5.6c0.3-2,2.2-3.6,4.1-3.6h7.2c-1.2,6.8-2.4,13.6-3.6,20.4c-0.3,2-2.2,3.6-4.2,3.6h-7.1
		c0.5-3.1,1.1-6.2,1.6-9.3h-12c-0.3,1.9-0.6,3.8-1,5.6c-0.3,2-2.1,3.6-4.2,3.6C296.2,79.7,289.1,79.7,289.1,79.7z"/>
	<path class="st1" d="M329.5,74.2c0.8-4.7,1.7-9.3,2.5-14c0.3-2-0.3-3.7-2-4.5h34.2c-0.1,0.6-0.2,1.2-0.4,1.9
		c-0.3,2-2.3,3.6-4.4,3.6h-16.9c0,0.2,0,0.4-0.1,0.6c-0.1,1-0.3,2-0.5,3V65h17.5c-0.1,0.6-0.2,1.2-0.4,1.9c-0.3,2-2.1,3.6-4.2,3.6
		h-13.9v0.3c-0.1,0.6-0.2,1.1-0.3,1.7c-0.1,0.6-0.2,1.2-0.3,1.8v0.1h20.6c-0.1,0.6-0.2,1.2-0.3,1.9c-0.4,2-2.3,3.6-4.4,3.6h-24
		c-2,0-3.4-1.6-3-3.6C329.3,75.5,329.4,74.9,329.5,74.2L329.5,74.2z"/>
	<path class="st1" d="M382,72.4h-3.8c-0.2,1.2-0.4,2.5-0.6,3.7c-0.4,2-2.3,3.6-4.4,3.6h-7.1c1.1-6.5,2.3-13,3.4-19.5
		c0.3-2-0.2-3.7-1.9-4.5h32.6c1.9,0,3.3,1.6,2.9,3.6c-0.6,3.2-1.2,6.3-1.7,9.4c-0.4,2-2.2,3.6-4.2,3.6H395c1.8,2.4,3.8,4.9,5.8,7.3
		H391c-0.9,0-1.5-0.3-2.3-1.2c-1.4-1.6-2.6-3.2-3.9-4.9C384.1,72.8,383.2,72.4,382,72.4L382,72.4z M391.4,66
		c0.2-1.3,0.4-2.6,0.7-3.9c0.1-0.5-0.4-0.9-0.9-0.9h-10.9c-0.3,1.9-0.7,3.8-1,5.7h10.9C390.7,66.9,391.3,66.5,391.4,66L391.4,66z"/>
	<path class="st1" d="M443.4,59.4c-1,5.6-2.1,11.2-3,16.8c-0.3,2-2.2,3.6-4.2,3.6H409c-2,0-3.4-1.6-3-3.6c1-5.6,2.1-11.2,3-16.8
		c0.3-2,2.2-3.6,4.2-3.6h27.1C442.4,55.7,443.8,57.4,443.4,59.4L443.4,59.4z M418,74.3h11.1c0.4,0,0.9-0.4,1-0.9
		c0.6-3.7,1.3-7.4,2-11.2c0.1-0.5-0.3-0.9-0.8-0.9h-11c-0.6,0-1,0.4-1.1,0.9c-0.7,3.7-1.3,7.5-2,11.2
		C417.1,73.8,417.4,74.3,418,74.3L418,74.3z"/>
	<path class="st1" d="M446.5,74.2c0.8-4.7,1.7-9.3,2.5-14c0.3-2-0.3-3.7-2-4.5h34.2c-0.1,0.6-0.2,1.2-0.4,1.9
		c-0.3,2-2.3,3.6-4.4,3.6h-16.9c0,0.2,0,0.4-0.1,0.6c-0.1,1-0.3,2-0.5,3V65h17.5c-0.1,0.6-0.2,1.2-0.4,1.9c-0.3,2-2.1,3.6-4.2,3.6
		h-13.9v0.3c-0.1,0.6-0.2,1.1-0.3,1.7c-0.1,0.6-0.2,1.2-0.3,1.8v0.1h20.6c-0.1,0.6-0.2,1.2-0.3,1.9c-0.4,2-2.3,3.6-4.4,3.6h-24
		c-2,0-3.4-1.6-3-3.6C446.3,75.5,446.4,74.9,446.5,74.2L446.5,74.2z"/>
	<path class="st1" d="M505.9,74.2c0.6,0,1.1-0.4,1.2-0.9c0.1-0.6,0.2-1.3,0.3-1.9c0.1-0.5-0.2-0.9-0.7-0.9h-19.1c-2,0-3.4-1.6-3-3.6
		c0.3-1.6,0.6-3.2,0.9-4.9c0.1-0.6,0.2-1.2,0.3-1.7c0.3-2-0.1-3.5-2-4.5h36.1c-0.1,0.6-0.2,1.2-0.4,1.9c-0.3,2-2.1,3.6-4.2,3.6
		h-18.1c-0.5,0-0.9,0.4-1,0.9c-0.2,0.7-0.3,1.3-0.4,1.9c-0.1,0.5,0.3,0.9,0.7,0.9h19.2c1.9,0,3.3,1.6,2.9,3.6
		c-0.5,2.5-0.9,5-1.3,7.5c-0.4,2-2.3,3.6-4.2,3.6h-29.9c0.1-0.6,0.2-1.2,0.3-1.9c0.4-2,2.3-3.6,4.4-3.6L505.9,74.2L505.9,74.2z"/>
	<path class="st1" d="M559,72.4h-3.8c-0.2,1.2-0.4,2.5-0.6,3.7c-0.4,2-2.3,3.6-4.3,3.6h-7.1c1.1-6.5,2.3-13,3.4-19.5
		c0.3-2-0.2-3.7-1.9-4.5h32.6c1.9,0,3.3,1.6,2.9,3.6c-0.6,3.2-1.2,6.3-1.7,9.4c-0.4,2-2.2,3.6-4.2,3.6H572c1.8,2.4,3.8,4.9,5.8,7.3
		H568c-0.9,0-1.5-0.3-2.3-1.2c-1.4-1.6-2.6-3.2-3.8-4.9C561.1,72.8,560.2,72.4,559,72.4L559,72.4z M568.4,66
		c0.2-1.3,0.4-2.6,0.7-3.9c0.1-0.5-0.4-0.9-0.9-0.9h-10.9c-0.3,1.9-0.7,3.8-1,5.7h10.9C567.7,66.9,568.3,66.5,568.4,66L568.4,66z"/>
	<path class="st1" d="M595,68.4c-0.3,1.7-0.6,3.3-0.9,4.9c-0.1,0.5,0.4,0.9,0.8,0.9H606c0.5,0,0.9-0.4,1-0.9
		c0.3-1.6,0.6-3.3,0.9-4.9c0.2-1.2,0.4-2.3,0.6-3.4c0.3-1.9,0.6-3.7,1-5.6c0.3-2,2.3-3.6,4.2-3.6h7.1c-0.6,3.1-1.1,6.1-1.6,9.2
		c-0.2,1.2-0.4,2.3-0.6,3.4c-0.5,2.6-1,5.1-1.4,7.7c-0.3,2-2.1,3.6-4.2,3.6h-27.1c-1.9,0-3.3-1.6-2.9-3.6c0.5-2.6,0.9-5.2,1.4-7.7
		c0.2-1.2,0.4-2.3,0.6-3.4c0.2-1.5,0.5-3.1,0.8-4.7c0.3-2-0.4-3.7-1.9-4.5h13.4c-0.6,3.1-1.1,6.1-1.6,9.2
		C595.4,66.1,595.2,67.2,595,68.4L595,68.4z"/>
	<path class="st1" d="M624.3,55.7h13.3c3.7,4.2,7.3,8.4,11,12.6c0.2-1.1,0.4-2.2,0.6-3.3c0.3-1.9,0.6-3.8,1-5.6
		c0.3-2,2.1-3.6,4.2-3.6h7.1c-1.2,6.8-2.4,13.6-3.7,20.4c-0.4,2-2.3,3.6-4.2,3.6h-6.8c-3.8-4.2-7.5-8.4-11-12.6c-0.6,3-1.1,6-1.6,9
		c-0.4,2-2.3,3.6-4.2,3.6h-7.1c1.1-6.5,2.2-13,3.4-19.5C626.6,58.3,626,56.6,624.3,55.7L624.3,55.7z"/>
	<path class="st1" d="M665,71.4h10.8l-0.5,2.8c-0.1,0.6-0.2,1.2-0.4,1.9c-0.3,2-2.3,3.6-4.2,3.6h-7.1c0.3-1.8,0.6-3.7,0.9-5.5
		L665,71.4L665,71.4z M667.7,55.8h10.8l-0.5,2.8c-0.1,0.6-0.2,1.2-0.4,1.9c-0.3,2-2.3,3.6-4.2,3.6h-7.1c0.3-1.8,0.6-3.7,0.9-5.5
		L667.7,55.8L667.7,55.8z"/>
	<path class="st1" d="M57.5,103.7h14.2c1.1,3.9,2.4,7.7,3.7,11.6c2.1-3.1,4.2-6.2,6.4-9.3c0.9-1.4,2.5-2.3,4.1-2.3h6.8
		c0,0.3,0.1,0.7,0.3,1c1.1,3.5,2.2,7,3.3,10.6c2.1-3.1,4.2-6.2,6.4-9.3c1-1.4,2.5-2.3,4.2-2.3h8.9c-5,7.2-9.9,14.5-15,21.7
		c-0.8,1.4-2.3,2.3-3.9,2.3H90c-1.4-4.2-2.8-8.4-4.1-12.7c-2.4,3.5-4.9,6.9-7.2,10.4c-0.9,1.4-2.4,2.3-4.1,2.3h-6.7
		c-2.1-6.1-4.1-12.2-6-18.4C61.1,106.4,60.4,104.5,57.5,103.7L57.5,103.7z"/>
	<path class="st1" d="M155.5,107.4c-1,5.6-2.1,11.2-3,16.8c-0.3,2-2.2,3.6-4.2,3.6h-27.1c-2,0-3.4-1.6-3-3.6c1-5.6,2.1-11.2,3-16.8
		c0.3-2,2.2-3.6,4.2-3.6h27.1C154.5,103.7,155.8,105.4,155.5,107.4z M130.1,122.3h11.1c0.4,0,0.9-0.4,1-0.9c0.6-3.7,1.3-7.4,2-11.2
		c0.1-0.5-0.3-0.9-0.8-0.9h-11c-0.6,0-1,0.4-1.1,0.9c-0.7,3.7-1.3,7.5-2,11.2C129.1,121.8,129.4,122.3,130.1,122.3L130.1,122.3z"/>
	<path class="st1" d="M159.2,103.7h13.3c3.6,4.2,7.3,8.4,11,12.6c0.2-1.1,0.4-2.2,0.6-3.3c0.3-1.9,0.6-3.8,1-5.6
		c0.3-2,2.1-3.6,4.2-3.6h7.1c-1.2,6.8-2.4,13.6-3.6,20.4c-0.4,2-2.3,3.6-4.2,3.6h-6.8c-3.8-4.2-7.5-8.4-11-12.6c-0.6,3-1.1,6-1.6,9
		c-0.4,2-2.3,3.6-4.2,3.6h-7.1c1.1-6.5,2.2-13,3.4-19.5C161.6,106.3,161,104.6,159.2,103.7L159.2,103.7z"/>
	<path class="st1" d="M202.8,103.7h29.9c0.9,0,1.7,0.4,2.3,1.1c0.5,0.6,0.8,1.5,0.6,2.5c-0.9,5.6-2.1,11.2-3,16.8
		c-0.3,2-2.2,3.6-4.1,3.6h-29.9c0.3-1.8,0.6-3.7,1-5.5c0.8-4.7,1.6-9.3,2.4-14c0.3-1.9-0.3-3.7-1.9-4.5
		C200.1,103.7,202.8,103.7,202.8,103.7z M224.2,110.1c0.1-0.5-0.2-0.9-0.7-0.9h-11c-0.7,4.3-1.5,8.7-2.2,13h11
		c0.4,0,0.8-0.4,0.9-0.9c0.5-2.7,0.9-5.3,1.4-7.9C223.8,112.3,224,111.2,224.2,110.1L224.2,110.1z"/>
	<path class="st1" d="M238.5,122.2c0.8-4.7,1.7-9.3,2.5-14c0.3-1.9-0.3-3.7-2-4.5h34.2c-0.1,0.6-0.2,1.2-0.4,1.9
		c-0.3,2-2.3,3.6-4.4,3.6h-16.9c0,0.2,0,0.4-0.1,0.6c-0.1,1-0.3,2-0.5,2.9v0.3h17.5c-0.1,0.6-0.2,1.2-0.4,1.9
		c-0.3,2-2.1,3.6-4.2,3.6h-13.9v0.3c-0.1,0.6-0.2,1.1-0.3,1.7s-0.2,1.2-0.3,1.8v0.1h20.6c-0.1,0.6-0.2,1.2-0.3,1.9
		c-0.4,2-2.3,3.6-4.4,3.6h-24c-2,0-3.4-1.6-3-3.6C238.3,123.5,238.4,122.9,238.5,122.2L238.5,122.2z"/>
	<path class="st1" d="M291,120.4h-3.8c-0.2,1.2-0.4,2.5-0.6,3.7c-0.4,2-2.3,3.6-4.4,3.6h-7.1c1.1-6.5,2.3-13,3.4-19.5
		c0.3-1.9-0.2-3.7-1.9-4.5h32.6c1.9,0,3.3,1.6,2.9,3.6c-0.6,3.2-1.2,6.3-1.7,9.4c-0.4,2-2.2,3.6-4.2,3.6H304
		c1.8,2.4,3.8,4.9,5.8,7.3H300c-0.9,0-1.5-0.3-2.3-1.2c-1.4-1.6-2.6-3.2-3.9-4.9C293.1,120.8,292.2,120.4,291,120.4L291,120.4z
		 M300.4,114c0.2-1.3,0.4-2.6,0.7-3.9c0.1-0.5-0.4-0.9-0.9-0.9h-10.9c-0.3,1.9-0.7,3.8-1,5.7h10.9
		C299.7,114.9,300.3,114.5,300.4,114L300.4,114z"/>
	<path class="st1" d="M335.8,103.7H350c1.1,3.9,2.4,7.7,3.6,11.6c2.1-3.1,4.1-6.2,6.4-9.3c0.9-1.4,2.5-2.3,4-2.3h6.8
		c0,0.3,0.1,0.7,0.3,1c1.1,3.5,2.2,7,3.3,10.6c2.1-3.1,4.1-6.2,6.4-9.3c1-1.4,2.5-2.3,4.1-2.3h8.9c-5,7.2-9.9,14.5-15,21.7
		c-0.8,1.4-2.3,2.3-4,2.3h-6.7c-1.4-4.2-2.8-8.4-4-12.7c-2.4,3.5-4.9,6.9-7.2,10.4c-0.9,1.4-2.4,2.3-4,2.3h-6.7
		c-2.1-6.1-4-12.2-6-18.4C339.4,106.4,338.7,104.5,335.8,103.7L335.8,103.7z"/>
	<path class="st1" d="M433.8,107.4c-1,5.6-2.1,11.2-3,16.8c-0.3,2-2.2,3.6-4.2,3.6h-27.1c-2,0-3.4-1.6-3-3.6c1-5.6,2.1-11.2,3-16.8
		c0.3-2,2.2-3.6,4.2-3.6h27.1C432.8,103.7,434.1,105.4,433.8,107.4z M408.4,122.3h11.1c0.4,0,0.9-0.4,1-0.9c0.6-3.7,1.3-7.4,2-11.2
		c0.1-0.5-0.3-0.9-0.8-0.9h-11c-0.6,0-1,0.4-1.1,0.9c-0.7,3.7-1.3,7.5-2,11.2C407.5,121.8,407.8,122.3,408.4,122.3L408.4,122.3z"/>
	<path class="st1" d="M481.6,103.7h0.2c-1.2,6.8-2.4,13.6-3.6,20.4c-0.3,2-2.1,3.6-4.1,3.6H467c0.4-2.5,0.8-5,1.3-7.5
		c-2.1,2.5-4.1,5-6.2,7.5h-10.4c-1.3-2.5-2.4-5-3.5-7.5c-0.2,1.3-0.4,2.6-0.7,3.9c-0.3,2-2.2,3.6-4.1,3.6h-7.1
		c1.1-6.7,2.3-13.3,3.5-20c0.3-1.8-0.4-3.2-1.9-4h13c2.4,5.4,5,10.8,7.5,16.1c3.9-4.7,7.7-9.5,11.6-14.2c1-1.2,2.4-1.9,3.8-1.9
		H481.6L481.6,103.7z"/>
	<path class="st1" d="M524.3,128.8h-12.2c-0.4-0.8-0.6-1.5-0.9-2.3h-13.6c-0.6,0.8-1.3,1.5-1.9,2.3h-12c6.1-7.6,12.4-15.2,18.6-22.8
		c0.9-1.1,0.1-1.6-1-2.2h9.1c1.4,0,2.5,0.7,3.1,1.9C517.2,113.4,520.8,121.1,524.3,128.8L524.3,128.8z M508.8,121
		c-0.8-1.7-1.6-3.4-2.4-5.1c-1.3,1.7-2.7,3.4-4.1,5.1H508.8z"/>
	<path class="st1" d="M527.8,103.7H541c3.7,4.2,7.3,8.4,11,12.6c0.2-1.1,0.4-2.2,0.6-3.3c0.3-1.9,0.6-3.8,1-5.6
		c0.3-2,2.1-3.6,4.2-3.6h7.1c-1.2,6.8-2.4,13.6-3.7,20.4c-0.4,2-2.3,3.6-4.2,3.6h-6.8c-3.8-4.2-7.5-8.4-11-12.6c-0.6,3-1.1,6-1.6,9
		c-0.4,2-2.3,3.6-4.2,3.6h-7.1c1.1-6.5,2.2-13,3.4-19.5C530.1,106.3,529.5,104.6,527.8,103.7L527.8,103.7z"/>
</g>
<g>
	<path class="st1" d="M58.8,176.5l1.2-2.7c1.5,1.2,3.8,2.1,6.1,2.1c2.9,0,4.1-1,4.1-2.4c0-4-11.1-1.4-11.1-8.3c0-3,2.4-5.5,7.5-5.5
		c2.2,0,4.6,0.6,6.2,1.6l-1.1,2.7c-1.7-1-3.5-1.5-5.1-1.5c-2.9,0-4.1,1.1-4.1,2.5c0,4,11,1.4,11,8.2c0,3-2.4,5.5-7.5,5.5
		C63.2,178.7,60.4,177.9,58.8,176.5z"/>
	<path class="st1" d="M88.7,170.2v8.3h-3.1v-1.7c-0.8,1.3-2.4,1.9-4.5,1.9c-3.3,0-5.3-1.8-5.3-4.3c0-2.5,1.6-4.2,5.9-4.2h3.7V170
		c0-1.9-1.2-3.1-3.5-3.1c-1.6,0-3.3,0.5-4.3,1.4l-1.3-2.4c1.6-1.2,3.7-1.8,6-1.8C86.3,164.1,88.7,166,88.7,170.2L88.7,170.2z
		 M85.3,174v-1.6h-3.4c-2.3,0-2.9,0.8-2.9,1.9c0,1.2,1,2,2.7,2S84.7,175.5,85.3,174z"/>
	<path class="st1" d="M106.9,170.3v8.1h-3.3v-7.7c0-2.5-1.3-3.8-3.4-3.8c-2.4,0-4,1.4-4,4.3v7.2h-3.3v-14.2h3.2v1.8
		c1.1-1.3,2.8-2,4.9-2C104.4,164.1,106.9,166,106.9,170.3L106.9,170.3z"/>
	<path class="st1" d="M119.7,177.7c-0.8,0.7-2,1-3.2,1c-3.1,0-4.9-1.6-4.9-4.8v-6.8h-2.4v-2.7h2.4v-3.3h3.3v3.3h3.8v2.7H115v6.7
		c0,1.4,0.7,2.1,2,2.1c0.7,0,1.3-0.1,1.8-0.6L119.7,177.7L119.7,177.7z"/>
	<path class="st1" d="M122,159.9c0-1.1,0.9-2,2.1-2s2.1,0.8,2.1,1.9c0,1.2-0.9,2.1-2.1,2.1S122,161.1,122,159.9z M122.4,164.3h3.3
		v14.2h-3.3V164.3z"/>
	<path class="st1" d="M142,170.2v8.3h-3.1v-1.7c-0.8,1.3-2.4,1.9-4.5,1.9c-3.3,0-5.3-1.8-5.3-4.3c0-2.5,1.6-4.2,5.9-4.2h3.7V170
		c0-1.9-1.2-3.1-3.5-3.1c-1.6,0-3.3,0.5-4.3,1.4l-1.3-2.4c1.6-1.2,3.7-1.8,6-1.8C139.6,164.1,142,166,142,170.2L142,170.2z
		 M138.7,174v-1.6h-3.4c-2.3,0-2.9,0.8-2.9,1.9c0,1.2,1,2,2.7,2S138.1,175.5,138.7,174z"/>
	<path class="st1" d="M160.5,164.3v12c0,5.2-2.7,7.5-7.7,7.5c-2.7,0-5.3-0.7-6.9-2l1.5-2.5c1.3,1,3.3,1.7,5.2,1.7
		c3.1,0,4.5-1.4,4.5-4.3v-0.7c-1.2,1.3-2.9,1.9-4.7,1.9c-4.1,0-7.2-2.7-7.2-6.9s3.1-6.8,7.2-6.8c2,0,3.8,0.7,5,2.1v-1.9L160.5,164.3
		L160.5,164.3L160.5,164.3z M157.2,170.9c0-2.4-1.8-4-4.3-4c-2.5,0-4.4,1.6-4.4,4s1.8,4.1,4.4,4.1S157.2,173.3,157.2,170.9z"/>
	<path class="st1" d="M163.7,171.3c0-4.3,3.2-7.2,7.5-7.2s7.6,3,7.6,7.2s-3.2,7.3-7.6,7.3S163.7,175.6,163.7,171.3z M175.5,171.3
		c0-2.7-1.8-4.4-4.2-4.4s-4.2,1.7-4.2,4.4c0,2.7,1.8,4.4,4.2,4.4S175.5,174.1,175.5,171.3z"/>
	<path class="st1" d="M180.9,166.3c0-1.3,1-2.2,2.1-2.2c1.2,0,2.1,0.9,2.1,2.2c0,1.3-1,2.2-2.1,2.2
		C181.8,168.5,180.9,167.6,180.9,166.3z M180.9,176.4c0-1.3,1-2.2,2.1-2.2c1.2,0,2.1,0.9,2.1,2.2c0,1.3-1,2.2-2.1,2.2
		C181.8,178.7,180.9,177.7,180.9,176.4z"/>
	<path class="st1" d="M201.3,159.8v18.6h-3.5v-15.7h-3.9v-2.9H201.3L201.3,159.8z"/>
	<path class="st1" d="M211.4,159.8v18.6h-3.5v-15.7H204v-2.9H211.4L211.4,159.8z"/>
	<path class="st1" d="M237.3,158.7v19.7h-3.2v-1.8c-1.1,1.3-2.7,2-4.7,2c-4.1,0-7.2-2.9-7.2-7.3s3-7.2,7.2-7.2
		c1.8,0,3.5,0.6,4.6,1.9v-7.2H237.3L237.3,158.7z M234.1,171.3c0-2.7-1.8-4.4-4.2-4.4c-2.4,0-4.2,1.7-4.2,4.4c0,2.7,1.8,4.4,4.2,4.4
		C232.2,175.8,234.1,174.1,234.1,171.3z"/>
	<path class="st1" d="M255,172.5h-11.2c0.4,2.1,2.1,3.4,4.6,3.4c1.6,0,2.9-0.5,3.8-1.6l1.8,2.1c-1.3,1.6-3.3,2.3-5.7,2.3
		c-4.7,0-7.8-3-7.8-7.3c0-4.3,3.1-7.2,7.3-7.2c4.2,0,7.2,2.9,7.2,7.3C255.1,171.7,255.1,172.1,255,172.5L255,172.5z M243.8,170.2
		h8.1c-0.3-2.1-1.8-3.5-4-3.5C245.8,166.8,244.1,168.2,243.8,170.2z"/>
	<path class="st1" d="M279.5,158.7v19.7h-3.2v-1.8c-1.1,1.3-2.7,2-4.7,2c-4.1,0-7.2-2.9-7.2-7.3s3-7.2,7.2-7.2
		c1.8,0,3.5,0.6,4.6,1.9v-7.2H279.5L279.5,158.7z M276.3,171.3c0-2.7-1.8-4.4-4.2-4.4s-4.2,1.7-4.2,4.4c0,2.7,1.8,4.4,4.2,4.4
		S276.3,174.1,276.3,171.3z"/>
	<path class="st1" d="M283.4,159.9c0-1.1,0.9-2,2.1-2c1.3,0,2.1,0.8,2.1,1.9c0,1.2-0.9,2.1-2.1,2.1
		C284.3,161.9,283.4,161.1,283.4,159.9z M283.9,164.3h3.3v14.2h-3.3V164.3z"/>
	<path class="st1" d="M290.4,171.3c0-4.3,3.2-7.2,7.7-7.2c2.7,0,5,1.2,6.1,3.3l-2.6,1.5c-0.8-1.3-2.1-2-3.5-2
		c-2.4,0-4.3,1.7-4.3,4.4c0,2.7,1.8,4.4,4.3,4.4c1.4,0,2.7-0.6,3.5-2l2.6,1.5c-1.1,2.1-3.3,3.3-6.1,3.3
		C293.6,178.7,290.4,175.6,290.4,171.3L290.4,171.3z"/>
	<path class="st1" d="M306.6,159.9c0-1.1,0.9-2,2.1-2c1.3,0,2.1,0.8,2.1,1.9c0,1.2-0.9,2.1-2.1,2.1
		C307.5,161.9,306.6,161.1,306.6,159.9z M307,164.3h3.3v14.2H307V164.3z"/>
	<path class="st1" d="M328,172.5h-11.2c0.4,2.1,2.1,3.4,4.6,3.4c1.6,0,2.9-0.5,3.8-1.6l1.8,2.1c-1.3,1.6-3.3,2.3-5.7,2.3
		c-4.7,0-7.8-3-7.8-7.3c0-4.3,3.1-7.2,7.3-7.2c4.2,0,7.2,2.9,7.2,7.3C328.1,171.7,328.1,172.1,328,172.5L328,172.5z M316.8,170.2
		h8.1c-0.3-2.1-1.8-3.5-4-3.5S317.1,168.2,316.8,170.2z"/>
	<path class="st1" d="M355,170.3v8.1h-3.3v-7.7c0-2.5-1.2-3.8-3.2-3.8c-2.2,0-3.7,1.4-3.7,4.3v7.2h-3.3v-7.7c0-2.5-1.2-3.8-3.2-3.8
		c-2.2,0-3.7,1.4-3.7,4.3v7.2h-3.3v-14.2h3.2v1.8c1-1.3,2.7-2,4.7-2c2.1,0,3.8,0.7,4.8,2.4c1.1-1.5,3-2.4,5.3-2.4
		C352.6,164.1,355,166,355,170.3L355,170.3z"/>
	<path class="st1" d="M374.3,171.3c0,4.4-3,7.3-7.2,7.3c-1.9,0-3.6-0.7-4.7-2v1.8h-3.2v-19.8h3.3v7.2c1.1-1.3,2.7-1.9,4.6-1.9
		C371.3,164.1,374.3,166.9,374.3,171.3L374.3,171.3z M371,171.3c0-2.7-1.8-4.4-4.2-4.4c-2.4,0-4.2,1.7-4.2,4.4
		c0,2.7,1.8,4.4,4.2,4.4C369.2,175.8,371,174.1,371,171.3z"/>
	<path class="st1" d="M385.7,164.1v3.2c-0.3-0.1-0.5-0.1-0.7-0.1c-2.5,0-4.1,1.5-4.1,4.4v6.9h-3.3v-14.2h3.2v2.1
		C381.6,164.8,383.3,164.1,385.7,164.1z"/>
	<path class="st1" d="M401.7,172.5h-11.2c0.4,2.1,2.1,3.4,4.6,3.4c1.6,0,2.8-0.5,3.8-1.6l1.8,2.1c-1.3,1.6-3.3,2.3-5.7,2.3
		c-4.7,0-7.8-3-7.8-7.3c0-4.3,3.1-7.2,7.3-7.2c4.2,0,7.2,2.9,7.2,7.3C401.7,171.7,401.7,172.1,401.7,172.5L401.7,172.5z
		 M390.6,170.2h8.1c-0.3-2.1-1.8-3.5-4-3.5S390.9,168.2,390.6,170.2L390.6,170.2z"/>
	<path class="st1" d="M60.4,195.3h3.5V211h9.8v3H60.4V195.3L60.4,195.3z"/>
	<path class="st1" d="M89.6,199.7v14.2h-3.2v-1.8c-1,1.3-2.7,2-4.6,2c-3.6,0-6.1-2-6.1-6.3v-8.1H79v7.7c0,2.6,1.3,3.8,3.3,3.8
		c2.3,0,3.8-1.4,3.8-4.3v-7.2H89.6L89.6,199.7z"/>
	<path class="st1" d="M108,199.7v12c0,5.2-2.7,7.5-7.7,7.5c-2.7,0-5.3-0.7-6.9-2l1.5-2.5c1.3,1,3.3,1.7,5.2,1.7
		c3.1,0,4.5-1.4,4.5-4.3v-0.7c-1.2,1.3-2.8,1.9-4.7,1.9c-4.1,0-7.2-2.7-7.2-6.9c0-4.1,3.1-6.8,7.2-6.8c2,0,3.8,0.7,5,2.1v-1.9
		L108,199.7C108,199.8,108,199.7,108,199.7z M104.8,206.4c0-2.4-1.8-4-4.3-4s-4.4,1.6-4.4,4c0,2.4,1.8,4.1,4.4,4.1
		S104.8,208.8,104.8,206.4z"/>
	<path class="st1" d="M124.3,205.6v8.3h-3.1v-1.7c-0.8,1.3-2.4,1.9-4.5,1.9c-3.3,0-5.3-1.8-5.3-4.3c0-2.5,1.6-4.2,5.9-4.2h3.7v-0.2
		c0-1.9-1.2-3.1-3.5-3.1c-1.6,0-3.3,0.5-4.3,1.4l-1.3-2.4c1.6-1.2,3.7-1.8,6-1.8C121.9,199.6,124.3,201.5,124.3,205.6L124.3,205.6z
		 M120.9,209.5v-1.6h-3.4c-2.3,0-2.9,0.8-2.9,1.9c0,1.2,1,2,2.7,2S120.4,211,120.9,209.5z"/>
	<path class="st1" d="M136.8,199.6v3.2c-0.3-0.1-0.5-0.1-0.7-0.1c-2.5,0-4.1,1.5-4.1,4.4v6.9h-3.3v-14.2h3.2v2.1
		C132.7,200.3,134.4,199.6,136.8,199.6z"/>
	<path class="st1" d="M138.8,201.8c0-1.3,1-2.2,2.1-2.2c1.2,0,2.1,0.9,2.1,2.2c0,1.3-1,2.2-2.1,2.2C139.7,204,138.8,203,138.8,201.8
		z M138.8,211.9c0-1.3,1-2.2,2.1-2.2c1.2,0,2.1,0.9,2.1,2.2c0,1.3-1,2.2-2.1,2.2C139.7,214.1,138.8,213.2,138.8,211.9z"/>
	<path class="st1" d="M152.7,204.6c0-5.5,4.3-9.6,10-9.6c3,0,5.6,1.1,7.4,3.1l-2.2,2.1c-1.3-1.5-3-2.1-5-2.1c-3.8,0-6.7,2.7-6.7,6.6
		c0,3.8,2.8,6.6,6.7,6.6c1.9,0,3.6-0.7,5-2.2l2.2,2.1c-1.7,2-4.4,3.1-7.4,3.1C156.9,214.2,152.7,210.1,152.7,204.6L152.7,204.6z"/>
	<path class="st1" d="M172.6,195.4c0-1.1,0.9-2,2.1-2c1.3,0,2.1,0.8,2.1,1.9c0,1.2-0.9,2.1-2.1,2.1
		C173.5,197.4,172.6,196.5,172.6,195.4z M173,199.7h3.3v14.2H173V199.7z"/>
	<path class="st1" d="M194.5,199.7v14.2h-3.2v-1.8c-1,1.3-2.7,2-4.6,2c-3.6,0-6.1-2-6.1-6.3v-8.1h3.3v7.7c0,2.6,1.3,3.8,3.3,3.8
		c2.3,0,3.8-1.4,3.8-4.3v-7.2H194.5L194.5,199.7z"/>
	<path class="st1" d="M212.7,194.2v19.7h-3.2v-1.8c-1.1,1.3-2.7,2-4.7,2c-4.1,0-7.2-2.9-7.2-7.3s3-7.2,7.2-7.2
		c1.8,0,3.5,0.6,4.6,1.9v-7.2H212.7L212.7,194.2z M209.5,206.8c0-2.7-1.8-4.4-4.2-4.4c-2.4,0-4.2,1.7-4.2,4.4s1.8,4.4,4.2,4.4
		C207.6,211.3,209.5,209.6,209.5,206.8z"/>
	<path class="st1" d="M229,205.6v8.3h-3.1v-1.7c-0.8,1.3-2.4,1.9-4.4,1.9c-3.3,0-5.3-1.8-5.3-4.3c0-2.5,1.6-4.2,5.9-4.2h3.7v-0.2
		c0-1.9-1.2-3.1-3.5-3.1c-1.6,0-3.3,0.5-4.3,1.4l-1.3-2.4c1.5-1.2,3.7-1.8,6-1.8C226.6,199.6,229,201.5,229,205.6L229,205.6z
		 M225.7,209.5v-1.6h-3.4c-2.3,0-2.9,0.8-2.9,1.9c0,1.2,1,2,2.7,2C223.8,211.8,225.1,211,225.7,209.5L225.7,209.5z"/>
	<path class="st1" d="M247.3,194.2v19.7h-3.2v-1.8c-1.1,1.3-2.7,2-4.7,2c-4.1,0-7.2-2.9-7.2-7.3s3-7.2,7.2-7.2
		c1.8,0,3.5,0.6,4.6,1.9v-7.2H247.3L247.3,194.2z M244.1,206.8c0-2.7-1.8-4.4-4.2-4.4c-2.4,0-4.2,1.7-4.2,4.4s1.8,4.4,4.2,4.4
		C242.2,211.3,244.1,209.6,244.1,206.8z"/>
	<path class="st1" d="M273.3,211v2.9h-14v-18.6h13.6v2.9h-10.1v4.9h8.9v2.9h-9v5.1L273.3,211L273.3,211z"/>
	<path class="st1" d="M300.6,205.8v8.1h-3.3v-7.7c0-2.5-1.2-3.8-3.2-3.8c-2.2,0-3.7,1.4-3.7,4.3v7.2h-3.3v-7.7
		c0-2.5-1.2-3.8-3.2-3.8c-2.2,0-3.7,1.4-3.7,4.3v7.2h-3.3v-14.2h3.2v1.8c1-1.3,2.7-2,4.7-2c2.1,0,3.8,0.7,4.8,2.4
		c1.1-1.5,3-2.4,5.3-2.4C298.2,199.6,300.6,201.5,300.6,205.8L300.6,205.8z"/>
	<path class="st1" d="M319.9,206.8c0,4.4-3,7.3-7.2,7.3c-1.8,0-3.4-0.6-4.6-1.9v6.9h-3.3v-19.4h3.2v1.8c1.1-1.3,2.7-2,4.7-2
		C316.8,199.6,319.9,202.5,319.9,206.8L319.9,206.8z M316.5,206.8c0-2.7-1.8-4.4-4.2-4.4s-4.2,1.7-4.2,4.4s1.8,4.4,4.2,4.4
		S316.5,209.6,316.5,206.8z"/>
	<path class="st1" d="M331.3,199.6v3.2c-0.3-0.1-0.5-0.1-0.7-0.1c-2.5,0-4.1,1.5-4.1,4.4v6.9h-3.3v-14.2h3.2v2.1
		C327.2,200.3,329,199.6,331.3,199.6z"/>
	<path class="st1" d="M347.3,207.9h-11.2c0.4,2.1,2.1,3.4,4.6,3.4c1.6,0,2.9-0.5,3.8-1.6l1.8,2.1c-1.3,1.6-3.3,2.3-5.7,2.3
		c-4.7,0-7.8-3-7.8-7.3s3.1-7.2,7.3-7.2s7.2,2.9,7.2,7.3C347.4,207.2,347.4,207.6,347.3,207.9L347.3,207.9z M336.1,205.7h8.1
		c-0.3-2.1-1.8-3.5-4-3.5C338,202.2,336.4,203.6,336.1,205.7z"/>
	<path class="st1" d="M348.9,212.5l1.3-2.5c1.3,0.8,3.2,1.4,5,1.4c2.1,0,3-0.6,3-1.6c0-2.7-8.8-0.1-8.8-5.8c0-2.7,2.4-4.4,6.3-4.4
		c1.9,0,4.1,0.4,5.3,1.3l-1.3,2.5c-1.3-0.8-2.7-1-4.1-1c-2,0-3,0.7-3,1.6c0,2.9,8.8,0.3,8.8,5.8c0,2.7-2.4,4.4-6.4,4.4
		C352.6,214.1,350.2,213.5,348.9,212.5L348.9,212.5z"/>
	<path class="st1" d="M376.1,205.6v8.3H373v-1.7c-0.8,1.3-2.4,1.9-4.4,1.9c-3.3,0-5.3-1.8-5.3-4.3c0-2.5,1.6-4.2,5.9-4.2h3.7v-0.2
		c0-1.9-1.2-3.1-3.5-3.1c-1.6,0-3.3,0.5-4.3,1.4l-1.3-2.4c1.5-1.2,3.7-1.8,6-1.8C373.7,199.6,376.1,201.5,376.1,205.6L376.1,205.6z
		 M372.8,209.5v-1.6h-3.4c-2.3,0-2.9,0.8-2.9,1.9c0,1.2,1,2,2.7,2C371,211.8,372.3,211,372.8,209.5L372.8,209.5z"/>
	<path class="st1" d="M388.6,199.6v3.2c-0.3-0.1-0.5-0.1-0.7-0.1c-2.5,0-4.1,1.5-4.1,4.4v6.9h-3.3v-14.2h3.2v2.1
		C384.5,200.3,386.2,199.6,388.6,199.6z"/>
	<path class="st1" d="M391,195.4c0-1.1,0.9-2,2.1-2c1.3,0,2.1,0.8,2.1,1.9c0,1.2-0.9,2.1-2.1,2.1C391.8,197.4,391,196.5,391,195.4
		L391,195.4z M391.4,199.7h3.3v14.2h-3.3L391.4,199.7L391.4,199.7z"/>
	<path class="st1" d="M411,205.6v8.3h-3.1v-1.7c-0.8,1.3-2.4,1.9-4.4,1.9c-3.3,0-5.3-1.8-5.3-4.3c0-2.5,1.6-4.2,5.9-4.2h3.7v-0.2
		c0-1.9-1.2-3.1-3.5-3.1c-1.6,0-3.3,0.5-4.3,1.4l-1.3-2.4c1.5-1.2,3.7-1.8,6-1.8C408.6,199.6,411,201.5,411,205.6L411,205.6z
		 M407.7,209.5v-1.6h-3.4c-2.3,0-2.9,0.8-2.9,1.9c0,1.2,1,2,2.7,2S407.1,211,407.7,209.5L407.7,209.5z"/>
	<path class="st1" d="M415.3,194.2h3.3v19.7h-3.3V194.2z"/>
	<path class="st1" d="M76.9,230.8v18.6h-3.5v-8h-9.6v8h-3.5v-18.6h3.5v7.7h9.6v-7.7L76.9,230.8L76.9,230.8z"/>
	<path class="st1" d="M80.4,242.3c0-4.3,3.2-7.2,7.5-7.2c4.4,0,7.6,3,7.6,7.2c0,4.2-3.2,7.3-7.6,7.3S80.4,246.6,80.4,242.3z
		 M92.2,242.3c0-2.7-1.8-4.4-4.2-4.4s-4.2,1.7-4.2,4.4s1.8,4.4,4.2,4.4S92.2,245,92.2,242.3z"/>
	<path class="st1" d="M107,235v3.2c-0.3-0.1-0.5-0.1-0.7-0.1c-2.5,0-4.1,1.5-4.1,4.4v6.9h-3.3v-14.2h3.2v2.1
		C102.8,235.8,104.6,235,107,235L107,235z"/>
	<path class="st1" d="M121.6,241.1v8.3h-3.1v-1.7c-0.8,1.3-2.4,1.9-4.5,1.9c-3.3,0-5.3-1.8-5.3-4.3s1.6-4.2,5.9-4.2h3.7V241
		c0-1.9-1.2-3.1-3.5-3.1c-1.6,0-3.3,0.5-4.3,1.4l-1.3-2.4c1.5-1.2,3.7-1.8,6-1.8C119.2,235,121.6,237,121.6,241.1L121.6,241.1z
		 M118.3,244.9v-1.6h-3.4c-2.3,0-2.9,0.8-2.9,1.9c0,1.2,1,2,2.7,2S117.7,246.4,118.3,244.9z"/>
	<path class="st1" d="M124.7,237.3c0-1.3,1-2.2,2.1-2.2c1.2,0,2.1,0.9,2.1,2.2c0,1.3-1,2.2-2.1,2.2
		C125.7,239.5,124.7,238.5,124.7,237.3L124.7,237.3z M124.7,247.4c0-1.3,1-2.2,2.1-2.2c1.2,0,2.1,0.9,2.1,2.2c0,1.3-1,2.2-2.1,2.2
		C125.7,249.6,124.7,248.6,124.7,247.4z"/>
	<path class="st1" d="M153.8,244.1c0,3.5-3,5.6-7.6,5.6c-4.6,0-7.6-2.1-7.6-5.6c0-2.1,1-3.5,3-4.4c-1.5-0.8-2.3-2.1-2.3-3.9
		c0-3.2,2.8-5.2,6.9-5.2s6.9,2,6.9,5.2c0,1.8-0.8,3.1-2.4,3.9C152.7,240.5,153.8,242,153.8,244.1z M150.3,244c0-1.8-1.6-3-4.1-3
		c-2.5,0-4.1,1.1-4.1,3c0,1.8,1.6,3,4.1,3S150.3,245.8,150.3,244z M142.6,235.9c0,1.6,1.3,2.6,3.5,2.6c2.2,0,3.5-1,3.5-2.6
		c0-1.7-1.4-2.7-3.5-2.7C144,233.2,142.6,234.2,142.6,235.9z"/>
	<path class="st1" d="M155.9,237.3c0-1.3,1-2.2,2.1-2.2c1.2,0,2.1,0.9,2.1,2.2c0,1.3-1,2.2-2.1,2.2
		C156.9,239.5,155.9,238.5,155.9,237.3L155.9,237.3z M155.9,247.4c0-1.3,1-2.2,2.1-2.2c1.2,0,2.1,0.9,2.1,2.2c0,1.3-1,2.2-2.1,2.2
		C156.9,249.6,155.9,248.6,155.9,247.4z"/>
	<path class="st1" d="M175.7,243.8c0,3.1-2.4,5.8-7.4,5.8c-2.7,0-5.2-0.8-7-2.1l1.5-2.7c1.3,1.1,3.3,1.8,5.5,1.8
		c2.5,0,3.9-1.1,3.9-2.8s-1.3-2.7-4.1-2.7h-1.7v-2.4l4.2-5h-8.4v-2.9H175v2.3l-4.5,5.4C173.9,238.9,175.7,241,175.7,243.8
		L175.7,243.8z"/>
	<path class="st1" d="M178,240.1c0-6.1,3.3-9.6,7.8-9.6c4.4,0,7.8,3.5,7.8,9.6c0,6.1-3.3,9.6-7.8,9.6
		C181.2,249.7,178,246.2,178,240.1z M190,240.1c0-4.5-1.8-6.6-4.3-6.6s-4.3,2.1-4.3,6.6s1.8,6.6,4.3,6.6S190,244.6,190,240.1z"/>
	<path class="st1" d="M221.1,230.8v18.6h-3.5v-8H208v8h-3.5v-18.6h3.5v7.7h9.6v-7.7L221.1,230.8L221.1,230.8z"/>
	<path class="st1" d="M234,235v3.2c-0.3-0.1-0.5-0.1-0.7-0.1c-2.5,0-4.1,1.5-4.1,4.4v6.9h-3.3v-14.2h3.2v2.1
		C229.9,235.8,231.6,235,234,235L234,235z"/>
	<path class="st1" d="M235.3,248l1.3-2.5c1.3,0.8,3.2,1.4,5,1.4c2.1,0,3-0.6,3-1.6c0-2.7-8.8-0.1-8.8-5.8c0-2.7,2.4-4.4,6.3-4.4
		c1.9,0,4.1,0.4,5.3,1.3l-1.3,2.5c-1.3-0.8-2.7-1-4.1-1c-2,0-3,0.7-3,1.6c0,2.9,8.8,0.3,8.8,5.9c0,2.7-2.4,4.4-6.4,4.4
		C238.9,249.6,236.5,248.9,235.3,248L235.3,248z"/>
	<path class="st1" d="M74.3,282v2.9h-14v-18.6h13.6v2.9H63.8v4.8h9v2.9h-9v5.2L74.3,282L74.3,282z"/>
	<path class="st1" d="M91.8,276.7v8.1h-3.3v-7.7c0-2.5-1.3-3.8-3.4-3.8c-2.4,0-4,1.4-4,4.3v7.2h-3.3v-14.2H81v1.8
		c1.1-1.3,2.8-2,4.9-2C89.3,270.5,91.8,272.4,91.8,276.7L91.8,276.7z"/>
	<path class="st1" d="M104.6,284.1c-0.8,0.7-2,1-3.2,1c-3.1,0-4.9-1.6-4.9-4.8v-6.8h-2.4v-2.7h2.4v-3.3h3.3v3.3h3.8v2.7h-3.8v6.7
		c0,1.4,0.7,2.1,2,2.1c0.7,0,1.3-0.1,1.8-0.6L104.6,284.1z"/>
	<path class="st1" d="M115.6,270.5v3.2c-0.3-0.1-0.5-0.1-0.7-0.1c-2.5,0-4.1,1.5-4.1,4.4v6.9h-3.3v-14.2h3.2v2.1
		C111.5,271.3,113.2,270.5,115.6,270.5L115.6,270.5z"/>
	<path class="st1" d="M131.6,278.9h-11.2c0.4,2.1,2.1,3.4,4.6,3.4c1.6,0,2.9-0.5,3.8-1.6l1.8,2.1c-1.3,1.5-3.3,2.3-5.7,2.3
		c-4.7,0-7.8-3-7.8-7.3c0-4.3,3.1-7.2,7.3-7.2s7.2,2.9,7.2,7.3C131.6,278.1,131.6,278.5,131.6,278.9L131.6,278.9z M120.4,276.6h8.1
		c-0.3-2.1-1.8-3.5-4-3.5S120.7,274.6,120.4,276.6z"/>
	<path class="st1" d="M148.9,270.7v12c0,5.2-2.7,7.5-7.7,7.5c-2.7,0-5.3-0.7-6.9-2l1.5-2.5c1.3,1,3.3,1.7,5.2,1.7
		c3.1,0,4.5-1.4,4.5-4.3v-0.7c-1.2,1.3-2.9,1.9-4.7,1.9c-4.1,0-7.2-2.7-7.2-6.9s3.1-6.8,7.2-6.8c2,0,3.8,0.7,5,2.1v-1.9L148.9,270.7
		L148.9,270.7z M145.6,277.4c0-2.4-1.8-4-4.3-4s-4.4,1.6-4.4,4c0,2.4,1.8,4.1,4.4,4.1S145.6,279.8,145.6,277.4z"/>
	<path class="st1" d="M165.1,276.6v8.3H162v-1.7c-0.8,1.3-2.4,1.9-4.5,1.9c-3.3,0-5.3-1.8-5.3-4.3c0-2.5,1.6-4.2,5.9-4.2h3.7v-0.2
		c0-1.9-1.2-3.1-3.5-3.1c-1.6,0-3.3,0.5-4.3,1.4l-1.3-2.4c1.6-1.2,3.7-1.8,6-1.8C162.8,270.5,165.1,272.4,165.1,276.6L165.1,276.6z
		 M161.8,280.4v-1.6h-3.4c-2.3,0-2.9,0.8-2.9,1.9c0,1.2,1,2,2.7,2S161.3,281.9,161.8,280.4z"/>
	<path class="st1" d="M190.7,265.1v19.7h-3.2V283c-1.1,1.3-2.7,2-4.7,2c-4.1,0-7.2-2.9-7.2-7.3s3-7.2,7.2-7.2c1.8,0,3.5,0.6,4.6,1.9
		v-7.2H190.7L190.7,265.1z M187.4,277.8c0-2.7-1.8-4.4-4.2-4.4c-2.4,0-4.2,1.7-4.2,4.4s1.8,4.4,4.2,4.4
		C185.5,282.2,187.4,280.5,187.4,277.8z"/>
	<path class="st1" d="M208.4,278.9h-11.2c0.4,2.1,2.1,3.4,4.6,3.4c1.6,0,2.9-0.5,3.8-1.6l1.8,2.1c-1.3,1.5-3.3,2.3-5.7,2.3
		c-4.7,0-7.8-3-7.8-7.3c0-4.3,3.1-7.2,7.3-7.2s7.2,2.9,7.2,7.3C208.4,278.1,208.4,278.5,208.4,278.9L208.4,278.9z M197.1,276.6h8.1
		c-0.3-2.1-1.8-3.5-4-3.5C199.1,273.2,197.5,274.6,197.1,276.6z"/>
	<path class="st1" d="M224.7,278.8l-2.5,2.4v3.8h-3.3v-19.8h3.3V277l6.9-6.4h4l-5.9,6l6.5,8.3h-4L224.7,278.8L224.7,278.8z"/>
	<path class="st1" d="M235.3,266.3c0-1.1,0.9-2,2.1-2s2.1,0.8,2.1,1.9c0,1.2-0.9,2.1-2.1,2.1S235.3,267.5,235.3,266.3L235.3,266.3z
		 M235.7,270.7h3.3v14.2h-3.3V270.7z"/>
	<path class="st1" d="M252,284.1c-0.8,0.7-2,1-3.2,1c-3.1,0-4.9-1.6-4.9-4.8v-6.8h-2.4v-2.7h2.4v-3.3h3.3v3.3h3.8v2.7h-3.8v6.7
		c0,1.4,0.7,2.1,2,2.1c0.7,0,1.3-0.1,1.8-0.6L252,284.1z"/>
	<path class="st1" d="M253.1,283.4l1.3-2.5c1.3,0.8,3.2,1.4,5,1.4c2.1,0,3-0.6,3-1.6c0-2.7-8.8-0.1-8.8-5.8c0-2.7,2.4-4.4,6.3-4.4
		c1.9,0,4.1,0.4,5.3,1.3l-1.3,2.5c-1.3-0.8-2.7-1-4.1-1c-2,0-3,0.7-3,1.6c0,2.9,8.8,0.3,8.8,5.9c0,2.7-2.4,4.4-6.4,4.4
		C256.7,285.1,254.3,284.4,253.1,283.4L253.1,283.4z"/>
	<path class="st1" d="M267.3,272.7c0-1.3,1-2.2,2.2-2.2s2.2,0.9,2.2,2.2s-1,2.2-2.2,2.2S267.3,274,267.3,272.7z M267.3,282.9
		c0-1.3,1-2.2,2.2-2.2s2.2,0.9,2.2,2.2s-1,2.2-2.2,2.2S267.3,284.1,267.3,282.9z"/>
	<path class="st1" d="M294.7,279.2c0,3.3-2.4,6-7.4,6c-2.7,0-5.3-0.8-7-2.1l1.5-2.7c1.3,1.1,3.4,1.8,5.5,1.8c2.5,0,3.9-1.1,3.9-2.9
		s-1.1-2.9-5-2.9h-4.5l1-10.1h10.9v2.9h-8l-0.4,4.3h1.8C292.5,273.5,294.7,275.8,294.7,279.2L294.7,279.2z"/>
	<path class="st1" d="M317,276.6v8.3h-3.1v-1.7c-0.8,1.3-2.4,1.9-4.4,1.9c-3.3,0-5.3-1.8-5.3-4.3c0-2.5,1.6-4.2,5.9-4.2h3.7v-0.2
		c0-1.9-1.2-3.1-3.5-3.1c-1.6,0-3.3,0.5-4.3,1.4l-1.3-2.4c1.5-1.2,3.7-1.8,6-1.8C314.6,270.5,317,272.4,317,276.6L317,276.6z
		 M313.7,280.4v-1.6h-3.5c-2.3,0-2.9,0.8-2.9,1.9c0,1.2,1,2,2.7,2S313.1,281.9,313.7,280.4L313.7,280.4z"/>
	<path class="st1" d="M321.3,265.1h3.3v19.7h-3.3V265.1z"/>
	<path class="st1" d="M341.7,266.2v18.6h-3.4v-15.7h-3.9v-2.9L341.7,266.2L341.7,266.2z"/>
	<path class="st1" d="M345.4,275.5c0-6.1,3.3-9.6,7.8-9.6c4.4,0,7.8,3.5,7.8,9.6c0,6.1-3.3,9.6-7.8,9.6
		C348.7,285.1,345.4,281.7,345.4,275.5z M357.5,275.5c0-4.5-1.8-6.6-4.3-6.6c-2.5,0-4.3,2.1-4.3,6.6c0,4.5,1.8,6.6,4.3,6.6
		C355.7,282.1,357.5,280,357.5,275.5z"/>
	<path class="st1" d="M385.6,265.1v19.7h-3.2V283c-1.1,1.3-2.7,2-4.7,2c-4.1,0-7.2-2.9-7.2-7.3s3-7.2,7.2-7.2c1.8,0,3.5,0.6,4.6,1.9
		v-7.2H385.6L385.6,265.1z M382.3,277.8c0-2.7-1.8-4.4-4.2-4.4c-2.4,0-4.2,1.7-4.2,4.4s1.8,4.4,4.2,4.4
		C380.5,282.2,382.3,280.5,382.3,277.8z"/>
	<path class="st1" d="M403.2,278.9h-11.2c0.4,2.1,2.1,3.4,4.6,3.4c1.6,0,2.8-0.5,3.8-1.6l1.8,2.1c-1.3,1.5-3.3,2.3-5.7,2.3
		c-4.7,0-7.8-3-7.8-7.3c0-4.3,3.1-7.2,7.3-7.2c4.2,0,7.2,2.9,7.2,7.3C403.3,278.1,403.2,278.5,403.2,278.9L403.2,278.9z
		 M392.1,276.6h8.1c-0.3-2.1-1.8-3.5-4-3.5C394,273.2,392.4,274.6,392.1,276.6L392.1,276.6z"/>
	<path class="st1" d="M427.7,265.1v19.7h-3.2V283c-1.1,1.3-2.7,2-4.7,2c-4.1,0-7.2-2.9-7.2-7.3s3-7.2,7.2-7.2c1.8,0,3.5,0.6,4.6,1.9
		v-7.2H427.7L427.7,265.1z M424.4,277.8c0-2.7-1.8-4.4-4.2-4.4s-4.2,1.7-4.2,4.4s1.8,4.4,4.2,4.4S424.4,280.5,424.4,277.8z"/>
	<path class="st1" d="M431.6,266.3c0-1.1,0.9-2,2.1-2s2.1,0.8,2.1,1.9c0,1.2-0.9,2.1-2.1,2.1S431.6,267.5,431.6,266.3L431.6,266.3z
		 M432.1,270.7h3.3v14.2h-3.3V270.7z"/>
	<path class="st1" d="M438.6,277.8c0-4.3,3.2-7.2,7.7-7.2c2.7,0,5,1.1,6.1,3.3l-2.6,1.5c-0.9-1.3-2.1-2-3.5-2
		c-2.4,0-4.3,1.7-4.3,4.4s1.8,4.4,4.3,4.4c1.4,0,2.7-0.6,3.5-2l2.6,1.5c-1.1,2.1-3.3,3.3-6.1,3.3C441.8,285.1,438.6,282,438.6,277.8
		L438.6,277.8z"/>
	<path class="st1" d="M454.8,266.3c0-1.1,0.9-2,2.1-2s2.1,0.8,2.1,1.9c0,1.2-0.9,2.1-2.1,2.1S454.8,267.5,454.8,266.3L454.8,266.3z
		 M455.2,270.7h3.3v14.2h-3.3V270.7z"/>
	<path class="st1" d="M476.2,278.9h-11.2c0.4,2.1,2.1,3.4,4.6,3.4c1.6,0,2.8-0.5,3.8-1.6l1.8,2.1c-1.3,1.5-3.3,2.3-5.7,2.3
		c-4.7,0-7.8-3-7.8-7.3c0-4.3,3.1-7.2,7.3-7.2c4.2,0,7.2,2.9,7.2,7.3C476.2,278.1,476.2,278.5,476.2,278.9L476.2,278.9z M465,276.6
		h8.1c-0.3-2.1-1.8-3.5-4-3.5C466.9,273.2,465.4,274.6,465,276.6z"/>
	<path class="st1" d="M503.2,276.7v8.1h-3.3v-7.7c0-2.5-1.2-3.8-3.2-3.8c-2.2,0-3.7,1.4-3.7,4.3v7.2h-3.3v-7.7
		c0-2.5-1.2-3.8-3.2-3.8c-2.2,0-3.7,1.4-3.7,4.3v7.2h-3.3v-14.2h3.2v1.8c1-1.3,2.7-2,4.7-2c2.1,0,3.8,0.7,4.8,2.4
		c1.1-1.5,3-2.4,5.3-2.4C500.8,270.5,503.2,272.4,503.2,276.7L503.2,276.7z"/>
	<path class="st1" d="M522.6,277.8c0,4.4-3,7.3-7.2,7.3c-1.9,0-3.6-0.7-4.7-2v1.8h-3.1v-19.8h3.3v7.2c1.1-1.3,2.7-1.9,4.6-1.9
		C519.5,270.5,522.6,273.3,522.6,277.8L522.6,277.8z M519.2,277.8c0-2.7-1.8-4.4-4.2-4.4s-4.2,1.7-4.2,4.4s1.8,4.4,4.2,4.4
		S519.2,280.5,519.2,277.8z"/>
	<path class="st1" d="M533.9,270.5v3.2c-0.3-0.1-0.5-0.1-0.7-0.1c-2.5,0-4.1,1.5-4.1,4.4v6.9h-3.3v-14.2h3.2v2.1
		C529.8,271.3,531.6,270.5,533.9,270.5L533.9,270.5z"/>
	<path class="st1" d="M549.9,278.9h-11.2c0.4,2.1,2.1,3.4,4.6,3.4c1.6,0,2.8-0.5,3.8-1.6l1.8,2.1c-1.3,1.5-3.3,2.3-5.7,2.3
		c-4.7,0-7.8-3-7.8-7.3c0-4.3,3.1-7.2,7.3-7.2c4.2,0,7.2,2.9,7.2,7.3C550,278.1,550,278.5,549.9,278.9L549.9,278.9z M538.7,276.6
		h8.1c-0.3-2.1-1.8-3.5-4-3.5C540.7,273.2,539,274.6,538.7,276.6z"/>
	<path class="st1" d="M73.4,314.3H62.2c0.4,2.1,2.1,3.4,4.6,3.4c1.6,0,2.8-0.5,3.8-1.6l1.8,2.1c-1.3,1.5-3.3,2.3-5.7,2.3
		c-4.7,0-7.8-3-7.8-7.3c0-4.3,3.1-7.2,7.3-7.2s7.2,2.9,7.2,7.3C73.4,313.6,73.4,314,73.4,314.3L73.4,314.3z M62.1,312.1h8.1
		c-0.3-2.1-1.8-3.5-4-3.5S62.5,310,62.1,312.1z"/>
	<path class="st1" d="M90.6,312.2v8.1h-3.3v-7.7c0-2.5-1.3-3.8-3.4-3.8c-2.4,0-4,1.4-4,4.3v7.2h-3.3v-14.2h3.2v1.8
		c1.1-1.3,2.8-2,4.9-2C88.1,306,90.6,307.9,90.6,312.2L90.6,312.2z"/>
	<path class="st1" d="M101.1,311c0-5.5,4.3-9.6,10-9.6s10,4.1,10,9.6s-4.3,9.6-10,9.6S101.1,316.5,101.1,311z M117.7,311
		c0-3.8-2.8-6.6-6.6-6.6c-3.8,0-6.6,2.7-6.6,6.6s2.8,6.6,6.6,6.6C114.9,317.6,117.7,314.8,117.7,311z"/>
	<path class="st1" d="M139.6,313.2c0,4.4-3,7.3-7.2,7.3c-1.8,0-3.4-0.6-4.6-1.9v6.9h-3.3v-19.4h3.2v1.8c1.1-1.3,2.7-2,4.7-2
		C136.5,306,139.6,308.9,139.6,313.2L139.6,313.2z M136.2,313.2c0-2.7-1.8-4.4-4.2-4.4s-4.2,1.7-4.2,4.4s1.8,4.4,4.2,4.4
		S136.2,316,136.2,313.2z"/>
	<path class="st1" d="M156.1,314.3H145c0.4,2.1,2.1,3.4,4.6,3.4c1.6,0,2.9-0.5,3.8-1.6l1.8,2.1c-1.3,1.5-3.3,2.3-5.7,2.3
		c-4.7,0-7.8-3-7.8-7.3c0-4.3,3.1-7.2,7.3-7.2s7.2,2.9,7.2,7.3C156.1,313.6,156.1,314,156.1,314.3L156.1,314.3z M144.9,312.1h8.1
		c-0.3-2.1-1.8-3.5-4-3.5C146.8,308.6,145.3,310,144.9,312.1z"/>
	<path class="st1" d="M173.3,312.2v8.1H170v-7.7c0-2.5-1.3-3.8-3.4-3.8c-2.4,0-4,1.4-4,4.3v7.2h-3.3v-14.2h3.2v1.8
		c1.1-1.3,2.8-2,4.9-2C170.8,306,173.3,307.9,173.3,312.2L173.3,312.2z"/>
	<path class="st1" d="M191.7,312.6l-3,3v4.7h-3.5v-18.6h3.5v9.5l9.2-9.5h3.8L194,310l8.3,10.3h-4.1L191.7,312.6L191.7,312.6z"/>
	<path class="st1" d="M217,314.3h-11.2c0.4,2.1,2.1,3.4,4.6,3.4c1.6,0,2.9-0.5,3.8-1.6l1.8,2.1c-1.3,1.5-3.3,2.3-5.7,2.3
		c-4.7,0-7.8-3-7.8-7.3c0-4.3,3.1-7.2,7.3-7.2s7.2,2.9,7.2,7.3C217,313.6,217,314,217,314.3L217,314.3z M205.8,312.1h8.1
		c-0.3-2.1-1.8-3.5-4-3.5C207.7,308.6,206.1,310,205.8,312.1z"/>
	<path class="st1" d="M234.2,312.2v8.1h-3.3v-7.7c0-2.5-1.3-3.8-3.4-3.8c-2.4,0-4,1.4-4,4.3v7.2h-3.3v-14.2h3.2v1.8
		c1.1-1.3,2.8-2,4.9-2C231.7,306,234.2,307.9,234.2,312.2L234.2,312.2z"/>
	<path class="st1" d="M252.5,312.2v8.1h-3.3v-7.7c0-2.5-1.3-3.8-3.4-3.8c-2.4,0-4,1.4-4,4.3v7.2h-3.3v-14.2h3.2v1.8
		c1.1-1.3,2.8-2,4.9-2C249.9,306,252.5,307.9,252.5,312.2L252.5,312.2z"/>
	<path class="st1" d="M270.1,314.3H259c0.4,2.1,2.1,3.4,4.6,3.4c1.6,0,2.9-0.5,3.8-1.6l1.8,2.1c-1.3,1.5-3.3,2.3-5.7,2.3
		c-4.7,0-7.8-3-7.8-7.3c0-4.3,3.1-7.2,7.3-7.2c4.2,0,7.2,2.9,7.2,7.3C270.1,313.6,270.1,314,270.1,314.3L270.1,314.3z M258.9,312.1
		h8.1c-0.3-2.1-1.8-3.5-4-3.5S259.3,310,258.9,312.1z"/>
	<path class="st1" d="M287.3,300.6v19.7h-3.2v-1.8c-1.1,1.3-2.7,2-4.7,2c-4.1,0-7.2-2.9-7.2-7.3c0-4.4,3-7.2,7.2-7.2
		c1.8,0,3.5,0.6,4.6,1.9v-7.2H287.3L287.3,300.6z M284,313.2c0-2.7-1.8-4.4-4.2-4.4c-2.4,0-4.2,1.7-4.2,4.4s1.8,4.4,4.2,4.4
		C282.1,317.7,284,316,284,313.2z"/>
	<path class="st1" d="M304.9,306.1l-6.7,15.4c-1.3,3.3-3.1,4.2-5.5,4.2c-1.4,0-2.9-0.4-3.8-1.3l1.3-2.4c0.7,0.6,1.6,1,2.4,1
		c1.2,0,1.8-0.6,2.5-2l0.2-0.6l-6.2-14.3h3.5l4.4,10.5l4.5-10.5L304.9,306.1L304.9,306.1z"/>
</g>
<g>
	<g>
		<path class="st1" d="M196.6,377.6c0.1-0.6,0.3-1.3,0.4-1.9c0.6-3.3,1.1-6.5,1.7-9.8c0.2-1,0.4-2,0.6-3.1c0.3-1.9,0-3.5-1.8-4.4
			c0.9,0,1.6,0,2.6,0c1.1,0,2.2,0,3.3,0c0.7,0,1.3,0,2.1,0c0.5,0,1.1,0,1.8,0c1,0,2.2,0,3.2,0c0.1,0,0.2,0,0.3,0c2.3,0,4.5,0,6.7,0
			c3.3,0,6.8,0,10.2,0c0.5,0,1.1,0,1.8,0c-0.1,0.6-0.2,1.2-0.3,1.8c-0.4,1.9-2.1,3.4-4,3.4c-0.7,0-1.3,0-1.9,0c-1.1,0-2,0-3,0
			c-1.2,0-2.6,0-3.8,0c-1,0-2.2,0-3.2,0c-1,0-2.2,0-3.2,0c-0.5,0-0.8,0.3-1,0.7c-0.1,0.1-0.1,0.1-0.1,0.2c-0.2,1-0.4,2-0.6,3
			c-0.5,2.5-0.9,5-1.3,7.5c0,0.1,0,0.1,0.1,0.2c0,0.4,0.3,0.7,0.8,0.7c1.1,0,2.1,0,3.2,0c2.3,0,4.7,0,7.1,0c2.1,0,4.2,0,6.3,0
			c0.6,0,1.2,0,1.9,0c-0.2,0.6-0.3,1.2-0.4,1.8c-0.3,1.9-2,3.4-3.9,3.4c-0.7,0-1.3,0-1.9,0c-5.7,0-11.4,0-17,0c-1.3,0-2.6,0-3.9,0
			C197.6,381,196.3,379.5,196.6,377.6z"/>
		<path class="st1" d="M267.1,361.8c-0.9,5.3-1.9,10.5-2.9,15.8c-0.3,1.9-2.1,3.4-4,3.4c-8.6,0-17.1,0-25.6,0
			c-1.9,0-3.2-1.5-2.9-3.4c1-5.3,1.9-10.5,2.9-15.8c0.3-1.9,2.1-3.4,4-3.4c8.5,0,17,0,25.6,0C266.1,358.4,267.4,359.9,267.1,361.8z
			 M243.1,375.9c3.4,0,6.9,0,10.5,0c0.4,0,0.9-0.4,1-0.9c0.6-3.5,1.2-7,1.9-10.5c0.1-0.5-0.3-0.9-0.8-0.9c-3.5,0-7,0-10.4,0
			c-0.6,0-1,0.4-1,0.9c-0.7,3.5-1.2,7-1.9,10.5C242.3,375.5,242.5,375.9,243.1,375.9z"/>
		<path class="st1" d="M312.1,358.4c0,0,0.1,0,0.2,0c-1.1,6.4-2.3,12.8-3.4,19.2c-0.3,1.9-2,3.4-3.9,3.4c-2.2,0-4.5,0-6.7,0
			c0.4-2.4,0.8-4.7,1.2-7.1c-2,2.4-3.9,4.7-5.8,7.1c-0.1,0-0.2,0-0.2,0c-3.1,0-6.3,0-9.4,0c-0.1,0-0.2,0-0.2,0
			c-1.2-2.4-2.3-4.7-3.3-7.1c-0.2,1.2-0.4,2.5-0.7,3.7c-0.3,1.9-2.1,3.4-3.9,3.4c-2.2,0-4.5,0-6.7,0c1-6.3,2.2-12.6,3.3-18.8
			c0.3-1.7-0.4-3-1.8-3.8c0.8,0,1.6,0,2.5,0c0,0,0.1,0,0.2,0c3.1,0,6.2,0,9.4,0c0,0,0.1,0,0.2,0c2.3,5.1,4.7,10.1,7.1,15.2
			c3.6-4.5,7.3-8.9,11-13.4c1-1.1,2.3-1.8,3.5-1.8C307.2,358.4,309.7,358.4,312.1,358.4z"/>
		<path class="st1" d="M314.2,381c1-6.1,2.1-12.2,3.2-18.3c0.3-1.8-0.3-3.4-1.9-4.3c0.9,0,1.7,0,2.7,0c3.1,0,6.1,0,9.3,0
			c0.3,0,0.6,0,0.9,0c5.9,0,11.9,0,17.9,0c1.9,0,3.1,1.5,2.8,3.4c-0.5,3-1.1,5.9-1.6,8.9c-0.3,1.9-2.1,3.4-4,3.4c-6,0-11.9,0-17.9,0
			c-0.2,1.2-0.4,2.3-0.6,3.5c-0.4,1.9-2.2,3.4-4,3.4C318.6,381,316.4,381,314.2,381z M336.7,369c0.5,0,1.1-0.4,1.1-0.9
			c0.2-1.2,0.4-2.4,0.7-3.6c0.1-0.5-0.4-0.9-0.9-0.9c-3.4,0-6.9,0-10.3,0c-0.3,1.8-0.7,3.6-1,5.4C329.9,369,333.3,369,336.7,369z"/>
		<path class="st1" d="M366.2,374.1c-1.2,0-2.4,0-3.5,0c-0.2,1.2-0.4,2.3-0.6,3.5c-0.4,1.9-2.2,3.4-4.1,3.4c-2.2,0-4.4,0-6.7,0
			c1-6.1,2.2-12.2,3.2-18.3c0.3-1.8-0.2-3.4-1.8-4.3c0.9,0,1.7,0,2.6,0c3.1,0,6.2,0,9.4,0c0.3,0,0.6,0,0.9,0c5.9,0,11.8,0,17.9,0
			c1.8,0,3.1,1.5,2.8,3.4c-0.5,3-1.1,5.9-1.6,8.9c-0.4,1.9-2.1,3.4-4,3.4c-0.8,0-1.5,0-2.2,0c1.7,2.3,3.5,4.6,5.4,6.9
			c-2.7,0-5.2,0-7.6,0c-0.6,0-1.1,0-1.6,0c-0.9,0-1.4-0.3-2.2-1.1c-1.3-1.5-2.5-3.1-3.6-4.6C368.2,374.5,367.3,374.1,366.2,374.1z
			 M375,368.1c0.2-1.2,0.4-2.4,0.7-3.6c0.1-0.5-0.4-0.9-0.9-0.9c-3.4,0-6.9,0-10.3,0c-0.3,1.8-0.7,3.6-1,5.4c3.4,0,6.9,0,10.3,0
			C374.4,369,374.9,368.6,375,368.1z"/>
		<path class="st1" d="M426.6,382c-3.8,0-7.6,0-11.5,0c-0.4-0.7-0.6-1.4-0.9-2.1c-4.3,0-8.6,0-12.8,0c-0.6,0.7-1.2,1.4-1.8,2.1
			c-3.8,0-7.5,0-11.3,0c5.7-7.2,11.6-14.4,17.6-21.5c0.9-1,0.1-1.5-1-2.1c0.9,0,1.7,0,2.6,0c2,0,3.9,0,6,0c1.3,0,2.4,0.6,3,1.8
			C419.9,367.5,423.2,374.7,426.6,382z M411.9,374.7c-0.8-1.6-1.5-3.2-2.3-4.8c-1.2,1.6-2.6,3.2-3.9,4.8
			C407.8,374.7,409.8,374.7,411.9,374.7z"/>
		<path class="st1" d="M486.7,382c-3.8,0-7.6,0-11.5,0c-0.4-0.7-0.6-1.4-0.9-2.1c-4.3,0-8.6,0-12.8,0c-0.6,0.7-1.2,1.4-1.8,2.1
			c-3.8,0-7.5,0-11.3,0c5.7-7.2,11.6-14.4,17.6-21.5c0.9-1,0.1-1.5-1-2.1c0.9,0,1.7,0,2.6,0c2,0,3.9,0,6,0c1.3,0,2.4,0.6,3,1.8
			C480,367.5,483.3,374.7,486.7,382z M472,374.7c-0.8-1.6-1.5-3.2-2.3-4.8c-1.2,1.6-2.6,3.2-3.9,4.8
			C467.8,374.7,469.9,374.7,472,374.7z"/>
		<path class="st1" d="M505.2,381c-4.5,0-9,0-13.5,0c-1.8,0-3.2-1.5-2.9-3.4c0.9-5.3,1.9-10.5,2.9-15.8c0.3-1.9,2.2-3.4,4-3.4
			c8.5,0,17.1,0,25.7,0c1.9,0,3.2,1.5,2.9,3.4c-0.9,5.3-1.9,10.5-2.9,15.8c-0.4,1.9-2.1,3.4-4,3.4c-0.6,0-1.1,0-1.7,0
			c0.7,0.9,1.4,1.9,2.2,2.8c-3.5,0-7.1,0-10.5,0C506.5,382.9,505.9,382,505.2,381z M500.3,375.9c3.4,0,6.9,0,10.4,0
			c0.5,0,0.9-0.4,1-0.9c0.7-3.5,1.2-7,1.9-10.5c0.1-0.5-0.2-0.9-0.7-0.9c-3.5,0-7,0-10.5,0c-0.5,0-0.9,0.4-1,0.9
			c-0.7,3.5-1.3,7-1.9,10.5C499.5,375.5,499.7,375.9,500.3,375.9z"/>
		<path class="st1" d="M538.2,370.3c-0.3,1.6-0.6,3.1-0.9,4.7c-0.1,0.5,0.4,0.9,0.8,0.9c0.9,0,1.8,0,2.8,0c1.6,0,3.3,0,5,0
			c0.9,0,1.8,0,2.8,0c0.5,0,0.9-0.4,1-0.9c0.3-1.6,0.6-3.1,0.9-4.7c0.2-1.1,0.4-2.2,0.6-3.3c0.3-1.8,0.6-3.5,1-5.3
			c0.3-1.9,2.2-3.4,4-3.4c2.3,0,4.5,0,6.7,0c-0.6,2.9-1,5.8-1.5,8.7c-0.2,1.1-0.4,2.2-0.6,3.3c-0.5,2.4-0.9,4.8-1.3,7.3
			c-0.3,1.9-2,3.4-4,3.4c-3.4,0-6.9,0-10.2,0c-1.6,0-3.3,0-5,0c-3.5,0-7,0-10.4,0c-1.8,0-3.1-1.5-2.8-3.4c0.4-2.4,0.9-4.9,1.3-7.3
			c0.2-1.1,0.4-2.2,0.6-3.3c0.2-1.5,0.5-2.9,0.8-4.4c0.3-1.8-0.4-3.4-1.8-4.3c0.9,0,1.6,0,2.6,0c3.3,0,6.7,0,10,0
			c-0.6,2.9-1.1,5.8-1.5,8.7C538.6,368.2,538.4,369.2,538.2,370.3z"/>
		<path class="st1" d="M571.2,381c-2.3,0-4.5,0-6.7,0c1-6.1,2.1-12.2,3.2-18.3c0.3-1.8-0.3-3.4-1.9-4.3c0.9,0,1.7,0,2.7,0
			c3.3,0,6.7,0,10.1,0c-0.1,0.4-0.2,0.8-0.2,1.2c-0.5,2.5-1,5-1.3,7.6c-0.4,1.7-0.7,3.5-1,5.2c-0.3,1.8-0.6,3.5-1,5.3
			C574.9,379.5,573,381,571.2,381z"/>
	</g>
	<path class="st1" d="M569.5,352.5l6.7-6.7l1.6,1.6c1.4,1.4,0.9,3.7-0.9,4.5l-6.1,2.6C569.6,354.9,568.5,353.4,569.5,352.5z"/>
	<g>
		<path class="st1" d="M607.4,354.9c5,5,10,10,15.1,15.1c1.4,1.4,1.2,3.6-0.4,4.8c-2.3,1.7-4.7,3.3-7.1,4.9
			c-2.1,1.5-4.2,2.9-6.3,4.4c-1.6,1.2-2.5,2.6-1.9,4.6c-0.7-0.7-1.3-1.3-2-2c-0.9-0.9-1.7-1.7-2.6-2.6c-1.7-1.7-3.4-3.4-5.1-5.1
			c1.8-1.2,3.6-2.5,5.4-3.8c1.6-1.1,3.2-2.2,4.7-3.3c0.7-0.4,1.3-0.9,1.9-1.3c0.9-0.7,1.9-1.3,2.8-1.9c0.4-0.3,0.5-0.8,0.2-1.2
			c-2.6-2.6-5.2-5.2-7.9-7.9c-1.4-1.4-2.7-2.7-4.1-4.1c0.6-0.3,1.1-0.7,1.6-1C603.4,353.2,606,353.4,607.4,354.9z"/>
	</g>
</g>
<g>
	<g>
		<path class="st1" d="M196.6,377.6c0.1-0.6,0.3-1.3,0.4-1.9c0.6-3.3,1.1-6.5,1.7-9.8c0.2-1,0.4-2,0.6-3.1c0.3-1.9,0-3.5-1.8-4.4
			c0.9,0,1.6,0,2.6,0c1.1,0,2.2,0,3.3,0c0.7,0,1.3,0,2.1,0c0.5,0,1.1,0,1.8,0c1,0,2.2,0,3.2,0c0.1,0,0.2,0,0.3,0c2.3,0,4.5,0,6.7,0
			c3.3,0,6.8,0,10.2,0c0.5,0,1.1,0,1.8,0c-0.1,0.6-0.2,1.2-0.3,1.8c-0.4,1.9-2.1,3.4-4,3.4c-0.7,0-1.3,0-1.9,0c-1.1,0-2,0-3,0
			c-1.2,0-2.6,0-3.8,0c-1,0-2.2,0-3.2,0c-1,0-2.2,0-3.2,0c-0.5,0-0.8,0.3-1,0.7c-0.1,0.1-0.1,0.1-0.1,0.2c-0.2,1-0.4,2-0.6,3
			c-0.5,2.5-0.9,5-1.3,7.5c0,0.1,0,0.1,0.1,0.2c0,0.4,0.3,0.7,0.8,0.7c1.1,0,2.1,0,3.2,0c2.3,0,4.7,0,7.1,0c2.1,0,4.2,0,6.3,0
			c0.6,0,1.2,0,1.9,0c-0.2,0.6-0.3,1.2-0.4,1.8c-0.3,1.9-2,3.4-3.9,3.4c-0.7,0-1.3,0-1.9,0c-5.7,0-11.4,0-17,0c-1.3,0-2.6,0-3.9,0
			C197.6,381,196.3,379.5,196.6,377.6z"/>
		<path class="st1" d="M267.1,361.8c-0.9,5.3-1.9,10.5-2.9,15.8c-0.3,1.9-2.1,3.4-4,3.4c-8.6,0-17.1,0-25.6,0
			c-1.9,0-3.2-1.5-2.9-3.4c1-5.3,1.9-10.5,2.9-15.8c0.3-1.9,2.1-3.4,4-3.4c8.5,0,17,0,25.6,0C266.1,358.4,267.4,359.9,267.1,361.8z
			 M243.1,375.9c3.4,0,6.9,0,10.5,0c0.4,0,0.9-0.4,1-0.9c0.6-3.5,1.2-7,1.9-10.5c0.1-0.5-0.3-0.9-0.8-0.9c-3.5,0-7,0-10.4,0
			c-0.6,0-1,0.4-1,0.9c-0.7,3.5-1.2,7-1.9,10.5C242.3,375.5,242.5,375.9,243.1,375.9z"/>
		<path class="st1" d="M312.1,358.4c0,0,0.1,0,0.2,0c-1.1,6.4-2.3,12.8-3.4,19.2c-0.3,1.9-2,3.4-3.9,3.4c-2.2,0-4.5,0-6.7,0
			c0.4-2.4,0.8-4.7,1.2-7.1c-2,2.4-3.9,4.7-5.8,7.1c-0.1,0-0.2,0-0.2,0c-3.1,0-6.3,0-9.4,0c-0.1,0-0.2,0-0.2,0
			c-1.2-2.4-2.3-4.7-3.3-7.1c-0.2,1.2-0.4,2.5-0.7,3.7c-0.3,1.9-2.1,3.4-3.9,3.4c-2.2,0-4.5,0-6.7,0c1-6.3,2.2-12.6,3.3-18.8
			c0.3-1.7-0.4-3-1.8-3.8c0.8,0,1.6,0,2.5,0c0,0,0.1,0,0.2,0c3.1,0,6.2,0,9.4,0c0,0,0.1,0,0.2,0c2.3,5.1,4.7,10.1,7.1,15.2
			c3.6-4.5,7.3-8.9,11-13.4c1-1.1,2.3-1.8,3.5-1.8C307.2,358.4,309.7,358.4,312.1,358.4z"/>
		<path class="st1" d="M314.2,381c1-6.1,2.1-12.2,3.2-18.3c0.3-1.8-0.3-3.4-1.9-4.3c0.9,0,1.7,0,2.7,0c3.1,0,6.1,0,9.3,0
			c0.3,0,0.6,0,0.9,0c5.9,0,11.9,0,17.9,0c1.9,0,3.1,1.5,2.8,3.4c-0.5,3-1.1,5.9-1.6,8.9c-0.3,1.9-2.1,3.4-4,3.4c-6,0-11.9,0-17.9,0
			c-0.2,1.2-0.4,2.3-0.6,3.5c-0.4,1.9-2.2,3.4-4,3.4C318.6,381,316.4,381,314.2,381z M336.7,369c0.5,0,1.1-0.4,1.1-0.9
			c0.2-1.2,0.4-2.4,0.7-3.6c0.1-0.5-0.4-0.9-0.9-0.9c-3.4,0-6.9,0-10.3,0c-0.3,1.8-0.7,3.6-1,5.4C329.9,369,333.3,369,336.7,369z"/>
		<path class="st1" d="M366.2,374.1c-1.2,0-2.4,0-3.5,0c-0.2,1.2-0.4,2.3-0.6,3.5c-0.4,1.9-2.2,3.4-4.1,3.4c-2.2,0-4.4,0-6.7,0
			c1-6.1,2.2-12.2,3.2-18.3c0.3-1.8-0.2-3.4-1.8-4.3c0.9,0,1.7,0,2.6,0c3.1,0,6.2,0,9.4,0c0.3,0,0.6,0,0.9,0c5.9,0,11.8,0,17.9,0
			c1.8,0,3.1,1.5,2.8,3.4c-0.5,3-1.1,5.9-1.6,8.9c-0.4,1.9-2.1,3.4-4,3.4c-0.8,0-1.5,0-2.2,0c1.7,2.3,3.5,4.6,5.4,6.9
			c-2.7,0-5.2,0-7.6,0c-0.6,0-1.1,0-1.6,0c-0.9,0-1.4-0.3-2.2-1.1c-1.3-1.5-2.5-3.1-3.6-4.6C368.2,374.5,367.3,374.1,366.2,374.1z
			 M375,368.1c0.2-1.2,0.4-2.4,0.7-3.6c0.1-0.5-0.4-0.9-0.9-0.9c-3.4,0-6.9,0-10.3,0c-0.3,1.8-0.7,3.6-1,5.4c3.4,0,6.9,0,10.3,0
			C374.4,369,374.9,368.6,375,368.1z"/>
		<path class="st1" d="M426.6,382c-3.8,0-7.6,0-11.5,0c-0.4-0.7-0.6-1.4-0.9-2.1c-4.3,0-8.6,0-12.8,0c-0.6,0.7-1.2,1.4-1.8,2.1
			c-3.8,0-7.5,0-11.3,0c5.7-7.2,11.6-14.4,17.6-21.5c0.9-1,0.1-1.5-1-2.1c0.9,0,1.7,0,2.6,0c2,0,3.9,0,6,0c1.3,0,2.4,0.6,3,1.8
			C419.9,367.5,423.2,374.7,426.6,382z M411.9,374.7c-0.8-1.6-1.5-3.2-2.3-4.8c-1.2,1.6-2.6,3.2-3.9,4.8
			C407.8,374.7,409.8,374.7,411.9,374.7z"/>
		<path class="st1" d="M486.7,382c-3.8,0-7.6,0-11.5,0c-0.4-0.7-0.6-1.4-0.9-2.1c-4.3,0-8.6,0-12.8,0c-0.6,0.7-1.2,1.4-1.8,2.1
			c-3.8,0-7.5,0-11.3,0c5.7-7.2,11.6-14.4,17.6-21.5c0.9-1,0.1-1.5-1-2.1c0.9,0,1.7,0,2.6,0c2,0,3.9,0,6,0c1.3,0,2.4,0.6,3,1.8
			C480,367.5,483.3,374.7,486.7,382z M472,374.7c-0.8-1.6-1.5-3.2-2.3-4.8c-1.2,1.6-2.6,3.2-3.9,4.8
			C467.8,374.7,469.9,374.7,472,374.7z"/>
		<path class="st1" d="M505.2,381c-4.5,0-9,0-13.5,0c-1.8,0-3.2-1.5-2.9-3.4c0.9-5.3,1.9-10.5,2.9-15.8c0.3-1.9,2.2-3.4,4-3.4
			c8.5,0,17.1,0,25.7,0c1.9,0,3.2,1.5,2.9,3.4c-0.9,5.3-1.9,10.5-2.9,15.8c-0.4,1.9-2.1,3.4-4,3.4c-0.6,0-1.1,0-1.7,0
			c0.7,0.9,1.4,1.9,2.2,2.8c-3.5,0-7.1,0-10.5,0C506.5,382.9,505.9,382,505.2,381z M500.3,375.9c3.4,0,6.9,0,10.4,0
			c0.5,0,0.9-0.4,1-0.9c0.7-3.5,1.2-7,1.9-10.5c0.1-0.5-0.2-0.9-0.7-0.9c-3.5,0-7,0-10.5,0c-0.5,0-0.9,0.4-1,0.9
			c-0.7,3.5-1.3,7-1.9,10.5C499.5,375.5,499.7,375.9,500.3,375.9z"/>
		<path class="st1" d="M538.2,370.3c-0.3,1.6-0.6,3.1-0.9,4.7c-0.1,0.5,0.4,0.9,0.8,0.9c0.9,0,1.8,0,2.8,0c1.6,0,3.3,0,5,0
			c0.9,0,1.8,0,2.8,0c0.5,0,0.9-0.4,1-0.9c0.3-1.6,0.6-3.1,0.9-4.7c0.2-1.1,0.4-2.2,0.6-3.3c0.3-1.8,0.6-3.5,1-5.3
			c0.3-1.9,2.2-3.4,4-3.4c2.3,0,4.5,0,6.7,0c-0.6,2.9-1,5.8-1.5,8.7c-0.2,1.1-0.4,2.2-0.6,3.3c-0.5,2.4-0.9,4.8-1.3,7.3
			c-0.3,1.9-2,3.4-4,3.4c-3.4,0-6.9,0-10.2,0c-1.6,0-3.3,0-5,0c-3.5,0-7,0-10.4,0c-1.8,0-3.1-1.5-2.8-3.4c0.4-2.4,0.9-4.9,1.3-7.3
			c0.2-1.1,0.4-2.2,0.6-3.3c0.2-1.5,0.5-2.9,0.8-4.4c0.3-1.8-0.4-3.4-1.8-4.3c0.9,0,1.6,0,2.6,0c3.3,0,6.7,0,10,0
			c-0.6,2.9-1.1,5.8-1.5,8.7C538.6,368.2,538.4,369.2,538.2,370.3z"/>
		<path class="st1" d="M571.2,381c-2.3,0-4.5,0-6.7,0c1-6.1,2.1-12.2,3.2-18.3c0.3-1.8-0.3-3.4-1.9-4.3c0.9,0,1.7,0,2.7,0
			c3.3,0,6.7,0,10.1,0c-0.1,0.4-0.2,0.8-0.2,1.2c-0.5,2.5-1,5-1.3,7.6c-0.4,1.7-0.7,3.5-1,5.2c-0.3,1.8-0.6,3.5-1,5.3
			C574.9,379.5,573,381,571.2,381z"/>
	</g>
	<path class="st1" d="M569.5,352.5l6.7-6.7l1.6,1.6c1.4,1.4,0.9,3.7-0.9,4.5l-6.1,2.6C569.6,354.9,568.5,353.4,569.5,352.5z"/>
	<g>
		<path class="st1" d="M607.4,354.9c5,5,10,10,15.1,15.1c1.4,1.4,1.2,3.6-0.4,4.8c-2.3,1.7-4.7,3.3-7.1,4.9
			c-2.1,1.5-4.2,2.9-6.3,4.4c-1.6,1.2-2.5,2.6-1.9,4.6c-0.7-0.7-1.3-1.3-2-2c-0.9-0.9-1.7-1.7-2.6-2.6c-1.7-1.7-3.4-3.4-5.1-5.1
			c1.8-1.2,3.6-2.5,5.4-3.8c1.6-1.1,3.2-2.2,4.7-3.3c0.7-0.4,1.3-0.9,1.9-1.3c0.9-0.7,1.9-1.3,2.8-1.9c0.4-0.3,0.5-0.8,0.2-1.2
			c-2.6-2.6-5.2-5.2-7.9-7.9c-1.4-1.4-2.7-2.7-4.1-4.1c0.6-0.3,1.1-0.7,1.6-1C603.4,353.2,606,353.4,607.4,354.9z"/>
	</g>
</g>
</svg>
