<?xml version="1.0" encoding="utf-8"?>
<!-- Generator: Adobe Illustrator 26.5.0, SVG Export Plug-In . SVG Version: 6.00 Build 0)  -->
<svg version="1.1" id="Layer_2_00000140009766621612822370000007737411816589508779_"
	 xmlns="http://www.w3.org/2000/svg" xmlns:xlink="http://www.w3.org/1999/xlink" x="0px" y="0px" viewBox="0 0 2270.4 181.3"
	 style="enable-background:new 0 0 2270.4 181.3;" xml:space="preserve">
<g>
	<path d="M597.8,52.6c-0.5,3-1.1,5.9-1.6,8.9c-0.2,0.9,0.7,1.7,1.5,1.7c1.6,0,3.5,0,5.3,0c3.1,0,6.4,0,9.5,0c1.6,0,3.5,0,5.3,0
		c0.9,0,1.6-0.7,1.8-1.7c0.6-3,1.1-5.9,1.6-8.9c0.4-2.1,0.7-4.1,1.1-6.2c0.5-3.3,1.1-6.7,1.8-10c0.5-3.6,4.2-6.5,7.7-6.5
		c4.4,0,8.6,0,12.8,0c-1.1,5.5-2,11.1-2.9,16.6c-0.4,2.1-0.7,4.1-1.1,6.2c-0.9,4.6-1.7,9.3-2.6,13.9c-0.6,3.6-3.8,6.5-7.7,6.5
		c-6.6,0-13.1,0-19.5,0c-3.1,0-6.4,0-9.5,0c-6.7,0-13.3,0-19.9,0c-3.5,0-5.9-2.9-5.3-6.5c0.8-4.6,1.6-9.3,2.6-13.9
		c0.4-2.1,0.7-4.1,1.1-6.2c0.4-2.8,0.9-5.6,1.5-8.4c0.5-3.5-0.7-6.6-3.5-8.2c1.6,0,3.1,0,4.9,0c6.4,0,12.8,0,19.1,0
		c-1.1,5.5-2,11.1-2.9,16.6C598.5,48.5,598.2,50.6,597.8,52.6z"/>
	<path d="M650.6,29.9c1.6,0,3.3,0,5.1,0c6.2,0,12.4,0,18.8,0c6.6,7.6,13.1,15.1,19.9,22.7c0.4-2,0.7-4,1.1-6
		c0.5-3.4,1.1-6.8,1.8-10.2c0.5-3.6,3.8-6.5,7.7-6.5c4.2,0,8.4,0,12.8,0c-2.2,12.2-4.4,24.5-6.6,36.7c-0.7,3.6-4.2,6.5-7.7,6.5
		c-4.2,0-8.2,0-12.2,0c-6.7-7.5-13.5-15.1-19.9-22.7c-1.1,5.4-2,10.8-2.9,16.2c-0.7,3.6-4.2,6.5-7.7,6.5c-4.4,0-8.6,0-12.8,0
		c2-11.7,4-23.3,6.2-35C654.8,34.5,653.7,31.5,650.6,29.9z"/>
	<path d="M734,73.1c-4.4,0-8.6,0-12.8,0c2-11.7,4-23.3,6.2-35c0.5-3.5-0.5-6.6-3.6-8.2c1.6,0,3.3,0,5.1,0c6.4,0,12.8,0,19.3,0
		c-0.2,0.7-0.4,1.5-0.4,2.2c-0.9,4.8-1.8,9.6-2.6,14.4c-0.7,3.3-1.3,6.6-1.8,9.9c-0.5,3.4-1.1,6.8-1.8,10.2
		C741.1,70.1,737.5,73.1,734,73.1z"/>
	<path d="M752.4,66.6c0.2-1.2,0.5-2.4,0.7-3.7c1.1-6.2,2.2-12.5,3.3-18.7c0.4-1.9,0.7-3.9,1.1-5.8c0.5-3.7,0-6.6-3.5-8.5
		c1.6,0,3.1,0,4.9,0c2.2,0,4.2,0,6.4,0c1.3,0,2.6,0,4,0c0.9,0,2.2,0,3.5,0c2,0,4.2,0,6.2,0c0.2,0,0.4,0,0.5,0c4.4,0,8.6,0,12.8,0
		c6.4,0,12.9,0,19.5,0c0.9,0,2.2,0,3.5,0c-0.2,1.1-0.4,2.2-0.5,3.3c-0.7,3.6-4,6.5-7.7,6.5c-1.3,0-2.6,0-3.6,0c-2,0-3.8,0-5.7,0
		c-2.4,0-4.9,0-7.3,0c-2,0-4.2,0-6.2,0s-4.2,0-6.2,0c-0.9,0-1.5,0.6-1.8,1.3c-0.2,0.1-0.2,0.2-0.2,0.4c-0.3,2-0.7,3.9-1.1,5.8
		c-0.9,4.8-1.7,9.5-2.6,14.3c0,0.1,0,0.3,0.2,0.4c0,0.7,0.5,1.3,1.5,1.3c2,0,4,0,6.2,0c4.4,0,8.9,0,13.5,0c4,0,8,0,12,0
		c1.1,0,2.4,0,3.6,0c-0.4,1.1-0.5,2.2-0.7,3.3c-0.5,3.6-3.8,6.5-7.5,6.5c-1.3,0-2.6,0-3.6,0c-10.9,0-21.7,0-32.5,0
		c-2.6,0-4.9,0-7.5,0C754.2,73.1,751.9,70.1,752.4,66.6z"/>
	<path d="M820.2,63.2c1.5-8.4,3.1-16.8,4.6-25.2c0.5-3.5-0.5-6.6-3.6-8.2c1.6,0,3.3,0,5.1,0c4.2,0,8.6,0,13.1,0c1.3,0,2.9,0,4.6,0
		c0.2,0,0.4,0,0.5,0c0.4,0,0.7,0,1.1,0c6.6,0,13.1,0,19.7,0c5.7,0,11.5,0,17.5,0c-0.2,1.1-0.4,2.2-0.7,3.3c-0.5,3.6-4.2,6.5-7.8,6.5
		c-3.6,0-7.1,0-10.8,0c-6.6,0-13.1,0-19.7,0c0,0.3,0,0.7-0.2,1c-0.2,1.8-0.5,3.6-0.9,5.3c0,0.2,0,0.3,0,0.5c10.4,0,21,0,31.5,0
		c-0.2,1.1-0.4,2.2-0.7,3.3c-0.5,3.6-3.8,6.5-7.7,6.5c-8.4,0-16.6,0-25,0c0,0.2,0,0.3,0,0.5c-0.2,1-0.4,2-0.5,3
		c-0.2,1.1-0.4,2.1-0.5,3.2c0,0.1,0,0.1,0,0.1c6.6,0,13.1,0,19.7,0c5.7,0,11.5,0,17.3,0c-0.2,1.1-0.4,2.2-0.5,3.3
		c-0.7,3.6-4.2,6.5-7.8,6.5s-7.1,0-10.8,0c-6.6,0-13.1,0-19.7,0c-2.2,0-4.4,0-6.2,0c-2.4,0-4.6,0-6.6,0c-3.6,0-6.2-2.9-5.5-6.5
		C819.8,65.4,820,64.3,820.2,63.2z"/>
	<path d="M908,59.9c-0.2,1.1-0.4,2.1-0.5,3.2c-0.4,1.2-0.5,2.3-0.7,3.5c-0.2,1.3-0.7,2.4-1.6,3.4c-1.5,1.8-3.6,3-5.7,3.1
		c-4.6,0-8.9,0-13.1,0c2-11.7,4-23.3,6.2-35c0.5-3.5-0.5-6.6-3.6-8.2c1.6,0,3.3,0,5.1,0c4.2,0,8.6,0,13.1,0c1.3,0,2.9,0,4.6,0
		c0.2,0,0.4,0,0.5,0c0.4,0,0.7,0,1.1,0c6.6,0,13.1,0,19.7,0c5.7,0,11.5,0,17.5,0c-0.2,1.1-0.4,2.2-0.7,3.3c-0.5,3.6-4.2,6.5-7.8,6.5
		c-3.6,0-7.1,0-10.8,0c-6.6,0-13.1,0-19.7,0c0,0.3,0,0.7-0.2,1c-0.2,1.8-0.5,3.6-0.9,5.3c0,0.2,0,0.3,0,0.5c10.4,0,21,0,31.5,0
		c-0.2,1.1-0.4,2.2-0.7,3.3c-0.5,3.6-4,6.5-7.7,6.5c-8.4,0-16.6,0-25,0c0,0.2,0,0.3,0,0.5C908.3,57.9,908.2,58.9,908,59.9z"/>
	<path d="M992.3,73.1c2-11.7,4.2-23.3,6.2-35c0.5-3.5-0.5-6.6-3.3-8.2c1.5,0,3.1,0,4.7,0c6.4,0,12.8,0,19.3,0
		c-1.1,5.6-2,11.1-2.9,16.7c7.1,0,14.2,0,21.5,0c0.5-3.4,1.1-6.8,1.8-10.2c0.5-3.6,4-6.5,7.5-6.5c4.4,0,8.6,0,12.9,0
		c-2.2,12.2-4.4,24.5-6.6,36.7c-0.5,3.6-4,6.5-7.7,6.5c-4.2,0-8.4,0-12.8,0c0.9-5.5,2-11.1,2.9-16.7c-7.3,0-14.4,0-21.5,0
		c-0.5,3.4-1.1,6.8-1.8,10.2c-0.5,3.6-3.8,6.5-7.7,6.5C1000.8,73.1,996.5,73.1,992.3,73.1z"/>
	<path d="M1065,63.2c1.5-8.4,3.1-16.8,4.6-25.2c0.5-3.5-0.5-6.6-3.6-8.2c1.6,0,3.3,0,5.1,0c4.2,0,8.6,0,13.1,0c1.3,0,2.9,0,4.6,0
		c0.2,0,0.4,0,0.5,0c0.4,0,0.7,0,1.1,0c6.6,0,13.1,0,19.7,0c5.7,0,11.5,0,17.5,0c-0.2,1.1-0.4,2.2-0.7,3.3c-0.5,3.6-4.2,6.5-7.8,6.5
		c-3.6,0-7.1,0-10.8,0c-6.6,0-13.1,0-19.7,0c0,0.3,0,0.7-0.2,1c-0.2,1.8-0.5,3.6-0.9,5.3c0,0.2,0,0.3,0,0.5c10.4,0,21,0,31.5,0
		c-0.2,1.1-0.4,2.2-0.7,3.3c-0.5,3.6-3.8,6.5-7.7,6.5c-8.4,0-16.6,0-25,0c0,0.2,0,0.3,0,0.5c-0.2,1-0.4,2-0.5,3
		c-0.2,1.1-0.4,2.1-0.5,3.2c0,0.1,0,0.1,0,0.1c6.6,0,13.1,0,19.7,0c5.7,0,11.5,0,17.3,0c-0.2,1.1-0.4,2.2-0.5,3.3
		c-0.7,3.6-4.2,6.5-7.8,6.5s-7.1,0-10.8,0c-6.6,0-13.1,0-19.7,0c-2.2,0-4.4,0-6.2,0c-2.4,0-4.6,0-6.6,0c-3.6,0-6.2-2.9-5.5-6.5
		C1064.6,65.4,1064.8,64.3,1065,63.2z"/>
	<path d="M1159.5,59.9c-2.4,0-4.6,0-6.7,0c-0.4,2.2-0.7,4.4-1.1,6.6c-0.7,3.6-4.2,6.5-7.8,6.5c-4.2,0-8.4,0-12.8,0
		c2-11.7,4.2-23.3,6.2-35c0.5-3.5-0.4-6.6-3.5-8.2c1.6,0,3.3,0,4.9,0c5.8,0,11.9,0,17.9,0c0.5,0,1.1,0,1.6,0c11.3,0,22.6,0,34.3,0
		c3.5,0,5.9,3,5.3,6.5c-1,5.7-2.2,11.3-3.1,17c-0.7,3.6-4,6.5-7.7,6.5c-1.5,0-2.9,0-4.2,0c3.3,4.4,6.7,8.8,10.4,13.2
		c-5.1,0-9.8,0-14.6,0c-1.1,0-2.2,0-3.1,0c-1.6-0.1-2.7-0.5-4.2-2.2c-2.6-2.9-4.7-5.8-6.9-8.8C1163.3,60.7,1161.7,59.9,1159.5,59.9z
		 M1176.5,48.4c0.4-2.3,0.8-4.6,1.3-7c0.2-0.9-0.7-1.7-1.6-1.7c-6.6,0-13.1,0-19.7,0c-0.5,3.5-1.3,6.9-1.8,10.3c6.6,0,13.1,0,19.7,0
		C1175.2,50,1176.3,49.3,1176.5,48.4z"/>
	<path d="M1270.1,36.4c-1.8,10.1-3.7,20.1-5.5,30.2c-0.6,3.6-4,6.5-7.7,6.5c-16.4,0-32.6,0-48.9,0c-3.6,0-6.1-2.9-5.5-6.5
		c1.9-10,3.7-20.1,5.5-30.2c0.6-3.6,4-6.5,7.7-6.5c16.2,0,32.5,0,48.9,0C1268.3,29.9,1270.7,32.8,1270.1,36.4z M1224.4,63.2
		c6.6,0,13.1,0,20.1,0c0.7,0,1.7-0.7,1.8-1.7c1.1-6.7,2.4-13.4,3.6-20.1c0.2-0.9-0.5-1.7-1.5-1.7c-6.7,0-13.3,0-19.9,0
		c-1.1,0-1.8,0.7-2,1.7c-1.3,6.7-2.4,13.4-3.6,20.1C1222.7,62.5,1223.3,63.2,1224.4,63.2z"/>
	<path d="M1275.6,63.2c1.5-8.4,3.1-16.8,4.6-25.2c0.5-3.5-0.5-6.6-3.6-8.2c1.6,0,3.3,0,5.1,0c4.2,0,8.6,0,13.1,0c1.3,0,2.9,0,4.6,0
		c0.2,0,0.4,0,0.5,0c0.4,0,0.7,0,1.1,0c6.6,0,13.1,0,19.7,0c5.7,0,11.5,0,17.5,0c-0.2,1.1-0.4,2.2-0.7,3.3c-0.5,3.6-4.2,6.5-7.8,6.5
		c-3.6,0-7.1,0-10.8,0c-6.6,0-13.1,0-19.7,0c0,0.3,0,0.7-0.2,1c-0.2,1.8-0.5,3.6-0.9,5.3c0,0.2,0,0.3,0,0.5c10.4,0,21,0,31.5,0
		c-0.2,1.1-0.4,2.2-0.7,3.3c-0.5,3.6-3.8,6.5-7.7,6.5c-8.4,0-16.6,0-25,0c0,0.2,0,0.3,0,0.5c-0.2,1-0.4,2-0.5,3
		c-0.2,1.1-0.4,2.1-0.5,3.2c0,0.1,0,0.1,0,0.1c6.6,0,13.1,0,19.7,0c5.7,0,11.5,0,17.3,0c-0.2,1.1-0.4,2.2-0.5,3.3
		c-0.7,3.6-4.2,6.5-7.8,6.5s-7.1,0-10.8,0c-6.6,0-13.1,0-19.7,0c-2.2,0-4.4,0-6.2,0c-2.4,0-4.6,0-6.6,0c-3.6,0-6.2-2.9-5.5-6.5
		C1275.3,65.4,1275.4,64.3,1275.6,63.2z"/>
	<path d="M1382.6,63.2c1.1,0,2-0.7,2.2-1.7c0.2-1.1,0.3-2.3,0.5-3.5c0.2-0.9-0.4-1.6-1.3-1.7c-11.7,0-23.2,0-34.5,0
		c-3.6,0-6.1-2.9-5.5-6.5c0.5-2.9,1.1-5.8,1.6-8.8c0.2-1,0.4-2.1,0.5-3.1c0.5-3.5-0.2-6.4-3.6-8.2c1.6,0,3.3,0,5.1,0
		c2,0,4.2,0,6.6,0c2,0,4.2,0,6.4,0c15.7,0,31.2,0,47,0c-0.2,1.1-0.4,2.2-0.7,3.3c-0.5,3.6-3.8,6.5-7.5,6.5c-10.9,0-21.9,0-32.6,0
		c-0.9,0-1.6,0.8-1.8,1.7c-0.3,1.2-0.5,2.3-0.7,3.5c-0.2,0.9,0.5,1.6,1.3,1.7c11.5,0,23,0,34.6,0c3.5,0,5.9,2.9,5.3,6.5
		c-0.8,4.5-1.6,9-2.4,13.5c-0.7,3.6-4.2,6.5-7.7,6.5c-18,0-35.9,0-53.8,0c0.2-1.1,0.4-2.2,0.5-3.3c0.7-3.6,4.2-6.5,7.8-6.5
		C1360.9,63.2,1371.8,63.2,1382.6,63.2z"/>
	<path d="M1478,59.9c-2.4,0-4.6,0-6.7,0c-0.4,2.2-0.7,4.4-1.1,6.6c-0.7,3.6-4.2,6.5-7.8,6.5c-4.2,0-8.4,0-12.8,0
		c2-11.7,4.2-23.3,6.2-35c0.5-3.5-0.4-6.6-3.5-8.2c1.6,0,3.3,0,4.9,0c5.8,0,11.9,0,17.9,0c0.5,0,1.1,0,1.6,0c11.3,0,22.6,0,34.3,0
		c3.5,0,5.9,3,5.3,6.5c-1,5.7-2.2,11.3-3.1,17c-0.7,3.6-4,6.5-7.7,6.5c-1.5,0-2.9,0-4.2,0c3.3,4.4,6.7,8.8,10.4,13.2
		c-5.1,0-9.8,0-14.6,0c-1.1,0-2.2,0-3.1,0c-1.6-0.1-2.7-0.5-4.2-2.2c-2.6-2.9-4.7-5.8-6.9-8.8C1481.9,60.7,1480.2,59.9,1478,59.9z
		 M1495,48.4c0.4-2.3,0.8-4.6,1.3-7c0.2-0.9-0.7-1.7-1.6-1.7c-6.6,0-13.1,0-19.7,0c-0.5,3.5-1.3,6.9-1.8,10.3c6.6,0,13.1,0,19.7,0
		C1493.7,50,1494.8,49.3,1495,48.4z"/>
	<path d="M1542.9,52.6c-0.5,3-1.1,5.9-1.6,8.9c-0.2,0.9,0.7,1.7,1.5,1.7c1.6,0,3.5,0,5.3,0c3.1,0,6.4,0,9.5,0c1.6,0,3.5,0,5.3,0
		c0.9,0,1.6-0.7,1.8-1.7c0.6-3,1.1-5.9,1.6-8.9c0.4-2.1,0.7-4.1,1.1-6.2c0.5-3.3,1.1-6.7,1.8-10c0.5-3.6,4.2-6.5,7.7-6.5
		c4.4,0,8.6,0,12.8,0c-1.1,5.5-2,11.1-2.9,16.6c-0.4,2.1-0.7,4.1-1.1,6.2c-0.9,4.6-1.7,9.3-2.6,13.9c-0.6,3.6-3.8,6.5-7.7,6.5
		c-6.6,0-13.1,0-19.5,0c-3.1,0-6.4,0-9.5,0c-6.7,0-13.3,0-19.9,0c-3.5,0-5.9-2.9-5.3-6.5c0.8-4.6,1.6-9.3,2.6-13.9
		c0.4-2.1,0.7-4.1,1.1-6.2c0.4-2.8,0.9-5.6,1.5-8.4c0.5-3.5-0.7-6.6-3.5-8.2c1.6,0,3.1,0,4.9,0c6.4,0,12.8,0,19.1,0
		c-1.1,5.5-2,11.1-2.9,16.6C1543.6,48.5,1543.2,50.6,1542.9,52.6z"/>
	<path d="M1595.6,29.9c1.6,0,3.3,0,5.1,0c6.2,0,12.4,0,18.8,0c6.6,7.6,13.1,15.1,19.9,22.7c0.4-2,0.7-4,1.1-6
		c0.5-3.4,1.1-6.8,1.8-10.2c0.5-3.6,3.8-6.5,7.7-6.5c4.2,0,8.4,0,12.8,0c-2.2,12.2-4.4,24.5-6.6,36.7c-0.7,3.6-4.2,6.5-7.7,6.5
		c-4.2,0-8.2,0-12.2,0c-6.7-7.5-13.5-15.1-19.9-22.7c-1.1,5.4-2,10.8-2.9,16.2c-0.7,3.6-4.2,6.5-7.7,6.5c-4.4,0-8.6,0-12.8,0
		c2-11.7,4-23.3,6.2-35C1599.8,34.5,1598.7,31.5,1595.6,29.9z"/>
	<path d="M1668.9,58.1h19.3l-0.9,5.1c-0.2,1.1-0.4,2.2-0.7,3.3c-0.5,3.6-4.2,6.5-7.7,6.5c-4.4,0-8.6,0-12.8,0
		c0.6-3.3,1.1-6.6,1.7-9.9L1668.9,58.1z M1670.9,47.1c0.9-4.9,1.7-9.9,2.6-14.8c0.1-0.8,0.3-1.6,0.5-2.5c0.1-0.6,0.2-1.1,0.3-1.7
		c0.5-3.5-0.5-6.6-3.6-8.2c1.6,0,3.3,0,5.1,0c6.4,0,12.8,0,19.3,0c-0.2,0.7-0.4,1.5-0.4,2.2c-0.9,4.8-1.8,9.6-2.6,14.4
		c-0.1,0.6-0.2,1.1-0.4,1.7c-0.3,1.4-0.5,2.7-0.8,4.1c-0.2,1-0.3,2-0.5,3l-0.2,1.1l-0.8,4.8h-19.3
		C1670.4,49.9,1670.6,48.5,1670.9,47.1z"/>
	<path d="M38.7,132.9c-0.7,3.3-1.3,6.6-1.8,9.9c-0.7,3.4-1.3,6.8-1.8,10.2c-0.7,3.6-4,6.5-7.7,6.5c-4.4,0-8.6,0-12.9,0
		c2-11.1,3.8-22.2,5.8-33.3c-6.7,0-13.5,0-20.2,0c0.5-3.3,1.3-6.6,1.8-9.9c6.7,0,13.5,0,20.2,0c2.6,0,5.1,0,7.7,0c1.5,0,2.9,0,4.4,0
		c2.4,0,4.9,0,7.5,0c6.7,0,13.5,0,20.4,0c-0.2,1.1-0.4,2.2-0.7,3.3c-0.5,3.6-4.2,6.5-7.7,6.5c-4.7,0-9.3,0-13.9,0
		C39.4,128.4,39,130.7,38.7,132.9z"/>
	<path d="M87.9,139c-0.5,3-1.1,5.9-1.6,8.9c-0.2,0.9,0.7,1.7,1.5,1.7c1.6,0,3.5,0,5.3,0c3.1,0,6.4,0,9.5,0c1.6,0,3.5,0,5.3,0
		c0.9,0,1.6-0.7,1.8-1.7c0.6-3,1.1-5.9,1.6-8.9c0.4-2.1,0.7-4.1,1.1-6.2c0.5-3.3,1.1-6.7,1.8-10c0.5-3.6,4.2-6.5,7.7-6.5
		c4.4,0,8.6,0,12.8,0c-1.1,5.5-2,11.1-2.9,16.6c-0.4,2.1-0.7,4.1-1.1,6.2c-0.9,4.6-1.7,9.3-2.6,13.9c-0.6,3.6-3.8,6.5-7.7,6.5
		c-6.6,0-13.1,0-19.5,0c-3.1,0-6.4,0-9.5,0c-6.7,0-13.3,0-19.9,0c-3.5,0-5.9-2.9-5.3-6.5c0.8-4.6,1.6-9.3,2.6-13.9
		c0.4-2.1,0.7-4.1,1.1-6.2c0.4-2.8,0.9-5.6,1.5-8.4c0.5-3.5-0.7-6.6-3.5-8.2c1.6,0,3.1,0,4.9,0c6.4,0,12.8,0,19.1,0
		c-1.1,5.5-2,11.1-2.9,16.6C88.7,134.9,88.3,137,87.9,139z"/>
	<path d="M215.1,132.9c-0.7,3.3-1.3,6.6-1.8,9.9c-0.7,3.4-1.3,6.8-1.8,10.2c-0.7,3.6-4,6.5-7.7,6.5c-4.4,0-8.6,0-12.9,0
		c2-11.1,3.8-22.2,5.8-33.3c-6.7,0-13.5,0-20.2,0c0.5-3.3,1.3-6.6,1.8-9.9c6.7,0,13.5,0,20.2,0c2.6,0,5.1,0,7.7,0c1.5,0,2.9,0,4.4,0
		c2.4,0,4.9,0,7.5,0c6.7,0,13.5,0,20.4,0c-0.2,1.1-0.4,2.2-0.7,3.3c-0.5,3.6-4.2,6.5-7.7,6.5c-4.7,0-9.3,0-13.9,0
		C215.8,128.4,215.4,130.7,215.1,132.9z"/>
	<path d="M314.9,161.3c-7.3,0-14.6,0-21.9,0c-0.7-1.4-1.1-2.7-1.6-4.1c-8.2,0-16.4,0-24.4,0c-1.1,1.4-2.4,2.7-3.5,4.1
		c-7.3,0-14.4,0-21.5,0c10.9-13.7,22.2-27.4,33.5-41.1c1.6-2,0.2-2.9-1.8-3.9c1.6,0,3.3,0,4.9,0c3.8,0,7.5,0,11.5,0
		c2.6,0,4.6,1.2,5.7,3.5C302.2,133.6,308.5,147.5,314.9,161.3z M286.8,147.4c-1.5-3-2.9-6.1-4.4-9.1c-2.4,3-4.9,6.1-7.5,9.1
		C279,147.4,282.8,147.4,286.8,147.4z"/>
	<path d="M400.4,116.3c0,0,0.2,0,0.4,0c-2.2,12.2-4.4,24.5-6.6,36.7c-0.5,3.6-3.8,6.5-7.5,6.5c-4.2,0-8.6,0-12.8,0
		c0.7-4.5,1.5-9,2.4-13.6c-3.8,4.5-7.5,9.1-11.1,13.6c-0.2,0-0.4,0-0.4,0c-6,0-12,0-18,0c-0.2,0-0.4,0-0.4,0
		c-2.4-4.5-4.4-9-6.4-13.6c-0.4,2.4-0.7,4.7-1.3,7.1c-0.5,3.6-4,6.5-7.5,6.5c-4.2,0-8.6,0-12.8,0c2-12,4.2-24,6.4-36
		c0.5-3.2-0.7-5.7-3.5-7.2c1.5,0,3.1,0,4.7,0c0,0,0.2,0,0.4,0c5.8,0,11.9,0,17.9,0c0,0,0.2,0,0.4,0c4.4,9.7,8.9,19.3,13.5,29
		c6.9-8.5,13.9-17.1,21-25.6c1.8-2.2,4.4-3.4,6.7-3.4C390.9,116.3,395.6,116.3,400.4,116.3z"/>
	<path d="M412,116.3c6.4,0,12.8,0,19.1,0c12,0,24.2,0,36.3,0c3.5,0,5.9,3,5.3,6.5c-0.6,3.4-1.3,6.8-1.8,10.1c-0.3,2-1.6,3.8-3.3,5
		c1.3,1.2,1.8,3,1.5,5c-0.6,3.4-1.2,6.7-1.8,10.1c-0.7,3.6-4,6.5-7.5,6.5c-12,0-24.2,0-36.3,0c-6.4,0-12.8,0-19.1,0
		c0.9-5.5,2-11.1,2.9-16.7c1.1-6.1,2.2-12.2,3.3-18.4c0.5-3.5-0.7-6.6-3.6-8.2C408.5,116.3,410.2,116.3,412,116.3z M427.1,149.6
		c6.6,0,13.1,0,19.9,0c0.9,0,1.8-0.7,2-1.7c0.2-1.1,0.4-2.3,0.5-3.5c0.2-0.9-0.5-1.7-1.5-1.7c-1.1,0-2.2,0-3.3,0c-1.1,0-2.2,0-3.3,0
		c-5.1,0-10.2,0-15.1,0c-0.4,2.3-0.7,4.5-1.1,6.8C425.9,149.6,426.4,149.6,427.1,149.6z M446.6,132.9c1.1,0,2.2,0,3.3,0
		c0.9,0,1.8-0.7,2-1.7c0.2-1.1,0.5-2.3,0.7-3.5c0.2-0.9-0.7-1.7-1.6-1.7c-6.7,0-13.3,0-19.9,0c-0.7,0-1.3,0-1.8,0
		c-0.4,2.3-0.7,4.5-1.1,6.8c4.9,0,10,0,15.1,0C444.5,132.9,445.6,132.9,446.6,132.9z"/>
	<path d="M489.8,159.5c-4.4,0-8.6,0-12.8,0c2-11.7,4-23.3,6.2-35c0.5-3.5-0.5-6.6-3.6-8.2c1.6,0,3.3,0,5.1,0c6.4,0,12.8,0,19.3,0
		c-0.2,0.7-0.4,1.5-0.4,2.2c-0.9,4.8-1.8,9.6-2.6,14.4c-0.7,3.3-1.3,6.6-1.8,9.9c-0.5,3.4-1.1,6.8-1.8,10.2
		C496.9,156.5,493.2,159.5,489.8,159.5z"/>
	<path d="M508.9,149.6c1.5-8.4,3.1-16.8,4.6-25.2c0.5-3.5-0.5-6.6-3.6-8.2c1.6,0,3.3,0,5.1,0c4.2,0,8.6,0,13.1,0c1.3,0,2.9,0,4.6,0
		c0.2,0,0.4,0,0.5,0c0.4,0,0.7,0,1.1,0c6.6,0,13.1,0,19.7,0c5.7,0,11.5,0,17.5,0c-0.2,1.1-0.4,2.2-0.7,3.3c-0.5,3.6-4.2,6.5-7.8,6.5
		c-3.6,0-7.1,0-10.8,0c-6.6,0-13.1,0-19.7,0c0,0.3,0,0.7-0.2,1c-0.2,1.8-0.5,3.6-0.9,5.3c0,0.2,0,0.3,0,0.5c10.4,0,21,0,31.5,0
		c-0.2,1.1-0.4,2.2-0.7,3.3c-0.5,3.6-3.8,6.5-7.7,6.5c-8.4,0-16.6,0-25,0c0,0.2,0,0.3,0,0.5c-0.2,1-0.4,2-0.5,3
		c-0.2,1.1-0.4,2.1-0.5,3.2c0,0.1,0,0.1,0,0.1c6.6,0,13.1,0,19.7,0c5.7,0,11.5,0,17.3,0c-0.2,1.1-0.4,2.2-0.5,3.3
		c-0.7,3.6-4.2,6.5-7.8,6.5s-7.1,0-10.8,0c-6.6,0-13.1,0-19.7,0c-2.2,0-4.4,0-6.2,0c-2.4,0-4.6,0-6.6,0c-3.6,0-6.2-2.9-5.5-6.5
		C508.5,151.8,508.7,150.7,508.9,149.6z"/>
	<path d="M577.5,116.3c1.6,0,3.3,0,5.1,0c6.2,0,12.4,0,18.8,0c6.6,7.6,13.1,15.1,19.9,22.7c0.4-2,0.7-4,1.1-6
		c0.5-3.4,1.1-6.8,1.8-10.2c0.5-3.6,3.8-6.5,7.7-6.5c4.2,0,8.4,0,12.8,0c-2.2,12.2-4.4,24.5-6.6,36.7c-0.7,3.6-4.2,6.5-7.7,6.5
		c-4.2,0-8.2,0-12.2,0c-6.7-7.5-13.5-15.1-19.9-22.7c-1.1,5.4-2,10.8-2.9,16.2c-0.7,3.6-4.2,6.5-7.7,6.5c-4.4,0-8.6,0-12.8,0
		c2-11.7,4-23.3,6.2-35C581.7,120.9,580.6,117.9,577.5,116.3z"/>
	<path d="M686.4,159.5c2-11.7,4-23.3,6.2-35c0.5-3.5-0.5-6.6-3.6-8.2c1.6,0,3.3,0,5.1,0c5.8,0,11.7,0,17.7,0c0.5,0,1.1,0,1.6,0
		c11.3,0,22.8,0,34.3,0c3.6,0,5.9,3,5.3,6.5c-1,5.7-2,11.3-3.1,17c-0.5,3.6-4,6.5-7.7,6.5c-11.5,0-22.8,0-34.3,0
		c-0.4,2.2-0.7,4.4-1.1,6.6c-0.7,3.6-4.2,6.5-7.7,6.5C694.8,159.5,690.6,159.5,686.4,159.5z M729.5,136.4c0.9,0,2-0.7,2.2-1.7
		c0.4-2.3,0.8-4.6,1.3-7c0.2-0.9-0.7-1.7-1.6-1.7c-6.6,0-13.1,0-19.7,0c-0.5,3.5-1.3,6.9-1.8,10.3
		C716.3,136.4,722.9,136.4,729.5,136.4z"/>
	<path d="M779.6,139c-0.5,3-1.1,5.9-1.6,8.9c-0.2,0.9,0.7,1.7,1.5,1.7c1.6,0,3.5,0,5.3,0c3.1,0,6.4,0,9.5,0c1.6,0,3.5,0,5.3,0
		c0.9,0,1.6-0.7,1.8-1.7c0.6-3,1.1-5.9,1.6-8.9c0.4-2.1,0.7-4.1,1.1-6.2c0.5-3.3,1.1-6.7,1.8-10c0.5-3.6,4.2-6.5,7.7-6.5
		c4.4,0,8.6,0,12.8,0c-1.1,5.5-2,11.1-2.9,16.6c-0.4,2.1-0.7,4.1-1.1,6.2c-0.9,4.6-1.7,9.3-2.6,13.9c-0.6,3.6-3.8,6.5-7.7,6.5
		c-6.6,0-13.1,0-19.5,0c-3.1,0-6.4,0-9.5,0c-6.7,0-13.3,0-19.9,0c-3.5,0-5.9-2.9-5.3-6.5c0.8-4.6,1.6-9.3,2.6-13.9
		c0.4-2.1,0.7-4.1,1.1-6.2c0.4-2.8,0.9-5.6,1.5-8.4c0.5-3.5-0.7-6.6-3.5-8.2c1.6,0,3.1,0,4.9,0c6.4,0,12.8,0,19.1,0
		c-1.1,5.5-2,11.1-2.9,16.6C780.3,134.9,779.9,137,779.6,139z"/>
	<path d="M831.1,149.6c1.5-8.4,3.1-16.8,4.6-25.2c0.5-3.5-0.5-6.6-3.6-8.2c1.6,0,3.3,0,5.1,0c4.2,0,8.6,0,13.1,0c1.3,0,2.9,0,4.6,0
		c0.2,0,0.4,0,0.5,0c0.4,0,0.7,0,1.1,0c6.6,0,13.1,0,19.7,0c5.7,0,11.5,0,17.5,0c-0.2,1.1-0.4,2.2-0.7,3.3c-0.5,3.6-4.2,6.5-7.8,6.5
		c-3.6,0-7.1,0-10.8,0c-6.6,0-13.1,0-19.7,0c0,0.3,0,0.7-0.2,1c-0.2,1.8-0.5,3.6-0.9,5.3c0,0.2,0,0.3,0,0.5c10.4,0,21,0,31.5,0
		c-0.2,1.1-0.4,2.2-0.7,3.3c-0.5,3.6-3.8,6.5-7.7,6.5c-8.4,0-16.6,0-25,0c0,0.2,0,0.3,0,0.5c-0.2,1-0.4,2-0.5,3
		c-0.2,1.1-0.4,2.1-0.5,3.2c0,0.1,0,0.1,0,0.1c6.6,0,13.1,0,19.7,0c5.7,0,11.5,0,17.3,0c-0.2,1.1-0.4,2.2-0.5,3.3
		c-0.7,3.6-4.2,6.5-7.8,6.5s-7.1,0-10.8,0c-6.6,0-13.1,0-19.7,0c-2.2,0-4.4,0-6.2,0c-2.4,0-4.6,0-6.6,0c-3.6,0-6.2-2.9-5.5-6.5
		C830.7,151.8,830.9,150.7,831.1,149.6z"/>
	<path d="M904.8,116.3c6.4,0,12.8,0,19.3,0c2.4,0,4.7,0,7.1,0c4.6,0,8.9,0,13.7,0c4.4,0,8.9,0,13.7,0c1.6,0,3.1,0.8,4.2,2
		c0.9,1.2,1.4,2.8,1.1,4.5c-1.7,10.1-3.7,20.1-5.5,30.2c-0.6,3.6-4,6.5-7.5,6.5c-9.1,0-18.2,0-27.3,0c-2.4,0-4.7,0-7.1,0
		c-6.6,0-12.9,0-19.3,0c0.5-3.3,1.1-6.6,1.8-9.9c1.5-8.4,2.9-16.8,4.4-25.2c0.5-3.5-0.5-6.6-3.5-8.2
		C901.6,116.3,903,116.3,904.8,116.3z M943.5,127.8c0.2-0.9-0.4-1.7-1.3-1.7c-4.4,0-8.6,0-12.8,0c-2.4,0-4.7,0-7.1,0
		c-1.3,7.8-2.7,15.7-4,23.5c2.4,0,4.7,0,7.1,0c4.2,0,8.4,0,12.8,0c0.7,0,1.5-0.7,1.6-1.7c0.9-4.8,1.6-9.5,2.6-14.3
		C942.8,131.7,943.1,129.8,943.5,127.8z"/>
	<path d="M969.1,149.6c1.5-8.4,3.1-16.8,4.6-25.2c0.5-3.5-0.5-6.6-3.6-8.2c1.6,0,3.3,0,5.1,0c4.2,0,8.6,0,13.1,0c1.3,0,2.9,0,4.6,0
		c0.2,0,0.4,0,0.5,0c0.4,0,0.7,0,1.1,0c6.6,0,13.1,0,19.7,0c5.7,0,11.5,0,17.5,0c-0.2,1.1-0.4,2.2-0.7,3.3c-0.5,3.6-4.2,6.5-7.8,6.5
		c-3.6,0-7.1,0-10.8,0c-6.6,0-13.1,0-19.7,0c0,0.3,0,0.7-0.2,1c-0.2,1.8-0.5,3.6-0.9,5.3c0,0.2,0,0.3,0,0.5c10.4,0,21,0,31.5,0
		c-0.2,1.1-0.4,2.2-0.7,3.3c-0.5,3.6-3.8,6.5-7.7,6.5c-8.4,0-16.6,0-25,0c0,0.2,0,0.3,0,0.5c-0.2,1-0.4,2-0.5,3
		c-0.2,1.1-0.4,2.1-0.5,3.2c0,0.1,0,0.1,0,0.1c6.6,0,13.1,0,19.7,0c5.7,0,11.5,0,17.3,0c-0.2,1.1-0.4,2.2-0.5,3.3
		c-0.7,3.6-4.2,6.5-7.8,6.5s-7.1,0-10.8,0c-6.6,0-13.1,0-19.7,0c-2.2,0-4.4,0-6.2,0c-2.4,0-4.6,0-6.6,0c-3.6,0-6.2-2.9-5.5-6.5
		C968.7,151.8,968.9,150.7,969.1,149.6z"/>
	<path d="M1076,149.6c1.1,0,2-0.7,2.2-1.7c0.2-1.1,0.3-2.3,0.5-3.5c0.2-0.9-0.4-1.6-1.3-1.7c-11.7,0-23.2,0-34.5,0
		c-3.6,0-6.1-2.9-5.5-6.5c0.5-2.9,1.1-5.8,1.6-8.8c0.2-1,0.4-2.1,0.5-3.1c0.5-3.5-0.2-6.4-3.6-8.2c1.6,0,3.3,0,5.1,0
		c2,0,4.2,0,6.6,0c2,0,4.2,0,6.4,0c15.7,0,31.2,0,47,0c-0.2,1.1-0.4,2.2-0.7,3.3c-0.5,3.6-3.8,6.5-7.5,6.5c-10.9,0-21.9,0-32.6,0
		c-0.9,0-1.6,0.8-1.8,1.7c-0.3,1.2-0.5,2.3-0.7,3.5c-0.2,0.9,0.5,1.6,1.3,1.7c11.5,0,23,0,34.6,0c3.5,0,5.9,2.9,5.3,6.5
		c-0.8,4.5-1.6,9-2.4,13.5c-0.7,3.6-4.2,6.5-7.7,6.5c-18,0-35.9,0-53.8,0c0.2-1.1,0.4-2.2,0.5-3.3c0.7-3.6,4.2-6.5,7.8-6.5
		C1054.3,149.6,1065.3,149.6,1076,149.6z"/>
	<path d="M1183.9,149.6c1.1,0,2-0.7,2.2-1.7c0.2-1.1,0.3-2.3,0.5-3.5c0.2-0.9-0.4-1.6-1.3-1.7c-11.7,0-23.2,0-34.5,0
		c-3.6,0-6.1-2.9-5.5-6.5c0.5-2.9,1.1-5.8,1.6-8.8c0.2-1,0.4-2.1,0.5-3.1c0.5-3.5-0.2-6.4-3.6-8.2c1.6,0,3.3,0,5.1,0
		c2,0,4.2,0,6.6,0c2,0,4.2,0,6.4,0c15.7,0,31.2,0,47,0c-0.2,1.1-0.4,2.2-0.7,3.3c-0.5,3.6-3.8,6.5-7.5,6.5c-10.9,0-21.9,0-32.6,0
		c-0.9,0-1.6,0.8-1.8,1.7c-0.3,1.2-0.5,2.3-0.7,3.5c-0.2,0.9,0.5,1.6,1.3,1.7c11.5,0,23,0,34.6,0c3.5,0,5.9,2.9,5.3,6.5
		c-0.8,4.5-1.6,9-2.4,13.5c-0.7,3.6-4.2,6.5-7.7,6.5c-18,0-35.9,0-53.8,0c0.2-1.1,0.4-2.2,0.5-3.3c0.7-3.6,4.2-6.5,7.8-6.5
		C1162.2,149.6,1173.1,149.6,1183.9,149.6z"/>
	<path d="M1214,149.6c1.5-8.4,3.1-16.8,4.6-25.2c0.5-3.5-0.5-6.6-3.6-8.2c1.6,0,3.3,0,5.1,0c4.2,0,8.6,0,13.1,0c1.3,0,2.9,0,4.6,0
		c0.2,0,0.4,0,0.5,0c0.4,0,0.7,0,1.1,0c6.6,0,13.1,0,19.7,0c5.7,0,11.5,0,17.5,0c-0.2,1.1-0.4,2.2-0.7,3.3c-0.5,3.6-4.2,6.5-7.8,6.5
		c-3.6,0-7.1,0-10.8,0c-6.6,0-13.1,0-19.7,0c0,0.3,0,0.7-0.2,1c-0.2,1.8-0.5,3.6-0.9,5.3c0,0.2,0,0.3,0,0.5c10.4,0,21,0,31.5,0
		c-0.2,1.1-0.4,2.2-0.7,3.3c-0.5,3.6-3.8,6.5-7.7,6.5c-8.4,0-16.6,0-25,0c0,0.2,0,0.3,0,0.5c-0.2,1-0.4,2-0.5,3
		c-0.2,1.1-0.4,2.1-0.5,3.2c0,0.1,0,0.1,0,0.1c6.6,0,13.1,0,19.7,0c5.7,0,11.5,0,17.3,0c-0.2,1.1-0.4,2.2-0.5,3.3
		c-0.7,3.6-4.2,6.5-7.8,6.5s-7.1,0-10.8,0c-6.6,0-13.1,0-19.7,0c-2.2,0-4.4,0-6.2,0c-2.4,0-4.6,0-6.6,0c-3.6,0-6.2-2.9-5.5-6.5
		C1213.6,151.8,1213.8,150.7,1214,149.6z"/>
	<path d="M1308.5,146.3c-2.4,0-4.6,0-6.7,0c-0.4,2.2-0.7,4.4-1.1,6.6c-0.7,3.6-4.2,6.5-7.8,6.5c-4.2,0-8.4,0-12.8,0
		c2-11.7,4.2-23.3,6.2-35c0.5-3.5-0.4-6.6-3.5-8.2c1.6,0,3.3,0,4.9,0c5.8,0,11.9,0,17.9,0c0.5,0,1.1,0,1.6,0c11.3,0,22.6,0,34.3,0
		c3.5,0,5.9,3,5.3,6.5c-1,5.7-2.2,11.3-3.1,17c-0.7,3.6-4,6.5-7.7,6.5c-1.5,0-2.9,0-4.2,0c3.3,4.4,6.7,8.8,10.4,13.2
		c-5.1,0-9.8,0-14.6,0c-1.1,0-2.2,0-3.1,0c-1.6-0.1-2.7-0.5-4.2-2.2c-2.6-2.9-4.7-5.8-6.9-8.8C1312.3,147,1310.7,146.3,1308.5,146.3
		z M1325.5,134.8c0.4-2.3,0.8-4.6,1.3-7c0.2-0.9-0.7-1.7-1.6-1.7c-6.6,0-13.1,0-19.7,0c-0.5,3.5-1.3,6.9-1.8,10.3
		c6.6,0,13.1,0,19.7,0C1324.2,136.4,1325.3,135.7,1325.5,134.8z"/>
	<path d="M1411.6,139c-0.5,3-1.1,5.9-1.6,8.9c-0.2,0.9,0.7,1.7,1.5,1.7c1.6,0,3.5,0,5.3,0c3.1,0,6.4,0,9.5,0c1.6,0,3.5,0,5.3,0
		c0.9,0,1.6-0.7,1.8-1.7c0.6-3,1.1-5.9,1.6-8.9c0.4-2.1,0.7-4.1,1.1-6.2c0.5-3.3,1.1-6.7,1.8-10c0.5-3.6,4.2-6.5,7.7-6.5
		c4.4,0,8.6,0,12.8,0c-1.1,5.5-2,11.1-2.9,16.6c-0.4,2.1-0.7,4.1-1.1,6.2c-0.9,4.6-1.7,9.3-2.6,13.9c-0.6,3.6-3.8,6.5-7.7,6.5
		c-6.6,0-13.1,0-19.5,0c-3.1,0-6.4,0-9.5,0c-6.7,0-13.3,0-19.9,0c-3.5,0-5.9-2.9-5.3-6.5c0.8-4.6,1.6-9.3,2.6-13.9
		c0.4-2.1,0.7-4.1,1.1-6.2c0.4-2.8,0.9-5.6,1.5-8.4c0.5-3.5-0.7-6.6-3.5-8.2c1.6,0,3.1,0,4.9,0c6.4,0,12.8,0,19.1,0
		c-1.1,5.5-2,11.1-2.9,16.6C1412.3,134.9,1411.9,137,1411.6,139z"/>
	<path d="M1464.4,116.3c1.6,0,3.3,0,5.1,0c6.2,0,12.4,0,18.8,0c6.6,7.6,13.1,15.1,19.9,22.7c0.4-2,0.7-4,1.1-6
		c0.5-3.4,1.1-6.8,1.8-10.2c0.5-3.6,3.8-6.5,7.7-6.5c4.2,0,8.4,0,12.8,0c-2.2,12.2-4.4,24.5-6.6,36.7c-0.7,3.6-4.2,6.5-7.7,6.5
		c-4.2,0-8.2,0-12.2,0c-6.7-7.5-13.5-15.1-19.9-22.7c-1.1,5.4-2,10.8-2.9,16.2c-0.7,3.6-4.2,6.5-7.7,6.5c-4.4,0-8.6,0-12.8,0
		c2-11.7,4-23.3,6.2-35C1468.5,120.9,1467.5,117.9,1464.4,116.3z"/>
	<path d="M1614.1,149.6c1.1,0,2-0.7,2.2-1.7c0.2-1.1,0.3-2.3,0.5-3.5c0.2-0.9-0.4-1.6-1.3-1.7c-11.7,0-23.2,0-34.5,0
		c-3.6,0-6.1-2.9-5.5-6.5c0.5-2.9,1.1-5.8,1.6-8.8c0.2-1,0.4-2.1,0.5-3.1c0.5-3.5-0.2-6.4-3.6-8.2c1.6,0,3.3,0,5.1,0
		c2,0,4.2,0,6.6,0c2,0,4.2,0,6.4,0c15.7,0,31.2,0,47,0c-0.2,1.1-0.4,2.2-0.7,3.3c-0.5,3.6-3.8,6.5-7.5,6.5c-10.9,0-21.9,0-32.6,0
		c-0.9,0-1.6,0.8-1.8,1.7c-0.3,1.2-0.5,2.3-0.7,3.5c-0.2,0.9,0.5,1.6,1.3,1.7c11.5,0,23,0,34.6,0c3.5,0,5.9,2.9,5.3,6.5
		c-0.8,4.5-1.6,9-2.4,13.5c-0.7,3.6-4.2,6.5-7.7,6.5c-18,0-35.9,0-53.8,0c0.2-1.1,0.4-2.2,0.5-3.3c0.7-3.6,4.2-6.5,7.8-6.5
		C1592.4,149.6,1603.3,149.6,1614.1,149.6z"/>
	<path d="M1665.2,139c-0.5,3-1.1,5.9-1.6,8.9c-0.2,0.9,0.7,1.7,1.5,1.7c1.6,0,3.5,0,5.3,0c3.1,0,6.4,0,9.5,0c1.6,0,3.5,0,5.3,0
		c0.9,0,1.6-0.7,1.8-1.7c0.6-3,1.1-5.9,1.6-8.9c0.4-2.1,0.7-4.1,1.1-6.2c0.5-3.3,1.1-6.7,1.8-10c0.5-3.6,4.2-6.5,7.7-6.5
		c4.4,0,8.6,0,12.8,0c-1.1,5.5-2,11.1-2.9,16.6c-0.4,2.1-0.7,4.1-1.1,6.2c-0.9,4.6-1.7,9.3-2.6,13.9c-0.6,3.6-3.8,6.5-7.7,6.5
		c-6.6,0-13.1,0-19.5,0c-3.1,0-6.4,0-9.5,0c-6.7,0-13.3,0-19.9,0c-3.5,0-5.9-2.9-5.3-6.5c0.8-4.6,1.6-9.3,2.6-13.9
		c0.4-2.1,0.7-4.1,1.1-6.2c0.4-2.8,0.9-5.6,1.5-8.4c0.5-3.5-0.7-6.6-3.5-8.2c1.6,0,3.1,0,4.9,0c6.4,0,12.8,0,19.1,0
		c-1.1,5.5-2,11.1-2.9,16.6C1665.9,134.9,1665.6,137,1665.2,139z"/>
	<path d="M1715.5,159.5c2-11.7,4-23.3,6.2-35c0.5-3.5-0.5-6.6-3.6-8.2c1.6,0,3.3,0,5.1,0c5.8,0,11.7,0,17.7,0c0.5,0,1.1,0,1.6,0
		c11.3,0,22.8,0,34.3,0c3.6,0,5.9,3,5.3,6.5c-1,5.7-2,11.3-3.1,17c-0.5,3.6-4,6.5-7.7,6.5c-11.5,0-22.8,0-34.3,0
		c-0.4,2.2-0.7,4.4-1.1,6.6c-0.7,3.6-4.2,6.5-7.7,6.5C1723.8,159.5,1719.7,159.5,1715.5,159.5z M1758.5,136.4c0.9,0,2-0.7,2.2-1.7
		c0.4-2.3,0.8-4.6,1.3-7c0.2-0.9-0.7-1.7-1.6-1.7c-6.6,0-13.1,0-19.7,0c-0.5,3.5-1.3,6.9-1.8,10.3
		C1745.4,136.4,1751.9,136.4,1758.5,136.4z"/>
	<path d="M1787.5,149.6c1.5-8.4,3.1-16.8,4.6-25.2c0.5-3.5-0.5-6.6-3.6-8.2c1.6,0,3.3,0,5.1,0c4.2,0,8.6,0,13.1,0c1.3,0,2.9,0,4.6,0
		c0.2,0,0.4,0,0.5,0c0.4,0,0.7,0,1.1,0c6.6,0,13.1,0,19.7,0c5.7,0,11.5,0,17.5,0c-0.2,1.1-0.4,2.2-0.7,3.3c-0.5,3.6-4.2,6.5-7.8,6.5
		c-3.6,0-7.1,0-10.8,0c-6.6,0-13.1,0-19.7,0c0,0.3,0,0.7-0.2,1c-0.2,1.8-0.5,3.6-0.9,5.3c0,0.2,0,0.3,0,0.5c10.4,0,21,0,31.5,0
		c-0.2,1.1-0.4,2.2-0.7,3.3c-0.5,3.6-3.8,6.5-7.7,6.5c-8.4,0-16.6,0-25,0c0,0.2,0,0.3,0,0.5c-0.2,1-0.4,2-0.5,3
		c-0.2,1.1-0.4,2.1-0.5,3.2c0,0.1,0,0.1,0,0.1c6.6,0,13.1,0,19.7,0c5.7,0,11.5,0,17.3,0c-0.2,1.1-0.4,2.2-0.5,3.3
		c-0.7,3.6-4.2,6.5-7.8,6.5s-7.1,0-10.8,0c-6.6,0-13.1,0-19.7,0c-2.2,0-4.4,0-6.2,0c-2.4,0-4.6,0-6.6,0c-3.6,0-6.2-2.9-5.5-6.5
		C1787.1,151.8,1787.3,150.7,1787.5,149.6z"/>
	<path d="M1882.1,146.3c-2.4,0-4.6,0-6.7,0c-0.4,2.2-0.7,4.4-1.1,6.6c-0.7,3.6-4.2,6.5-7.8,6.5c-4.2,0-8.4,0-12.8,0
		c2-11.7,4.2-23.3,6.2-35c0.5-3.5-0.4-6.6-3.5-8.2c1.6,0,3.3,0,4.9,0c5.8,0,11.9,0,17.9,0c0.5,0,1.1,0,1.6,0c11.3,0,22.6,0,34.3,0
		c3.5,0,5.9,3,5.3,6.5c-1,5.7-2.2,11.3-3.1,17c-0.7,3.6-4,6.5-7.7,6.5c-1.5,0-2.9,0-4.2,0c3.3,4.4,6.7,8.8,10.4,13.2
		c-5.1,0-9.8,0-14.6,0c-1.1,0-2.2,0-3.1,0c-1.6-0.1-2.7-0.5-4.2-2.2c-2.6-2.9-4.7-5.8-6.9-8.8C1885.9,147,1884.3,146.3,1882.1,146.3
		z M1899,134.8c0.4-2.3,0.8-4.6,1.3-7c0.2-0.9-0.7-1.7-1.6-1.7c-6.6,0-13.1,0-19.7,0c-0.5,3.5-1.3,6.9-1.8,10.3c6.6,0,13.1,0,19.7,0
		C1897.7,136.4,1898.9,135.7,1899,134.8z"/>
	<path d="M1924.5,159.5c2-11.7,4.2-23.3,6.2-35c0.5-3.5-0.5-6.6-3.3-8.2c1.5,0,3.1,0,4.7,0c6.4,0,12.8,0,19.3,0
		c-1.1,5.6-2,11.1-2.9,16.7c7.1,0,14.2,0,21.5,0c0.5-3.4,1.1-6.8,1.8-10.2c0.5-3.6,4-6.5,7.5-6.5c4.4,0,8.6,0,12.9,0
		c-2.2,12.2-4.4,24.5-6.6,36.7c-0.5,3.6-4,6.5-7.7,6.5c-4.2,0-8.4,0-12.8,0c0.9-5.5,2-11.1,2.9-16.7c-7.3,0-14.4,0-21.5,0
		c-0.5,3.4-1.1,6.8-1.8,10.2c-0.5,3.6-3.8,6.5-7.7,6.5C1933.1,159.5,1928.7,159.5,1924.5,159.5z"/>
	<path d="M1997.2,149.6c1.5-8.4,3.1-16.8,4.6-25.2c0.5-3.5-0.5-6.6-3.6-8.2c1.6,0,3.3,0,5.1,0c4.2,0,8.6,0,13.1,0c1.3,0,2.9,0,4.6,0
		c0.2,0,0.4,0,0.5,0c0.4,0,0.7,0,1.1,0c6.6,0,13.1,0,19.7,0c5.7,0,11.5,0,17.5,0c-0.2,1.1-0.4,2.2-0.7,3.3c-0.5,3.6-4.2,6.5-7.8,6.5
		c-3.6,0-7.1,0-10.8,0c-6.6,0-13.1,0-19.7,0c0,0.3,0,0.7-0.2,1c-0.2,1.8-0.5,3.6-0.9,5.3c0,0.2,0,0.3,0,0.5c10.4,0,21,0,31.5,0
		c-0.2,1.1-0.4,2.2-0.7,3.3c-0.5,3.6-3.8,6.5-7.7,6.5c-8.4,0-16.6,0-25,0c0,0.2,0,0.3,0,0.5c-0.2,1-0.4,2-0.5,3
		c-0.2,1.1-0.4,2.1-0.5,3.2c0,0.1,0,0.1,0,0.1c6.6,0,13.1,0,19.7,0c5.7,0,11.5,0,17.3,0c-0.2,1.1-0.4,2.2-0.5,3.3
		c-0.7,3.6-4.2,6.5-7.8,6.5s-7.1,0-10.8,0c-6.6,0-13.1,0-19.7,0c-2.2,0-4.4,0-6.2,0c-2.4,0-4.6,0-6.6,0c-3.6,0-6.2-2.9-5.5-6.5
		C1996.9,151.8,1997.1,150.7,1997.2,149.6z"/>
	<path d="M2091.8,146.3c-2.4,0-4.6,0-6.7,0c-0.4,2.2-0.7,4.4-1.1,6.6c-0.7,3.6-4.2,6.5-7.8,6.5c-4.2,0-8.4,0-12.8,0
		c2-11.7,4.2-23.3,6.2-35c0.5-3.5-0.4-6.6-3.5-8.2c1.6,0,3.3,0,4.9,0c5.8,0,11.9,0,17.9,0c0.5,0,1.1,0,1.6,0c11.3,0,22.6,0,34.3,0
		c3.5,0,5.9,3,5.3,6.5c-1,5.7-2.2,11.3-3.1,17c-0.7,3.6-4,6.5-7.7,6.5c-1.5,0-2.9,0-4.2,0c3.3,4.4,6.7,8.8,10.4,13.2
		c-5.1,0-9.8,0-14.6,0c-1.1,0-2.2,0-3.1,0c-1.6-0.1-2.7-0.5-4.2-2.2c-2.6-2.9-4.7-5.8-6.9-8.8C2095.6,147,2094,146.3,2091.8,146.3z
		 M2108.8,134.8c0.4-2.3,0.8-4.6,1.3-7c0.2-0.9-0.7-1.7-1.6-1.7c-6.6,0-13.1,0-19.7,0c-0.5,3.5-1.3,6.9-1.8,10.3
		c6.6,0,13.1,0,19.7,0C2107.5,136.4,2108.6,135.7,2108.8,134.8z"/>
	<path d="M2202.4,122.8c-1.8,10.1-3.7,20.1-5.5,30.2c-0.6,3.6-4,6.5-7.7,6.5c-16.4,0-32.6,0-48.9,0c-3.6,0-6.1-2.9-5.5-6.5
		c1.9-10,3.7-20.1,5.5-30.2c0.6-3.6,4-6.5,7.7-6.5c16.2,0,32.5,0,48.9,0C2200.6,116.3,2203,119.2,2202.4,122.8z M2156.6,149.6
		c6.6,0,13.1,0,20.1,0c0.7,0,1.7-0.7,1.8-1.7c1.1-6.7,2.4-13.4,3.6-20.1c0.2-0.9-0.5-1.7-1.5-1.7c-6.7,0-13.3,0-19.9,0
		c-1.1,0-1.8,0.7-2,1.7c-1.3,6.7-2.4,13.4-3.6,20.1C2155,148.9,2155.6,149.6,2156.6,149.6z"/>
	<path d="M2207.9,149.6c1.5-8.4,3.1-16.8,4.6-25.2c0.5-3.5-0.5-6.6-3.6-8.2c1.6,0,3.3,0,5.1,0c4.2,0,8.6,0,13.1,0c1.3,0,2.9,0,4.6,0
		c0.2,0,0.4,0,0.5,0c0.4,0,0.7,0,1.1,0c6.6,0,13.1,0,19.7,0c5.7,0,11.5,0,17.5,0c-0.2,1.1-0.4,2.2-0.7,3.3c-0.5,3.6-4.2,6.5-7.8,6.5
		c-3.6,0-7.1,0-10.8,0c-6.6,0-13.1,0-19.7,0c0,0.3,0,0.7-0.2,1c-0.2,1.8-0.5,3.6-0.9,5.3c0,0.2,0,0.3,0,0.5c10.4,0,21,0,31.5,0
		c-0.2,1.1-0.4,2.2-0.7,3.3c-0.5,3.6-3.8,6.5-7.7,6.5c-8.4,0-16.6,0-25,0c0,0.2,0,0.3,0,0.5c-0.2,1-0.4,2-0.5,3
		c-0.2,1.1-0.4,2.1-0.5,3.2c0,0.1,0,0.1,0,0.1c6.6,0,13.1,0,19.7,0c5.7,0,11.5,0,17.3,0c-0.2,1.1-0.4,2.2-0.5,3.3
		c-0.7,3.6-4.2,6.5-7.8,6.5s-7.1,0-10.8,0c-6.6,0-13.1,0-19.7,0c-2.2,0-4.4,0-6.2,0c-2.4,0-4.6,0-6.6,0c-3.6,0-6.2-2.9-5.5-6.5
		C2207.5,151.8,2207.7,150.7,2207.9,149.6z"/>
</g>
<path d="M531.3,106.5l13.1-13.1l3.1,3.1c2.7,2.7,1.8,7.2-1.7,8.7l-11.9,5.1C531.5,111.3,529.5,108.3,531.3,106.5z"/>
<path d="M2028.9,106.5l13.1-13.1l3.1,3.1c2.7,2.7,1.8,7.2-1.7,8.7l-11.9,5.1C2029.1,111.3,2027,108.3,2028.9,106.5z"/>
<path d="M101.1,106.5l13.1-13.1l3.1,3.1c2.7,2.7,1.8,7.2-1.7,8.7l-11.9,5.1C101.3,111.3,99.2,108.3,101.1,106.5z"/>
</svg>
